<?xml version="1.0" encoding="utf-8"?>
<!-- Generator: Adobe Illustrator 16.0.0, SVG Export Plug-In . SVG Version: 6.00 Build 0)  -->
<!DOCTYPE svg PUBLIC "-//W3C//DTD SVG 1.1//EN" "http://www.w3.org/Graphics/SVG/1.1/DTD/svg11.dtd">
<svg version="1.1" id="Layer_1" xmlns="http://www.w3.org/2000/svg" xmlns:xlink="http://www.w3.org/1999/xlink" x="0px" y="0px"
	 width="396.85px" height="396.851px" viewBox="0 0 396.85 396.851" enable-background="new 0 0 396.85 396.851"
	 xml:space="preserve">
	<defs>
	    <clipPath id="circle-clip">
	        <circle stroke="#000000" stroke-miterlimit="10" cx="200" cy="200" r="175" />
	    </clipPath>
	</defs>
<g>
	<rect width="400" height="400" class="player-bg" fill="rgba(0,0,0,0)"/>
	<g>
		<defs>
			<path id="SVGID_11_" d="M-155.519,280.98l93.826,39.292c0,0,36.928,16.228,36.928,75.697h-388.729
				c0-59.47,36.928-75.697,36.928-75.697l91.682-38.394l65.322,56.416L-155.519,280.98z"/>
		</defs>
		<clipPath id="SVGID_2_">
			<use xlink:href="#SVGID_11_"  overflow="visible"/>
		</clipPath>
		<g clip-path="url(#SVGID_2_)">
			<rect x="-78.987" y="272.967" fill="#00405E" width="89.422" height="138.17"/>
		</g>
	</g>
</g>
<g>
	<rect x="146.489" y="205.854" fill="#E0C1A6" width="103.623" height="133.074"/>
	<path fill="#001970" d="M198.336,326.801c52.613,0,52.119-49.037,52.119-49.037l105.406,44.142c0,0,36.928,16.228,36.928,75.697
		H4.061c0-59.47,36.928-75.697,36.928-75.697l105.406-44.142c0,0-0.494,49.037,52.119,49.037"/>
	<polygon fill="#392F2C" points="147.77,250.112 126.373,271.154 137.071,264.259 130.616,277.874 149.361,263.021 	"/>
	<polygon fill="#392F2C" points="249.635,223.234 265.99,235.436 254.055,231.235 260.421,244.277 245.826,237.203 	"/>
	<path fill="#D4B69D" d="M150.072,233.756c0,0,22.154,35.974,47.594,35.974c25.438,0,46.179-35.974,46.179-35.974"/>
	<path fill="#E0C1A6" d="M261.033,160.813c0,0-4.481,54.662-12.996,67.106c-8.754,12.791-27.851,36.339-42.97,36.339h-15.118
		c-15.119,0-34.217-23.548-42.971-36.339c-8.516-12.444-12.996-67.106-12.996-67.106l-1.107-32.492l41.557-46.021l37.887,4.775
		l40.316,20.158l9.68,21.087L261.033,160.813z"/>
	<path fill="#E0C1A6" d="M260.512,166.465c0,0,2.555-10.291,5.562-9.835c7.865,1.193,4.244,47.331-4.244,47.685
		s-7.605-6.365-7.605-6.365l3.361-31.299L260.512,166.465z"/>
	<path fill="#E0C1A6" d="M134.676,166.465c0,0-2.555-10.291-5.559-9.835c-7.869,1.193-4.244,47.331,4.243,47.685
		s7.603-6.365,7.603-6.365l-3.358-31.299L134.676,166.465z"/>
	<path opacity="0.7" fill="#7B7371" d="M211.609,148.613c0,0,1.237-6.189,10.256-7.251c9.686-1.14,17.609-2.729,21.499,0.809
		c3.892,3.537,7.323,11.587,4.318,8.661c-3.007-2.926-5.483-5.496-10.964-5.313C231.237,145.701,211.785,150.912,211.609,148.613z"
		/>
	<path fill="#4B413E" d="M218.883,148.579c0,0,2.153-7.112,6.095-7.599c3.943-0.487,16.733-1.371,14.769-0.582
		c-1.967,0.788-3.66,4.169-5.855,4.979C231.693,146.188,218.883,148.579,218.883,148.579z"/>
	<path fill="#231F20" d="M212.318,162.76c0,0,0.242-0.376,0.766-0.959c0.25-0.302,0.594-0.629,0.973-1.024
		c0.407-0.361,0.838-0.813,1.389-1.204c0.27-0.203,0.551-0.416,0.841-0.636c0.308-0.197,0.625-0.401,0.951-0.611
		c0.644-0.438,1.397-0.778,2.161-1.153c0.805-0.277,1.605-0.676,2.495-0.834c0.438-0.099,0.877-0.221,1.324-0.299l1.364-0.144
		l0.683-0.062l0.685,0.028c0.455,0.021,0.908,0.042,1.357,0.063c0.894,0.083,1.752,0.328,2.589,0.479
		c0.815,0.244,1.577,0.565,2.304,0.834c0.726,0.277,1.34,0.694,1.941,0.996c0.597,0.313,1.135,0.612,1.555,0.97
		c0.434,0.33,0.812,0.617,1.125,0.854c0.611,0.48,0.961,0.755,0.961,0.755s-0.389-0.216-1.07-0.595
		c-0.336-0.192-0.742-0.427-1.209-0.695c-0.452-0.293-1.018-0.516-1.617-0.787c-0.609-0.247-1.23-0.606-1.951-0.818
		c-0.715-0.209-1.471-0.43-2.252-0.658c-0.803-0.116-1.623-0.295-2.465-0.373c-0.423-0.014-0.85-0.027-1.277-0.041l-0.644-0.021
		l-0.642,0.067l-1.282,0.115c-0.422,0.069-0.836,0.181-1.251,0.267c-0.838,0.142-1.613,0.473-2.389,0.71
		c-0.734,0.342-1.487,0.596-2.135,0.972c-0.331,0.178-0.652,0.351-0.963,0.519c-0.298,0.191-0.586,0.376-0.861,0.553
		c-0.559,0.348-1.029,0.728-1.475,1.029c-0.416,0.338-0.797,0.617-1.078,0.881C212.629,162.439,212.318,162.76,212.318,162.76z"/>
	<circle fill="#231F20" cx="225.05" cy="160.6" r="4.562"/>
	<path fill="#CCB097" d="M212.318,157.808c0,0,0.225-0.453,0.755-1.164c0.28-0.341,0.601-0.78,1.04-1.215
		c0.219-0.22,0.439-0.467,0.696-0.703c0.268-0.224,0.55-0.458,0.843-0.704c0.285-0.259,0.639-0.449,0.975-0.691
		c0.343-0.233,0.695-0.48,1.094-0.67c0.392-0.205,0.794-0.415,1.205-0.631c0.436-0.162,0.881-0.327,1.332-0.495
		c0.448-0.188,0.928-0.293,1.414-0.4c0.484-0.104,0.973-0.246,1.475-0.31c0.506-0.044,1.014-0.089,1.525-0.134l0.768-0.062
		l0.77,0.03c1.027,0.049,2.057,0.074,3.041,0.299c0.994,0.166,1.971,0.339,2.872,0.662c0.905,0.299,1.808,0.521,2.597,0.892
		c0.795,0.357,1.545,0.695,2.238,1.007c0.705,0.281,1.291,0.662,1.819,0.979c0.527,0.315,0.987,0.59,1.365,0.816
		c0.748,0.463,1.175,0.728,1.175,0.728s-0.461-0.202-1.268-0.556c-0.398-0.182-0.883-0.402-1.439-0.656
		c-0.556-0.248-1.17-0.556-1.881-0.795c-0.699-0.26-1.457-0.54-2.26-0.837c-0.796-0.311-1.691-0.454-2.576-0.728
		c-0.885-0.292-1.836-0.397-2.79-0.558c-0.952-0.208-1.934-0.215-2.912-0.254l-0.733-0.039l-0.729,0.053
		c-0.485,0.036-0.969,0.073-1.448,0.108c-0.477,0.059-0.938,0.181-1.402,0.26c-0.464,0.085-0.924,0.166-1.352,0.332
		c-0.438,0.14-0.866,0.277-1.286,0.412c-0.404,0.179-0.8,0.354-1.185,0.522c-0.396,0.154-0.746,0.367-1.09,0.569
		c-0.336,0.209-0.692,0.37-0.982,0.601c-0.604,0.427-1.159,0.82-1.613,1.222c-0.477,0.375-0.834,0.768-1.148,1.071
		C212.618,157.4,212.318,157.808,212.318,157.808z"/>
	<path fill="#CCB097" d="M211.609,168.418c0,0,1.101,0.672,2.752,1.682c0.821,0.5,1.78,1.084,2.807,1.709
		c1.028,0.621,2.127,1.275,3.238,1.904c1.103,0.645,2.229,1.241,3.285,1.803c0.535,0.268,1.051,0.527,1.541,0.772
		c0.496,0.233,0.967,0.453,1.399,0.657c0.442,0.178,0.846,0.355,1.204,0.515c0.355,0.169,0.682,0.263,0.944,0.364
		c0.528,0.193,0.831,0.319,0.831,0.319s-0.32-0.038-0.881-0.132c-0.279-0.054-0.627-0.092-1.008-0.197
		c-0.385-0.093-0.82-0.198-1.291-0.332c-0.932-0.291-2.005-0.68-3.121-1.173c-1.113-0.495-2.27-1.092-3.4-1.729
		c-1.119-0.658-2.225-1.335-3.219-2.034c-1.002-0.685-1.902-1.374-2.66-1.98c-0.758-0.608-1.355-1.156-1.778-1.532
		C211.834,168.652,211.609,168.418,211.609,168.418z"/>
	<path opacity="0.7" fill="#7B7371" d="M187.29,148.613c0,0-1.239-6.189-10.257-7.251c-9.684-1.14-17.608-2.729-21.5,0.809
		c-3.89,3.537-7.323,11.587-4.316,8.661c3.005-2.926,5.48-5.496,10.962-5.313S187.113,150.912,187.29,148.613z"/>
	<path fill="#4B413E" d="M180.017,148.579c0,0-2.153-7.112-6.097-7.599c-3.941-0.487-16.732-1.371-14.767-0.582
		c1.964,0.788,3.659,4.169,5.856,4.979C167.206,146.188,180.017,148.579,180.017,148.579z"/>
	<path fill="#231F20" d="M186.581,162.76c0,0-0.312-0.32-0.901-0.822c-0.283-0.264-0.663-0.543-1.078-0.881
		c-0.447-0.302-0.916-0.682-1.476-1.029c-0.276-0.177-0.563-0.361-0.86-0.553c-0.312-0.168-0.633-0.341-0.963-0.519
		c-0.648-0.376-1.401-0.63-2.135-0.972c-0.776-0.237-1.551-0.568-2.391-0.71c-0.414-0.086-0.828-0.197-1.25-0.267l-1.283-0.115
		l-0.641-0.067l-0.643,0.021c-0.429,0.014-0.855,0.027-1.279,0.041c-0.841,0.078-1.662,0.257-2.464,0.373
		c-0.781,0.229-1.536,0.449-2.253,0.658c-0.719,0.212-1.341,0.571-1.949,0.818c-0.6,0.271-1.166,0.494-1.617,0.787
		c-0.467,0.269-0.874,0.503-1.209,0.695c-0.682,0.379-1.072,0.595-1.072,0.595s0.35-0.274,0.963-0.755
		c0.311-0.236,0.689-0.523,1.124-0.854c0.419-0.357,0.958-0.656,1.556-0.97c0.601-0.302,1.215-0.719,1.939-0.996
		c0.729-0.269,1.49-0.59,2.305-0.834c0.838-0.151,1.695-0.396,2.59-0.479c0.449-0.021,0.902-0.042,1.357-0.063l0.684-0.028
		l0.684,0.062l1.363,0.144c0.447,0.078,0.886,0.2,1.324,0.299c0.891,0.158,1.691,0.557,2.495,0.834
		c0.764,0.375,1.519,0.715,2.161,1.153c0.326,0.21,0.645,0.414,0.951,0.611c0.291,0.22,0.57,0.433,0.84,0.636
		c0.552,0.391,0.982,0.843,1.39,1.204c0.378,0.396,0.722,0.723,0.974,1.024C186.338,162.384,186.581,162.76,186.581,162.76z"/>
	<circle fill="#231F20" cx="173.85" cy="160.6" r="4.561"/>
	<path fill="#CCB097" d="M186.581,159.93c0,0-0.3-0.407-0.903-1.039c-0.312-0.305-0.671-0.695-1.147-1.072
		c-0.454-0.4-1.011-0.794-1.614-1.221c-0.289-0.23-0.646-0.392-0.982-0.601c-0.344-0.202-0.693-0.415-1.089-0.569
		c-0.386-0.17-0.78-0.344-1.185-0.521c-0.42-0.135-0.85-0.273-1.287-0.413c-0.428-0.165-0.887-0.247-1.352-0.332
		c-0.464-0.079-0.926-0.2-1.402-0.26c-0.479-0.036-0.963-0.072-1.448-0.108l-0.729-0.053l-0.733,0.039
		c-0.979,0.039-1.961,0.046-2.913,0.254c-0.954,0.16-1.905,0.266-2.79,0.559c-0.885,0.271-1.78,0.416-2.576,0.727
		c-0.802,0.297-1.56,0.577-2.261,0.836c-0.71,0.24-1.324,0.548-1.881,0.797c-0.555,0.252-1.039,0.473-1.438,0.654
		c-0.808,0.354-1.269,0.557-1.269,0.557s0.428-0.265,1.176-0.727c0.379-0.228,0.838-0.502,1.365-0.818
		c0.528-0.314,1.114-0.696,1.82-0.978c0.692-0.312,1.443-0.649,2.236-1.007c0.791-0.371,1.692-0.593,2.598-0.892
		c0.902-0.323,1.879-0.495,2.873-0.662c0.984-0.225,2.014-0.25,3.041-0.299l0.77-0.03l0.768,0.062
		c0.512,0.045,1.021,0.09,1.525,0.134c0.502,0.063,0.99,0.206,1.475,0.31c0.486,0.107,0.966,0.211,1.414,0.4
		c0.452,0.168,0.896,0.334,1.332,0.495c0.411,0.216,0.813,0.427,1.205,0.632c0.398,0.189,0.752,0.436,1.094,0.67
		c0.336,0.241,0.689,0.432,0.975,0.691c0.294,0.245,0.576,0.479,0.844,0.703c0.256,0.236,0.477,0.484,0.695,0.703
		c0.439,0.436,0.761,0.874,1.041,1.215C186.357,159.477,186.581,159.93,186.581,159.93z"/>
	<path fill="#CCB097" d="M187.29,168.418c0,0-0.225,0.234-0.644,0.616c-0.424,0.376-1.021,0.924-1.778,1.531
		s-1.657,1.296-2.661,1.98c-0.992,0.7-2.1,1.376-3.218,2.034c-1.131,0.637-2.286,1.233-3.401,1.729
		c-1.115,0.494-2.189,0.882-3.12,1.174c-0.471,0.134-0.907,0.239-1.292,0.332c-0.381,0.105-0.729,0.144-1.006,0.197
		c-0.561,0.094-0.881,0.132-0.881,0.132s0.302-0.126,0.83-0.319c0.264-0.102,0.59-0.195,0.945-0.364
		c0.357-0.159,0.76-0.337,1.203-0.516c0.434-0.203,0.902-0.423,1.399-0.656c0.489-0.246,1.007-0.505,1.54-0.772
		c1.057-0.562,2.184-1.158,3.286-1.803c1.111-0.63,2.21-1.283,3.237-1.904c1.027-0.625,1.986-1.209,2.809-1.71
		C186.189,169.09,187.29,168.418,187.29,168.418z"/>
	<path fill="#CCB097" d="M183.142,150.205c0,0,0.564,0.083,1.579,0.426c1.002,0.354,2.494,0.948,4.086,2.228
		c1.582,1.256,3.194,3.354,3.891,6.18c0.375,1.399,0.468,2.945,0.412,4.557c-0.118,1.604-0.379,3.281-0.809,4.947
		c-0.836,3.382-2.122,6.895-3.664,10.507c-1.505,3.614-3.327,7.35-4.775,11.201c-0.346,0.959-0.647,1.936-0.809,2.857
		c-0.17,0.913-0.049,1.77,0.18,1.893c0.074,0.046,0.118,0.111,0.258,0.15l0.085,0.041l0.021,0.012
		c-0.065-0.021,0.012,0.002,0.008,0.001c-0.02-0.011-0.042-0.019-0.064-0.022c-0.024-0.008,0.036,0,0.081-0.009
		c0.2-0.009,0.528-0.14,0.842-0.357l0.364-0.243l0.176-0.109l0.045-0.027l0.104-0.053l0.213-0.097
		c0.588-0.247,1.018-0.261,1.503-0.242c0.925,0.079,1.655,0.434,2.257,0.85c0.605,0.423,1.112,0.924,1.544,1.509
		c0.104,0.151,0.208,0.302,0.304,0.463l0.139,0.248l0.035,0.062c0.076,0.137-0.066-0.115-0.041-0.074l0.059,0.087
		c0.152,0.218,0.322,0.519,0.449,0.606c0.147,0.139,0.229,0.264,0.414,0.431l0.551,0.5c0.385,0.315,0.791,0.626,1.207,0.902
		c0.434,0.244,0.846,0.555,1.303,0.727l0.668,0.308c0.225,0.085,0.454,0.133,0.68,0.203c0.454,0.176,0.899,0.19,1.342,0.237
		c0.113,0.011,0.214,0.029,0.34,0.037l0.424-0.002l0.852-0.003l0.85,0.002l0.426,0.001c0.152-0.007-0.15,0.01-0.1,0.006l0.053-0.006
		l0.105-0.011l0.212-0.021l0.846-0.086c0.157-0.006,0.256-0.042,0.349-0.078l0.293-0.098c0.199-0.069,0.387-0.103,0.601-0.185
		l0.669-0.307c0.456-0.173,0.867-0.483,1.302-0.728c0.817-0.56,1.655-1.215,2.237-1.917c0.189-0.185,0.222-0.306,0.336-0.441
		l0.037-0.05l0.076-0.135l0.104-0.184c0.082-0.14,0.217-0.347,0.326-0.5c0.432-0.586,0.939-1.086,1.545-1.508
		c0.602-0.416,1.334-0.77,2.258-0.849c0.46-0.029,0.974,0.021,1.445,0.22c0.244,0.085,0.453,0.218,0.662,0.354l0.311,0.204
		c0.286,0.204,0.311,0.168,0.449,0.249c0.145,0.053,0.281,0.095,0.379,0.099c0.051,0.009,0.09,0.004,0.094,0.008
		c-0.006,0-0.01,0.002-0.016,0.006c-0.074,0.025,0.029-0.02-0.186,0.07l0.047-0.021l0.188-0.083c0.375-0.155,0.174-0.128,0.258-0.15
		c0.227-0.121,0.348-0.978,0.177-1.89c-0.16-0.922-0.462-1.898-0.808-2.857c-1.447-3.852-3.273-7.585-4.777-11.201
		c-1.539-3.609-2.831-7.13-3.662-10.5c-0.208-0.857-0.397-1.635-0.529-2.531c-0.092-0.817-0.257-1.569-0.277-2.389
		c-0.062-1.654,0.036-3.193,0.41-4.592c0.697-2.826,2.311-4.925,3.893-6.18c1.593-1.279,3.086-1.873,4.088-2.227
		c1.015-0.343,1.579-0.426,1.579-0.426s-0.555,0.14-1.519,0.577c-0.957,0.438-2.338,1.194-3.754,2.522
		c-1.406,1.322-2.695,3.378-3.165,5.978c-0.257,1.295-0.239,2.724-0.095,4.158c0.066,0.728,0.274,1.532,0.408,2.325
		c0.141,0.707,0.384,1.543,0.622,2.325c0.979,3.191,2.411,6.542,4.047,10.046c1.624,3.523,3.586,7.104,5.206,11.189
		c0.396,1.03,0.768,2.1,1.008,3.301c0.1,0.616,0.201,1.243,0.129,1.99c-0.057,0.71-0.283,1.622-0.97,2.318
		c-0.313,0.344-0.948,0.729-1.089,0.766l-0.188,0.088l-0.046,0.021c-0.247,0.102-0.179,0.064-0.284,0.1l-0.218,0.047
		c-0.269,0.044-0.503,0.053-0.728,0.039c-0.455-0.021-0.852-0.127-1.229-0.259c-0.363-0.14-0.853-0.394-1.016-0.516l-0.384-0.249
		c-0.026-0.01-0.046-0.036-0.069-0.034c-0.038-0.023-0.094-0.022-0.186-0.02c-0.186,0.017-0.51,0.127-0.816,0.354
		c-0.309,0.218-0.605,0.514-0.836,0.831l-0.135,0.203l-0.101,0.185c-0.007,0.011-0.056,0.106-0.028,0.047l-0.078,0.126
		c-0.207,0.324-0.438,0.706-0.652,0.918c-0.857,1.032-1.816,1.777-2.85,2.5c-0.543,0.32-1.047,0.691-1.646,0.938l-0.873,0.403
		c-0.312,0.124-0.679,0.219-1.02,0.32c-0.328,0.082-0.737,0.228-1.001,0.242l-0.845,0.093l-0.211,0.022l-0.105,0.012l-0.054,0.006
		l-0.204,0.011l-0.426,0.001l-0.85,0.002l-0.852-0.003l-0.424-0.002l-0.507-0.045c-0.688-0.063-1.376-0.132-1.991-0.36
		c-0.314-0.098-0.641-0.181-0.941-0.299l-0.874-0.403c-0.6-0.247-1.104-0.617-1.646-0.938c-0.52-0.351-1.011-0.731-1.491-1.134
		l-0.695-0.641c-0.23-0.213-0.494-0.538-0.729-0.81c-0.275-0.309-0.372-0.51-0.54-0.752l-0.058-0.088l-0.111-0.194l-0.065-0.119
		l-0.155-0.241c-0.23-0.318-0.527-0.615-0.836-0.833c-0.307-0.227-0.631-0.338-0.816-0.354c-0.066-0.013-0.205,0.021-0.127-0.004
		c0.008-0.005,0.014-0.013,0.02-0.021l0.007-0.014l-0.044,0.027l-0.178,0.108l-0.043,0.026c0.197-0.136,0.021-0.016,0.051-0.036
		l-0.112,0.074l-0.226,0.146c-0.607,0.38-1.324,0.718-2.229,0.767c-0.23,0.012-0.445,0.007-0.741-0.041l-0.267-0.062l-0.091-0.029
		l-0.073-0.031l-0.289-0.13c-0.377-0.151-0.766-0.444-1.089-0.765c-0.687-0.694-0.912-1.605-0.97-2.315
		c-0.072-0.746,0.029-1.374,0.129-1.989c0.24-1.201,0.61-2.271,1.007-3.301c1.618-4.085,3.584-7.664,5.206-11.188
		c1.634-3.503,3.07-6.86,4.044-10.042c0.513-1.603,0.813-3.15,1.029-4.621c0.15-1.479,0.164-2.9-0.092-4.194
		c-0.47-2.601-1.759-4.656-3.167-5.979c-1.416-1.327-2.796-2.083-3.753-2.521C183.696,150.344,183.142,150.205,183.142,150.205z"/>
	<path fill="#E9CFC4" d="M174.432,213.862c0,0,17.904-1.724,25.994,0.929c0,0,10.258-2.785,18.457-2.255s11.914-2.388,11.914-2.388
		S209.975,223.544,174.432,213.862z"/>
	<path fill="#F4E6E1" d="M175.228,214.791c0,0,11.586,10.211,26.216,10.211c14.632,0,22.986-11.239,22.986-11.239
		S207.588,222.35,175.228,214.791z"/>
	<path fill="#CCB097" d="M170.719,202.634c0,0-0.244,0.142-0.645,0.416c-0.41,0.257-0.955,0.685-1.58,1.211
		c-0.309,0.269-0.637,0.562-0.957,0.897c-0.344,0.312-0.628,0.712-0.965,1.08c-0.283,0.411-0.613,0.812-0.854,1.271l-0.383,0.684
		c-0.107,0.238-0.193,0.488-0.291,0.73c-0.238,0.474-0.312,1-0.453,1.498c-0.113,0.504-0.131,1.02-0.203,1.512
		c-0.013,0.496,0.02,0.981,0.019,1.444c0.005,0.463,0.122,0.892,0.161,1.299c0.061,0.403,0.095,0.783,0.195,1.103
		c0.082,0.327,0.154,0.611,0.214,0.846c0.116,0.473,0.171,0.752,0.171,0.752s-0.136-0.242-0.353-0.683
		c-0.107-0.222-0.237-0.492-0.388-0.802c-0.17-0.304-0.283-0.676-0.398-1.086c-0.106-0.412-0.291-0.848-0.344-1.339
		c-0.053-0.489-0.146-1.009-0.157-1.551c0.047-0.54,0.011-1.113,0.134-1.675c0.142-0.558,0.219-1.146,0.471-1.679
		c0.114-0.27,0.219-0.544,0.344-0.806l0.438-0.749c0.273-0.507,0.678-0.912,1.008-1.339c0.382-0.384,0.738-0.768,1.135-1.062
		c0.371-0.323,0.76-0.578,1.119-0.808c0.721-0.457,1.374-0.737,1.829-0.922C170.442,202.693,170.719,202.634,170.719,202.634z"/>
	<path fill="#CCB097" d="M230.218,200.865c0,0,0.3,0.078,0.794,0.304c0.251,0.104,0.538,0.263,0.877,0.436
		c0.325,0.192,0.709,0.394,1.082,0.679c0.385,0.27,0.79,0.581,1.179,0.961c0.418,0.348,0.772,0.807,1.163,1.256
		c0.322,0.502,0.732,0.979,0.974,1.568c0.13,0.288,0.292,0.566,0.397,0.869l0.288,0.921c0.202,0.614,0.201,1.271,0.306,1.892
		c0.005,0.629-0.041,1.251-0.082,1.844c-0.115,0.584-0.245,1.145-0.366,1.671c-0.155,0.517-0.372,0.982-0.541,1.417
		c-0.089,0.217-0.174,0.423-0.255,0.619c-0.098,0.189-0.21,0.359-0.305,0.523c-0.193,0.323-0.363,0.605-0.502,0.838
		c-0.281,0.461-0.451,0.715-0.451,0.715s0.094-0.298,0.277-0.802c0.093-0.249,0.205-0.553,0.335-0.901
		c0.146-0.34,0.254-0.742,0.358-1.183c0.104-0.439,0.251-0.905,0.357-1.403c0.064-0.509,0.13-1.04,0.217-1.586
		c-0.002-0.547-0.004-1.113-0.006-1.688c-0.111-0.561-0.114-1.152-0.309-1.7l-0.242-0.833c-0.09-0.274-0.233-0.527-0.346-0.79
		c-0.209-0.535-0.543-0.996-0.815-1.475c-0.345-0.426-0.623-0.892-0.985-1.252c-0.336-0.386-0.676-0.731-1.006-1.037
		c-0.662-0.609-1.252-1.094-1.695-1.39C230.482,201.025,230.218,200.865,230.218,200.865z"/>
	<path fill="#CCB097" d="M237.957,117.977c0,0-1.217-0.51-3.39-1.279c-2.169-0.778-5.31-1.775-9.136-2.721
		c-0.957-0.237-1.955-0.472-2.998-0.67c-1.037-0.229-2.119-0.399-3.232-0.573c-1.109-0.206-2.266-0.272-3.436-0.421
		c-1.177-0.066-2.379-0.184-3.601-0.189c-1.222,0.004-2.466-0.011-3.712,0.139c-1.258,0.055-2.492,0.343-3.747,0.562
		c-2.534,0.557-5.132,1.178-7.86,1.275c-2.672-0.09-5.362-0.723-7.842-1.27c-1.275-0.226-2.547-0.518-3.779-0.568
		c-1.231-0.148-2.478-0.134-3.699-0.138c-1.223,0.004-2.424,0.124-3.601,0.19c-1.171,0.148-2.327,0.215-3.436,0.421
		c-1.112,0.173-2.196,0.345-3.232,0.573c-1.043,0.197-2.042,0.432-2.997,0.67c-3.826,0.945-6.969,1.941-9.137,2.719
		c-2.174,0.77-3.391,1.279-3.391,1.279s1.181-0.59,3.321-1.461c2.144-0.854,5.231-2.043,9.063-3.082
		c0.957-0.266,1.957-0.527,3.004-0.754c1.04-0.258,2.129-0.459,3.25-0.664c1.115-0.237,2.287-0.337,3.472-0.518
		c1.193-0.109,2.417-0.219,3.665-0.242c2.479-0.073,5.15,0.139,7.663,0.656c2.585,0.544,5.063,1.109,7.675,1.188
		c2.551-0.069,5.123-0.646,7.653-1.184c1.302-0.219,2.587-0.502,3.878-0.549c1.285-0.143,2.556-0.117,3.806-0.11
		c1.247,0.021,2.472,0.134,3.665,0.243c1.184,0.181,2.355,0.28,3.471,0.518c1.121,0.204,2.211,0.405,3.25,0.663
		c1.047,0.228,2.047,0.489,3.004,0.754c3.831,1.04,6.92,2.228,9.064,3.081C236.776,117.387,237.957,117.977,237.957,117.977z"/>
	<path fill="#CCB097" d="M163.938,122.884c0,0,0.812-0.162,2.26-0.317c0.723-0.098,1.602-0.167,2.611-0.228
		c1.01-0.052,2.152-0.188,3.398-0.171c1.246-0.008,2.596-0.017,4.025-0.025c1.43-0.031,2.932,0.091,4.488,0.167
		c1.554,0.106,3.168,0.135,4.793,0.314c1.627,0.172,3.279,0.347,4.932,0.521c1.65,0.201,3.305,0.363,4.912,0.67
		c1.611,0.272,3.198,0.541,4.733,0.801c1.536,0.255,3.018,0.519,4.417,0.796c1.389,0.324,2.702,0.632,3.915,0.915
		c2.426,0.561,4.433,1.087,5.843,1.428c1.404,0.361,2.207,0.567,2.207,0.567s-0.818-0.138-2.25-0.378
		c-1.428-0.262-3.475-0.594-5.912-1.065c-1.219-0.232-2.541-0.483-3.938-0.75c-1.406-0.209-2.891-0.43-4.425-0.657
		c-1.532-0.238-3.116-0.483-4.725-0.732c-1.604-0.285-3.253-0.42-4.896-0.602c-1.643-0.196-3.283-0.393-4.899-0.586
		c-1.615-0.2-3.217-0.249-4.761-0.377c-1.547-0.078-3.038-0.281-4.457-0.306c-1.42-0.05-2.763-0.097-4.002-0.14
		c-1.24-0.056-2.375-0.001-3.385-0.02c-1.01-0.008-1.889,0.002-2.609,0.051c-0.723,0.042-1.295,0.04-1.682,0.077
		C164.145,122.867,163.938,122.884,163.938,122.884z"/>
	<path fill="#392F2C" d="M199.199,229.194l-4.327,0.248c0,0,3.749,4.303,7.763,4.073l0.97-0.057
		c4.015-0.229,7.247-4.932,7.247-4.932l-7.504,0.429L199.199,229.194z"/>
	<path fill="#392F2C" d="M198.734,96.094c21.131-12.378,52.783,28.47,57.559,35.721c4.773,7.25,4.069,41.466,4.069,41.466
		s18.563-37.753,1.235-65.339c-17.254-27.461-49.865-50.219-62.863-38.194h-1.89c-12.997-12.024-45.611,10.733-62.862,38.194
		c-17.33,27.586,1.232,65.339,1.232,65.339s-0.702-34.216,4.072-41.466c4.774-7.251,36.426-48.099,57.558-35.721H198.734z"/>
	<path opacity="0.15" fill="#F5CFB2" d="M245.385,202.634c5.486,6.304,12.05-29.431,4.799-29.354
		c-3.28,0.034-36.629,2.3-37.158,4.863C212.494,180.707,243.845,200.865,245.385,202.634z"/>
	<path opacity="0.15" fill="#F5CFB2" d="M152.061,202.634c-5.488,6.304-12.051-29.431-4.799-29.354
		c3.279,0.034,36.628,2.3,37.158,4.863C184.951,180.707,153.6,200.865,152.061,202.634z"/>
	<path fill="#E0C1A6" d="M183.142,150.205c0,0,11.847,2.474,8.84,16.091c-3.005,13.616-14.499,28.293-8.84,30.237
		c0,0,0.972,0.354,2.388-0.707c1.414-1.061,3.535,0.441,4.33,2.033c0.672,1.342,4.42,4.774,8.223,4.774h2.613
		c3.803,0,7.551-3.433,8.223-4.774c0.795-1.592,2.918-3.094,4.332-2.033c1.416,1.062,2.388,0.707,2.388,0.707
		c5.659-1.944-5.835-16.621-8.842-30.237c-3.005-13.617,8.842-16.091,8.842-16.091"/>
	<path fill="#CCB097" d="M211.609,122.43c0,0,0.491-0.209,1.387-0.474c0.447-0.138,0.996-0.274,1.627-0.438
		c0.636-0.137,1.351-0.323,2.146-0.427c0.791-0.141,1.654-0.241,2.571-0.334c0.915-0.106,1.889-0.133,2.894-0.17
		c1.006,0.042,2.051-0.02,3.104,0.11c0.527,0.05,1.059,0.099,1.592,0.148c0.533,0.054,1.061,0.165,1.592,0.245
		c0.529,0.101,1.064,0.169,1.585,0.298c0.519,0.133,1.036,0.266,1.55,0.397c1.039,0.222,2.002,0.637,2.955,0.965
		c0.965,0.3,1.82,0.785,2.654,1.174c0.412,0.207,0.825,0.385,1.201,0.6c0.371,0.225,0.729,0.442,1.072,0.651
		c0.684,0.424,1.326,0.783,1.842,1.185c0.512,0.402,0.958,0.752,1.326,1.041c0.725,0.585,1.138,0.919,1.138,0.919
		s-0.455-0.276-1.251-0.761c-0.393-0.246-0.869-0.544-1.415-0.887c-0.548-0.336-1.222-0.622-1.912-1.005
		c-0.35-0.183-0.714-0.373-1.091-0.57c-0.382-0.187-0.799-0.334-1.215-0.51c-0.842-0.328-1.701-0.737-2.648-1.009
		c-0.938-0.296-1.891-0.645-2.902-0.859c-0.5-0.122-1.005-0.246-1.512-0.371c-0.507-0.119-1.029-0.178-1.545-0.272
		c-0.516-0.083-1.029-0.198-1.547-0.256c-0.52-0.055-1.037-0.108-1.551-0.161c-1.023-0.133-2.043-0.126-3.025-0.194
		c-0.984,0.018-1.939-0.032-2.842,0.017c-0.904,0.033-1.761,0.077-2.547,0.165c-1.576,0.147-2.889,0.323-3.801,0.497
		C212.127,122.304,211.609,122.43,211.609,122.43z"/>
	<g>
		<g>
			<rect x="161.184" y="324.492" fill="#FFFFFF" width="5" height="71.564"/>
		</g>
		<g>
			<rect x="165.127" y="324.492" fill="#E53543" width="5" height="71.564"/>
		</g>
		<g>
			<rect x="231.689" y="321.651" fill="#FFFFFF" width="5" height="74.405"/>
		</g>
		<g>
			<rect x="227.745" y="324.492" fill="#E53543" width="5" height="71.564"/>
		</g>
	</g>
	<path fill="#42408C" d="M250.715,278.212c0,0,0.494,49.037-52.119,49.037c-52.615,0-52.121-49.037-52.121-49.037l-10.455,4.176
		c3.281,31.87,30.21,56.729,62.948,56.729c32.568,0,59.38-24.606,62.886-56.24L250.715,278.212z"/>
</g>
</svg>
