<?xml version="1.0" encoding="utf-8"?>
<!-- Generator: Adobe Illustrator 16.0.0, SVG Export Plug-In . SVG Version: 6.00 Build 0)  -->
<!DOCTYPE svg PUBLIC "-//W3C//DTD SVG 1.1//EN" "http://www.w3.org/Graphics/SVG/1.1/DTD/svg11.dtd">
<svg version="1.1" id="Layer_1" xmlns="http://www.w3.org/2000/svg" xmlns:xlink="http://www.w3.org/1999/xlink" x="0px" y="0px"
	 width="396.85px" height="396.851px" viewBox="0 0 396.85 396.851" enable-background="new 0 0 396.85 396.851"
	 xml:space="preserve">
	<defs>
	    <clipPath id="circle-clip">
	        <circle stroke="#000000" stroke-miterlimit="10" cx="200" cy="200" r="175" />
	    </clipPath>
	</defs>
<g>
	<rect width="400" height="400" class="player-bg" fill="rgba(0,0,0,0)"/>	<g>
		<path fill="#584545" d="M294.308,196.723c0,0,20.064,12.398,4.752,34.716c0,0,3.168-12.258-4.752-12.923
			s-9.504,7.783-3.168,15.176c-2.502-2.908,26.395,19.871,13.68,29.569c-13.152,10.032-27.836-8.448-17.59-15.312
			c0,0-7.707-2.641-12.986,3.168c0,0,17.952,25.873-16.897,25.873h-16.369l-4.224-68.644l10.032-58.611l22.519,4.62L294.308,196.723
			z"/>
	</g>
	<g>
		<path fill="#584545" d="M138.539,276.989c-34.85,0-16.896-25.873-16.896-25.873c-5.28-5.809-12.987-3.168-12.987-3.168
			c10.246,6.864-4.438,25.345-17.591,15.312c-12.715-9.698,16.184-32.478,13.682-29.569c6.336-7.393,4.752-15.841-3.169-15.176
			s-4.752,12.923-4.752,12.923c-15.313-22.317,4.752-34.716,4.752-34.716l14.785-25.999l24.617-35.546l8.384,9.541l2.377,62.703
			l-2.377,47.919v21.648H138.539z"/>
	</g>
	<g>
		<rect x="145.104" y="209.564" fill="#E0C1A6" width="103.993" height="131.87"/>
	</g>
	<g>
		<path fill="#001970" d="M197.336,324.572c52.612,0,52.118-49.037,52.118-49.037l105.407,44.142c0,0,36.928,16.228,36.928,75.697
			H3.061c0-59.47,36.928-75.697,36.928-75.697l105.406-44.142c0,0-0.494,49.037,52.119,49.037"/>
	</g>
	<g>
		<path fill="#CCB097" d="M154.238,231.438c0,0,21.956,47.663,41.146,47.663s45.592-48.051,45.592-48.051L154.238,231.438z"/>
	</g>
	<g>
		<g>
			<g>
				<rect x="159.672" y="324.286" fill="#FFFFFF" width="5" height="71.564"/>
			</g>
		</g>
		<g>
			<g>
				<rect x="163.615" y="324.286" fill="#E53543" width="5" height="71.564"/>
			</g>
		</g>
		<g>
			<g>
				<rect x="230.178" y="321.445" fill="#FFFFFF" width="5" height="74.405"/>
			</g>
		</g>
		<g>
			<g>
				<rect x="226.233" y="324.286" fill="#E53543" width="5" height="71.564"/>
			</g>
		</g>
	</g>
	<g>
		<path fill="#42408C" d="M249.203,276.006c0,0,0.494,49.037-52.119,49.037c-52.615,0-52.121-49.037-52.121-49.037l-10.455,4.176
			c3.281,31.87,30.21,56.729,62.948,56.729c32.568,0,59.38-24.606,62.886-56.24L249.203,276.006z"/>
	</g>
	<g>
		<path fill="#E0C1A6" d="M254.771,140.23c0,0,2.111,66.003-7.393,82.372c-7.336,12.635-23.35,35.125-47.566,36.852h-3.673
			c-24.217-1.727-40.23-24.217-47.566-36.852c-9.505-16.369-7.393-82.372-7.393-82.372l10.561-41.192l47.423-25.867l41.813,16.356
			l16.369,29.582L254.771,140.23"/>
	</g>
	<g>
		<path fill="#453635" d="M254.905,151.847c0,39.863,46.267,55.971,56.827,36.962c0,0-12.673,3.168-18.481-6.864
			c0,0,13.729-35.378-6.863-61.251c-20.594-25.874-15.313-27.985-16.369-33.794c-1.057-5.809-6.336-16.369-19.01-16.896
			c-12.672-0.528-20.064-20.065-38.018-20.065c-7.781,0-14.785,6.336-14.785,6.336c-2.821-7.399-15.312-6.336-15.312-6.336
			c-17.953,0-25.345,19.537-38.019,20.065c-12.672,0.527-17.952,11.088-19.008,16.896c-1.057,5.809,4.224,7.92-16.369,33.794
			c-20.594,25.873-6.865,61.251-6.865,61.251c-5.808,10.032-18.48,6.864-18.48,6.864c10.561,19.009,52.275,2.641,56.827-36.962
			c0,0,10.767-11.857,13.753-30.273c2.111-13.024,20.406-41.186,40.652-41.186h4.758C200.143,80.388,254.905,76.515,254.905,151.847
			z"/>
	</g>
	<g>
		<path fill="#453635" d="M113.48,108.947l-0.604-0.797c0.68-0.514,0.841-2.532,0.996-4.484c0.271-3.38,0.577-7.211,3.369-8.258
			c4.057-1.521,8.053-6.159,8.093-6.206l0.76,0.65c-0.169,0.198-4.205,4.881-8.501,6.491c-2.197,0.824-2.477,4.319-2.723,7.402
			C114.682,106.116,114.518,108.163,113.48,108.947z"/>
	</g>
	<g>
		<path fill="#584545" d="M83.799,244.077c-3.586-3.587-5.137-7.397-4.607-11.325c1.141-8.469,11.441-14.422,11.879-14.671
			l0.494,0.869c-0.103,0.059-10.31,5.961-11.383,13.938c-0.484,3.603,0.971,7.129,4.324,10.482L83.799,244.077z"/>
	</g>
	<g>
		<path fill="#584545" d="M94.327,249.851c-11.866-14.37,3.513-37.331,3.669-37.562l0.826,0.562
			c-0.152,0.225-15.111,22.571-3.724,36.362L94.327,249.851z"/>
	</g>
	<g>
		<path fill="#453635" d="M314.931,146.076c-0.482-6.269-7.525-8.038-14.982-9.91c-8.306-2.086-16.894-4.242-17.739-12.787
			c-1.405-14.19-2.998-30.275-8.224-33.423c-1.332-0.802-3.372-0.584-5.736-0.334c-6.338,0.676-15.021,1.597-19.311-16.335
			c-5.628-23.538-24.862-20.694-25.68-20.564l-0.162-0.986c0.211-0.031,20.966-3.141,26.814,21.318
			c4.084,17.076,11.93,16.242,18.232,15.573c2.542-0.271,4.738-0.505,6.357,0.471c5.25,3.163,6.919,16.163,8.703,34.183
			c0.776,7.844,9.018,9.913,16.987,11.915c7.815,1.963,15.198,3.816,15.735,10.804L314.931,146.076z"/>
	</g>
	<g>
		<path fill="#453635" d="M312.189,204.853l-0.914-0.406c0.761-1.712,0.745-3.194-0.05-4.533
			c-2.865-4.825-14.727-5.844-14.847-5.854l0.081-0.996c0.509,0.041,12.496,1.07,15.625,6.339
			C313.044,201.018,313.079,202.851,312.189,204.853z"/>
	</g>
	<g>
		<path fill="#453635" d="M188.702,145.927c0,0-20.593-18.481-39.339,1.848c0,0,10.561-4.488,18.746-4.488
			C179.461,143.286,188.702,145.927,188.702,145.927z"/>
	</g>
	<g>
		<path fill="#512C1D" d="M155.172,154.375c0,0,0.303-0.417,0.92-1.073c0.629-0.643,1.537-1.57,2.798-2.482
			c1.251-0.918,2.81-1.889,4.638-2.612c0.92-0.338,1.884-0.679,2.906-0.86c1.014-0.211,2.068-0.32,3.123-0.326
			c1.056-0.007,2.11,0.107,3.128,0.306c1.021,0.187,1.99,0.515,2.909,0.86c0.912,0.369,1.759,0.797,2.526,1.259
			c0.765,0.462,1.472,0.928,2.085,1.402c0.621,0.468,1.172,0.916,1.621,1.358c0.463,0.427,0.864,0.796,1.166,1.132
			c0.609,0.66,0.957,1.037,0.957,1.037s-0.396-0.325-1.09-0.894c-0.68-0.578-1.708-1.34-2.977-2.173
			c-0.629-0.423-1.346-0.828-2.113-1.224c-0.771-0.396-1.611-0.741-2.486-1.074c-0.885-0.306-1.816-0.561-2.778-0.736
			c-0.961-0.176-1.952-0.27-2.944-0.255c-3.994-0.017-7.818,1.627-10.354,3.263c-1.281,0.815-2.303,1.581-2.982,2.16
			C155.54,154.016,155.172,154.375,155.172,154.375z"/>
	</g>
	<g>
		<circle fill="#512C1D" cx="169.561" cy="151.361" r="4.247"/>
	</g>
	<g>
		<path fill="#CCB097" d="M185.007,160.823c0,0-0.105,0.304-0.345,0.812c-0.24,0.508-0.592,1.23-1.086,2.062
			c-0.502,0.822-1.122,1.771-1.891,2.708c-0.377,0.476-0.783,0.955-1.23,1.412c-0.424,0.478-0.924,0.898-1.393,1.35
			c-0.492,0.425-1.021,0.812-1.529,1.202c-0.545,0.345-1.07,0.7-1.617,0.98c-0.559,0.258-1.074,0.556-1.616,0.719
			c-0.539,0.168-1.034,0.363-1.518,0.449c-0.483,0.085-0.929,0.147-1.318,0.2c-0.392,0.044-0.741,0.007-1.022,0.015
			c-0.564-0.01-0.881-0.029-0.881-0.029s0.319-0.069,0.866-0.165c0.272-0.056,0.606-0.078,0.976-0.188
			c0.365-0.121,0.775-0.256,1.223-0.385c0.443-0.141,0.893-0.391,1.385-0.585c0.494-0.198,0.957-0.537,1.472-0.798
			c0.505-0.285,0.972-0.673,1.487-0.997c0.477-0.383,0.972-0.76,1.438-1.172c0.455-0.425,0.941-0.816,1.359-1.271
			c0.434-0.437,0.866-0.861,1.252-1.308c0.799-0.864,1.488-1.726,2.088-2.462c0.576-0.753,1.077-1.375,1.391-1.836
			C184.82,161.083,185.007,160.823,185.007,160.823z"/>
	</g>
	<g>
		<path fill="#453635" d="M207.446,145.927c0,0,20.594-18.481,39.339,1.848c0,0-10.561-4.488-18.745-4.488
			C216.688,143.286,207.446,145.927,207.446,145.927z"/>
	</g>
	<g>
		<path fill="#512C1D" d="M240.977,154.375c0,0-0.368-0.359-1.053-0.933c-0.68-0.579-1.701-1.345-2.981-2.16
			c-2.535-1.636-6.359-3.279-10.354-3.263c-0.991-0.015-1.983,0.079-2.944,0.255s-1.893,0.431-2.778,0.736
			c-0.875,0.333-1.716,0.679-2.485,1.074c-0.768,0.396-1.484,0.801-2.114,1.224c-1.269,0.833-2.296,1.595-2.977,2.173
			c-0.693,0.568-1.09,0.894-1.09,0.894s0.349-0.377,0.958-1.037c0.301-0.336,0.703-0.705,1.166-1.132
			c0.448-0.442,0.999-0.891,1.62-1.358c0.614-0.475,1.32-0.94,2.085-1.402c0.768-0.462,1.615-0.89,2.526-1.259
			c0.919-0.346,1.888-0.674,2.909-0.86c1.018-0.198,2.072-0.312,3.129-0.306c1.055,0.006,2.108,0.115,3.123,0.326
			c1.021,0.182,1.986,0.522,2.906,0.86c1.828,0.724,3.387,1.694,4.637,2.612c1.261,0.912,2.17,1.84,2.798,2.482
			C240.675,153.958,240.977,154.375,240.977,154.375z"/>
	</g>
	<g>
		<circle fill="#512C1D" cx="226.588" cy="151.361" r="4.247"/>
	</g>
	<g>
		<path fill="#CCB097" d="M211.142,160.823c0,0,0.187,0.26,0.512,0.715c0.312,0.461,0.814,1.083,1.391,1.836
			c0.6,0.736,1.288,1.598,2.088,2.462c0.385,0.446,0.818,0.871,1.252,1.308c0.417,0.455,0.903,0.847,1.359,1.271
			c0.465,0.412,0.96,0.789,1.438,1.172c0.515,0.324,0.982,0.712,1.486,0.997c0.516,0.261,0.979,0.6,1.472,0.798
			c0.493,0.194,0.941,0.444,1.386,0.585c0.447,0.129,0.856,0.264,1.223,0.385c0.368,0.109,0.703,0.132,0.975,0.188
			c0.547,0.096,0.866,0.165,0.866,0.165s-0.316,0.02-0.881,0.029c-0.28-0.008-0.63,0.029-1.022-0.015
			c-0.39-0.053-0.834-0.115-1.318-0.2c-0.482-0.086-0.979-0.281-1.518-0.449c-0.541-0.163-1.057-0.461-1.615-0.719
			c-0.547-0.28-1.072-0.636-1.617-0.98c-0.508-0.391-1.037-0.777-1.53-1.202c-0.469-0.451-0.968-0.872-1.393-1.35
			c-0.446-0.457-0.854-0.937-1.229-1.412c-0.77-0.938-1.389-1.886-1.891-2.708c-0.494-0.832-0.847-1.555-1.087-2.062
			C211.247,161.127,211.142,160.823,211.142,160.823z"/>
	</g>
	<g>
		<path fill="#E9CFC4" d="M174.182,211.25c0,0,20.064-2.64,24.024,1.32c0,0,10.605-3.433,24.972,2.112c0,0-16.787,2.64-25.235,2.64
			S174.182,211.25,174.182,211.25z"/>
	</g>
	<g>
		<path fill="#F4E6E1" d="M174.182,211.25c0,0,13.992,13.2,24.024,13.2c10.033,0,24.972-9.768,24.972-9.768
			s-15.954,2.64-25.235,2.64S174.182,211.25,174.182,211.25z"/>
	</g>
	<g>
		<path fill="#CCB097" d="M171.146,188.809c0,0-0.483,0.479-1.266,1.368c-0.786,0.886-1.847,2.205-3.004,3.861
			c-1.165,1.65-2.366,3.684-3.412,5.965c-0.535,1.135-0.991,2.349-1.403,3.595c-0.408,1.248-0.73,2.544-0.957,3.855
			c-0.128,0.653-0.189,1.316-0.283,1.972c-0.033,0.662-0.114,1.319-0.109,1.974c-0.01,1.308,0.021,2.601,0.205,3.837
			c0.072,0.621,0.168,1.228,0.298,1.816c0.112,0.592,0.224,1.172,0.392,1.723c0.271,1.119,0.666,2.136,1,3.087
			c0.426,0.912,0.727,1.794,1.121,2.517c0.379,0.729,0.669,1.391,0.989,1.889c0.593,1.028,0.932,1.616,0.932,1.616
			s-0.399-0.55-1.097-1.514c-0.364-0.475-0.708-1.111-1.152-1.815c-0.461-0.695-0.841-1.559-1.311-2.472
			c-0.389-0.95-0.846-1.97-1.183-3.104c-0.202-0.557-0.347-1.146-0.493-1.751c-0.171-0.599-0.271-1.228-0.368-1.867
			c-0.214-1.274-0.31-2.616-0.299-3.976c-0.01-0.682,0.067-1.364,0.097-2.053c0.091-0.682,0.148-1.372,0.277-2.051
			c0.247-1.359,0.592-2.699,1.025-3.984c0.43-1.287,0.953-2.518,1.526-3.671c0.55-1.166,1.208-2.226,1.832-3.223
			c0.651-0.98,1.284-1.895,1.923-2.697c1.248-1.628,2.467-2.829,3.314-3.663C170.604,189.221,171.146,188.809,171.146,188.809z"/>
	</g>
	<g>
		<path fill="#CCB097" d="M226.087,188.809c0,0,0.541,0.412,1.404,1.233c0.848,0.834,2.067,2.035,3.315,3.663
			c0.638,0.803,1.271,1.717,1.923,2.697c0.624,0.997,1.281,2.057,1.832,3.223c0.572,1.153,1.097,2.384,1.525,3.671
			c0.434,1.285,0.778,2.625,1.025,3.984c0.129,0.679,0.188,1.369,0.277,2.051c0.03,0.688,0.107,1.371,0.098,2.053
			c0.01,1.359-0.086,2.701-0.299,3.977c-0.098,0.64-0.197,1.268-0.369,1.866c-0.146,0.604-0.291,1.194-0.493,1.751
			c-0.337,1.135-0.794,2.154-1.183,3.104c-0.47,0.913-0.849,1.776-1.311,2.472c-0.444,0.704-0.788,1.342-1.152,1.815
			c-0.697,0.964-1.097,1.514-1.097,1.514s0.339-0.588,0.932-1.616c0.32-0.498,0.61-1.16,0.989-1.889
			c0.395-0.723,0.695-1.604,1.121-2.517c0.334-0.951,0.729-1.968,1-3.087c0.169-0.551,0.279-1.131,0.393-1.723
			c0.129-0.588,0.225-1.195,0.297-1.816c0.184-1.236,0.216-2.529,0.206-3.837c0.004-0.654-0.077-1.312-0.11-1.973
			c-0.094-0.656-0.155-1.319-0.283-1.973c-0.227-1.312-0.548-2.607-0.957-3.855c-0.411-1.246-0.867-2.46-1.402-3.595
			c-1.046-2.281-2.247-4.314-3.413-5.965c-1.156-1.656-2.218-2.976-3.003-3.861C226.569,189.287,226.087,188.809,226.087,188.809z"
			/>
	</g>
	<g>
		<defs>
			<path id="SVGID_31_" d="M254.771,140.23c0,0,2.111,66.003-7.393,82.372c-7.336,12.635-23.35,35.125-47.566,36.852h-3.673
				c-24.217-1.727-40.23-24.217-47.566-36.852c-9.505-16.369-7.393-82.372-7.393-82.372l10.561-41.192l47.423-25.867l41.813,16.356
				l16.369,29.582L254.771,140.23"/>
		</defs>
		<clipPath id="SVGID_2_">
			<use xlink:href="#SVGID_31_"  overflow="visible"/>
		</clipPath>
		<g clip-path="url(#SVGID_2_)">
			<path fill="#584545" d="M250.745,212.57c0,0-14.272,34.089-42.195,41.398c-3.828-4.281-9.814-12.619-9.814-22.918h-0.793
				c0,10.433-6.146,18.858-9.964,23.087c-28.372-6.928-42.877-41.567-42.877-41.567l-4.122,3.345l4.122,15.523l12.447,30.591
				l40.394,6.688l28.602-2.111l30.802-52.1L250.745,212.57z"/>
		</g>
	</g>
	<g>
		<path fill="#231F20" d="M185.007,192.241c0,0,3.959,2.111,8.976,0l-4.488-3.433h-4.487V192.241z"/>
	</g>
	<g>
		<path fill="#231F20" d="M211.935,192.241c0,0-3.959,2.111-8.975,0l4.487-3.433h4.487V192.241z"/>
	</g>
	<g>
		<path fill="#E0C1A6" d="M206.411,146.038c0,0-1.848,20.857,2.641,28.25s11.088,13.729,4.752,17.688s-1.056-1.848-4.752-1.848
			s-3.954,5.28-10.822,5.28h0.238c-6.868,0-7.126-5.28-10.821-5.28c-3.697,0,1.584,5.808-4.753,1.848s0.265-10.296,4.753-17.688
			s2.64-28.25,2.64-28.25"/>
	</g>
	<g>
		<path fill="#CCB097" d="M206.411,146.038c-0.176,2.893-0.244,5.789-0.238,8.683c0.01,1.447,0.041,2.894,0.109,4.338
			c0.072,1.443,0.16,2.888,0.318,4.321c0.063,0.72,0.145,1.436,0.252,2.148c0.091,0.715,0.194,1.428,0.342,2.132
			c0.127,0.708,0.264,1.413,0.462,2.102l0.271,1.04l0.357,1.006c0.439,1.363,1.193,2.539,1.99,3.767
			c0.795,1.196,1.623,2.383,2.449,3.574c0.818,1.2,1.654,2.392,2.387,3.67c0.721,1.276,1.399,2.629,1.648,4.16l0.082,0.576
			c0.004,0.196-0.012,0.396-0.02,0.593c-0.018,0.197-0.001,0.397-0.05,0.592l-0.161,0.58c-0.229,0.769-0.708,1.441-1.258,1.987
			c-0.246,0.315-0.592,0.489-0.888,0.734c-0.307,0.242-0.624,0.445-0.929,0.625c-0.643,0.378-1.26,0.756-2.028,1.028
			c-0.202,0.061-0.403,0.13-0.71,0.112c-0.139-0.009-0.352-0.053-0.512-0.203c-0.168-0.143-0.234-0.327-0.271-0.468
			c-0.096-0.544,0.004-0.872,0.021-1.23c0.029-0.338,0.037-0.669-0.045-0.881c-0.072-0.212-0.201-0.303-0.461-0.38
			c-0.133-0.027-0.277-0.045-0.434-0.046c-0.078-0.002-0.332,0.027-0.49,0.041c-0.201,0.003-0.305,0.07-0.449,0.104
			c-0.137,0.027-0.278,0.094-0.421,0.169c-0.57,0.277-1.084,0.733-1.591,1.229c-0.996,1.011-2.094,2.117-3.486,2.803
			c-1.377,0.712-2.934,0.945-4.43,0.964v-0.998l0.238-0.001v1c-1.496-0.018-3.053-0.252-4.43-0.965
			c-1.393-0.685-2.49-1.791-3.487-2.803c-0.506-0.495-1.02-0.951-1.59-1.228c-0.571-0.269-1.201-0.386-1.794-0.269
			c-0.259,0.077-0.388,0.168-0.46,0.379c-0.081,0.213-0.074,0.543-0.045,0.881c0.018,0.358,0.117,0.688,0.022,1.231
			c-0.038,0.141-0.104,0.326-0.274,0.468c-0.159,0.15-0.371,0.195-0.511,0.203c-0.307,0.018-0.508-0.053-0.71-0.112
			c-0.769-0.272-1.389-0.651-2.026-1.027l-0.469-0.288c-0.213-0.146-0.31-0.227-0.47-0.344c-0.287-0.238-0.59-0.379-0.861-0.71
			c-0.576-0.568-1.047-1.239-1.277-2.007l-0.161-0.58c-0.049-0.194-0.032-0.395-0.05-0.592c-0.007-0.197-0.023-0.396-0.02-0.593
			l0.082-0.576c0.249-1.532,0.93-2.884,1.648-4.161c0.732-1.279,1.568-2.469,2.386-3.67c0.828-1.191,1.654-2.377,2.453-3.578
			c0.372-0.604,0.823-1.211,1.118-1.819l0.494-0.968c0.17-0.321,0.25-0.658,0.381-0.986l0.352-0.995l0.271-1.039
			c0.198-0.688,0.334-1.394,0.461-2.103c0.148-0.703,0.251-1.416,0.342-2.131c0.107-0.713,0.189-1.429,0.252-2.148
			c0.158-1.435,0.246-2.878,0.318-4.321c0.068-1.444,0.1-2.891,0.109-4.338c0.006-2.894-0.061-5.79-0.237-8.683
			c0.284,2.884,0.442,5.781,0.503,8.681c0.027,1.45,0.033,2.901,0.002,4.353c-0.035,1.451-0.086,2.903-0.207,4.353
			c-0.044,0.726-0.121,1.449-0.217,2.172c-0.08,0.724-0.174,1.446-0.312,2.163c-0.118,0.721-0.245,1.439-0.437,2.147l-0.26,1.067
			c-0.109,0.354-0.238,0.706-0.357,1.06c-0.131,0.346-0.223,0.721-0.387,1.043l-0.479,0.976c-0.333,0.699-0.749,1.264-1.125,1.898
			c-0.787,1.225-1.599,2.429-2.404,3.629c-0.794,1.207-1.605,2.403-2.295,3.652c-0.684,1.241-1.315,2.535-1.52,3.873l-0.072,0.5
			c0,0.164,0.018,0.328,0.023,0.492c0.016,0.161-0.004,0.331,0.039,0.487l0.136,0.465c0.185,0.619,0.582,1.163,1.028,1.609
			c0.176,0.251,0.543,0.442,0.812,0.664l0.408,0.298l0.457,0.277c0.609,0.358,1.243,0.726,1.846,0.933
			c0.141,0.046,0.297,0.078,0.353,0.068c0.058-0.038-0.079,0.089-0.028,0.022c0.039-0.173-0.015-0.572-0.05-0.932
			c-0.026-0.379-0.072-0.793,0.087-1.271c0.137-0.498,0.67-0.891,1.109-0.977c0.83-0.181,1.704-0.021,2.43,0.322
			c0.736,0.356,1.318,0.886,1.848,1.396c1.033,1.039,2.025,2.013,3.256,2.61c1.211,0.622,2.604,0.827,3.993,0.84v1l-0.238-0.001
			v-0.998c1.39-0.012,2.781-0.218,3.994-0.84c1.23-0.597,2.223-1.571,3.256-2.61c0.529-0.51,1.11-1.039,1.848-1.395
			c0.328-0.186,0.84-0.313,1.193-0.358c0.203-0.014,0.309-0.037,0.592-0.042c0.207,0.003,0.422,0.027,0.644,0.076
			c0.438,0.087,0.972,0.479,1.108,0.977c0.16,0.478,0.114,0.893,0.088,1.271c-0.035,0.36-0.089,0.759-0.051,0.933
			c0.052,0.066-0.085-0.06-0.027-0.021c0.057,0.01,0.212-0.022,0.354-0.068c1.207-0.472,2.537-1.283,3.502-2.153
			c0.992-0.916,1.403-2.239,1.176-3.573c-0.203-1.338-0.838-2.632-1.52-3.875c-0.688-1.248-1.5-2.444-2.294-3.65
			c-0.806-1.201-1.617-2.404-2.407-3.634c-0.758-1.204-1.563-2.514-1.992-3.925c-0.117-0.35-0.244-0.695-0.352-1.047l-0.262-1.067
			c-0.191-0.708-0.318-1.428-0.436-2.147c-0.139-0.717-0.232-1.439-0.312-2.163c-0.095-0.723-0.173-1.446-0.215-2.172
			c-0.123-1.449-0.174-2.901-0.208-4.353c-0.032-1.451-0.026-2.902,0.001-4.353C205.97,151.819,206.128,148.922,206.411,146.038z"/>
	</g>
	<g>
		<path fill="#CCB097" d="M149.097,178.776c0,0,0.421,0.201,1.132,0.603c0.702,0.413,1.723,0.984,2.871,1.788
			c1.148,0.803,2.48,1.766,3.785,2.959c1.294,1.197,2.614,2.595,3.526,4.342c0.429,0.875,0.767,1.869,0.685,2.912
			c-0.007,0.501-0.205,1.062-0.361,1.445c-0.164,0.417-0.324,0.83-0.482,1.235c-0.344,0.807-0.715,1.601-1.104,2.302
			c-0.38,0.713-0.759,1.367-1.111,1.971c-0.335,0.605-0.675,1.145-0.919,1.645c-0.282,0.489-0.417,0.954-0.573,1.328
			c-0.123,0.381-0.178,0.695-0.236,0.905c-0.053,0.213-0.08,0.326-0.08,0.326s0.009-0.116,0.025-0.333
			c0.028-0.215,0.019-0.545,0.104-0.947c0.109-0.395,0.193-0.898,0.419-1.427c0.187-0.548,0.46-1.13,0.765-1.763
			c0.306-0.625,0.634-1.303,0.953-2.025c0.332-0.723,0.611-1.485,0.932-2.286c0.259-0.827,0.669-1.692,0.707-2.436
			c0.059-0.794-0.223-1.631-0.615-2.405c-0.793-1.569-2.042-2.938-3.24-4.154c-1.223-1.203-2.43-2.28-3.514-3.145
			c-1.081-0.867-1.985-1.596-2.642-2.075C149.47,179.055,149.097,178.776,149.097,178.776z"/>
	</g>
	<g>
		<path fill="#CCB097" d="M248.282,178.776c0,0-0.373,0.278-1.025,0.765c-0.656,0.479-1.561,1.208-2.643,2.075
			c-1.083,0.864-2.289,1.941-3.514,3.145c-1.197,1.217-2.447,2.585-3.239,4.154c-0.392,0.774-0.673,1.61-0.614,2.405
			c0.037,0.743,0.447,1.608,0.707,2.436c0.32,0.801,0.6,1.562,0.932,2.286c0.318,0.723,0.646,1.4,0.953,2.025
			c0.304,0.633,0.577,1.215,0.764,1.763c0.225,0.528,0.311,1.032,0.42,1.427c0.084,0.402,0.074,0.732,0.102,0.947
			c0.018,0.217,0.027,0.333,0.027,0.333s-0.028-0.113-0.08-0.326c-0.059-0.21-0.114-0.524-0.238-0.905
			c-0.154-0.374-0.289-0.839-0.572-1.328c-0.244-0.5-0.584-1.039-0.918-1.645c-0.354-0.604-0.732-1.258-1.112-1.971
			c-0.388-0.701-0.76-1.495-1.103-2.302c-0.158-0.405-0.319-0.818-0.482-1.235c-0.156-0.383-0.355-0.944-0.362-1.445
			c-0.082-1.043,0.255-2.037,0.685-2.912c0.912-1.747,2.232-3.145,3.527-4.342c1.305-1.193,2.637-2.156,3.783-2.959
			c1.149-0.804,2.17-1.375,2.873-1.788C247.86,178.978,248.282,178.776,248.282,178.776z"/>
	</g>
</g>
</svg>
