<?xml version="1.0" encoding="utf-8"?>
<!-- Generator: Adobe Illustrator 16.0.0, SVG Export Plug-In . SVG Version: 6.00 Build 0)  -->
<!DOCTYPE svg PUBLIC "-//W3C//DTD SVG 1.1//EN" "http://www.w3.org/Graphics/SVG/1.1/DTD/svg11.dtd">
<svg version="1.1" id="Layer_1" xmlns="http://www.w3.org/2000/svg" xmlns:xlink="http://www.w3.org/1999/xlink" x="0px" y="0px"
	 width="396.849px" height="396.851px" viewBox="0 0 396.849 396.851" enable-background="new 0 0 396.849 396.851"
	 xml:space="preserve">
	<defs>
	    <clipPath id="circle-clip">
	        <circle stroke="#000000" stroke-miterlimit="10" cx="200" cy="200" r="175" />
	    </clipPath>
	</defs>
<g>
	<rect width="400" height="400" class="player-bg"/>
	<path fill="#242424" d="M198.279,326.049c52.613,0,52.119-49.037,52.119-49.037l105.408,44.142c0,0,36.928,16.228,36.928,75.697
		H4.005c0-59.47,36.928-75.697,36.928-75.697l105.406-44.142c0,0-0.494,49.037,52.119,49.037"/>
	<polyline fill="#E0C1A6" points="245.132,236.066 245.132,323.401 207.835,323.401 185.13,323.401 147.833,323.401 
		147.833,236.066 	"/>
	<path fill="#D4B69D" d="M237.035,239.877c0,0-21.365,46.152-35.422,46.152H190.65c-14.057,0-35.42-46.152-35.42-46.152H237.035z"/>
	<path fill="#E0C1A6" d="M257.031,155.512c0,0,7.936-8.728,13.936-8.728s3.5,44.667-3.334,49.5
		c-6.832,4.833-17.832,8.508-18.332-3.33L257.031,155.512z"/>
	<path fill="#E0C1A6" d="M135.623,155.512c0,0-7.936-8.728-13.936-8.728s-3.5,44.667,3.334,49.5
		c6.832,4.833,17.832,8.508,18.332-3.33L135.623,155.512z"/>
	<path fill="#E0C1A6" d="M205.66,271.287c32-8,51-37.5,50.5-73.5s5.5-51,5.5-51c18.5-74.5-44-90.502-44-90.502
		s-9.576-3.998-22.076-3.998c-12.502,0-20.502,3.998-20.502,3.998s-62.5,16.002-44,90.502c0,0,6,15,5.5,51s18.5,65.5,50.5,73.5
		c0,0,6.557,1.667,9.502,1.667C199.527,272.954,205.66,271.287,205.66,271.287z"/>
	<path fill="#B9B6B7" d="M217.978,56.285c0,0-9.576-3.998-22.076-3.998s-20.5,3.998-20.5,3.998s-62.5,16.002-44,90.502
		c0,0,2.396,5.266,3.939,23.373c0.686-2.168,6.596-17.243,2.152-47.873c-2.805-19.341,12.57-49.707,39.258-59.408
		c-3.338,4.243-5.334,9.591-5.334,15.408c0,13.781,11.172,24.952,24.953,24.952s24.953-11.171,24.953-24.952
		c0-5.96-2.092-11.43-5.578-15.721c27.23,9.346,42.977,40.168,40.141,59.721c-4.443,30.63,0.512,44.882,1.197,47.05
		c1.541-18.107,4.895-22.55,4.895-22.55C280.478,72.287,217.978,56.285,217.978,56.285z"/>
	<path fill="#B9B6B7" d="M257.083,169.337l-0.154-0.124c0,0-6.33,38.074-24.58,45.574c0,0-10.75-11.75-31.75-11.75
		c0,0-2.25,1.5-3.875,1.5s-3.875-1.5-3.875-1.5c-21.002,0-31.752,11.75-31.752,11.75c-18.25-7.5-25.756-44.627-25.756-44.627l0,0
		c0.723,7.307,1.195,16.454,1.039,27.627c-0.5,36,18.5,65.5,50.5,73.5c0,0,6.557,1.667,9.502,1.667c2.943,0,9.076-1.667,9.076-1.667
		c32-8,51-37.5,50.5-73.5C255.796,186.186,256.312,176.777,257.083,169.337z M196.212,243.287c-15.396,0-27.875-7.089-27.875-15.834
		c0-8.743,12.479-15.833,27.875-15.833s27.875,7.09,27.875,15.833C224.087,236.198,211.609,243.287,196.212,243.287z"/>
	<path fill="#231F20" d="M205.8,149.287c0,0,2.25-5.25,7.75-6.25s19.5-4.25,23.25-2s12,10.75,7.25,9.5s-7.312-2.964-12.918-4.25
		C220.966,143.953,204.134,151.857,205.8,149.287z"/>
	<path fill="#231F20" d="M211.132,156.453c0,0,0.301-0.338,0.91-0.843c0.297-0.264,0.688-0.542,1.127-0.878
		c0.457-0.309,0.964-0.684,1.568-1c0.301-0.162,0.613-0.332,0.938-0.508c0.331-0.163,0.686-0.307,1.043-0.469
		c0.708-0.352,1.519-0.56,2.338-0.829c0.424-0.085,0.854-0.173,1.291-0.26l0.66-0.128l0.679-0.044
		c0.455-0.026,0.913-0.053,1.374-0.08l1.387,0.104l0.693,0.062c0.228,0.036,0.451,0.103,0.676,0.152
		c0.449,0.108,0.896,0.216,1.34,0.323c0.875,0.254,1.676,0.677,2.477,0.994c0.756,0.415,1.443,0.893,2.107,1.312
		c0.654,0.435,1.172,0.979,1.7,1.408c0.257,0.224,0.502,0.438,0.735,0.644c0.232,0.205,0.4,0.453,0.586,0.657
		c0.355,0.421,0.666,0.788,0.922,1.091c0.498,0.609,0.783,0.958,0.783,0.958s-0.337-0.3-0.926-0.825
		c-0.287-0.265-0.637-0.587-1.038-0.956c-0.38-0.39-0.886-0.739-1.421-1.135c-0.547-0.378-1.084-0.865-1.746-1.234
		c-0.663-0.358-1.362-0.735-2.086-1.127c-0.771-0.273-1.546-0.623-2.365-0.859c-0.416-0.095-0.837-0.189-1.259-0.285
		c-0.211-0.044-0.42-0.105-0.634-0.137l-0.648-0.048l-1.295-0.116c-0.433,0.02-0.863,0.04-1.291,0.06l-0.639,0.029l-0.627,0.098
		c-0.416,0.066-0.826,0.132-1.23,0.196c-0.783,0.241-1.578,0.365-2.281,0.652c-0.355,0.13-0.708,0.242-1.039,0.376
		c-0.327,0.146-0.643,0.287-0.945,0.422c-0.606,0.273-1.141,0.571-1.627,0.814c-0.469,0.273-0.889,0.5-1.211,0.721
		C211.492,156.18,211.132,156.453,211.132,156.453z"/>
	<circle fill="#231F20" cx="223.132" cy="155.512" r="4.85"/>
	<path fill="#CCB097" d="M211.132,151.904c1.092-0.871,2.334-1.541,3.607-2.131c0.639-0.293,1.297-0.547,1.969-0.761
		c0.67-0.216,1.349-0.411,2.04-0.558c0.688-0.158,1.387-0.28,2.091-0.361c0.701-0.097,1.412-0.139,2.121-0.141
		c0.711-0.016,1.421,0.025,2.129,0.08l1.061,0.119l1.051,0.188c0.692,0.152,1.393,0.295,2.066,0.519
		c0.686,0.192,1.35,0.444,2.01,0.707c0.651,0.278,1.303,0.565,1.93,0.894c0.625,0.332,1.255,0.658,1.844,1.051
		c0.609,0.361,1.18,0.779,1.754,1.188c0.581,0.4,1.113,0.866,1.66,1.307c0.533,0.459,1.042,0.945,1.562,1.416l1.477,1.498
		l-0.023-0.021c0.408,0.335,0.89,0.633,1.371,0.893c0.484,0.263,0.998,0.473,1.53,0.616c1.062,0.289,2.234,0.236,3.253-0.283
		c-0.475,0.307-1.016,0.539-1.588,0.629c-0.572,0.097-1.162,0.075-1.735-0.023c-0.573-0.103-1.133-0.277-1.667-0.51
		c-0.537-0.235-1.035-0.521-1.524-0.875l-0.001-0.001l-0.023-0.021l-1.532-1.392c-0.536-0.434-1.06-0.882-1.604-1.301
		c-0.564-0.394-1.088-0.84-1.666-1.211c-0.568-0.382-1.133-0.771-1.731-1.104c-0.583-0.357-1.187-0.678-1.794-0.988
		c-0.607-0.312-1.235-0.58-1.863-0.842c-0.637-0.242-1.271-0.488-1.924-0.68c-0.645-0.221-1.312-0.362-1.973-0.516
		c-0.666-0.139-1.338-0.243-2.014-0.325c-0.675-0.071-1.354-0.131-2.035-0.134c-0.341-0.016-0.682-0.007-1.021,0.007
		c-0.342,0.003-0.682,0.015-1.021,0.046c-0.682,0.04-1.363,0.121-2.037,0.237c-1.354,0.22-2.68,0.59-3.983,1.039
		C213.593,150.617,212.328,151.189,211.132,151.904z"/>
	<path fill="#231F20" d="M187.517,149.287c0,0-2.25-5.25-7.75-6.25s-19.5-4.25-23.25-2s-12,10.75-7.25,9.5s7.312-2.964,12.918-4.25
		C172.351,143.953,189.183,151.857,187.517,149.287z"/>
	<path fill="#231F20" d="M182.185,156.453c0,0-0.36-0.273-1.025-0.688c-0.323-0.221-0.743-0.447-1.211-0.721
		c-0.486-0.243-1.021-0.541-1.627-0.814c-0.303-0.135-0.619-0.276-0.945-0.422c-0.332-0.134-0.685-0.246-1.04-0.376
		c-0.702-0.287-1.497-0.411-2.28-0.652c-0.404-0.064-0.815-0.13-1.232-0.196l-0.626-0.098l-0.639-0.029
		c-0.427-0.02-0.858-0.04-1.29-0.06l-1.295,0.116l-0.648,0.048c-0.214,0.032-0.424,0.093-0.635,0.137
		c-0.422,0.096-0.842,0.19-1.258,0.285c-0.82,0.237-1.594,0.586-2.365,0.859c-0.724,0.392-1.424,0.769-2.086,1.127
		c-0.662,0.369-1.199,0.856-1.746,1.234c-0.535,0.396-1.041,0.745-1.422,1.135c-0.4,0.369-0.75,0.691-1.037,0.956
		c-0.589,0.525-0.926,0.825-0.926,0.825s0.285-0.349,0.783-0.958c0.256-0.303,0.566-0.67,0.922-1.091
		c0.186-0.204,0.354-0.452,0.586-0.657c0.233-0.205,0.479-0.42,0.734-0.644c0.529-0.43,1.047-0.973,1.701-1.408
		c0.664-0.419,1.352-0.896,2.106-1.312c0.802-0.317,1.603-0.74,2.477-0.994c0.444-0.107,0.892-0.215,1.34-0.323
		c0.226-0.05,0.448-0.116,0.677-0.152l0.693-0.062l1.386-0.104c0.461,0.027,0.919,0.054,1.374,0.08l0.68,0.044l0.66,0.128
		c0.436,0.087,0.867,0.175,1.291,0.26c0.818,0.27,1.629,0.478,2.337,0.829c0.358,0.162,0.712,0.306,1.042,0.469
		c0.324,0.176,0.639,0.346,0.938,0.508c0.604,0.316,1.11,0.691,1.567,1c0.439,0.336,0.831,0.614,1.128,0.878
		C181.884,156.115,182.185,156.453,182.185,156.453z"/>
	<circle fill="#231F20" cx="170.185" cy="155.512" r="4.85"/>
	<path fill="#CCB097" d="M182.185,151.904c-0.598-0.359-1.215-0.676-1.845-0.963c-0.623-0.302-1.274-0.537-1.918-0.781
		c-0.658-0.206-1.311-0.426-1.974-0.604c-0.673-0.137-1.326-0.356-2.011-0.427c-0.681-0.077-1.349-0.239-2.035-0.235l-1.022-0.044
		c-0.34-0.026-0.68-0.041-1.02-0.009c-0.68,0.045-1.361,0.046-2.036,0.126l-2.013,0.327c-0.666,0.133-1.311,0.359-1.967,0.533
		c-0.324,0.103-0.661,0.166-0.975,0.299l-0.942,0.393c-0.622,0.277-1.277,0.48-1.872,0.816l-1.787,1.002
		c-0.617,0.301-1.164,0.715-1.721,1.113l-1.682,1.188c-0.545,0.416-1.047,0.891-1.573,1.334l-1.565,1.354l-0.024,0.021
		c-0.491,0.357-0.992,0.634-1.526,0.876c-0.536,0.229-1.096,0.405-1.668,0.51c-0.576,0.098-1.166,0.105-1.736,0.018
		c-0.286-0.054-0.566-0.12-0.83-0.239c-0.275-0.084-0.51-0.263-0.76-0.391c0.268,0.099,0.513,0.244,0.792,0.294
		c0.269,0.082,0.546,0.114,0.821,0.146c0.553,0.033,1.105-0.023,1.639-0.164c0.531-0.147,1.042-0.359,1.526-0.62
		c0.483-0.253,0.963-0.555,1.37-0.888l-0.023,0.021l1.512-1.461c0.511-0.48,0.996-0.992,1.531-1.449l1.683-1.277
		c0.562-0.426,1.114-0.867,1.743-1.198l1.84-1.059c0.613-0.354,1.295-0.575,1.939-0.868l0.981-0.412
		c0.327-0.135,0.681-0.2,1.021-0.304c0.688-0.177,1.364-0.404,2.061-0.537l2.111-0.306c0.706-0.063,1.42-0.047,2.128-0.072
		c0.71-0.044,1.415,0.092,2.12,0.143c0.709,0.036,1.395,0.239,2.09,0.357c0.697,0.112,1.361,0.373,2.04,0.552
		c0.671,0.212,1.323,0.481,1.968,0.758C179.847,150.37,181.087,151.041,182.185,151.904z"/>
	<path fill="#CCB097" d="M144.464,142.453c0.182-1.143,0.693-2.212,1.322-3.182c0.643-0.964,1.43-1.84,2.336-2.568
		c0.881-0.761,1.88-1.374,2.908-1.914c0.502-0.302,1.054-0.492,1.584-0.732c0.528-0.249,1.082-0.424,1.637-0.604
		c1.095-0.404,2.242-0.604,3.371-0.887c1.15-0.158,2.287-0.412,3.451-0.491l3.441-0.319c1.145-0.125,2.299-0.188,3.456-0.232
		l3.468-0.164c1.157-0.061,2.311-0.033,3.465-0.054c2.311-0.04,4.619-0.012,6.928,0.036c1.154,0.012,2.309,0.042,3.461,0.09
		l3.461,0.127c2.307,0.11,4.609,0.227,6.918,0.398l-0.039-0.002l0.834-0.001l-0.041,0.001c2.31-0.17,4.612-0.287,6.92-0.397
		l3.46-0.127c1.153-0.048,2.308-0.078,3.462-0.089c2.309-0.049,4.617-0.076,6.927-0.037c1.154,0.021,2.31-0.005,3.464,0.053
		l3.462,0.163c1.154,0.045,2.308,0.107,3.458,0.233l3.453,0.32c1.178,0.081,2.288,0.331,3.436,0.489
		c1.133,0.282,2.287,0.485,3.381,0.889c0.555,0.18,1.108,0.354,1.637,0.604c0.531,0.24,1.082,0.431,1.584,0.731
		c1.028,0.541,2.027,1.154,2.908,1.916c0.906,0.729,1.693,1.604,2.337,2.568c0.628,0.97,1.14,2.039,1.321,3.182
		c-0.23-1.132-0.785-2.169-1.445-3.097c-0.667-0.928-1.465-1.763-2.379-2.449c-0.887-0.718-1.886-1.288-2.91-1.784
		c-0.498-0.279-1.049-0.449-1.575-0.667c-0.523-0.228-1.074-0.381-1.623-0.539c-1.085-0.366-2.211-0.546-3.318-0.8
		c-1.138-0.133-2.291-0.366-3.417-0.418l-3.438-0.25c-1.145-0.104-2.293-0.143-3.443-0.164l-3.447-0.095
		c-1.148-0.036-2.301-0.013-3.449-0.022c-2.301-0.025-4.601,0.018-6.9,0.081c-1.15,0.019-2.301,0.057-3.45,0.111l-3.448,0.149
		c-2.297,0.125-4.598,0.257-6.884,0.441l-0.021,0.001h-0.02l-0.834-0.001h-0.021l-0.02-0.002c-2.287-0.184-4.587-0.316-6.884-0.44
		l-3.448-0.149c-1.149-0.055-2.299-0.093-3.449-0.111c-2.301-0.062-4.601-0.105-6.9-0.081c-1.149,0.009-2.303-0.012-3.449,0.021
		l-3.44,0.095c-1.147,0.021-2.296,0.061-3.446,0.164l-3.447,0.252c-1.141,0.054-2.267,0.283-3.402,0.416
		c-1.111,0.253-2.245,0.436-3.328,0.8c-0.549,0.158-1.1,0.312-1.623,0.54c-0.525,0.218-1.076,0.389-1.574,0.667
		c-1.025,0.497-2.024,1.066-2.912,1.784c-0.912,0.687-1.711,1.522-2.378,2.449C145.25,140.284,144.695,141.321,144.464,142.453z"/>
	<path fill="#CCB097" d="M144.464,132.669c0.182-1.142,0.693-2.212,1.322-3.182c0.643-0.964,1.43-1.839,2.336-2.568
		c0.881-0.761,1.88-1.374,2.908-1.915c0.502-0.301,1.054-0.491,1.584-0.731c0.528-0.249,1.082-0.424,1.637-0.603
		c1.095-0.405,2.242-0.605,3.371-0.888c1.15-0.159,2.287-0.413,3.451-0.491l3.441-0.319c1.145-0.126,2.299-0.188,3.456-0.233
		l3.468-0.163c1.157-0.06,2.311-0.033,3.465-0.054c2.311-0.04,4.619-0.012,6.928,0.037c1.154,0.011,2.309,0.041,3.461,0.089
		l3.461,0.127c2.307,0.11,4.609,0.228,6.918,0.398l-0.039-0.002l0.834-0.001l-0.041,0.002c2.31-0.172,4.612-0.288,6.92-0.398
		l3.46-0.127c1.153-0.048,2.308-0.078,3.462-0.09c2.309-0.048,4.617-0.076,6.927-0.036c1.154,0.021,2.31-0.005,3.464,0.053
		l3.462,0.163c1.154,0.045,2.308,0.107,3.458,0.233l3.453,0.32c1.178,0.081,2.288,0.331,3.436,0.489
		c1.133,0.282,2.287,0.485,3.381,0.889c0.555,0.18,1.108,0.354,1.637,0.604c0.531,0.24,1.082,0.431,1.584,0.732
		c1.028,0.54,2.027,1.154,2.908,1.915c0.906,0.729,1.693,1.604,2.337,2.568c0.628,0.97,1.14,2.04,1.321,3.182
		c-0.23-1.132-0.785-2.169-1.445-3.097c-0.667-0.928-1.465-1.764-2.379-2.449c-0.887-0.718-1.886-1.287-2.91-1.784
		c-0.498-0.278-1.049-0.448-1.575-0.667c-0.523-0.227-1.074-0.381-1.623-0.539c-1.085-0.366-2.211-0.546-3.318-0.799
		c-1.138-0.135-2.291-0.367-3.417-0.419l-3.438-0.25c-1.145-0.103-2.293-0.142-3.443-0.164l-3.447-0.095
		c-1.148-0.035-2.301-0.014-3.449-0.022c-2.301-0.024-4.601,0.019-6.9,0.081c-1.15,0.019-2.301,0.057-3.45,0.111l-3.448,0.149
		c-2.297,0.124-4.598,0.257-6.884,0.44l-0.021,0.002h-0.02l-0.834-0.001h-0.021l-0.02-0.002c-2.287-0.184-4.587-0.315-6.884-0.44
		l-3.448-0.149c-1.149-0.055-2.299-0.093-3.449-0.111c-2.301-0.062-4.601-0.105-6.9-0.081c-1.149,0.009-2.303-0.012-3.449,0.021
		l-3.44,0.095c-1.147,0.021-2.296,0.061-3.446,0.164l-3.447,0.251c-1.141,0.055-2.267,0.283-3.402,0.417
		c-1.111,0.253-2.245,0.436-3.328,0.8c-0.549,0.158-1.1,0.312-1.623,0.54c-0.525,0.218-1.076,0.388-1.574,0.667
		c-1.025,0.497-2.024,1.066-2.912,1.785c-0.912,0.686-1.711,1.521-2.378,2.449C145.25,130.5,144.695,131.537,144.464,132.669z"/>
	<path fill="#CCB097" d="M144.464,124.62c0.182-1.142,0.693-2.212,1.322-3.182c0.643-0.964,1.43-1.839,2.336-2.568
		c0.881-0.761,1.88-1.374,2.908-1.915c0.502-0.301,1.054-0.491,1.584-0.731c0.528-0.249,1.082-0.424,1.637-0.603
		c1.095-0.405,2.242-0.605,3.371-0.888c1.15-0.159,2.287-0.413,3.451-0.491l3.441-0.319c1.145-0.126,2.299-0.188,3.456-0.233
		l3.468-0.163c1.157-0.06,2.311-0.033,3.465-0.054c2.311-0.04,4.619-0.012,6.928,0.037c1.154,0.011,2.309,0.041,3.461,0.089
		l3.461,0.127c2.307,0.11,4.609,0.228,6.918,0.398l-0.039-0.002l0.834-0.001l-0.041,0.002c2.31-0.172,4.612-0.288,6.92-0.398
		l3.46-0.127c1.153-0.048,2.308-0.078,3.462-0.09c2.309-0.048,4.617-0.076,6.927-0.036c1.154,0.021,2.31-0.005,3.464,0.053
		l3.462,0.163c1.154,0.045,2.308,0.107,3.458,0.233l3.453,0.32c1.178,0.081,2.288,0.331,3.436,0.489
		c1.133,0.282,2.287,0.485,3.381,0.889c0.555,0.18,1.108,0.354,1.637,0.604c0.531,0.24,1.082,0.431,1.584,0.732
		c1.028,0.54,2.027,1.154,2.908,1.915c0.906,0.729,1.693,1.604,2.337,2.568c0.628,0.97,1.14,2.04,1.321,3.182
		c-0.23-1.132-0.785-2.169-1.445-3.097c-0.667-0.928-1.465-1.764-2.379-2.449c-0.887-0.718-1.886-1.287-2.91-1.784
		c-0.498-0.278-1.049-0.448-1.575-0.667c-0.523-0.227-1.074-0.381-1.623-0.539c-1.085-0.366-2.211-0.546-3.318-0.799
		c-1.138-0.135-2.291-0.367-3.417-0.419l-3.438-0.25c-1.145-0.103-2.293-0.142-3.443-0.164l-3.447-0.095
		c-1.148-0.035-2.301-0.014-3.449-0.022c-2.301-0.024-4.601,0.019-6.9,0.081c-1.15,0.019-2.301,0.057-3.45,0.111l-3.448,0.149
		c-2.297,0.124-4.598,0.257-6.884,0.44l-0.021,0.002h-0.02l-0.834-0.001h-0.021l-0.02-0.002c-2.287-0.184-4.587-0.315-6.884-0.44
		l-3.448-0.149c-1.149-0.055-2.299-0.093-3.449-0.111c-2.301-0.062-4.601-0.105-6.9-0.081c-1.149,0.009-2.303-0.012-3.449,0.021
		l-3.44,0.095c-1.147,0.021-2.296,0.061-3.446,0.164l-3.447,0.251c-1.141,0.055-2.267,0.283-3.402,0.417
		c-1.111,0.253-2.245,0.436-3.328,0.8c-0.549,0.158-1.1,0.312-1.623,0.54c-0.525,0.218-1.076,0.388-1.574,0.667
		c-1.025,0.497-2.024,1.066-2.912,1.785c-0.912,0.686-1.711,1.521-2.378,2.449C145.25,122.451,144.695,123.488,144.464,124.62z"/>
	<path fill="#CCB097" d="M195.539,137.083c0,0,0.104,0.15,0.252,0.434c0.158,0.282,0.337,0.699,0.541,1.209
		c0.17,0.515,0.395,1.119,0.527,1.786c0.163,0.663,0.283,1.38,0.36,2.102c0.086,0.722,0.126,1.446,0.11,2.127
		c0.007,0.68-0.017,1.312-0.101,1.854c-0.13,1.082-0.304,1.79-0.304,1.79s-0.162-0.724-0.271-1.787
		c-0.045-0.533-0.129-1.15-0.204-1.81c-0.068-0.66-0.121-1.363-0.225-2.062c-0.054-0.704-0.156-1.4-0.232-2.059
		c-0.059-0.661-0.175-1.267-0.217-1.803C195.626,137.812,195.539,137.083,195.539,137.083z"/>
	<path fill="#CCB097" d="M188.964,153.539c0.328,2.414,0.53,4.85,0.613,7.292c0.094,2.444,0.039,4.897-0.16,7.354
		c-0.039,0.615-0.111,1.229-0.19,1.843c-0.071,0.615-0.158,1.229-0.282,1.839c-0.211,1.226-0.502,2.448-0.895,3.654
		c-0.36,1.189-0.955,2.44-1.523,3.499c-0.572,1.052-1.127,2.118-1.66,3.195c-1.062,2.154-2.052,4.346-2.889,6.566
		c-0.418,1.107-0.81,2.221-1.103,3.33c-0.279,1.082-0.518,2.266-0.416,3.1c0.005,0.111,0.022,0.198,0.048,0.265l0.025,0.113
		c0.014,0.02,0.026,0.037,0.035,0.057c0.035,0.101,0.051,0.038,0.027,0.051c-0.051,0.011,0.326,0.054,0.764-0.092
		c0.43-0.107,0.926-0.334,1.408-0.569c0.689-0.306,1.064-0.519,1.871-0.761c0.356-0.128,0.715-0.214,1.074-0.271
		c0.354-0.082,0.727-0.119,1.109-0.13c0.755-0.049,1.562,0.066,2.325,0.318c0.772,0.25,1.474,0.701,2.063,1.23
		c0.301,0.264,0.561,0.562,0.797,0.877c0.246,0.338,0.429,0.597,0.652,1.092l-0.308-0.467c0.093,0.083,0.272,0.251,0.434,0.366
		c0.163,0.13,0.333,0.256,0.514,0.366c0.175,0.119,0.352,0.235,0.54,0.326c0.187,0.09,0.362,0.217,0.557,0.279l0.568,0.229
		c0.191,0.062,0.385,0.096,0.576,0.148c0.191,0.063,0.384,0.095,0.576,0.095l0.573,0.054c-0.261,0.012-0.071,0.003-0.128,0.005
		h0.002h0.006l0.012-0.002l0.023-0.002l0.047-0.004l0.094-0.009l0.188-0.017l0.374-0.031l0.374-0.031l0.241-0.076l0.493-0.131
		l0.568-0.229c0.193-0.062,0.369-0.19,0.557-0.28s0.364-0.206,0.539-0.325c0.182-0.11,0.35-0.235,0.514-0.366
		c0.16-0.115,0.34-0.283,0.434-0.366l-0.309,0.467c0.225-0.495,0.406-0.754,0.652-1.092c0.237-0.314,0.498-0.612,0.798-0.877
		c0.59-0.53,1.291-0.981,2.063-1.231c1.553-0.536,3.149-0.34,4.48,0.074c0.336,0.108,0.68,0.207,0.983,0.356l0.88,0.394
		c0.266,0.121,0.57,0.277,0.804,0.369c0.216,0.069,0.429,0.18,0.642,0.218c0.438,0.146,0.814,0.103,0.762,0.092
		c-0.023-0.012-0.008,0.052,0.025-0.049c0.01-0.02,0.021-0.037,0.036-0.056l0.024-0.113c0.025-0.066,0.044-0.153,0.048-0.264
		c0.103-0.834-0.136-2.017-0.415-3.099c-0.294-1.108-0.684-2.224-1.105-3.329c-0.836-2.221-1.824-4.412-2.887-6.566
		c-0.533-1.076-1.086-2.145-1.662-3.197l-0.214-0.396l-0.134-0.254l-0.097-0.206l-0.386-0.827c-0.275-0.518-0.465-1.194-0.687-1.799
		c-0.403-1.237-0.687-2.438-0.898-3.67c-0.124-0.611-0.21-1.225-0.284-1.839c-0.078-0.614-0.15-1.228-0.188-1.843
		c-0.198-2.457-0.255-4.91-0.159-7.354c0.084-2.443,0.287-4.878,0.615-7.292c-0.049,2.435,0.021,4.865,0.146,7.284
		c0.15,2.418,0.357,4.828,0.744,7.198c0.084,0.596,0.199,1.183,0.321,1.768c0.106,0.589,0.224,1.174,0.379,1.746
		c0.268,1.15,0.622,2.305,1.036,3.354c0.232,0.522,0.377,1.024,0.704,1.567l0.435,0.802l0.109,0.2
		c-0.004-0.007,0.047,0.087-0.002-0.004l0.031,0.05l0.061,0.098l0.244,0.394c0.637,1.053,1.25,2.119,1.844,3.197
		c1.184,2.158,2.297,4.358,3.275,6.65c0.477,1.152,0.922,2.325,1.285,3.559c0.176,0.621,0.346,1.245,0.459,1.916
		c0.119,0.664,0.206,1.359,0.137,2.169c-0.008,0.194-0.04,0.406-0.1,0.634l-0.08,0.33l-0.15,0.36
		c-0.188,0.471-0.623,0.982-1.154,1.296c-0.26,0.143-0.54,0.233-0.812,0.313c-0.246,0.038-0.502,0.067-0.75,0.081
		c-0.438-0.019-0.875-0.064-1.23-0.165c-0.387-0.073-0.73-0.222-1.092-0.343c-0.333-0.128-0.571-0.246-0.861-0.37l-0.79-0.341
		c-0.243-0.122-0.487-0.182-0.731-0.259c-0.971-0.294-1.92-0.357-2.682-0.079c-0.388,0.123-0.727,0.356-1.036,0.634
		c-0.157,0.136-0.297,0.303-0.423,0.474c-0.117,0.147-0.264,0.405-0.289,0.466l-0.11,0.276l-0.197,0.19
		c-0.271,0.261-0.462,0.431-0.702,0.616c-0.227,0.184-0.459,0.357-0.702,0.514c-0.238,0.164-0.48,0.322-0.741,0.457
		c-0.261,0.133-0.5,0.296-0.781,0.4l-0.822,0.337c-0.298,0.101-0.637,0.178-0.957,0.257l-0.486,0.111l-0.373,0.035l-0.375,0.034
		l-0.187,0.018l-0.318,0.021l-0.923-0.08c-0.311-0.018-0.611-0.069-0.9-0.158c-0.291-0.078-0.589-0.146-0.872-0.24l-0.823-0.337
		c-0.279-0.104-0.52-0.268-0.78-0.4c-0.261-0.134-0.503-0.293-0.741-0.457c-0.243-0.155-0.476-0.329-0.702-0.513
		c-0.239-0.186-0.431-0.355-0.702-0.616l-0.196-0.19l-0.111-0.276c-0.024-0.061-0.171-0.318-0.288-0.466
		c-0.127-0.171-0.266-0.338-0.424-0.474c-0.311-0.277-0.648-0.512-1.037-0.635c-0.748-0.282-1.74-0.205-2.652,0.07
		c-0.373,0.069-1.084,0.42-1.513,0.588c-0.616,0.279-1.237,0.555-1.991,0.731c-0.356,0.101-0.792,0.146-1.231,0.165
		c-0.247-0.014-0.502-0.043-0.749-0.081c-0.271-0.08-0.552-0.171-0.811-0.313c-0.531-0.312-0.966-0.823-1.152-1.294l-0.15-0.359
		l-0.08-0.33c-0.06-0.228-0.092-0.438-0.1-0.633c-0.069-0.81,0.018-1.505,0.137-2.169c0.112-0.67,0.283-1.294,0.459-1.915
		c0.363-1.233,0.805-2.406,1.285-3.558c0.979-2.292,2.092-4.492,3.275-6.65c0.594-1.077,1.205-2.145,1.846-3.199
		c0.643-1.049,1.151-1.975,1.575-3.09c0.425-1.08,0.771-2.214,1.04-3.37c0.155-0.573,0.271-1.158,0.38-1.746
		c0.122-0.585,0.237-1.173,0.32-1.769c0.388-2.37,0.595-4.78,0.743-7.198C188.945,158.404,189.014,155.974,188.964,153.539z"/>
	<path fill="#231F20" d="M182.298,195.287c0,0,4.666,4.833,10.168,1.833l-2.834-4.166L182.298,195.287z"/>
	<path fill="#231F20" d="M211.466,195.287c0,0-4.666,4.833-10.166,1.833l2.832-4.166L211.466,195.287z"/>
	<path fill="#FFD3D4" d="M215.88,219.621c0,0-9.852-7.814-13.758-5.775c-3.908,2.038-4.756,2.717-5.605,2.717h-1.02
		c-0.85,0-1.699-0.679-5.607-2.717c-3.906-2.039-13.758,5.775-13.758,5.775H215.88z"/>
	<path fill="#B9B6B7" d="M181.08,230.141c0,0,15.055,13.334,30.055,0H181.08z"/>
	<ellipse fill="#B9B6B7" cx="195.953" cy="258.287" rx="1.846" ry="4.666"/>
	<polygon fill="#F8F9F9" points="196.634,321.595 134.878,259.84 134.878,396.851 194.878,396.851 198.39,396.851 258.388,396.851 
		258.388,259.84 	"/>
	
		<rect x="183.417" y="328.421" transform="matrix(0.7071 0.7071 -0.7071 0.7071 299.0663 -38.9357)" fill="#404141" width="26.232" height="26.232"/>
	<polygon fill="#404141" points="173.886,396.851 196.642,335.607 219.396,396.851 	"/>
	<polygon fill="#B096DA" points="134.878,396.851 134.878,338.287 196.533,396.851 	"/>
	<polygon fill="#B096DA" points="258.388,396.851 258.388,338.287 196.736,396.851 	"/>
	<path fill="#E0C1A6" d="M188.964,153.539c0,0,1.5,16.749-3,24.415s-11.547,22.833-2.5,18.333c5.924-2.946,7.834,1.667,7.834,1.667
		s2.283,2.333,5.393,2.333s5.391-2.333,5.391-2.333s1.91-4.613,7.834-1.667c9.047,4.5,2-10.667-2.5-18.333s-3-24.415-3-24.415"/>
</g>
</svg>
