<?xml version="1.0" encoding="utf-8"?>
<!-- Generator: Adobe Illustrator 16.0.0, SVG Export Plug-In . SVG Version: 6.00 Build 0)  -->
<!DOCTYPE svg PUBLIC "-//W3C//DTD SVG 1.1//EN" "http://www.w3.org/Graphics/SVG/1.1/DTD/svg11.dtd">
<svg version="1.1" id="Layer_1" xmlns="http://www.w3.org/2000/svg" xmlns:xlink="http://www.w3.org/1999/xlink" x="0px" y="0px"
	 width="396.85px" height="396.851px" viewBox="0 0 396.85 396.851" enable-background="new 0 0 396.85 396.851"
	 xml:space="preserve">
	<defs>
	    <clipPath id="circle-clip">
	        <circle stroke="#000000" stroke-miterlimit="10" cx="200" cy="200" r="175" />
	    </clipPath>
	</defs>
<g>
	<rect width="400" height="400" class="player-bg" fill="rgba(0,0,0,0)"/>
	<g>
		<rect x="145.595" y="201.51" fill="#E0C1A6" width="103.994" height="131.87"/>
	</g>
	<g>
		<path fill="#001970" d="M197.519,324.786c52.613,0,52.119-49.037,52.119-49.037l105.406,44.142c0,0,36.928,16.228,36.928,75.697
			H3.244c0-59.47,36.928-75.697,36.928-75.697l105.406-44.142c0,0-0.494,49.037,52.119,49.037"/>
	</g>
	<g>
		<path fill="#CCB097" d="M146.729,242.347c0,0,26.006,43.033,48.736,43.033s54.002-43.384,54.002-43.384L146.729,242.347z"/>
	</g>
	<g>
		<defs>
			<path id="SVGID_33_" d="M354.894,395.594v-75.703l-105.406-44.142c0,0,0.494,49.037-52.119,49.037
				c-52.615,0-52.121-49.037-52.121-49.037L43.083,316.558v79.03"/>
		</defs>
		<clipPath id="SVGID_2_">
			<use xlink:href="#SVGID_33_"  overflow="visible"/>
		</clipPath>
		<g clip-path="url(#SVGID_2_)">
			<g>
				<rect x="131.263" y="265.734" fill="#E53543" width="33" height="141.616"/>
			</g>
			<g>
				<rect x="94.378" y="265.734" fill="#E53543" width="33" height="141.616"/>
			</g>
			<g>
				<rect x="270.597" y="265.734" fill="#E53543" width="33" height="141.616"/>
			</g>
			<g>
				<rect x="233.714" y="265.734" fill="#E53543" width="33" height="141.616"/>
			</g>
		</g>
	</g>
	<g>
		<path fill="#FFFFFF" d="M249.386,275.749c0,0,0.494,49.037-52.119,49.037c-52.615,0-52.121-49.037-52.121-49.037l-10.455,4.176
			c3.281,31.87,30.211,56.729,62.949,56.729c32.568,0,59.379-24.606,62.885-56.24L249.386,275.749z"/>
	</g>
	<g>
		<path fill="#E0C1A6" d="M196.651,53.827c95.281,0,65.4,108.974,65.4,108.974s-5.48,22.412-5.48,40.975s-9.332,71.669-59.92,71.669
			h1.08c-50.586,0-59.918-53.106-59.918-71.669s-5.48-40.975-5.48-40.975S102.45,53.827,197.731,53.827"/>
	</g>
	<g>
		<path fill="#E0C1A6" d="M262.944,156.671c0,0,8.951-15.584,13.195-10.688c4.246,4.896,5.926,48.423-6.598,54.896
			s-15.051-4.167-15.051-4.167l3.82-39.833L262.944,156.671z"/>
	</g>
	<g>
		<path fill="#E0C1A6" d="M130.817,156.671c0,0-8.951-15.584-13.197-10.688c-4.244,4.896-5.924,48.423,6.6,54.896
			s15.049-4.167,15.049-4.167l-3.82-39.833L130.817,156.671z"/>
	</g>
	<g>
		<path fill="#262621" d="M213.491,161.381c0,0,0.275-0.343,0.844-0.856c0.275-0.27,0.646-0.551,1.055-0.898
			c0.436-0.311,0.902-0.706,1.48-1.027c0.557-0.361,1.189-0.699,1.875-1.034c0.678-0.344,1.436-0.63,2.223-0.901
			c0.809-0.208,1.629-0.499,2.51-0.584c0.436-0.055,0.873-0.148,1.316-0.172l1.342-0.035c0.223-0.002,0.447-0.012,0.67-0.004
			l0.666,0.075c0.443,0.052,0.883,0.103,1.32,0.153c0.867,0.145,1.691,0.426,2.502,0.624c0.783,0.281,1.514,0.633,2.211,0.932
			c0.697,0.303,1.281,0.737,1.855,1.06c0.57,0.334,1.088,0.646,1.484,1.013c0.412,0.339,0.771,0.635,1.068,0.879
			c0.58,0.495,0.912,0.777,0.912,0.777s-0.373-0.226-1.027-0.621c-0.322-0.201-0.711-0.445-1.16-0.726
			c-0.432-0.303-0.979-0.541-1.553-0.833c-0.586-0.268-1.18-0.646-1.877-0.883c-0.691-0.24-1.42-0.494-2.176-0.756
			c-0.779-0.163-1.574-0.376-2.393-0.513c-0.414-0.042-0.83-0.084-1.25-0.127l-0.627-0.064c-0.211-0.004-0.422,0.01-0.633,0.013
			l-1.266,0.016c-0.42,0.016-0.832,0.101-1.246,0.146c-0.83,0.073-1.623,0.3-2.4,0.472c-0.756,0.241-1.504,0.443-2.182,0.725
			c-0.684,0.271-1.322,0.549-1.889,0.855c-0.582,0.279-1.08,0.6-1.547,0.846c-0.439,0.285-0.842,0.517-1.143,0.744
			C213.829,161.101,213.491,161.381,213.491,161.381z"/>
	</g>
	<g>
		<circle fill="#262621" cx="226.158" cy="160.632" r="4.003"/>
	</g>
	<g opacity="0.6">
		<path fill="#60504D" d="M215.741,148.88c0,0,8.75-4.697,17.75-3.849s16,7.849,14,7.099s-4.018-3.25-13.25-3.25
			C228.128,148.88,209.991,151.13,215.741,148.88z"/>
	</g>
	<g>
		<path fill="#CCB097" d="M215.741,152.187c0,0-0.348,0.184-0.938,0.528c-0.596,0.333-1.408,0.877-2.34,1.558
			c-0.928,0.686-1.945,1.587-2.781,2.707c-0.426,0.554-0.777,1.182-1.012,1.849c-0.232,0.665-0.371,1.378-0.299,2.088
			c0.064,0.704,0.217,1.419,0.545,2.067c0.295,0.657,0.686,1.273,1.107,1.839c0.439,0.552,0.871,1.095,1.342,1.559
			c0.443,0.487,0.92,0.897,1.35,1.287c0.43,0.391,0.857,0.713,1.213,1.028c0.357,0.316,0.695,0.555,0.967,0.765
			c0.541,0.417,0.846,0.669,0.846,0.669s-0.35-0.176-0.953-0.507c-0.299-0.169-0.674-0.36-1.074-0.623
			c-0.404-0.261-0.883-0.523-1.35-0.893c-0.473-0.358-0.996-0.734-1.502-1.199c-0.527-0.438-1.041-0.96-1.529-1.54
			c-0.475-0.591-0.953-1.23-1.291-1.979c-0.379-0.725-0.584-1.564-0.668-2.408c-0.07-0.854,0.105-1.714,0.391-2.489
			c0.285-0.784,0.738-1.465,1.227-2.055c0.979-1.194,2.154-1.997,3.158-2.63c1.016-0.627,1.934-1.004,2.57-1.267
			C215.36,152.288,215.741,152.187,215.741,152.187z"/>
	</g>
	<g>
		<path fill="#CCB097" d="M222.155,168.63c0,0,0.377,0.013,1.029,0.1c0.65,0.088,1.584,0.224,2.686,0.474
			c0.547,0.14,1.15,0.262,1.768,0.462c0.623,0.18,1.279,0.378,1.941,0.633c0.67,0.23,1.346,0.517,2.029,0.814
			c0.684,0.297,1.352,0.663,2.033,0.994c0.648,0.398,1.314,0.764,1.934,1.187c0.605,0.44,1.23,0.836,1.76,1.319
			c0.535,0.476,1.086,0.893,1.512,1.396c0.438,0.488,0.891,0.91,1.215,1.383c0.34,0.46,0.637,0.89,0.896,1.269
			c0.246,0.389,0.412,0.761,0.572,1.048c0.303,0.586,0.461,0.923,0.461,0.923s-0.236-0.297-0.627-0.82
			c-0.199-0.258-0.41-0.591-0.707-0.931c-0.312-0.329-0.662-0.699-1.027-1.111c-0.361-0.416-0.848-0.779-1.297-1.219
			c-0.443-0.448-1.016-0.806-1.543-1.244c-0.523-0.446-1.162-0.779-1.742-1.204c-0.604-0.397-1.256-0.74-1.885-1.117
			c-0.658-0.331-1.299-0.695-1.959-0.995c-0.664-0.294-1.299-0.623-1.947-0.872c-0.637-0.271-1.258-0.523-1.855-0.746
			c-0.592-0.236-1.166-0.42-1.688-0.617c-1.057-0.354-1.939-0.662-2.57-0.834C222.515,168.735,222.155,168.63,222.155,168.63z"/>
	</g>
	<g>
		<path fill="#CCB097" d="M236.741,170.13c0,0,0.963,0.244,2.305,0.882c0.672,0.317,1.432,0.737,2.209,1.247
			c0.781,0.504,1.568,1.115,2.314,1.775c0.729,0.679,1.434,1.39,1.996,2.141c0.293,0.364,0.561,0.729,0.779,1.101
			c0.229,0.364,0.453,0.7,0.604,1.045c0.35,0.662,0.559,1.248,0.688,1.662c0.137,0.411,0.199,0.647,0.199,0.647
			s-0.145-0.204-0.375-0.564c-0.113-0.18-0.25-0.397-0.408-0.646c-0.182-0.236-0.385-0.5-0.59-0.795
			c-0.197-0.3-0.469-0.586-0.721-0.909c-0.248-0.326-0.549-0.64-0.848-0.972c-0.287-0.343-0.631-0.653-0.957-0.991
			c-0.318-0.345-0.688-0.65-1.035-0.976c-0.701-0.647-1.447-1.247-2.156-1.803c-0.713-0.551-1.395-1.048-1.986-1.469
			c-0.598-0.414-1.09-0.776-1.453-1.002C236.946,170.266,236.741,170.13,236.741,170.13z"/>
	</g>
	<g>
		<path fill="#262621" d="M181.196,161.381c0,0-0.336-0.28-0.965-0.706c-0.303-0.228-0.703-0.459-1.143-0.744
			c-0.469-0.246-0.965-0.566-1.547-0.846c-0.566-0.307-1.205-0.585-1.889-0.855c-0.678-0.281-1.428-0.483-2.184-0.725
			c-0.777-0.172-1.568-0.398-2.4-0.472c-0.412-0.046-0.826-0.131-1.246-0.146l-1.264-0.016c-0.211-0.003-0.422-0.017-0.633-0.013
			l-0.629,0.064c-0.418,0.043-0.836,0.085-1.248,0.127c-0.82,0.137-1.615,0.35-2.395,0.513c-0.754,0.262-1.482,0.516-2.174,0.756
			c-0.697,0.237-1.291,0.615-1.877,0.883c-0.574,0.292-1.123,0.53-1.555,0.833c-0.447,0.28-0.838,0.524-1.158,0.726
			c-0.654,0.396-1.027,0.621-1.027,0.621s0.33-0.282,0.912-0.777c0.295-0.244,0.654-0.54,1.068-0.879
			c0.396-0.366,0.914-0.679,1.482-1.013c0.576-0.322,1.158-0.757,1.857-1.06c0.697-0.299,1.426-0.65,2.211-0.932
			c0.809-0.198,1.635-0.479,2.5-0.624c0.438-0.051,0.879-0.102,1.322-0.153l0.664-0.075c0.225-0.008,0.447,0.002,0.672,0.004
			l1.34,0.035c0.445,0.023,0.883,0.117,1.318,0.172c0.879,0.085,1.701,0.376,2.51,0.584c0.787,0.271,1.545,0.558,2.223,0.901
			c0.686,0.335,1.318,0.673,1.875,1.034c0.578,0.321,1.045,0.717,1.479,1.027c0.41,0.348,0.779,0.629,1.055,0.898
			C180.923,161.038,181.196,161.381,181.196,161.381z"/>
	</g>
	<g>
		<circle fill="#262621" cx="168.53" cy="160.632" r="4.004"/>
	</g>
	<g opacity="0.6">
		<path fill="#60504D" d="M178.946,148.88c0,0-8.75-4.697-17.75-3.849s-16,7.849-14,7.099c2.002-0.75,4.018-3.25,13.25-3.25
			C166.56,148.88,184.696,151.13,178.946,148.88z"/>
	</g>
	<g>
		<path fill="#CCB097" d="M178.946,152.187c0,0,0.381,0.102,1.023,0.354c0.635,0.263,1.555,0.64,2.57,1.267
			c1.004,0.633,2.18,1.436,3.156,2.63c0.488,0.59,0.943,1.271,1.227,2.055c0.285,0.775,0.463,1.636,0.391,2.489
			c-0.082,0.844-0.289,1.684-0.666,2.408c-0.338,0.748-0.818,1.388-1.293,1.979c-0.486,0.58-1,1.103-1.527,1.54
			c-0.506,0.465-1.029,0.841-1.504,1.199c-0.465,0.369-0.945,0.632-1.348,0.893c-0.402,0.263-0.775,0.454-1.074,0.623
			c-0.604,0.331-0.955,0.507-0.955,0.507s0.305-0.252,0.848-0.669c0.27-0.21,0.609-0.448,0.967-0.765
			c0.355-0.315,0.781-0.638,1.211-1.028c0.43-0.39,0.906-0.8,1.352-1.287c0.471-0.464,0.9-1.007,1.342-1.559
			c0.422-0.565,0.811-1.182,1.105-1.839c0.33-0.648,0.48-1.363,0.547-2.067c0.072-0.71-0.066-1.423-0.299-2.088
			c-0.234-0.667-0.586-1.295-1.014-1.849c-0.834-1.12-1.852-2.021-2.779-2.707c-0.934-0.681-1.744-1.225-2.34-1.558
			C179.296,152.37,178.946,152.187,178.946,152.187z"/>
	</g>
	<g>
		<path fill="#CCB097" d="M172.534,168.63c0,0-0.359,0.105-0.99,0.289c-0.629,0.172-1.512,0.48-2.568,0.834
			c-0.523,0.197-1.096,0.381-1.689,0.617c-0.596,0.223-1.217,0.475-1.855,0.746c-0.646,0.249-1.283,0.578-1.945,0.872
			c-0.662,0.3-1.301,0.664-1.959,0.995c-0.629,0.377-1.283,0.72-1.885,1.117c-0.582,0.425-1.221,0.758-1.744,1.204
			c-0.525,0.438-1.1,0.796-1.541,1.244c-0.449,0.439-0.936,0.803-1.297,1.219c-0.365,0.412-0.715,0.782-1.027,1.111
			c-0.297,0.34-0.508,0.673-0.709,0.931c-0.389,0.523-0.627,0.82-0.627,0.82s0.158-0.337,0.463-0.923
			c0.16-0.287,0.324-0.659,0.572-1.048c0.26-0.379,0.557-0.809,0.895-1.269c0.326-0.473,0.779-0.895,1.215-1.383
			c0.428-0.503,0.979-0.92,1.514-1.396c0.529-0.483,1.152-0.879,1.76-1.319c0.619-0.423,1.285-0.788,1.934-1.187
			c0.682-0.331,1.35-0.697,2.033-0.994c0.684-0.298,1.359-0.584,2.029-0.814c0.662-0.255,1.318-0.453,1.941-0.633
			c0.617-0.2,1.219-0.322,1.766-0.462c1.104-0.25,2.037-0.386,2.688-0.474C172.157,168.643,172.534,168.63,172.534,168.63z"/>
	</g>
	<g>
		<path fill="#CCB097" d="M157.946,170.13c0,0-0.205,0.136-0.562,0.373c-0.363,0.226-0.857,0.588-1.453,1.002
			c-0.592,0.421-1.273,0.918-1.986,1.469c-0.709,0.556-1.455,1.155-2.156,1.803c-0.35,0.325-0.719,0.631-1.035,0.976
			c-0.326,0.338-0.67,0.648-0.957,0.991c-0.299,0.332-0.6,0.646-0.848,0.972c-0.252,0.323-0.523,0.609-0.721,0.909
			c-0.205,0.295-0.408,0.559-0.59,0.795c-0.158,0.249-0.295,0.467-0.408,0.646c-0.23,0.36-0.377,0.564-0.377,0.564
			s0.064-0.236,0.201-0.647c0.129-0.414,0.338-1,0.688-1.662c0.15-0.345,0.375-0.681,0.604-1.045
			c0.219-0.371,0.484-0.736,0.779-1.101c0.561-0.751,1.268-1.462,1.996-2.141c0.746-0.66,1.531-1.271,2.314-1.775
			c0.777-0.51,1.537-0.93,2.207-1.247C156.983,170.374,157.946,170.13,157.946,170.13z"/>
	</g>
	<g>
		<path fill="#CCB097" d="M167.241,119.88c0,0,0.941-0.317,2.621-0.771c0.838-0.229,1.861-0.487,3.039-0.776
			c1.178-0.274,2.508-0.602,3.973-0.874c1.461-0.306,3.053-0.581,4.736-0.872c1.686-0.293,3.471-0.542,5.32-0.783
			c1.855-0.182,3.768-0.448,5.723-0.576c1.953-0.153,3.938-0.317,5.928-0.376c0.996-0.031,1.99-0.062,2.98-0.092
			c0.992,0.005,1.98,0.01,2.961,0.016c1.959-0.021,3.887,0.073,5.75,0.166c0.932,0.055,1.852,0.057,2.744,0.154
			c0.895,0.091,1.768,0.181,2.619,0.268s1.678,0.172,2.479,0.254c0.799,0.098,1.564,0.231,2.303,0.338
			c1.475,0.224,2.826,0.43,4.018,0.648c1.184,0.26,2.215,0.486,3.064,0.672c1.695,0.386,2.662,0.605,2.662,0.605
			s-0.98-0.15-2.697-0.414c-0.857-0.138-1.896-0.305-3.088-0.496c-1.201-0.136-2.553-0.289-4.029-0.457
			c-0.738-0.081-1.504-0.188-2.301-0.257c-0.799-0.054-1.625-0.109-2.473-0.167c-1.697-0.123-3.484-0.241-5.338-0.282
			c-1.854-0.07-3.768-0.143-5.715-0.1c-0.975,0.006-1.955,0.013-2.939,0.019c-0.984,0.041-1.973,0.082-2.961,0.123
			c-1.977,0.035-3.951,0.176-5.893,0.307c-1.945,0.105-3.85,0.348-5.697,0.508c-1.84,0.237-3.627,0.405-5.311,0.641
			c-1.686,0.232-3.281,0.451-4.744,0.706c-2.934,0.477-5.371,0.927-7.068,1.286C168.208,119.647,167.241,119.88,167.241,119.88z"/>
	</g>
	<g>
		<path fill="#CCB097" d="M171.241,129.38c0,0,0.23-0.05,0.662-0.145c0.43-0.098,1.064-0.224,1.877-0.366
			c0.812-0.135,1.795-0.349,2.934-0.503c1.137-0.161,2.42-0.344,3.82-0.542c1.4-0.208,2.93-0.308,4.541-0.481
			c1.615-0.133,3.312-0.387,5.082-0.42c1.768-0.078,3.592-0.159,5.447-0.241c1.855-0.118,3.742-0.09,5.629-0.083
			c1.887,0.028,3.773,0.057,5.631,0.084c1.857,0.012,3.678,0.222,5.443,0.318c1.766,0.113,3.469,0.258,5.084,0.39
			c1.617,0.093,3.133,0.337,4.533,0.539c2.801,0.396,5.125,0.787,6.754,1.032c1.625,0.266,2.555,0.418,2.555,0.418
			s-0.939-0.082-2.582-0.226c-1.641-0.165-3.984-0.358-6.787-0.665c-1.4-0.15-2.916-0.339-4.533-0.372
			c-1.615-0.071-3.316-0.142-5.072-0.251c-1.76-0.074-3.572-0.261-5.422-0.251c-1.848-0.006-3.727-0.012-5.604-0.018
			c-1.879-0.03-3.756-0.081-5.604,0.015c-1.848,0.06-3.666,0.118-5.426,0.175c-1.762,0.03-3.457,0.203-5.07,0.28
			c-1.609,0.114-3.139,0.158-4.539,0.314c-1.404,0.129-2.693,0.247-3.834,0.352c-1.145,0.087-2.129,0.24-2.949,0.327
			C172.175,129.238,171.241,129.38,171.241,129.38z"/>
	</g>
	<g>
		<path fill="#E9CFC4" d="M165.456,216.63c0,0,18.285-2,33.035,0c0,0,8.084-1,29.668,0
			C228.159,216.63,198.419,222.38,165.456,216.63z"/>
	</g>
	<g>
		<path fill="#F4E6E1" d="M166.526,217.464c0,0,11.865,20.666,30.666,20.666c18.799,0,30.967-20.666,30.967-20.666
			s-11.715,10.333-30.816,10.333S166.526,217.464,166.526,217.464z"/>
	</g>
	<g>
		<path fill="#FFFFFF" d="M170.778,217.464c0,0,29.684,3.928,49.699,0.297C220.478,217.761,197.313,235.048,170.778,217.464z"/>
	</g>
	<g>
		<path fill="#CCB097" d="M175.491,189.38c0,0-1.418,0.895-3.439,2.359c-1.027,0.709-2.166,1.615-3.393,2.57
			c-1.207,0.981-2.502,2.017-3.717,3.141c-1.25,1.089-2.434,2.248-3.523,3.354c-0.553,0.546-1.061,1.098-1.549,1.618
			c-0.496,0.513-0.947,1.016-1.34,1.498c-0.408,0.473-0.783,0.906-1.113,1.29c-0.316,0.397-0.594,0.744-0.82,1.029
			c-0.467,0.566-0.732,0.89-0.732,0.89s0.199-0.367,0.572-1c0.373-0.631,0.895-1.547,1.652-2.557
			c0.357-0.521,0.77-1.066,1.227-1.625c0.451-0.566,0.914-1.176,1.461-1.746c0.535-0.58,1.066-1.202,1.674-1.769
			c0.588-0.585,1.191-1.173,1.826-1.728c0.623-0.566,1.273-1.102,1.918-1.623c0.631-0.538,1.309-0.996,1.936-1.475
			c1.283-0.918,2.531-1.699,3.617-2.34c1.076-0.652,2.033-1.098,2.688-1.425C175.099,189.528,175.491,189.38,175.491,189.38z"/>
	</g>
	<g>
		<path fill="#CCB097" d="M147.741,198.255c0,0-0.006,0.917,0.035,2.518c0.031,1.601,0.16,3.885,0.365,6.615
			c0.209,2.732,0.6,5.905,1.121,9.283c0.275,1.687,0.578,3.426,0.965,5.178c0.363,1.755,0.82,3.519,1.312,5.27
			c0.477,1.756,1.021,3.491,1.617,5.179c0.613,1.681,1.26,3.32,1.979,4.864c0.359,0.772,0.711,1.533,1.092,2.258
			c0.371,0.731,0.727,1.451,1.129,2.121c0.754,1.367,1.562,2.607,2.34,3.727c0.4,0.552,0.787,1.08,1.152,1.584
			c0.391,0.484,0.76,0.945,1.107,1.378c0.697,0.865,1.389,1.546,1.918,2.147c1.148,1.116,1.803,1.754,1.803,1.754
			s-0.713-0.572-1.938-1.614c-0.566-0.567-1.307-1.212-2.062-2.04c-0.377-0.416-0.779-0.857-1.203-1.323
			c-0.402-0.483-0.801-1.012-1.232-1.554c-0.83-1.104-1.695-2.33-2.514-3.688c-0.84-1.346-1.646-2.814-2.377-4.382
			c-0.75-1.56-1.428-3.215-2.07-4.912c-0.625-1.704-1.201-3.456-1.703-5.229c-0.475-1.78-0.916-3.569-1.262-5.349
			c-0.367-1.773-0.652-3.534-0.91-5.238c-0.488-3.415-0.695-6.629-0.822-9.378c-0.115-2.753-0.051-5.048-0.002-6.651
			C147.647,199.167,147.741,198.255,147.741,198.255z"/>
	</g>
	<g>
		<path fill="#CCB097" d="M219.677,189.38c0,0,0.393,0.148,1.057,0.464c0.654,0.327,1.611,0.772,2.689,1.425
			c1.084,0.641,2.334,1.422,3.617,2.34c0.625,0.479,1.303,0.937,1.934,1.475c0.645,0.521,1.295,1.057,1.92,1.623
			c0.633,0.555,1.236,1.143,1.824,1.728c0.607,0.566,1.139,1.188,1.674,1.769c0.547,0.57,1.01,1.18,1.461,1.746
			c0.457,0.559,0.871,1.104,1.229,1.625c0.756,1.01,1.277,1.926,1.65,2.557c0.373,0.633,0.574,1,0.574,1s-0.268-0.323-0.734-0.89
			c-0.227-0.285-0.502-0.632-0.818-1.029c-0.332-0.384-0.707-0.817-1.115-1.29c-0.393-0.482-0.844-0.985-1.34-1.498
			c-0.488-0.521-0.996-1.072-1.549-1.618c-1.09-1.106-2.273-2.266-3.521-3.354c-1.217-1.124-2.512-2.159-3.717-3.141
			c-1.227-0.955-2.367-1.861-3.393-2.57C221.095,190.274,219.677,189.38,219.677,189.38z"/>
	</g>
	<g>
		<path fill="#CCB097" d="M247.427,198.255c0,0,0.094,0.912,0.16,2.516c0.049,1.604,0.115,3.898-0.002,6.651
			c-0.125,2.749-0.334,5.963-0.822,9.378c-0.258,1.704-0.541,3.465-0.91,5.238c-0.346,1.779-0.785,3.568-1.262,5.349
			c-0.5,1.773-1.078,3.525-1.703,5.229c-0.643,1.697-1.32,3.353-2.068,4.912c-0.732,1.567-1.539,3.036-2.377,4.382
			c-0.818,1.358-1.686,2.585-2.516,3.688c-0.43,0.542-0.828,1.07-1.232,1.554c-0.424,0.466-0.826,0.907-1.203,1.323
			c-0.756,0.828-1.496,1.473-2.062,2.04c-1.225,1.042-1.938,1.614-1.938,1.614s0.656-0.638,1.803-1.754
			c0.529-0.602,1.221-1.282,1.918-2.147c0.348-0.433,0.719-0.894,1.107-1.378c0.367-0.504,0.752-1.032,1.152-1.584
			c0.779-1.119,1.586-2.359,2.342-3.727c0.4-0.67,0.756-1.39,1.127-2.121c0.381-0.725,0.732-1.485,1.092-2.258
			c0.719-1.544,1.365-3.184,1.979-4.864c0.596-1.688,1.141-3.423,1.619-5.179c0.49-1.751,0.947-3.515,1.311-5.27
			c0.387-1.752,0.689-3.491,0.967-5.178c0.52-3.378,0.91-6.551,1.119-9.283c0.205-2.73,0.336-5.015,0.367-6.615
			C247.433,199.172,247.427,198.255,247.427,198.255z"/>
	</g>
	<g>
		<defs>
			<path id="SVGID_35_" d="M196.651,53.827c95.281,0,65.4,108.974,65.4,108.974s-5.48,22.412-5.48,40.975
				s-17.266,71.669-59.92,71.669h1.08c-41.867,0-59.918-53.106-59.918-71.669s-5.48-40.975-5.48-40.975
				S102.45,53.827,197.731,53.827"/>
		</defs>
		<clipPath id="SVGID_4_">
			<use xlink:href="#SVGID_35_"  overflow="visible"/>
		</clipPath>
		<g opacity="0.6" clip-path="url(#SVGID_4_)">
			<path fill="#BDB5B3" d="M133.616,168.63c4.375-7.5,2.625-20.072,2.625-20.072s-14.607-87.583,59.506-91.305h2.869
				c74.113,3.722,59.504,91.305,59.504,91.305s-1.748,12.572,2.625,20.072l8.496-3.994l4.5-58.506l-21.75-42.25l-44-14.5l-28.5,1.25
				l-40.223,13.5l-14.527,25.5l-1.5,39.75l4.652,39.25H133.616z"/>
		</g>
	</g>
	<g>
		<path fill="#231F20" d="M184.177,200.347c0,0,3.836,3.283,9.451,1.033l-4.727-3.125L184.177,200.347z"/>
	</g>
	<g>
		<path fill="#231F20" d="M211.628,200.347c0,0-3.838,3.283-9.451,1.033l4.725-3.125L211.628,200.347z"/>
	</g>
	<g>
		<path fill="#E0C1A6" d="M206.69,156.344c0,0-3.75,19.536,2.75,27.036s10.553,14.478,2.852,16.75
			c-2.836,0.837-3.666-1.203-9.102,2.839c0,0-2.75,2.411-4.5,2.411h-2.199c-1.75,0-4.5-2.411-4.5-2.411
			c-5.434-4.042-6.264-2.002-9.1-2.839c-7.701-2.272-3.65-9.25,2.85-16.75s2.75-27.036,2.75-27.036"/>
	</g>
	<g>
		<path fill="#CCB097" d="M206.69,156.344c-0.383,2.415-0.623,4.851-0.775,7.286c-0.141,2.437-0.172,4.881-0.01,7.31
			c0.162,2.426,0.49,4.849,1.178,7.163c0.346,1.154,0.803,2.273,1.393,3.308c0.576,1.042,1.377,1.918,2.186,2.856
			c0.795,0.933,1.572,1.895,2.318,2.873c0.736,0.988,1.447,2.001,2.08,3.073c0.639,1.066,1.17,2.212,1.557,3.427
			c0.344,1.215,0.473,2.625-0.1,3.888c-0.57,1.271-1.746,2.073-2.902,2.597l-0.898,0.333l-0.225,0.083l-0.057,0.021l-0.014,0.005
			l-0.055,0.014l-0.027,0.005l-0.113,0.023l-0.449,0.091c-0.283,0.077-0.623,0.097-0.967,0.105c-0.355,0.022-0.65,0.006-0.959-0.004
			c-1.203-0.08-2.277,0.185-3.346,0.672c-0.512,0.296-1.057,0.514-1.543,0.869l-1.482,1.015l0.029-0.024
			c-0.422,0.356-0.834,0.686-1.279,0.994c-0.439,0.313-0.895,0.607-1.385,0.863c-0.25,0.123-0.48,0.269-0.76,0.356
			c-0.275,0.09-0.518,0.226-0.842,0.253c-0.309,0.052-0.623,0.094-0.867,0.079l-0.785,0.003l-0.785-0.002h-0.195h-0.098
			l-0.092-0.006l-0.023-0.004l-0.049-0.007l-0.389-0.059c-0.242-0.012-0.561-0.155-0.844-0.25c-0.311-0.099-0.525-0.239-0.777-0.362
			c-0.492-0.256-0.947-0.551-1.385-0.864c-0.445-0.309-0.859-0.638-1.281-0.994l0.031,0.024l-1.482-1.015
			c-0.488-0.355-1.031-0.573-1.543-0.869c-1.07-0.487-2.143-0.752-3.348-0.671c-0.307,0.009-0.607,0.025-0.941,0.004
			c-0.324-0.007-0.65-0.021-0.975-0.104l-0.486-0.1l-0.121-0.025l-0.031-0.007l-0.059-0.018l-0.053-0.02l-0.215-0.08l-0.859-0.318
			c-1.178-0.528-2.359-1.339-2.926-2.606c-0.572-1.263-0.443-2.673-0.098-3.888c0.385-1.216,0.918-2.359,1.555-3.428
			c0.633-1.072,1.344-2.085,2.08-3.072c0.748-0.981,1.52-1.938,2.316-2.873c0.805-0.931,1.621-1.829,2.188-2.857
			c0.59-1.033,1.047-2.153,1.393-3.308c0.689-2.314,1.014-4.736,1.178-7.162c0.162-2.429,0.131-4.873-0.01-7.31
			c-0.15-2.436-0.391-4.871-0.775-7.286c0.477,2.399,0.807,4.829,1.02,7.269c0.207,2.44,0.307,4.895,0.211,7.351
			c-0.084,2.454-0.396,4.915-1.055,7.306c-0.336,1.192-0.787,2.362-1.391,3.461c-0.602,1.131-1.434,2.065-2.207,2.997
			c-0.775,0.939-1.523,1.897-2.24,2.875c-0.709,0.983-1.389,1.987-1.98,3.032c-0.607,1.037-1.104,2.126-1.451,3.242
			c-0.312,1.117-0.385,2.303,0.072,3.284c0.451,0.995,1.412,1.661,2.436,2.126l0.861,0.314l0.217,0.078l0.053,0.02l0.014,0.005
			c-0.055-0.02-0.008-0.004-0.018-0.008l0.027,0.005l0.104,0.02l0.412,0.08c0.27,0.074,0.557,0.083,0.844,0.086
			c0.277,0.02,0.586,0.002,0.891-0.009c0.613-0.019,1.281-0.015,1.926,0.125c0.332,0.032,0.633,0.157,0.939,0.261
			c0.299,0.119,0.631,0.186,0.9,0.352c0.549,0.309,1.148,0.556,1.654,0.918l1.551,1.049l0.004,0.004l0.025,0.021
			c0.381,0.316,0.789,0.64,1.205,0.924c0.414,0.293,0.844,0.565,1.281,0.79c0.217,0.105,0.449,0.246,0.645,0.301
			c0.213,0.062,0.365,0.182,0.652,0.199l0.389,0.057l0.047,0.007l0.025,0.003l0.002,0.001c0.016,0.001-0.121-0.009-0.062-0.005
			h0.006h0.014h0.098h0.195l0.785-0.002l0.785,0.003c0.283,0.017,0.486-0.028,0.693-0.06c0.207-0.002,0.436-0.127,0.656-0.195
			c0.225-0.064,0.441-0.201,0.662-0.307c0.438-0.226,0.867-0.498,1.281-0.791c0.418-0.284,0.824-0.607,1.205-0.924l0.025-0.021
			l0.004-0.003l1.551-1.048c0.506-0.363,1.105-0.611,1.654-0.919c0.27-0.165,0.602-0.231,0.9-0.351
			c0.307-0.105,0.607-0.229,0.939-0.262c0.645-0.14,1.312-0.144,1.926-0.125c0.303,0.011,0.617,0.027,0.875,0.01
			c0.268-0.002,0.539-0.004,0.85-0.085l0.449-0.089l0.113-0.021l0.027-0.006c-0.012,0.004,0.051-0.012-0.025,0.007l0.014-0.005
			l0.051-0.019l0.205-0.075l0.824-0.299c1.045-0.47,2.012-1.145,2.457-2.135c0.457-0.982,0.385-2.168,0.072-3.285
			c-0.348-1.117-0.846-2.205-1.451-3.243c-0.592-1.046-1.27-2.049-1.979-3.032c-0.721-0.979-1.463-1.933-2.238-2.873
			c-0.771-0.925-1.617-1.882-2.209-2.998c-0.604-1.1-1.055-2.269-1.391-3.461c-0.66-2.391-0.973-4.852-1.057-7.306
			c-0.096-2.456,0.004-4.91,0.211-7.351C205.886,161.173,206.214,158.743,206.69,156.344z"/>
	</g>
	<g>
		<path fill="#FFFFFF" d="M383.577,396.177h-4v-10.508c-3.418-41.911-28.369-54.314-29.43-54.822l-93.193-39.024l1.545-3.689
			l93.285,39.065c2.965,1.416,28.27,14.735,31.787,58.229l0.006,0.161V396.177z M15.638,395.588h-4l0.006-10.161
			c3.594-44.424,30.52-57.633,31.664-58.174l93.409-39.12l1.545,3.689l-93.327,39.084c-0.977,0.464-25.863,12.682-29.297,54.763
			V395.588z"/>
	</g>
</g>
</svg>
