<?xml version="1.0" encoding="utf-8"?>
<!-- Generator: Adobe Illustrator 16.0.0, SVG Export Plug-In . SVG Version: 6.00 Build 0)  -->
<!DOCTYPE svg PUBLIC "-//W3C//DTD SVG 1.1//EN" "http://www.w3.org/Graphics/SVG/1.1/DTD/svg11.dtd">
<svg version="1.1" id="Layer_1" xmlns="http://www.w3.org/2000/svg" xmlns:xlink="http://www.w3.org/1999/xlink" x="0px" y="0px"
	 width="396.85px" height="396.851px" viewBox="0 0 396.85 396.851" enable-background="new 0 0 396.85 396.851"
	 xml:space="preserve">
	<defs>
	    <clipPath id="circle-clip">
	        <circle stroke="#000000" stroke-miterlimit="10" cx="200" cy="200" r="175" />
	    </clipPath>
	</defs>
<g>
	<rect width="400" height="400" class="player-bg" fill="rgba(0,0,0,0)"/>
	<rect x="146.021" y="210.49" fill="#E0C1A6" width="104.158" height="126.023"/>
	<path fill="#F4F6F6" d="M197.787,334.688c-52.613,0-52.119-49.037-52.119-49.037L40.262,329.793c0,0-32.732,14.384-36.564,65.693
		h387.998c-3.832-51.31-36.562-65.693-36.562-65.693l-105.406-44.142c0,0,0.494,49.037-52.119,49.037"/>
	<path fill="#E0C1A6" d="M133.971,174.755c0,0-10.832-6.772-8.559,6.64c2.271,13.412,5.682,36.598,13.184,36.598
		s8.854-6.478,8.854-6.478l2.572-8.07l-7.789-25.914L133.971,174.755z"/>
	<path fill="#E0C1A6" d="M262.082,174.755c0,0,10.832-6.772,8.559,6.64s-5.682,36.598-13.184,36.598s-8.854-6.478-8.854-6.478
		l-2.572-8.07l7.787-25.914L262.082,174.755z"/>
	<path fill="#D4B69D" d="M158.268,246.497c0,0,8.363,31.279,39.732,31.279s39.732-31.279,39.732-31.279H158.268z"/>
	<path fill="#E0C1A6" d="M135.869,178.516c0,0,10.227,23.796,12.65,38.039c1.088,6.388,6.793,29.971,17.354,41.672
		c11.215,12.427,23.035,13.641,30.611,13.641h3.033c7.576,0,19.396-1.214,30.609-13.641c10.561-11.701,16.266-35.284,17.354-41.672
		c2.426-14.243,12.652-38.039,12.652-38.039l3.031-59.405l-49.857-30.005l-59.775,10.115l-12.207,20.799l-5.455,42.27V178.516"/>
	<path fill="#1A1718" d="M252.252,199.079c0,0,4.906-9.956,3.77-17.003s2.273-55.465-16.367-70.013c0,0-12.568-10.003-28.867-1.819
		c-9.572,4.807-9.471,5.002-12.807,5.002H198c-3.334,0-3.232-0.195-12.805-5.002c-16.301-8.184-28.869,1.819-28.869,1.819
		c-18.639,14.548-14.094,62.512-15.23,69.559c-1.135,7.046,2.635,17.457,2.635,17.457s-13.34-27.688-13.318-41.78
		c0.027-17.289,1.137-50.236,22.277-63.193c0,0,17.049-36.598,67.967-18.867S285.893,148.798,252.252,199.079z"/>
	<path fill="#140F11" d="M156.752,112.063c0,0,12.568-10.003,28.869-1.819c9.572,4.807,9.471,5.002,12.805,5.002h-0.02
		c3.334,0,3.234-0.195,12.807-5.002c16.299-8.184,28.867,1.819,28.867,1.819c18.641,14.548,15.23,62.966,16.367,70.013
		s-3.77,17.003-3.77,17.003c31.867-47.63,18.672-106.337-31.596-123.841c-50.918-17.73-67.967,18.867-67.967,18.867
		s-5.252,10.229-2.07,22.959C151.045,117.064,154.111,113.73,156.752,112.063z"/>
	<path fill="#140F11" d="M207.473,111.608c0,0-0.455-12.388,12.389-12.388s37.166,33.528,34.893,88.766
		c0,0-5.381-83.652-35.963-83.426c0,0-4.652,1.276-4.652,4.39L207.473,111.608z"/>
	<path fill="#4D4648" d="M210.461,159.572c0,0,0-5.153,8.756-5.91c9.209-0.796,26.814-2.881,28.49,13.336
		c0.662,6.41-3.264-4.989-9.398-6.822C225.127,156.238,209.777,162.604,210.461,159.572z"/>
	<circle fill="#859894" cx="226.643" cy="170.805" r="3.701"/>
	<path fill="#CCB097" d="M212.549,167.034c0,0,0.391-0.388,1.156-0.97c0.773-0.567,1.896-1.379,3.387-2.112
		c1.48-0.742,3.303-1.469,5.359-1.885c1.029-0.185,2.107-0.341,3.213-0.347c1.105-0.009,2.232,0.061,3.338,0.269
		c1.111,0.184,2.186,0.532,3.221,0.916c0.518,0.194,1.006,0.443,1.498,0.666c0.471,0.264,0.936,0.523,1.395,0.779
		c0.434,0.292,0.859,0.578,1.277,0.859c0.393,0.313,0.775,0.619,1.148,0.918c0.715,0.63,1.393,1.226,1.949,1.839
		c0.578,0.594,1.078,1.163,1.48,1.702c0.418,0.524,0.779,0.981,1.043,1.385c0.537,0.794,0.844,1.248,0.844,1.248
		s-0.361-0.41-0.996-1.127c-0.301-0.37-0.705-0.786-1.17-1.259c-0.451-0.486-1-0.992-1.594-1.547
		c-0.582-0.565-1.279-1.104-2.01-1.67c-0.377-0.265-0.766-0.537-1.162-0.815c-0.412-0.253-0.832-0.513-1.26-0.775
		c-0.445-0.229-0.896-0.464-1.354-0.7c-0.477-0.192-0.945-0.419-1.436-0.602c-0.984-0.352-2.002-0.671-3.053-0.834
		c-2.086-0.412-4.24-0.341-6.219-0.041c-0.982,0.186-1.939,0.371-2.822,0.647c-0.887,0.263-1.711,0.562-2.455,0.882
		c-1.492,0.634-2.701,1.266-3.514,1.764C212.994,166.714,212.549,167.034,212.549,167.034z"/>
	<path fill="#CCB097" d="M234.561,164.541c0,0,0.66,0.27,1.498,0.914c0.436,0.302,0.875,0.73,1.359,1.181
		c0.436,0.493,0.928,1.005,1.322,1.592c0.191,0.297,0.383,0.594,0.572,0.887c0.205,0.281,0.334,0.603,0.473,0.905
		c0.141,0.3,0.26,0.598,0.377,0.877c0.127,0.274,0.217,0.547,0.264,0.812c0.244,1.038,0.311,1.729,0.311,1.729
		s-0.395-0.605-0.842-1.512c-0.201-0.464-0.586-0.935-0.883-1.483c-0.293-0.555-0.721-1.078-1.086-1.636
		c-0.17-0.289-0.383-0.548-0.588-0.808c-0.205-0.258-0.389-0.527-0.578-0.781c-0.412-0.475-0.76-0.962-1.094-1.347
		C235.002,165.072,234.561,164.541,234.561,164.541z"/>
	<path fill="#4D4648" d="M185.928,159.572c0,0,0-5.153-8.758-5.91c-9.207-0.796-26.812-2.881-28.488,13.336
		c-0.662,6.41,3.264-4.989,9.398-6.822C171.262,156.238,186.611,162.604,185.928,159.572z"/>
	<circle fill="#859894" cx="169.746" cy="170.805" r="3.701"/>
	<path fill="#CCB097" d="M183.84,167.034c0,0-0.447-0.32-1.266-0.81c-0.812-0.497-2.021-1.13-3.514-1.764
		c-0.744-0.32-1.57-0.619-2.455-0.882c-0.883-0.276-1.84-0.462-2.822-0.647c-1.979-0.3-4.133-0.371-6.219,0.041
		c-1.051,0.162-2.068,0.481-3.053,0.834c-0.49,0.183-0.959,0.409-1.436,0.602c-0.457,0.236-0.91,0.47-1.354,0.7
		c-0.428,0.263-0.848,0.522-1.26,0.775c-0.396,0.278-0.785,0.551-1.162,0.815c-0.73,0.566-1.428,1.104-2.01,1.67
		c-0.594,0.555-1.143,1.06-1.594,1.547c-0.465,0.472-0.869,0.889-1.17,1.259c-0.635,0.717-0.996,1.127-0.996,1.127
		s0.307-0.454,0.844-1.248c0.264-0.403,0.625-0.86,1.043-1.385c0.402-0.539,0.902-1.108,1.48-1.702
		c0.557-0.613,1.234-1.209,1.949-1.839c0.373-0.299,0.756-0.604,1.148-0.918c0.418-0.281,0.844-0.567,1.277-0.859
		c0.459-0.256,0.924-0.517,1.395-0.779c0.492-0.223,0.98-0.472,1.498-0.666c1.035-0.384,2.109-0.733,3.221-0.916
		c1.105-0.208,2.232-0.277,3.336-0.269c1.107,0.006,2.186,0.162,3.215,0.347c2.057,0.416,3.879,1.143,5.359,1.885
		c1.49,0.733,2.613,1.545,3.387,2.112C183.449,166.646,183.84,167.034,183.84,167.034z"/>
	<path fill="#CCB097" d="M161.828,164.541c0,0-0.443,0.531-1.105,1.329c-0.336,0.385-0.682,0.872-1.094,1.347
		c-0.189,0.254-0.373,0.524-0.578,0.781c-0.205,0.26-0.418,0.519-0.588,0.808c-0.365,0.558-0.793,1.082-1.086,1.636
		c-0.297,0.549-0.682,1.02-0.883,1.483c-0.447,0.906-0.842,1.512-0.842,1.512s0.066-0.69,0.311-1.729
		c0.047-0.265,0.137-0.537,0.264-0.812c0.115-0.279,0.236-0.577,0.377-0.877c0.139-0.303,0.268-0.624,0.473-0.905
		c0.189-0.292,0.381-0.59,0.572-0.887c0.393-0.587,0.887-1.098,1.32-1.592c0.486-0.449,0.926-0.879,1.361-1.181
		C161.166,164.812,161.828,164.541,161.828,164.541z"/>
	<path fill="#CCB097" d="M203.834,164.541c0.113,2.666,0.273,5.328,0.465,7.981c0.213,2.651,0.422,5.305,0.832,7.903
		c0.219,1.291,0.445,2.588,0.826,3.766l0.328,0.783c0.162,0.304,0.322,0.563,0.48,0.816l1.088,1.642
		c1.504,2.195,3,4.451,4.289,6.873c0.641,1.214,1.232,2.472,1.697,3.818c0.449,1.348,0.834,2.786,0.729,4.39
		c-0.025,0.795-0.244,1.623-0.58,2.41c-0.396,0.758-0.914,1.495-1.582,2.006c-1.307,1.084-2.822,1.561-4.246,1.839l-0.271,0.059
		l-0.307,0.046l-0.135,0.018l-0.225,0.013c-0.145,0.01-0.305,0.007-0.486-0.017c-0.143-0.005-0.416-0.074-0.643-0.168
		c-0.297-0.141-0.611-0.363-0.836-0.758c-0.197-0.354-0.242-0.736-0.23-0.967c0.002-0.151,0.02-0.232,0.035-0.329
		c0.016-0.091,0.037-0.202,0.057-0.262c0.178-0.581,0.373-0.896,0.553-1.229l0.514-0.879c0.16-0.27,0.307-0.529,0.404-0.747
		c0.113-0.2,0.109-0.43,0.107-0.196c-0.014,0.122,0.15,0.42,0.291,0.53c0.092,0.062,0.092,0.078,0.156,0.094
		c0,0,0.01,0.011,0.004,0.006c-0.029-0.001-0.059-0.005-0.086-0.011l-0.006-0.002c-0.033-0.002,0.279,0.012,0.139,0.006h-0.031
		l-0.062,0.001l-0.123,0.002l-0.25,0.003c-0.037,0.002-0.098-0.002-0.111,0.005l-0.018,0.022c-0.031,0.037-0.021-0.004-0.098,0.042
		c-0.068,0.044-0.141,0.054-0.215,0.106l-0.234,0.167l-0.25,0.231c-0.342,0.359-0.693,0.854-1.076,1.4
		c-0.391,0.547-0.797,1.159-1.428,1.777l-0.533,0.449c-0.215,0.139-0.434,0.275-0.66,0.397c-0.256,0.102-0.516,0.2-0.779,0.272
		c-0.273,0.045-0.551,0.076-0.826,0.096l0.15-0.007l-2.84,0.17l-2.764-0.163l0.076,0.002c-0.275-0.02-0.555-0.052-0.826-0.096
		c-0.266-0.073-0.525-0.172-0.781-0.273c-0.227-0.122-0.445-0.258-0.66-0.396l-0.533-0.45c-0.631-0.618-1.037-1.23-1.428-1.776
		c-0.385-0.546-0.734-1.042-1.078-1.401c-0.35-0.355-0.631-0.517-0.908-0.562c-0.062-0.037-0.154-0.004-0.23-0.016l-0.061-0.003
		l-0.031-0.003l-0.016-0.002c-0.084,0.01,0.107-0.016,0.082-0.012l-0.016,0.002l-0.246,0.037c0.037,0.006,0.113-0.015,0.242-0.114
		c0.139-0.11,0.307-0.409,0.291-0.532c-0.002-0.234-0.004-0.005,0.107,0.195c0.1,0.217,0.244,0.477,0.404,0.746l0.518,0.878
		c0.178,0.333,0.373,0.648,0.551,1.229c0.021,0.061,0.043,0.17,0.059,0.262c0.016,0.097,0.033,0.177,0.035,0.328
		c-0.004,0.148,0.006,0.241-0.035,0.433c-0.045,0.187-0.088,0.354-0.193,0.535c-0.225,0.396-0.537,0.62-0.836,0.764
		c-0.229,0.093-0.504,0.164-0.646,0.169l-0.26,0.022l-0.199-0.005c-0.137-0.004-0.268-0.013-0.371-0.029
		c-0.133-0.02-0.172-0.018-0.383-0.059l-0.244-0.055c-0.334-0.079-0.631-0.127-0.996-0.232c-0.381-0.122-0.768-0.236-1.139-0.378
		c-0.717-0.308-1.438-0.672-2.082-1.222c-0.668-0.512-1.186-1.248-1.584-2.008c-0.336-0.787-0.555-1.616-0.58-2.41
		c-0.104-1.605,0.277-3.045,0.729-4.393c0.465-1.347,1.057-2.605,1.697-3.818c1.291-2.422,2.783-4.679,4.289-6.873l1.088-1.642
		c0.17-0.271,0.332-0.541,0.473-0.8l0.357-0.859c0.344-1.082,0.59-2.428,0.805-3.705c0.41-2.599,0.621-5.252,0.832-7.902
		c0.193-2.654,0.354-5.316,0.469-7.982c0.188,2.663,0.303,5.332,0.334,8.007c0.035,2.675-0.012,5.351-0.223,8.048
		c-0.125,1.363-0.27,2.662-0.658,4.145l-0.164,0.473l-0.082,0.236l-0.039,0.119l-0.021,0.059l-0.004,0.015l-0.033,0.075
		l-0.016,0.031c-0.156,0.337-0.322,0.647-0.488,0.952c-0.334,0.601-0.678,1.179-1.02,1.755c-1.363,2.295-2.744,4.538-3.857,6.878
		c-0.557,1.165-1.049,2.351-1.404,3.54c-0.338,1.183-0.59,2.395-0.482,3.46c0.025,0.543,0.191,1.009,0.375,1.446
		c0.246,0.397,0.496,0.788,0.91,1.073c0.377,0.313,0.865,0.543,1.373,0.75l0.762,0.237c0.275,0.075,0.641,0.131,0.955,0.197
		l0.246,0.047c-0.049-0.009,0.08,0.007,0.111,0.01c0.061,0.01,0.098,0.008,0.127,0.007l0.051,0.003
		c-0.004-0.004-0.008-0.005-0.012-0.004c0.025,0.001-0.094,0.008-0.162,0.053c-0.152,0.062-0.328,0.19-0.471,0.437
		c-0.223,0.498-0.094,0.598-0.123,0.587c-0.018-0.058-0.15-0.329-0.301-0.573l-0.508-0.838c-0.182-0.304-0.369-0.621-0.553-1.009
		c-0.158-0.401-0.412-0.818-0.363-1.723c0.029-0.445,0.324-1.087,0.746-1.389c0.385-0.316,0.787-0.44,1.146-0.515l0.246-0.038
		l0.016-0.003l0.113-0.013l0.047-0.001l0.096-0.002l0.188-0.001c0.256,0.009,0.504-0.016,0.762,0.053
		c1.051,0.164,1.93,0.79,2.504,1.383c0.582,0.604,0.996,1.206,1.385,1.744c0.383,0.536,0.74,1.025,1.07,1.336
		c0.348,0.321,0.531,0.377,0.758,0.383l0.074,0.002l1.346,0.069l0.672,0.035l0.336,0.018l0.168,0.009l0.084,0.006l0.043,0.002
		l0.02,0.002h0.012h0.004l0.004,0.001l0,0c-0.033-0.001,0.078,0.002-0.074-0.002l2.539-0.133l0.141-0.007h0.01
		c0.225-0.007,0.41-0.062,0.758-0.383c0.33-0.312,0.688-0.801,1.07-1.337c0.389-0.538,0.801-1.141,1.385-1.744l0.486-0.443
		c0.18-0.143,0.387-0.276,0.582-0.408c0.426-0.24,0.893-0.456,1.547-0.546l0.227-0.032c0.068-0.008,0.092-0.003,0.139-0.005
		l0.25-0.001l0.125-0.001h0.062h0.031l0.17,0.008l0.025,0.003l0.408,0.064c0.154,0.037,0.324,0.092,0.482,0.149
		c0.203,0.104,0.371,0.17,0.582,0.351c0.42,0.303,0.713,0.943,0.742,1.388c0.049,0.903-0.205,1.32-0.365,1.722
		c-0.182,0.388-0.369,0.705-0.551,1.008l-0.51,0.837c-0.15,0.244-0.283,0.516-0.301,0.572c-0.029,0.012,0.1-0.09-0.125-0.586
		c-0.143-0.244-0.318-0.371-0.469-0.432c-0.068-0.046-0.186-0.052-0.158-0.053c-0.076,0.006,0.279,0.006,0.557-0.069
		c1.18-0.188,2.295-0.562,3.059-1.179c0.414-0.286,0.664-0.678,0.912-1.075c0.182-0.438,0.348-0.904,0.375-1.448
		c0.105-1.065-0.143-2.278-0.482-3.461c-0.355-1.189-0.848-2.375-1.404-3.541c-1.115-2.339-2.494-4.583-3.857-6.878
		c-0.342-0.575-0.686-1.154-1.021-1.755c-0.176-0.322-0.344-0.643-0.479-0.935c-0.154-0.384-0.262-0.721-0.389-1.083
		c-0.354-1.387-0.518-2.734-0.637-4.085C203.334,175.209,203.477,169.871,203.834,164.541z"/>
	<path fill="#CCB097" d="M180.422,202.99c0,0-1.016,1.503-2.537,3.758c-0.768,1.119-1.619,2.455-2.533,3.878
		c-0.906,1.429-1.865,2.956-2.754,4.52c-0.908,1.554-1.744,3.144-2.449,4.665c-0.34,0.767-0.664,1.508-0.93,2.227
		c-0.26,0.72-0.479,1.412-0.615,2.062c-0.07,0.325-0.137,0.638-0.17,0.937c-0.049,0.3-0.088,0.585-0.088,0.854
		c-0.039,0.539,0.016,1.012,0.092,1.391c0.045,0.191,0.084,0.361,0.119,0.509c0.057,0.142,0.107,0.261,0.146,0.358
		c0.082,0.197,0.125,0.302,0.125,0.302s-0.061-0.097-0.174-0.276c-0.057-0.092-0.127-0.205-0.209-0.339
		c-0.057-0.146-0.123-0.313-0.195-0.502c-0.127-0.382-0.246-0.87-0.275-1.436c-0.059-0.565-0.029-1.21,0.074-1.896
		c0.092-0.69,0.266-1.423,0.477-2.188c0.217-0.763,0.484-1.554,0.814-2.351c0.646-1.598,1.488-3.227,2.391-4.814
		c0.922-1.578,1.906-3.114,2.891-4.51c0.977-1.401,1.969-2.648,2.812-3.721c0.844-1.071,1.613-1.911,2.135-2.511
		C180.1,203.312,180.422,202.99,180.422,202.99z"/>
	<path fill="#CCB097" d="M215.428,202.99c0,0,0.322,0.322,0.854,0.915c0.521,0.6,1.291,1.439,2.135,2.511
		c0.844,1.072,1.836,2.319,2.812,3.721c0.984,1.396,1.969,2.932,2.891,4.51c0.902,1.588,1.746,3.217,2.393,4.814
		c0.328,0.797,0.596,1.588,0.814,2.351c0.211,0.765,0.383,1.497,0.475,2.188c0.105,0.687,0.133,1.331,0.076,1.896
		c-0.031,0.565-0.148,1.054-0.277,1.436c-0.072,0.188-0.137,0.356-0.193,0.502c-0.084,0.134-0.154,0.247-0.211,0.339
		c-0.113,0.18-0.174,0.276-0.174,0.276s0.045-0.104,0.125-0.302c0.041-0.098,0.09-0.217,0.148-0.358
		c0.033-0.147,0.074-0.317,0.117-0.509c0.076-0.379,0.131-0.852,0.092-1.391c0-0.269-0.039-0.554-0.088-0.854
		c-0.031-0.299-0.098-0.611-0.168-0.937c-0.139-0.65-0.357-1.342-0.615-2.062c-0.266-0.719-0.592-1.461-0.93-2.227
		c-0.707-1.521-1.543-3.112-2.449-4.665c-0.891-1.563-1.85-3.091-2.756-4.52c-0.914-1.423-1.766-2.759-2.533-3.878
		C216.443,204.493,215.428,202.99,215.428,202.99z"/>
	<path fill="#E9CFC4" d="M215.77,230.949c0,0-12.275-8.41-19.207-2.501h-0.797c-6.934-5.909-19.207,2.501-19.207,2.501
		S196.447,231.858,215.77,230.949z"/>
	<path fill="#F4E6E1" d="M176.559,230.949c0,0,9.205,7.956,13.865,7.956s3.182,0,3.182,0h4.998c0,0-1.477,0,3.182,0
		c4.66,0,13.867-7.956,13.867-7.956s-28.971,0.909-19.656,0.909C205.312,231.858,176.559,230.949,176.559,230.949z"/>
	<path fill="#231F20" d="M187.09,205.338c0,0,3.939,2.576,5.455-1.213l-3.484-5.046l-3.486,2.319L187.09,205.338z"/>
	<path fill="#231F20" d="M208.307,205.338c0,0-3.939,2.576-5.457-1.213l3.486-5.046l3.484,2.319L208.307,205.338z"/>
	<path fill="#140F11" d="M197.697,70.468c0,0,47.51,1.815,80.471,43.414c0,0-28.416-35.233-78.65-40.462"/>
	<path fill="#849794" d="M213.307,171.393c0,0,0.336-0.308,0.98-0.777c0.65-0.457,1.59-1.115,2.812-1.741
		c1.227-0.61,2.697-1.29,4.377-1.726c1.672-0.454,3.541-0.696,5.412-0.567c0.934,0.055,1.859,0.237,2.752,0.464
		c0.887,0.256,1.738,0.585,2.512,0.994c0.389,0.202,0.773,0.395,1.115,0.644c0.352,0.231,0.693,0.457,0.998,0.717
		c0.639,0.478,1.168,1.013,1.668,1.489c0.457,0.518,0.898,0.97,1.209,1.437c0.324,0.454,0.629,0.831,0.826,1.179
		c0.412,0.682,0.646,1.071,0.646,1.071s-0.291-0.347-0.803-0.955c-0.236-0.315-0.584-0.65-0.953-1.053
		c-0.359-0.413-0.846-0.798-1.316-1.272c-0.518-0.422-1.062-0.896-1.705-1.305c-0.307-0.225-0.648-0.413-0.996-0.605
		c-0.34-0.204-0.703-0.383-1.076-0.555c-0.738-0.363-1.551-0.614-2.375-0.853c-0.834-0.199-1.695-0.358-2.57-0.399
		c-1.748-0.142-3.514,0.069-5.135,0.424c-1.623,0.355-3.109,0.86-4.348,1.38c-1.234,0.53-2.258,1.011-2.947,1.396
		C213.695,171.155,213.307,171.393,213.307,171.393z"/>
	<path fill="#849794" d="M183.08,171.393c0,0-0.389-0.237-1.082-0.614c-0.691-0.386-1.713-0.866-2.947-1.396
		c-1.238-0.52-2.727-1.024-4.35-1.38c-1.619-0.354-3.387-0.565-5.133-0.424c-0.875,0.041-1.736,0.2-2.572,0.399
		c-0.824,0.238-1.635,0.489-2.373,0.853c-0.375,0.172-0.736,0.351-1.076,0.555c-0.348,0.192-0.689,0.381-0.996,0.605
		c-0.643,0.408-1.188,0.883-1.707,1.305c-0.469,0.475-0.955,0.859-1.314,1.272c-0.371,0.402-0.717,0.737-0.955,1.053
		c-0.51,0.608-0.801,0.955-0.801,0.955s0.234-0.39,0.646-1.071c0.197-0.348,0.502-0.725,0.826-1.179
		c0.311-0.466,0.752-0.919,1.209-1.437c0.5-0.476,1.029-1.011,1.668-1.489c0.305-0.26,0.646-0.485,0.998-0.717
		c0.342-0.249,0.727-0.44,1.115-0.644c0.773-0.409,1.625-0.738,2.512-0.994c0.893-0.227,1.816-0.409,2.752-0.464
		c1.869-0.129,3.738,0.113,5.41,0.567c1.682,0.436,3.152,1.115,4.377,1.726c1.225,0.626,2.162,1.284,2.814,1.741
		C182.744,171.085,183.08,171.393,183.08,171.393z"/>
	<path fill="#CCB097" d="M183.08,173.045c0,0-0.248,0.254-0.738,0.633c-0.49,0.377-1.201,0.914-2.127,1.445
		c-0.459,0.271-0.967,0.551-1.525,0.804c-0.547,0.282-1.154,0.507-1.777,0.755c-0.637,0.207-1.291,0.448-1.979,0.608
		c-0.691,0.147-1.387,0.333-2.104,0.405l-1.07,0.13c-0.357,0.011-0.715,0.021-1.068,0.032c-0.709,0.053-1.404-0.031-2.076-0.09
		c-0.676-0.025-1.311-0.189-1.912-0.315c-0.301-0.067-0.596-0.119-0.875-0.194c-0.273-0.096-0.537-0.188-0.791-0.277
		c-0.504-0.183-0.971-0.327-1.359-0.521c-0.385-0.198-0.721-0.371-0.998-0.513c-0.549-0.288-0.852-0.463-0.852-0.463
		s0.344,0.096,0.928,0.283c0.291,0.096,0.643,0.211,1.049,0.343c0.404,0.124,0.885,0.189,1.387,0.317
		c0.252,0.057,0.516,0.116,0.787,0.178c0.277,0.036,0.562,0.074,0.857,0.112c0.588,0.072,1.201,0.173,1.846,0.172
		c0.643,0.03,1.305,0.056,1.979,0.002c0.338-0.015,0.676-0.03,1.018-0.046l1.016-0.141c0.686-0.056,1.352-0.224,2.016-0.354
		c0.658-0.148,1.303-0.328,1.924-0.503c0.607-0.218,1.217-0.376,1.766-0.606c0.557-0.206,1.08-0.418,1.557-0.629
		c0.955-0.419,1.746-0.795,2.281-1.097C182.777,173.229,183.08,173.045,183.08,173.045z"/>
	<path fill="#CCB097" d="M214.566,173.045c0,0,0.303,0.184,0.844,0.472c0.535,0.302,1.326,0.678,2.281,1.097
		c0.477,0.211,0.998,0.423,1.557,0.629c0.549,0.23,1.158,0.389,1.766,0.606c0.621,0.175,1.266,0.354,1.924,0.503
		c0.664,0.129,1.33,0.298,2.016,0.354l1.016,0.141c0.342,0.016,0.68,0.031,1.018,0.046c0.674,0.054,1.336,0.028,1.979-0.002
		c0.645,0.001,1.258-0.1,1.846-0.172c0.295-0.038,0.58-0.076,0.857-0.112c0.271-0.062,0.535-0.121,0.787-0.178
		c0.502-0.128,0.982-0.193,1.387-0.317c0.404-0.132,0.758-0.247,1.049-0.343c0.584-0.188,0.928-0.283,0.928-0.283
		s-0.303,0.175-0.852,0.463c-0.277,0.142-0.613,0.314-0.998,0.513c-0.389,0.193-0.855,0.338-1.359,0.521
		c-0.254,0.089-0.518,0.182-0.791,0.277c-0.279,0.075-0.574,0.127-0.875,0.194c-0.602,0.126-1.236,0.29-1.912,0.315
		c-0.672,0.059-1.367,0.143-2.076,0.09c-0.354-0.011-0.711-0.021-1.068-0.033l-1.07-0.129c-0.717-0.072-1.412-0.258-2.104-0.406
		c-0.688-0.159-1.342-0.4-1.979-0.607c-0.623-0.248-1.23-0.473-1.777-0.755c-0.559-0.253-1.066-0.533-1.525-0.805
		c-0.926-0.53-1.637-1.067-2.127-1.444C214.814,173.299,214.566,173.045,214.566,173.045z"/>
	<path fill="#E0C1A6" d="M203.834,164.541c0,0-0.305,16.701,1.666,20.794c1.971,4.091,15.154,20.003,2.123,22.125
		c-3.74,0.608,2.861-4.633-0.436-4.937c-3.297-0.305-3.809,4.937-6.688,4.937c0,0-1.49,0.151-2.689,0.151s-2.688-0.151-2.688-0.151
		c-2.881,0-3.393-5.241-6.691-4.937c-3.295,0.304,3.307,5.545-0.434,4.937c-13.031-2.122,0.152-18.034,2.123-22.125
		c1.971-4.093,1.666-20.794,1.666-20.794"/>
	<g opacity="0.4">
		<path fill="#CCB097" d="M247.779,187.986c0,0-0.725,0.239-1.994,0.658c-1.27,0.417-3.061,1.071-5.195,1.883
			c-2.139,0.807-4.586,1.862-7.139,3.107c-1.279,0.618-2.566,1.322-3.83,2.1c-1.258,0.781-2.498,1.643-3.596,2.643
			c-1.1,0.982-2.109,2.101-2.668,3.392c-0.574,1.28-0.611,2.705-0.123,3.95c0.512,1.333,1.008,2.622,1.479,3.844
			c0.463,1.229,0.928,2.378,1.309,3.462c0.334,1.106,0.619,2.126,0.869,3.026c0.125,0.45,0.244,0.871,0.352,1.26
			c0.072,0.399,0.137,0.766,0.195,1.098c0.111,0.662,0.219,1.176,0.238,1.536c0.018,0.358,0.027,0.549,0.027,0.549
			s-0.027-0.188-0.082-0.543c-0.049-0.353-0.223-0.855-0.373-1.502c-0.082-0.322-0.174-0.679-0.271-1.066
			c-0.137-0.378-0.285-0.786-0.443-1.223c-0.316-0.871-0.672-1.852-1.035-2.927c-0.426-1.059-0.945-2.19-1.461-3.396
			c-0.52-1.21-1.096-2.456-1.613-3.809c-0.588-1.413-0.57-3.156,0.076-4.63c0.627-1.49,1.707-2.709,2.859-3.766
			c1.178-1.041,2.473-1.909,3.777-2.693c1.309-0.779,2.631-1.477,3.939-2.085c2.611-1.229,5.148-2.122,7.324-2.854
			c2.18-0.732,4.037-1.201,5.33-1.541C247.029,188.132,247.779,187.986,247.779,187.986z"/>
	</g>
	<g opacity="0.4">
		<path fill="#CCB097" d="M147.863,187.986c0,0,0.752,0.146,2.049,0.473c1.295,0.34,3.152,0.809,5.33,1.541s4.715,1.625,7.326,2.854
			c1.309,0.607,2.631,1.306,3.939,2.085c1.303,0.784,2.598,1.652,3.777,2.693c1.15,1.057,2.232,2.274,2.857,3.765
			c0.648,1.475,0.666,3.218,0.078,4.631c-0.518,1.353-1.094,2.599-1.613,3.809c-0.516,1.205-1.035,2.337-1.461,3.396
			c-0.363,1.075-0.719,2.055-1.035,2.927c-0.158,0.437-0.307,0.845-0.443,1.223c-0.098,0.388-0.189,0.744-0.271,1.066
			c-0.15,0.646-0.324,1.149-0.373,1.502c-0.055,0.354-0.082,0.543-0.082,0.543s0.01-0.19,0.027-0.549
			c0.02-0.36,0.127-0.874,0.238-1.536c0.059-0.332,0.123-0.698,0.195-1.098c0.107-0.389,0.227-0.81,0.352-1.26
			c0.25-0.9,0.535-1.92,0.869-3.026c0.381-1.084,0.846-2.232,1.309-3.462c0.471-1.222,0.967-2.511,1.48-3.844
			c0.486-1.245,0.449-2.67-0.125-3.95c-0.559-1.291-1.568-2.409-2.67-3.392c-1.098-1-2.336-1.861-3.596-2.643
			c-1.262-0.777-2.549-1.482-3.828-2.1c-2.555-1.245-5.002-2.301-7.139-3.107c-2.135-0.812-3.928-1.466-5.195-1.883
			C148.59,188.226,147.863,187.986,147.863,187.986z"/>
	</g>
	<path opacity="0.15" fill="#F5CFB2" d="M210.883,182.986c0,0,2.711,13.827,15.531,10.91c9.125-2.076,17.656-8.864,17.656-8.864
		S223.309,187.305,210.883,182.986z"/>
	<path opacity="0.15" fill="#F5CFB2" d="M184.969,182.986c0,0-2.711,13.827-15.531,10.91c-9.127-2.076-17.658-8.864-17.658-8.864
		S172.543,187.305,184.969,182.986z"/>
	<path fill="#8BDC65" d="M13.727,395.49h367.941c-3.459-42.745-28.596-55.602-30.568-56.545l-93.283-39.065
		c-2.055,8.444-6.314,19.177-15.133,28.085c-10.951,11.062-26.057,16.688-44.896,16.724l0,0c-0.062,0-0.119,0-0.18,0
		c-18.84-0.036-33.945-5.662-44.896-16.724c-8.818-8.908-13.078-19.641-15.133-28.085l-93.326,39.083
		C42.754,339.671,17.215,352.375,13.727,395.49z"/>
	<path fill="#8FAC6C" d="M250.141,285.651c0,0,0.494,49.037-52.119,49.037c-52.615,0-52.121-49.037-52.121-49.037l-10.455,4.176
		c3.281,31.87,30.211,56.729,62.949,56.729c32.568,0,59.379-24.606,62.885-56.24L250.141,285.651z"/>
	<path fill="#8FAC6C" d="M351.1,338.945l-93.283-39.065c-0.629,2.582-1.467,5.379-2.574,8.271l-0.34,3.611
		c0,0,59.111,29.013,61.576,83.729h65.189C378.209,352.745,353.072,339.889,351.1,338.945z"/>
	<path fill="#8FAC6C" d="M44.295,338.945l93.283-39.065c0.629,2.582,1.467,5.379,2.574,8.271l0.34,3.611
		c0,0-59.111,29.013-61.576,83.729H13.727C17.186,352.745,42.322,339.889,44.295,338.945z"/>
</g>
</svg>
