<?xml version="1.0" encoding="utf-8"?>
<!-- Generator: Adobe Illustrator 16.0.0, SVG Export Plug-In . SVG Version: 6.00 Build 0)  -->
<!DOCTYPE svg PUBLIC "-//W3C//DTD SVG 1.1//EN" "http://www.w3.org/Graphics/SVG/1.1/DTD/svg11.dtd">
<svg version="1.1" id="Layer_1" xmlns="http://www.w3.org/2000/svg" xmlns:xlink="http://www.w3.org/1999/xlink" x="0px" y="0px"
	 width="396.85px" height="396.851px" viewBox="0 0 396.85 396.851" enable-background="new 0 0 396.85 396.851"
	 xml:space="preserve">
	<defs>
	    <clipPath id="circle-clip">
	        <circle stroke="#000000" stroke-miterlimit="10" cx="200" cy="200" r="175" />
	    </clipPath>
	</defs>
<g>
	<rect width="400" height="400" class="player-bg" fill="rgba(0,0,0,0)"/>
	<polygon fill="#CCB097" points="315.246,302.87 200,352.479 87.088,304.354 145.5,276.979 145.5,222.897 251.836,222.897 
		251.836,276.482 	"/>
	<path fill="#BFA48D" d="M151.779,236.408c0,0,21.764,51.725,44.375,51.725h5.371c22.611,0,44.375-51.725,44.375-51.725H151.779z"/>
	<path fill="#CCB097" d="M263.707,149.918c0,0-5.371,72.923-17.523,86.49c-12.154,13.566-26.57,28.83-40.984,28.83h-12.436
		c-14.416,0-28.83-15.264-40.984-28.83c-12.154-13.567-17.525-86.49-17.525-86.49V92.823l32.855-33.635l53.025,2.261l40.18,35.473
		L263.707,149.918z"/>
	<path fill="#231F20" d="M194.316,265.025c0-2.574,2.09-4.663,4.664-4.663c2.576,0,4.664,2.089,4.664,4.663"/>
	<path fill="#E9CFC4" d="M221.512,216.971c0,0-12.627-12.595-22.424-6.564h-0.189c-9.799-6.03-22.424,6.564-22.424,6.564
		S199.09,215.999,221.512,216.971z"/>
	<path fill="#F4E6E1" d="M221.723,216.971c0,0-7.537,11.525-13.943,11.525s-5.465,0-5.465,0h-6.645c0,0,0.943,0-5.463,0
		s-13.943-11.525-13.943-11.525H221.723z"/>
	<path opacity="0.5" fill="#312D2E" d="M207.648,144.835c0,0,17.148-25.251,42.209-1.319
		C249.857,143.516,237.609,137.109,207.648,144.835z"/>
	<path fill="#231F20" d="M211.605,155.01c0,0,0.336-0.379,1.014-0.946c0.33-0.298,0.768-0.609,1.252-0.992
		c0.514-0.342,1.064-0.78,1.738-1.137c0.332-0.189,0.676-0.387,1.033-0.592c0.371-0.178,0.756-0.363,1.15-0.553
		c0.779-0.406,1.668-0.683,2.568-1.018c0.465-0.122,0.936-0.246,1.414-0.372l0.725-0.186l0.748-0.107
		c0.502-0.071,1.006-0.143,1.514-0.214l1.541-0.043c1.033-0.072,2.053,0.128,3.061,0.221c0.508,0.027,0.99,0.18,1.471,0.303
		c0.479,0.125,0.953,0.249,1.418,0.37c0.924,0.266,1.754,0.703,2.566,1.028c0.201,0.088,0.398,0.174,0.594,0.26
		c0.184,0.108,0.363,0.215,0.541,0.32c0.354,0.211,0.695,0.414,1.023,0.609c0.652,0.394,1.268,0.726,1.727,1.149
		c0.477,0.39,0.895,0.729,1.238,1.009c0.674,0.566,1.059,0.89,1.059,0.89s-0.428-0.267-1.176-0.733
		c-0.367-0.237-0.814-0.525-1.328-0.855c-0.492-0.359-1.137-0.617-1.795-0.967c-0.332-0.169-0.678-0.344-1.035-0.525
		c-0.178-0.091-0.359-0.183-0.545-0.276c-0.195-0.069-0.393-0.14-0.594-0.21c-0.809-0.261-1.633-0.619-2.523-0.854
		c-0.906-0.174-1.82-0.467-2.779-0.562c-0.963-0.075-1.934-0.259-2.916-0.177l-1.467,0.021c-0.486,0.063-0.969,0.126-1.447,0.188
		c-0.967,0.079-1.879,0.379-2.785,0.555c-0.871,0.306-1.754,0.499-2.533,0.843c-0.396,0.158-0.781,0.312-1.152,0.461
		c-0.361,0.176-0.711,0.345-1.047,0.508c-0.678,0.314-1.26,0.676-1.803,0.953c-0.516,0.322-0.982,0.582-1.338,0.838
		C212,154.695,211.605,155.01,211.605,155.01z"/>
	<path fill="#B39B85" d="M210.475,153.125c0,0,0.404-0.427,1.201-1.074c0.801-0.638,1.971-1.539,3.516-2.403
		c1.537-0.87,3.418-1.762,5.549-2.41c1.068-0.303,2.186-0.6,3.346-0.763c1.156-0.183,2.346-0.28,3.537-0.29
		c1.191,0.005,2.385,0.074,3.543,0.26c1.162,0.155,2.283,0.44,3.35,0.756c1.066,0.319,2.072,0.707,2.994,1.14
		c0.467,0.199,0.91,0.417,1.328,0.649c0.418,0.23,0.836,0.426,1.211,0.66c0.754,0.463,1.451,0.876,2.018,1.318
		c0.576,0.426,1.09,0.777,1.475,1.117c0.783,0.662,1.229,1.04,1.229,1.04s-0.488-0.321-1.342-0.883
		c-0.414-0.298-0.957-0.598-1.564-0.962c-0.6-0.378-1.324-0.716-2.082-1.137c-0.381-0.207-0.803-0.375-1.223-0.575
		c-0.422-0.203-0.865-0.39-1.332-0.556c-0.92-0.369-1.918-0.677-2.951-0.966c-1.039-0.28-2.129-0.498-3.244-0.646
		c-1.113-0.168-2.26-0.22-3.402-0.216c-1.143-0.003-2.287,0.079-3.402,0.244c-1.115,0.152-2.203,0.385-3.246,0.653
		c-1.033,0.298-2.037,0.59-2.961,0.951c-0.928,0.346-1.787,0.728-2.566,1.109c-1.557,0.769-2.818,1.494-3.662,2.064
		C210.938,152.764,210.475,153.125,210.475,153.125z"/>
	<circle fill="#231F20" cx="226.303" cy="153.293" r="4.719"/>
	<path fill="#B39B85" d="M213.678,158.012c0,0,13.189,8.682,27.322,1.145C241,159.156,227.059,160.449,213.678,158.012z"/>
	<path opacity="0.5" fill="#312D2E" d="M187.676,144.835c0,0-17.15-25.251-42.211-1.319
		C145.465,143.516,157.715,137.109,187.676,144.835z"/>
	<path fill="#231F20" d="M183.719,155.01c0,0-0.396-0.314-1.133-0.792c-0.355-0.256-0.822-0.516-1.338-0.838
		c-0.543-0.277-1.125-0.639-1.803-0.953c-0.334-0.163-0.684-0.332-1.045-0.508c-0.373-0.148-0.758-0.303-1.154-0.461
		c-0.779-0.344-1.662-0.537-2.531-0.843c-0.906-0.176-1.82-0.476-2.787-0.555c-0.479-0.062-0.961-0.125-1.445-0.188l-1.469-0.021
		c-0.982-0.082-1.953,0.102-2.914,0.177c-0.961,0.095-1.875,0.388-2.779,0.562c-0.891,0.234-1.715,0.593-2.525,0.854
		c-0.201,0.07-0.398,0.141-0.594,0.21c-0.184,0.094-0.365,0.186-0.545,0.276c-0.357,0.182-0.703,0.356-1.035,0.525
		c-0.658,0.35-1.301,0.607-1.795,0.967c-0.512,0.33-0.959,0.618-1.328,0.855c-0.748,0.467-1.176,0.733-1.176,0.733
		s0.387-0.323,1.061-0.89c0.344-0.28,0.76-0.619,1.238-1.009c0.457-0.424,1.072-0.756,1.725-1.149
		c0.328-0.195,0.67-0.398,1.023-0.609c0.178-0.105,0.359-0.212,0.541-0.32c0.195-0.086,0.395-0.172,0.594-0.26
		c0.812-0.325,1.645-0.763,2.566-1.028c0.467-0.121,0.939-0.245,1.42-0.37c0.48-0.123,0.961-0.275,1.471-0.303
		c1.006-0.093,2.027-0.293,3.059-0.221l1.541,0.043c0.508,0.071,1.014,0.143,1.514,0.214l0.748,0.107l0.725,0.186
		c0.479,0.126,0.951,0.25,1.416,0.372c0.898,0.335,1.789,0.611,2.568,1.018c0.395,0.189,0.777,0.375,1.148,0.553
		c0.357,0.205,0.703,0.402,1.033,0.592c0.674,0.356,1.227,0.795,1.738,1.137c0.486,0.383,0.922,0.694,1.252,0.992
		C183.383,154.631,183.719,155.01,183.719,155.01z"/>
	<path fill="#B39B85" d="M184.848,153.125c0,0-0.461-0.361-1.314-0.918c-0.846-0.57-2.107-1.296-3.664-2.064
		c-0.777-0.382-1.637-0.764-2.566-1.109c-0.924-0.361-1.926-0.653-2.959-0.951c-1.043-0.269-2.131-0.501-3.248-0.653
		c-1.115-0.165-2.258-0.247-3.402-0.244c-1.141-0.004-2.287,0.048-3.4,0.216c-1.117,0.148-2.207,0.366-3.244,0.646
		c-1.035,0.289-2.033,0.597-2.951,0.966c-0.467,0.166-0.912,0.353-1.332,0.556c-0.422,0.2-0.844,0.368-1.223,0.575
		c-0.76,0.421-1.484,0.759-2.084,1.137c-0.605,0.364-1.15,0.664-1.562,0.962c-0.855,0.562-1.344,0.883-1.344,0.883
		s0.447-0.378,1.229-1.04c0.387-0.34,0.9-0.691,1.477-1.117c0.566-0.442,1.262-0.855,2.016-1.318c0.375-0.234,0.793-0.43,1.211-0.66
		c0.418-0.232,0.861-0.45,1.33-0.649c0.92-0.433,1.926-0.82,2.992-1.14c1.066-0.315,2.188-0.601,3.352-0.756
		c1.156-0.186,2.35-0.255,3.541-0.26c1.191,0.01,2.381,0.107,3.539,0.29c1.16,0.163,2.275,0.46,3.346,0.763
		c2.129,0.648,4.012,1.54,5.547,2.41c1.545,0.864,2.715,1.766,3.516,2.403C184.445,152.698,184.848,153.125,184.848,153.125z"/>
	<circle fill="#231F20" cx="169.02" cy="153.293" r="4.719"/>
	<path fill="#B39B85" d="M181.645,158.012c0,0-13.189,8.682-27.322,1.145C154.322,159.156,168.266,160.449,181.645,158.012z"/>
	<path fill="#B39B85" d="M189.184,146.676c0,0,0.209,0.531,0.535,1.552c0.32,1.021,0.781,2.53,1.174,4.501
		c0.391,1.968,0.77,4.398,0.76,7.231c-0.025,2.807-0.352,6.12-1.889,9.378c-1.461,3.159-3.291,6.39-5.143,9.824
		c-0.922,1.718-1.846,3.486-2.705,5.312c-0.83,1.823-1.678,3.723-2.086,5.601c-0.203,0.913-0.236,1.873-0.01,2.359
		c0.104,0.237,0.25,0.335,0.473,0.472c0.146,0.041,0.258,0.121,0.461,0.139l0.271,0.056l0.318,0.012l0.16,0.008l0.08,0.004
		l0.039,0.003c0.127-0.004-0.127,0.009-0.082,0.005l0.412-0.041c0.043-0.024,0-0.035,0.014-0.023
		c0.025-0.023,0.061-0.04,0.098-0.059c0.145-0.094,0.402-0.42,0.734-0.898c0.332-0.469,0.795-1.062,1.434-1.532
		c0.631-0.483,1.408-0.781,2.119-0.9c0.367-0.081,0.709-0.099,1.053-0.115l0.26-0.013l0.338,0.021l0.42,0.034
		c0.307,0.034,0.852,0.166,1.217,0.299c0.352,0.161,0.725,0.312,1.021,0.533c1.27,0.846,1.975,1.898,2.678,2.684
		c0.691,0.824,1.336,1.361,2.064,1.627c0.363,0.141,0.768,0.197,1.199,0.213c0.479,0.021,1.113,0.003,1.662,0.006l0.855,0.002
		l0.428,0.001l0.213,0.001c0.117-0.004-0.098,0.006-0.057,0.003l0.053-0.003l0.107-0.008l0.426-0.028
		c0.145-0.009,0.301-0.017,0.35-0.047c0.158-0.061,0.297-0.043,0.488-0.142c0.729-0.265,1.373-0.803,2.064-1.627
		c0.701-0.785,1.406-1.838,2.678-2.684c0.615-0.427,1.395-0.707,2.15-0.821l0.564-0.048l0.141-0.01l0.07-0.005
		c0.061,0.001-0.033-0.006,0.152,0l0.209,0.012l0.422,0.024c0.129,0.005,0.379,0.053,0.562,0.083
		c0.408,0.056,0.762,0.191,1.127,0.317c0.359,0.167,0.715,0.346,1.031,0.59c0.639,0.47,1.098,1.064,1.434,1.53
		c0.334,0.479,0.592,0.805,0.734,0.897c0.15,0.088,0.203,0.143,0.715,0.104c1-0.064,1.299-0.26,1.525-0.675
		c0.225-0.485,0.191-1.444-0.012-2.357c-0.406-1.878-1.258-3.776-2.088-5.6c-0.857-1.826-1.781-3.595-2.703-5.312
		c-1.852-3.436-3.684-6.663-5.145-9.825l-0.137-0.296l-0.033-0.074l-0.049-0.117l-0.057-0.148l-0.225-0.59
		c-0.143-0.399-0.311-0.759-0.426-1.18c-0.217-0.841-0.49-1.663-0.582-2.456c-0.066-0.396-0.129-0.788-0.193-1.174
		c-0.033-0.389-0.064-0.771-0.098-1.149c-0.084-0.753-0.07-1.485-0.088-2.193c-0.008-2.834,0.371-5.265,0.762-7.232
		c0.393-1.971,0.854-3.479,1.174-4.501c0.328-1.021,0.537-1.552,0.537-1.552s-0.646,2.204-1.121,6.146
		c-0.227,1.967-0.385,4.377-0.203,7.099c0.062,0.679,0.096,1.382,0.227,2.09c0.055,0.355,0.109,0.716,0.166,1.082
		c0.084,0.357,0.17,0.721,0.256,1.088c0.145,0.751,0.422,1.438,0.643,2.172c0.115,0.363,0.318,0.75,0.477,1.13l0.256,0.577
		l0.064,0.145l0.016,0.037c0.01,0.021-0.023-0.059-0.002-0.008l0.037,0.068l0.146,0.277c1.574,2.968,3.57,6.09,5.551,9.487
		c0.996,1.698,2.006,3.459,2.969,5.32c0.951,1.876,1.875,3.824,2.449,6.114c0.133,0.579,0.248,1.178,0.266,1.845
		c0.045,0.644-0.047,1.398-0.336,2.155c-0.303,0.786-0.99,1.473-1.719,1.856c-0.363,0.161-0.729,0.331-1.125,0.395l-0.588,0.114
		l-0.41,0.029c-0.57,0.088-1.689,0.021-2.461-0.529c-0.781-0.533-1.158-1.149-1.482-1.56c-0.623-0.852-1.016-1.151-1.742-1.276
		c-0.094-0.012-0.117-0.042-0.268-0.048l-0.42-0.021l-0.211-0.011c0.15,0.004,0.021,0.004,0.047,0.006l-0.035,0.004l-0.068,0.009
		l-0.277,0.022c-0.352,0.066-0.662,0.163-0.975,0.389c-0.635,0.4-1.268,1.239-2.045,2.162c-0.75,0.912-1.84,1.971-3.266,2.493
		c-0.326,0.154-0.766,0.224-1.156,0.312c-0.225,0.05-0.355,0.054-0.494,0.064l-0.426,0.031l-0.107,0.008l-0.217,0.01l-0.213,0.001
		l-0.428,0.001l-0.855,0.002c-0.588-0.008-1.094,0.009-1.752-0.02c-0.705-0.027-1.443-0.141-2.143-0.41
		c-1.424-0.523-2.516-1.581-3.266-2.493c-0.775-0.922-1.408-1.762-2.045-2.163c-0.152-0.128-0.318-0.169-0.471-0.257
		c-0.076-0.038-0.123-0.029-0.184-0.056c-0.082-0.014-0.051-0.061-0.232-0.065l-0.42-0.037l-0.105-0.009l-0.053-0.005
		c0.039,0.002-0.162-0.01,0.074,0.002l-0.162,0.01c-0.217,0.01-0.436,0.015-0.617,0.061c-0.803,0.139-1.139,0.431-1.781,1.282
		c-0.324,0.41-0.701,1.025-1.482,1.559c-0.199,0.121-0.412,0.229-0.635,0.326c-0.252,0.084-0.557,0.162-0.783,0.195l-0.412,0.031
		c0.012,0.001-0.275,0.013-0.184,0.006l-0.064-0.004l-0.125-0.008l-0.252-0.018l-0.504-0.039l-0.533-0.112
		c-0.348-0.054-0.727-0.226-1.088-0.387c-0.729-0.384-1.414-1.068-1.717-1.854c-0.291-0.757-0.381-1.511-0.336-2.154
		c0.018-0.666,0.133-1.265,0.266-1.844c0.57-2.29,1.498-4.237,2.447-6.112c0.965-1.861,1.975-3.623,2.971-5.321
		c1.979-3.397,3.977-6.518,5.551-9.488c1.541-2.89,2.072-5.95,2.283-8.659c0.182-2.723,0.023-5.132-0.203-7.099
		C189.83,148.88,189.184,146.676,189.184,146.676z"/>
	<path fill="#CCB097" d="M263.434,153.293c0,0,5.832-8.458,15.254-8.458c8.104,0,1.885,42.02-1.318,46.542
		c-3.205,4.521-15.641,12.248-18.844-9.986l1.695-28.098H263.434z"/>
	<path fill="#CCB097" d="M134.186,153.293c0,0-5.83-8.458-15.254-8.458c-8.102,0-1.885,42.02,1.318,46.542
		c3.205,4.521,15.641,12.248,18.844-9.986l-1.695-28.098H134.186z"/>
	<path opacity="0.15" fill="#312D2E" d="M231.035,247.541l0.797-0.851c0,0,3.85-32.325,0-35.526
		c-3.961-3.298-18.082-12.061-30.672-12.061h-4.926c-12.59,0-26.711,8.763-30.672,12.061c-3.787,3.148-0.125,34.473-0.006,35.479
		c-5.721-3.988-10.348-7.638-11.723-8.207c11.76,13.016,25.459,26.803,39.158,26.803h12.438c14.414,0,28.83-15.264,40.982-28.83
		C244.818,237.066,238.434,242.369,231.035,247.541z M199.33,254.125h-0.119c-7.727,0-9.986,3.769-9.986,3.769
		c-3.84,0-8.805-2.11-13.807-4.944l0,0c0,0-13.705-25.203-5.412-35.979c8.289-10.775,26.229-10.518,26.229-10.518h4.926
		c0,0,17.938-0.258,26.229,10.518c8.289,10.772-4.729,35.967-4.736,35.979c-4.938,2.864-9.723,4.944-13.338,4.944
		C209.314,257.894,207.055,254.125,199.33,254.125z"/>
	<path fill="#62585B" d="M136.232,130.512c0,0-0.768,33.661,0,40.123c0.77,6.463-26.678-86.2,34.725-123.696
		c0,0,121.109-31.865,90.961,121.905c0,0,2.072-69.803-12.061-79.978c0,0-51.631-25.438-104.393,8.479
		C145.465,97.346,136.574,103.756,136.232,130.512z"/>
	<path fill="#271514" d="M207.648,144.835c0,0,11.086-16.646,24.498-8.103C236.668,139.612,207.648,144.835,207.648,144.835z"/>
	<path fill="#271514" d="M187.676,144.835c0,0-11.086-16.646-24.498-8.103C158.654,139.612,187.676,144.835,187.676,144.835z"/>
	<path fill="#271514" d="M260.311,134.213c0,0,2.686-14.547-6.84-34.006c-1.174,7.093-4.17,20.17-10.668,23.621
		c0,0,7.092-19.113,6.797-28.877c-0.098-0.078-0.195-0.162-0.295-0.236c0,0-2.07-1.019-5.799-2.375
		c-7.5,7.737-20.734,31-32.453,33.184c0,0,9.447-16.393,6.607-22.046c-2.838-5.653-11.883,18.372-23.896,18.372
		c0,0,17.053-23.867,11.367-36.289c-2.242-0.014-4.543,0.044-6.893,0.174c-2.385,11.293-5.613,39.488-48.238,47.986
		c0,0-6.719-19.429-1.35-32.822c-1.244,0.736-2.492,1.495-3.738,2.297c0,0-8.891,6.41-9.232,33.166c0,0-0.768-6.463,0,0
		c0,0-22.928-93.464,62.592-93.464C283.793,42.897,264.801,126.603,260.311,134.213z"/>
	<path fill="#231F20" d="M183.719,193.277c0,0,1.979,2.941,9.609,0l-4.805-5.768L183.719,193.277z"/>
	<path fill="#231F20" d="M213.678,193.277c0,0-1.979,2.941-9.609,0l4.805-5.768L213.678,193.277z"/>
	<path fill="#CCB097" d="M189.184,146.676c0,0,4.334,12.857,0,21.901c-4.336,9.046-16.771,25.948-7.537,25.948
		c2.637,0,1.883-3.525,6.029-3.525c4.145,0,4.168,5.465,9.057,5.465h3.064c4.889,0,4.91-5.465,9.057-5.465s3.393,3.525,6.029,3.525
		c9.234,0-3.203-16.902-7.537-25.948c-4.334-9.044,0-21.901,0-21.901"/>
	<circle fill="#E9ECEC" cx="274.336" cy="185.137" r="3.562"/>
	<path fill="#E9ECEC" d="M276.709,196.843c0,1.249-1.012,2.261-2.262,2.261h-5.512c-1.25,0-2.262-1.012-2.262-2.261v-3.534
		c0-1.248,1.012-2.261,2.262-2.261h5.512c1.25,0,2.262,1.013,2.262,2.261V196.843z"/>
	<circle fill="#E9ECEC" cx="123.26" cy="185.137" r="3.562"/>
	<path fill="#E9ECEC" d="M120.887,196.843c0,1.249,1.014,2.261,2.262,2.261h5.514c1.25,0,2.26-1.012,2.26-2.261v-3.534
		c0-1.248-1.01-2.261-2.26-2.261h-5.514c-1.248,0-2.262,1.013-2.262,2.261V196.843z"/>
	<path fill="#9B1A17" d="M262.037,281.325l93.824,39.292c0,0,36.928,16.228,36.928,75.697H4.061
		c0-59.47,36.928-75.697,36.928-75.697l91.684-38.394l65.32,56.416L262.037,281.325z"/>
	<polyline fill="none" points="356.066,396.878 356.066,321.175 259.562,280.762 198.541,333.729 136.844,280.603 44.256,319.249 
		44.256,396.872 	"/>
	<g>
		<defs>
			<path id="SVGID_27_" d="M262.037,281.325l93.824,39.292c0,0,36.928,16.228,36.928,75.697H4.061
				c0-59.47,36.928-75.697,36.928-75.697l91.684-38.394l65.32,56.416L262.037,281.325z"/>
		</defs>
		<clipPath id="SVGID_2_">
			<use xlink:href="#SVGID_27_"  overflow="visible"/>
		</clipPath>
		<g clip-path="url(#SVGID_2_)">
			<rect x="182.662" y="273.312" fill="#00405E" width="35" height="138.17"/>
		</g>
		<g clip-path="url(#SVGID_2_)">
			<rect x="104.709" y="273.312" fill="#00405E" width="35" height="138.17"/>
		</g>
		<g clip-path="url(#SVGID_2_)">
			<rect x="-2.574" y="273.312" fill="#00405E" width="64.33" height="138.17"/>
		</g>
		<g clip-path="url(#SVGID_2_)">
			<rect x="338.566" y="273.312" fill="#00405E" width="58.271" height="138.17"/>
		</g>
		<g clip-path="url(#SVGID_2_)">
			<rect x="260.615" y="273.312" fill="#00405E" width="35" height="138.17"/>
		</g>
	</g>
	<g>
		<defs>
			<polyline id="SVGID_29_" points="354.854,395.771 354.854,320.068 258.35,279.655 197.328,332.622 136.832,280.48 
				43.043,319.757 43.043,395.766 			"/>
		</defs>
		<clipPath id="SVGID_4_">
			<use xlink:href="#SVGID_29_"  overflow="visible"/>
		</clipPath>
		<g clip-path="url(#SVGID_4_)">
			<polygon fill="#F2E50D" points="197.387,342.538 119.221,275.167 129.014,263.806 197.352,322.706 265.189,263.822 
				275.021,275.15 			"/>
		</g>
	</g>
</g>
</svg>
