<?xml version="1.0" encoding="utf-8"?>
<!-- Generator: Adobe Illustrator 16.0.0, SVG Export Plug-In . SVG Version: 6.00 Build 0)  -->
<!DOCTYPE svg PUBLIC "-//W3C//DTD SVG 1.1//EN" "http://www.w3.org/Graphics/SVG/1.1/DTD/svg11.dtd">
<svg version="1.1" id="Layer_1" xmlns="http://www.w3.org/2000/svg" xmlns:xlink="http://www.w3.org/1999/xlink" x="0px" y="0px"
	 width="396.85px" height="396.851px" viewBox="0 0 396.85 396.851" enable-background="new 0 0 396.85 396.851"
	 xml:space="preserve">
	<defs>
	    <clipPath id="circle-clip">
	        <circle stroke="#000000" stroke-miterlimit="10" cx="200" cy="200" r="175" />
	    </clipPath>
	</defs>
<g>
	<rect width="400" height="400" class="player-bg" fill="rgba(0,0,0,0)"/>
	<g>
		<defs>
			<path id="SVGID_3_" d="M198.959-90.889c52.613,0,52.119-49.037,52.119-49.037l105.406,44.142c0,0,36.928,16.228,36.928,75.697
				H4.684c0-59.47,36.928-75.697,36.928-75.697l105.406-44.142c0,0-0.494,49.037,52.119,49.037"/>
		</defs>
		<clipPath id="SVGID_2_">
			<use xlink:href="#SVGID_3_"  overflow="visible"/>
		</clipPath>
		<g clip-path="url(#SVGID_2_)">
			<rect x="-29.355" y="-5.873" fill="#30526F" width="456.807" height="25.311"/>
		</g>
	</g>
</g>
<g>
	<g>
		<rect x="146.341" y="220.746" fill="#E0C1A6" width="104.25" height="122.627"/>
	</g>
	<g>
		<path fill="#00405E" d="M198.728,326.344c52.613,0,52.119-49.037,52.119-49.037l105.406,44.142c0,0,36.928,16.228,36.928,75.697
			H4.452c0-59.47,36.928-75.697,36.928-75.697l105.406-44.142c0,0-0.494,49.037,52.119,49.037"/>
	</g>
	<g>
		<defs>
			<path id="SVGID_7_" d="M197.944,326.639c52.613,0,52.119-49.037,52.119-49.037l105.406,44.142c0,0,36.928,16.228,36.928,75.697
				H3.669c0-59.47,36.928-75.697,36.928-75.697l105.406-44.142c0,0-0.494,49.037,52.119,49.037"/>
		</defs>
		<clipPath id="SVGID_4_">
			<use xlink:href="#SVGID_7_"  overflow="visible"/>
		</clipPath>
		<g clip-path="url(#SVGID_4_)">
			<rect x="-30.37" y="247.891" fill="#30526F" width="456.807" height="25.309"/>
		</g>
		<g clip-path="url(#SVGID_4_)">
			<rect x="-30.37" y="280.643" fill="#30526F" width="456.807" height="25.309"/>
		</g>
		<g clip-path="url(#SVGID_4_)">
			<rect x="-30.37" y="313.395" fill="#30526F" width="456.807" height="25.311"/>
		</g>
		<g clip-path="url(#SVGID_4_)">
			<rect x="-30.37" y="346.148" fill="#30526F" width="456.807" height="25.311"/>
		</g>
		<g clip-path="url(#SVGID_4_)">
			<rect x="-30.37" y="378.902" fill="#30526F" width="456.807" height="25.311"/>
		</g>
	</g>
	<g>
		<path fill="#F4F6F6" d="M385.187,397.734h-4v-10.508c-3.42-41.918-28.369-54.314-29.43-54.822l-93.193-39.024l1.545-3.689
			l93.283,39.065c2.965,1.415,28.27,14.729,31.789,58.229l0.006,0.161V397.734z M17.247,397.146h-4l0.006-10.161
			c3.594-44.424,30.52-57.633,31.664-58.174l93.408-39.12l1.545,3.689l-93.326,39.084c-0.977,0.464-25.865,12.682-29.297,54.763
			V397.146z"/>
	</g>
	<g>
		<path fill="#D4B69D" d="M242.999,242.254c0,0-23.729,40.666-39.342,40.666h-12.178c-15.613,0-39.344-40.666-39.344-40.666H242.999
			z"/>
	</g>
	<g>
		<path fill="#E0C1A6" d="M262.218,123.42c0,0-2.5,95.5-17.5,114.5s-31.598,32-46.799,32h-0.701c-15.201,0-31.799-13-46.799-32
			s-17.5-114.5-17.5-114.5l7.297-37l40.703-8h40l34,11L262.218,123.42z"/>
	</g>
	<g>
		<path fill="#56412E" d="M197.339,55.42c-98.086,0-68.072,109.25-68.072,109.25l5.912,5.791c0,0,5.037-52.041,16.459-69.041
			c1.971-2.934,45.58,3.5,45.58,3.5c14.451-2.25,43.777-6.467,45.701-3.5c12,18.514,16.459,69.041,16.459,69.041l5.912-5.791
			c0,0,28.629-109.25-68.072-109.25"/>
	</g>
	<g>
		<path fill="#5E4A36" d="M197.218,104.92c14.451-2.25,43.777-6.467,45.701-3.5c12,18.514,16.459,69.041,16.459,69.041l5.912-5.791
			c0,0,24.662-94.105-49.102-107.637C216.188,57.033,205.181,69.422,197.218,104.92"/>
	</g>
	<g>
		<polygon fill="#56412E" points="187.169,103.857 204.778,107.92 193.987,101.545 		"/>
	</g>
	<g>
		<path fill="#555334" d="M187.069,165.754"/>
	</g>
	<g>
		<path fill="#E0C1A6" d="M254.919,166.42c0,0,14-11,18.5-9.5s1,11,0,16s-1.492,5.869-2,14c-0.5,8-8.5,27.5-16.5,14"/>
	</g>
	<g>
		<path fill="#E0C1A6" d="M140.216,163.92c0,0-14-11-18.5-9.5s-1,11,0,16s1.492,5.869,2,14c0.5,8,8.5,27.5,16.5,14"/>
	</g>
	<g>
		<path fill="#56412E" d="M186.218,156.779c0,0-1.666-3.693-3.834-4.025c-2.166-0.334-27.475-4.332-30.654,3.334
			C151.729,156.088,167.05,153.807,186.218,156.779z"/>
	</g>
	<g>
		<path fill="#56412E" d="M207.729,156.779c0,0,1.666-3.693,3.832-4.025c2.168-0.334,27.477-4.332,30.654,3.334
			C242.216,156.088,226.896,153.807,207.729,156.779z"/>
	</g>
	<g>
		<path fill="#CCB097" d="M197.604,141.754c0,0,3.018,7.262-0.473,14.525"/>
	</g>
	<g>
		<path fill="#D9BBA0" d="M194.161,200.732c0,0,0.656,12.33,2.951,12.33s2.916-12.33,2.916-12.33H194.161z"/>
	</g>
	<g>
		<path fill="#645251" d="M185.046,200.025c0,0,2.098,1.182,5.639,1.707c3.543,0.525,0-3.148,0-3.148L185.046,200.025z"/>
	</g>
	<g>
		<path fill="#645251" d="M208.788,200.025c0,0-2.1,1.182-5.641,1.707c-3.543,0.525,0-3.148,0-3.148L208.788,200.025z"/>
	</g>
	<g>
		<g>
			<path fill="#E0C1A6" d="M203.017,159.92c0,0,2.047,25.334,4.408,28.875c2.707,4.064,7.252,6.639,3.359,11.99
				c-1.574,2.164-5.789-3.719-9.277,0.406c-2.146,2.537-3.936,2.537-3.936,2.537h-0.953c0,0-1.789,0-3.936-2.537
				c-3.488-4.125-7.703,1.705-9.277-0.459c-2.965-4.076-0.277-6.48,3.359-11.938c2.361-3.541,4.391-28.875,4.391-28.875"/>
		</g>
		<g>
			<path fill="#CCB097" d="M203.017,159.92c0,0,0.197,1.816,0.543,4.994c0.354,3.176,0.887,7.713,1.697,13.125
				c0.426,2.697,0.867,5.646,1.703,8.631c0.223,0.738,0.453,1.49,0.881,2.08c0.453,0.648,0.959,1.268,1.488,1.896
				c1.039,1.258,2.258,2.504,2.98,4.201c0.346,0.846,0.506,1.818,0.365,2.76c-0.135,0.939-0.506,1.818-0.98,2.604
				c-0.117,0.197-0.24,0.393-0.373,0.58c-0.076,0.107-0.104,0.162-0.221,0.311c-0.072,0.084-0.125,0.162-0.283,0.287
				c-0.539,0.436-1.201,0.369-1.666,0.256c-0.967-0.254-1.738-0.693-2.557-1.002c-0.807-0.316-1.633-0.549-2.42-0.473
				c-0.789,0.061-1.498,0.471-2.068,1.076c-0.562,0.631-1.238,1.406-2.031,1.949c-0.785,0.543-1.717,1.064-2.807,1.033l-0.703-0.002
				c-0.322-0.025-0.547-0.09-0.801-0.166c-0.484-0.162-0.93-0.389-1.342-0.652c-0.818-0.525-1.531-1.225-2.113-1.912
				c-0.584-0.678-1.209-1.131-1.996-1.289c-0.768-0.158-1.6,0.01-2.406,0.297c-0.816,0.281-1.6,0.693-2.508,0.996
				c-0.453,0.133-0.986,0.287-1.598,0.08c-0.293-0.109-0.553-0.312-0.723-0.541c-0.16-0.223-0.26-0.359-0.393-0.578
				c-0.504-0.787-0.879-1.68-0.965-2.643c-0.09-0.961,0.148-1.904,0.502-2.727c0.732-1.646,1.775-2.992,2.721-4.342
				c0.471-0.672,0.938-1.338,1.4-1.994l0.084-0.125l0.021-0.031c0.01-0.014-0.012,0.021,0.006-0.01l0.037-0.064l0.15-0.262
				c0.084-0.17,0.143-0.332,0.219-0.496c0.133-0.359,0.26-0.723,0.365-1.096c0.834-2.984,1.273-5.936,1.699-8.631
				c0.805-5.412,1.338-9.949,1.689-13.127c0.344-3.178,0.539-4.994,0.539-4.994s-0.104,1.824-0.355,5.012
				c-0.271,3.186-0.633,7.742-1.336,13.186c-0.381,2.719-0.762,5.666-1.564,8.748c-0.102,0.385-0.229,0.771-0.365,1.16
				c-0.084,0.199-0.166,0.412-0.256,0.6l-0.145,0.264l-0.037,0.066l-0.053,0.086l-0.084,0.127c-0.451,0.67-0.908,1.348-1.369,2.033
				c-0.916,1.365-1.92,2.732-2.578,4.227c-0.314,0.746-0.498,1.533-0.42,2.312c0.07,0.775,0.393,1.545,0.84,2.234
				c0.094,0.16,0.256,0.381,0.354,0.516c0.096,0.125,0.201,0.195,0.322,0.244c0.242,0.092,0.629,0.027,1.014-0.098
				c0.783-0.264,1.594-0.693,2.475-1.006c0.873-0.314,1.877-0.549,2.9-0.35c1.018,0.17,1.928,0.869,2.52,1.562
				c0.598,0.693,1.213,1.275,1.934,1.734c0.355,0.227,0.734,0.412,1.117,0.537c0.182,0.057,0.402,0.105,0.535,0.113l0.666,0.002
				c0.764,0.049,1.547-0.355,2.24-0.832c0.721-0.492,1.26-1.102,1.91-1.818c0.672-0.713,1.635-1.277,2.672-1.348
				c1.029-0.086,1.988,0.213,2.844,0.553c0.855,0.336,1.666,0.781,2.428,0.98c0.379,0.1,0.713,0.078,0.881-0.066
				c0.027-0.002,0.111-0.098,0.184-0.184l0.16-0.23c0.125-0.172,0.238-0.352,0.346-0.531c0.441-0.715,0.762-1.484,0.881-2.27
				s-0.002-1.576-0.297-2.314c-0.619-1.48-1.762-2.74-2.791-4.023c-0.521-0.643-1.037-1.297-1.492-1.979
				c-0.506-0.736-0.725-1.545-0.943-2.305c-0.803-3.082-1.186-6.029-1.568-8.748c-0.707-5.443-1.072-9.998-1.346-13.184
				C203.147,161.742,203.017,159.92,203.017,159.92z"/>
		</g>
	</g>
	<g>
		<path fill="#E9CFC4" d="M214.29,220.746c0,0-9.91-5.828-11.949-5.828c-2.041,0-3.789,1.895-4.955,2.039h-0.582
			c-1.166-0.145-2.916-2.039-4.955-2.039c-2.041,0-11.949,5.828-11.949,5.828s15.836-0.484,17.195-0.484
			S214.29,220.746,214.29,220.746z"/>
	</g>
	<g>
		<polygon fill="#816D5C" points="192.595,228.754 194.489,235.383 197.192,233.941 197.788,237.277 199.411,234.021 
			201.593,233.016 201.593,228.754 		"/>
	</g>
	<g>
		<defs>
			<path id="SVGID_9_" d="M262.624,123.42c0,0-2.5,95.5-17.5,114.5s-31.598,32-46.799,32h-0.701c-15.201,0-31.799-13-46.799-32
				s-17.5-114.5-17.5-114.5l7.297-37l40.703-8h40l34,11L262.624,123.42z"/>
		</defs>
		<clipPath id="SVGID_6_">
			<use xlink:href="#SVGID_9_"  overflow="visible"/>
		</clipPath>
	</g>
	<g>
		<path fill="#56412E" d="M196.64,270.754c0,0-15.205,2.332-34.846-19.494c0,0,16.688,11.66,34.846,11.66h1.154
			c18.158,0,34.846-11.66,34.846-11.66c-19.639,21.826-34.846,19.494-34.846,19.494H196.64z"/>
	</g>
	<g>
		<circle fill="#51778E" cx="171.663" cy="165.58" r="3.797"/>
	</g>
	<g>
		<circle fill="#51778E" cx="223.299" cy="165.58" r="3.798"/>
	</g>
	<g>
		<path fill="#51778E" d="M183.104,166.157c0,0-0.285-0.265-0.824-0.668c-0.537-0.407-1.338-0.946-2.352-1.479
			c-0.492-0.29-1.074-0.514-1.668-0.779c-0.305-0.117-0.627-0.211-0.951-0.322c-0.16-0.055-0.324-0.109-0.488-0.167
			c-0.168-0.04-0.34-0.082-0.512-0.124c-0.344-0.082-0.693-0.165-1.047-0.25c-0.361-0.046-0.727-0.092-1.096-0.138l-0.551-0.076
			l-0.561-0.008l-1.129-0.017c-0.748,0.056-1.504,0.121-2.234,0.23c-0.721,0.186-1.451,0.291-2.129,0.5
			c-0.67,0.24-1.324,0.455-1.947,0.663c-0.602,0.26-1.156,0.539-1.68,0.78c-0.26,0.121-0.512,0.237-0.75,0.35
			c-0.23,0.123-0.443,0.254-0.646,0.369c-0.406,0.237-0.762,0.443-1.053,0.613c-0.59,0.334-0.93,0.522-0.93,0.522
			s0.307-0.236,0.842-0.653c0.271-0.203,0.602-0.453,0.98-0.738c0.191-0.141,0.389-0.3,0.609-0.451
			c0.232-0.131,0.477-0.271,0.73-0.416c0.512-0.281,1.061-0.606,1.658-0.918c0.621-0.26,1.279-0.537,1.969-0.804
			c0.699-0.233,1.449-0.397,2.205-0.589c0.768-0.125,1.561-0.207,2.35-0.27l1.189,0.03l0.59,0.017l0.582,0.087
			c0.387,0.059,0.77,0.117,1.148,0.175c0.369,0.104,0.734,0.203,1.092,0.303c0.359,0.089,0.705,0.207,1.033,0.354
			c0.326,0.141,0.654,0.262,0.959,0.406c0.598,0.32,1.178,0.594,1.664,0.928c0.508,0.298,0.928,0.642,1.303,0.935
			c0.363,0.308,0.678,0.58,0.92,0.818C182.872,165.845,183.104,166.157,183.104,166.157z"/>
	</g>
	<g>
		<path fill="#51778E" d="M212.372,166.157c0,0,0.285-0.265,0.824-0.668c0.535-0.407,1.336-0.946,2.352-1.479
			c0.492-0.29,1.072-0.514,1.668-0.779c0.303-0.117,0.625-0.211,0.949-0.322c0.162-0.055,0.324-0.109,0.488-0.167
			c0.17-0.04,0.34-0.082,0.514-0.124c0.344-0.082,0.693-0.165,1.047-0.25c0.359-0.046,0.727-0.092,1.096-0.138l0.551-0.076
			l0.561-0.008l1.127-0.017c0.75,0.056,1.504,0.121,2.236,0.23c0.721,0.186,1.449,0.291,2.129,0.5
			c0.67,0.24,1.324,0.455,1.947,0.663c0.602,0.26,1.156,0.539,1.68,0.78c0.26,0.121,0.51,0.237,0.748,0.35
			c0.232,0.123,0.443,0.254,0.646,0.369c0.408,0.237,0.764,0.443,1.053,0.613c0.592,0.334,0.93,0.522,0.93,0.522
			s-0.305-0.236-0.84-0.653c-0.271-0.203-0.602-0.453-0.982-0.738c-0.189-0.141-0.389-0.3-0.607-0.451
			c-0.232-0.131-0.477-0.271-0.73-0.416c-0.514-0.281-1.061-0.606-1.658-0.918c-0.623-0.26-1.279-0.537-1.971-0.804
			c-0.697-0.233-1.449-0.397-2.205-0.589c-0.768-0.125-1.559-0.207-2.348-0.27l-1.189,0.03l-0.592,0.017l-0.582,0.087
			c-0.385,0.059-0.77,0.117-1.148,0.175c-0.369,0.104-0.732,0.203-1.09,0.303c-0.359,0.089-0.707,0.207-1.033,0.354
			c-0.326,0.141-0.654,0.262-0.959,0.406c-0.6,0.32-1.18,0.594-1.664,0.928c-0.51,0.298-0.928,0.642-1.303,0.935
			c-0.365,0.308-0.678,0.58-0.92,0.818C212.603,165.845,212.372,166.157,212.372,166.157z"/>
	</g>
	<g>
		<path fill="#CCB097" d="M212.101,166.294c0,0,6.99,8.53,20.666,4.512C232.767,170.806,223.157,181.592,212.101,166.294z"/>
	</g>
	<g>
		<path fill="#CCB097" d="M183.419,166.294c0,0-6.988,8.53-20.666,4.512C162.753,170.806,172.362,181.592,183.419,166.294z"/>
	</g>
	<g>
		<path fill="#F4E6E1" d="M213.976,220.746c0,0-8.459,4.877-16.076,4.877h-1.926c-7.617,0-16.074-4.877-16.074-4.877"/>
	</g>
	<g>
		<path fill="#00405E" d="M250.769,276.616c0,0,0.494,49.037-52.119,49.037c-52.615,0-52.121-49.037-52.121-49.037l-10.455,4.176
			c3.281,31.87,30.211,56.729,62.949,56.729c32.568,0,59.379-24.606,62.885-56.24L250.769,276.616z"/>
	</g>
	<g>
		<path fill="#CCB097" d="M185.007,163.251c-0.869-0.368-1.719-0.763-2.574-1.149c-0.859-0.38-1.691-0.794-2.537-1.193l0.145,0.041
			c-0.967-0.032-1.961-0.002-2.939,0.041c-0.982,0.037-1.961,0.12-2.936,0.211c-0.977,0.1-1.947,0.222-2.91,0.376
			c-0.482,0.066-0.959,0.166-1.438,0.248c-0.482,0.075-0.955,0.184-1.426,0.292c-0.471,0.112-0.953,0.193-1.414,0.327l-1.398,0.369
			l-1.375,0.425c-0.465,0.131-0.914,0.289-1.357,0.462c-0.443,0.169-0.896,0.326-1.336,0.505c-0.428,0.196-0.863,0.381-1.301,0.566
			c-0.447,0.176-0.865,0.385-1.279,0.604l-1.27,0.632c0.764-0.509,1.502-1.06,2.336-1.503c0.41-0.23,0.824-0.457,1.246-0.676
			c0.43-0.208,0.875-0.395,1.312-0.594c0.436-0.202,0.881-0.391,1.342-0.552c0.457-0.169,0.908-0.349,1.375-0.503l1.418-0.422
			c0.469-0.15,0.957-0.254,1.439-0.369c0.484-0.117,0.967-0.231,1.461-0.316c0.492-0.087,0.979-0.197,1.477-0.266
			c0.99-0.15,1.988-0.266,2.99-0.357c1.004-0.077,2.01-0.123,3.016-0.134c1.012-0.007,2.01,0.034,3.029,0.122l0.086,0.008
			l0.059,0.032c0.801,0.454,1.613,0.894,2.398,1.364C183.435,162.309,184.231,162.767,185.007,163.251z"/>
	</g>
	<g>
		<path fill="#CCB097" d="M209.97,163.251c0.775-0.484,1.572-0.942,2.361-1.409c0.783-0.471,1.598-0.91,2.398-1.364l0.057-0.032
			l0.086-0.008c1.02-0.088,2.018-0.129,3.029-0.122c1.008,0.011,2.014,0.057,3.018,0.134c1.002,0.092,1.998,0.207,2.99,0.357
			c0.498,0.068,0.984,0.179,1.475,0.266c0.494,0.085,0.979,0.199,1.463,0.316c0.482,0.115,0.969,0.219,1.439,0.369l1.416,0.422
			c0.467,0.154,0.918,0.334,1.377,0.503c0.461,0.161,0.904,0.35,1.342,0.552c0.438,0.199,0.881,0.386,1.311,0.594
			c0.424,0.219,0.838,0.445,1.246,0.676c0.836,0.443,1.574,0.994,2.336,1.503l-1.27-0.632c-0.412-0.219-0.832-0.428-1.277-0.604
			c-0.439-0.186-0.873-0.37-1.301-0.566c-0.439-0.179-0.893-0.336-1.338-0.505c-0.441-0.173-0.891-0.331-1.357-0.462l-1.373-0.425
			l-1.398-0.369c-0.463-0.134-0.945-0.215-1.414-0.327c-0.473-0.108-0.943-0.217-1.426-0.292c-0.48-0.082-0.955-0.182-1.439-0.248
			c-0.963-0.154-1.934-0.276-2.908-0.376c-0.977-0.091-1.953-0.174-2.938-0.211c-0.979-0.043-1.973-0.073-2.938-0.041l0.143-0.041
			c-0.844,0.399-1.676,0.813-2.537,1.193C211.687,162.488,210.839,162.883,209.97,163.251z"/>
	</g>
</g>
</svg>
