<?xml version="1.0" encoding="utf-8"?>
<!-- Generator: Adobe Illustrator 16.0.0, SVG Export Plug-In . SVG Version: 6.00 Build 0)  -->
<!DOCTYPE svg PUBLIC "-//W3C//DTD SVG 1.1//EN" "http://www.w3.org/Graphics/SVG/1.1/DTD/svg11.dtd">
<svg version="1.1" id="Layer_1" xmlns="http://www.w3.org/2000/svg" xmlns:xlink="http://www.w3.org/1999/xlink" x="0px" y="0px"
	 width="396.85px" height="396.851px" viewBox="0 0 396.85 396.851" enable-background="new 0 0 396.85 396.851"
	 xml:space="preserve">
	<defs>
	    <clipPath id="circle-clip">
	        <circle stroke="#000000" stroke-miterlimit="10" cx="200" cy="200" r="175" />
	    </clipPath>
	</defs>
<g>
	<rect width="400" height="400" class="player-bg"/>
	<g>
		<rect x="146.035" y="236.697" fill="#78584E" width="104.168" height="112.754"/>
	</g>
	<g>
		<path fill="#C9E7FA" d="M198.334,326.23c52.613,0,52.119-49.037,52.119-49.037l105.408,44.142c0,0,36.928,16.228,36.928,75.697
			H4.061c0-59.47,36.928-75.697,36.928-75.697l105.406-44.142c0,0-0.494,49.037,52.119,49.037"/>
	</g>
	<g>
		<path fill="#6F4E43" d="M237.469,256.207c0,0-19.871,43.578-32.943,43.578h-10.199c-13.072,0-32.945-43.578-32.945-43.578H237.469
			z"/>
	</g>
	<g>
		<path fill="#78584E" d="M199.725,61.951c67.305,6.605,71.426,57.111,71.426,72.818c0,15.705-6.41,35.217-6.41,35.217
			s-1.373,53.266-16.023,71.391c-13.254,16.396-30.219,42.832-48.992,42.832h-1.83c-18.771,0-35.736-26.436-48.99-42.832
			c-14.65-18.125-16.025-71.391-16.025-71.391s-6.41-19.512-6.41-35.217c0-15.707,4.121-66.213,71.426-72.818H199.725z"/>
	</g>
	<g>
		<path fill="#78584E" d="M267.34,160.766c0,0,10.475-1.725,10.475,3.273c0,4.996-4.283,2.855-2.617,4.996
			c1.664,2.143,7.852,9.281,2.617,18.086c-5.236,8.805-2.143,26.889-18.799,15.705l4.283-44.262L267.34,160.766z"/>
	</g>
	<g>
		<path fill="#78584E" d="M131.07,160.766c0,0-10.475-1.725-10.475,3.273c0,4.996,4.283,2.855,2.617,4.996
			c-1.664,2.143-7.852,9.281-2.617,18.086c5.236,8.805,2.143,26.889,18.799,15.705l-4.283-44.262L131.07,160.766z"/>
	</g>
	<g opacity="0.6">
		<path fill="#3A2827" d="M199.725,61.951h-1.83c-67.305,6.605-71.426,57.111-71.426,72.818c0,15.705,6.41,35.217,6.41,35.217
			s1.375,53.266,16.025,71.391c13.254,16.396,30.219,42.832,48.99,42.832h1.83c18.773,0,35.738-26.436,48.992-42.832
			c14.65-18.125,16.023-71.391,16.023-71.391s6.41-19.512,6.41-35.217C271.15,119.062,267.029,68.557,199.725,61.951z
			 M261.766,173.08c-10.895,32.125-29.311,53.781-29.311,53.781s-11.566-15.135-25.131-15.135h-16.367
			c-13.564,0-25.131,15.135-25.131,15.135s-18.416-21.656-29.311-53.781c-10.893-32.125,5.422-69.723,10.418-74.957
			c4.998-5.236,51.877-4.047,51.877-4.047h0.662c0,0,46.879-1.189,51.875,4.047C256.346,103.357,272.658,140.955,261.766,173.08z"/>
	</g>
	<g>
		<path fill="#231F20" d="M210.807,149.047c0,0,8.328-10.471,21.18-5.711c12.85,4.758,14.516,12.373,13.801,12.611
			C245.074,156.186,238.887,145.238,210.807,149.047z"/>
	</g>
	<g>
		<path fill="#231F20" d="M214.354,166.354l-0.746-0.666c0.119-0.135,12.223-13.384,27.176-1.486l-0.623,0.783
			c-5.971-4.753-12.124-5.968-18.289-3.613C217.26,163.133,214.382,166.322,214.354,166.354z"/>
	</g>
	<g>
		<circle fill="#231F20" cx="227.227" cy="163.166" r="5.553"/>
	</g>
	<g opacity="0.6">
		<path fill="#3A2827" d="M213.98,168.084c0,0,19.988,3.967,26.492-1.428C240.473,166.656,235.873,184.266,213.98,168.084z"/>
	</g>
	<g>
		
			<ellipse transform="matrix(0.9902 0.1399 -0.1399 0.9902 30.0618 -24.0221)" fill="#231F20" cx="185.946" cy="201.876" rx="5.076" ry="1.427"/>
	</g>
	<g>
		
			<ellipse transform="matrix(-0.9902 0.1399 -0.1399 -0.9902 447.5559 372.3)" fill="#231F20" cx="210.696" cy="201.876" rx="5.076" ry="1.427"/>
	</g>
	<g>
		<path fill="#745164" d="M220.465,229.955c-7.258,2.241-16.494,3.197-23.262,3.228c-12.107,0.055-20.049-3.228-20.049-3.228
			s4.285,17.293,21.656,17.293S220.465,229.955,220.465,229.955z"/>
	</g>
	<g>
		<path fill="#42302E" d="M190.973,202.586c0,0,0.227,0.141,0.623,0.387c0.389,0.254,0.965,0.584,1.643,0.98
			c0.684,0.391,1.484,0.834,2.361,1.223c0.438,0.193,0.898,0.373,1.365,0.5c0.232,0.082,0.467,0.105,0.701,0.158
			c0.242,0.016,0.434,0.047,0.715,0.035l0.199,0.002l0.162-0.012c0.129-0.01,0.27-0.012,0.389-0.029
			c0.221-0.055,0.428-0.07,0.668-0.154c0.465-0.131,0.926-0.307,1.363-0.5c0.879-0.389,1.678-0.834,2.361-1.223
			c0.678-0.398,1.256-0.729,1.643-0.982c0.396-0.244,0.623-0.385,0.623-0.385s-0.693,0.818-1.939,1.84
			c-0.627,0.506-1.395,1.061-2.303,1.541c-0.457,0.232-0.934,0.48-1.473,0.633c-0.252,0.096-0.568,0.146-0.861,0.211
			c-0.141,0.02-0.266,0.025-0.398,0.039l-0.234,0.018l-0.199,0.002c-0.246,0.006-0.582-0.033-0.865-0.064
			c-0.279-0.064-0.568-0.107-0.828-0.205c-0.537-0.154-1.014-0.402-1.473-0.633c-0.906-0.482-1.674-1.035-2.301-1.541
			C191.668,203.404,190.973,202.586,190.973,202.586z"/>
	</g>
	<g>
		<path fill="#3A2827" d="M213.207,164.871c0,0,12.373-16.539,29.508-1.189C242.715,163.682,226.414,152.496,213.207,164.871z"/>
	</g>
	<g>
		<path fill="#231F20" d="M185.959,149.047c0,0-8.328-10.471-21.178-5.711c-12.85,4.758-14.516,12.373-13.803,12.611
			C151.693,156.186,157.881,145.238,185.959,149.047z"/>
	</g>
	<g>
		<path fill="#231F20" d="M182.414,166.354c-0.467-0.522-11.605-12.671-25.809-1.369l-0.623-0.783
			c14.953-11.896,27.057,1.353,27.178,1.486L182.414,166.354z"/>
	</g>
	<g>
		<circle fill="#231F20" cx="169.54" cy="163.166" r="5.552"/>
	</g>
	<g opacity="0.6">
		<path fill="#3A2827" d="M182.787,168.084c0,0-19.988,3.967-26.492-1.428C156.295,166.656,160.895,184.266,182.787,168.084z"/>
	</g>
	<g>
		<path fill="#3A2827" d="M183.561,164.871c0,0-12.375-16.539-29.508-1.189C154.053,163.682,170.354,152.496,183.561,164.871z"/>
	</g>
	<g>
		<g opacity="0.15">
			<circle fill="#332120" cx="156.193" cy="98.598" r="0.967"/>
		</g>
		<g opacity="0.15">
			<circle fill="#332120" cx="151.791" cy="97.631" r="0.967"/>
		</g>
		<g opacity="0.15">
			<circle fill="#332120" cx="148.891" cy="100.473" r="0.967"/>
		</g>
		<g opacity="0.15">
			<circle fill="#332120" cx="152.758" cy="101.439" r="0.967"/>
		</g>
		<g opacity="0.15">
			<circle fill="#332120" cx="161.4" cy="96.664" r="0.967"/>
		</g>
		<g opacity="0.15">
			<circle fill="#332120" cx="144.887" cy="104.34" r="0.967"/>
		</g>
	</g>
	<g>
		<g opacity="0.15">
			<circle fill="#332120" cx="241.471" cy="98.598" r="0.967"/>
		</g>
		<g opacity="0.15">
			<circle fill="#332120" cx="245.873" cy="97.631" r="0.967"/>
		</g>
		<g opacity="0.15">
			<circle fill="#332120" cx="248.773" cy="100.473" r="0.967"/>
		</g>
		<g opacity="0.15">
			<circle fill="#332120" cx="244.906" cy="101.439" r="0.967"/>
		</g>
		<g opacity="0.15">
			<circle fill="#332120" cx="236.264" cy="96.664" r="0.967"/>
		</g>
		<g opacity="0.15">
			<circle fill="#332120" cx="252.777" cy="104.34" r="0.967"/>
		</g>
	</g>
	<g>
		<path fill="#00405E" d="M250.301,276.783c0,0,0.494,49.037-52.119,49.037c-52.615,0-52.121-49.037-52.121-49.037l-15.314,6.117
			l22.322,43.551h45.225h0.318h45.225l22.102-43.119L250.301,276.783z"/>
	</g>
	<g opacity="0.6">
		<path fill="#3A2827" d="M188.34,153.33c0.939,5.389,1.678,10.814,2.102,16.277c0.088,1.367,0.18,2.734,0.207,4.107
			c0.027,0.686,0.021,1.373,0.012,2.059c0,0.688-0.016,1.375-0.068,2.062c-0.033,0.688-0.078,1.375-0.182,2.061l-0.133,1.031
			l-0.232,1.021l-0.115,0.512c-0.051,0.215-0.119,0.334-0.178,0.506l-0.363,0.959c-0.148,0.316-0.334,0.627-0.502,0.941
			c-0.164,0.32-0.346,0.625-0.559,0.898c-0.766,1.184-1.768,2.162-2.748,3.137c-1.021,0.932-2.076,1.822-3.141,2.678
			c-1.059,0.865-2.125,1.715-3.092,2.645c-0.979,0.912-1.895,1.906-2.457,3.066c-0.174,0.275-0.27,0.58-0.359,0.883
			c-0.105,0.301-0.205,0.604-0.209,0.922c-0.014,0.309-0.109,0.639-0.062,0.93c0.031,0.336,0.039,0.691,0.086,1.014
			c0.176,1.219,0.771,2.447,1.672,3.342c0.896,0.916,2.059,1.568,3.293,2.016c1.232,0.438,2.572,0.697,3.857,0.723h-0.035
			c0.604-0.033,1.178-0.035,1.766-0.008c0.586,0.02,1.17,0.088,1.754,0.162c0.582,0.119,1.17,0.193,1.738,0.41
			c0.584,0.15,1.129,0.457,1.674,0.752l1.445,0.883c0.486,0.277,0.973,0.453,1.457,0.689c0.52,0.111,1.018,0.303,1.559,0.338
			c0.551,0.023,1.066,0.092,1.65,0.074l0.428-0.002l0.391-0.021l0.854-0.055c0.301,0.004,0.531-0.088,0.785-0.146l0.752-0.189
			c0.488-0.238,0.99-0.424,1.471-0.697l1.469-0.898c0.504-0.264,0.986-0.547,1.617-0.721c0.602-0.229,1.17-0.295,1.758-0.416
			c0.584-0.076,1.168-0.145,1.754-0.164c0.588-0.025,1.162-0.023,1.766,0.01l-0.035-0.002c1.285-0.025,2.625-0.285,3.857-0.723
			c1.232-0.445,2.395-1.098,3.293-2.014c0.902-0.908,1.492-2.094,1.674-3.371c0.209-1.275,0.021-2.627-0.549-3.719
			c-0.561-1.16-1.477-2.154-2.455-3.066c-0.969-0.93-2.035-1.777-3.092-2.645c-1.066-0.855-2.121-1.746-3.141-2.676
			c-0.982-0.975-1.984-1.953-2.748-3.137c-0.215-0.277-0.395-0.578-0.557-0.893c-0.164-0.311-0.346-0.611-0.496-0.928l-0.377-0.988
			c-0.059-0.174-0.133-0.311-0.178-0.514l-0.113-0.5l-0.227-1l-0.135-1.039c-0.105-0.695-0.15-1.383-0.184-2.07
			c-0.051-0.688-0.068-1.375-0.066-2.062c-0.012-0.686-0.016-1.373,0.012-2.059c0.025-1.373,0.117-2.74,0.207-4.107
			c0.422-5.463,1.16-10.889,2.102-16.277c-0.809,5.408-1.412,10.85-1.697,16.303c-0.057,1.363-0.111,2.727-0.109,4.09
			c-0.018,0.682-0.002,1.361,0.018,2.041c0.01,0.682,0.033,1.359,0.096,2.035c0.041,0.68,0.096,1.355,0.205,2.012l0.141,0.994
			l0.24,0.996l0.119,0.498c0.027,0.133,0.113,0.303,0.168,0.451l0.365,0.924c0.145,0.297,0.322,0.58,0.482,0.871
			c0.154,0.295,0.328,0.576,0.539,0.838c0.736,1.113,1.723,2.051,2.689,2.982c1.012,0.898,2.059,1.76,3.137,2.602
			c1.07,0.852,2.158,1.691,3.178,2.643c1.016,0.941,2.002,1.986,2.648,3.293c0.688,1.342,0.865,2.814,0.65,4.242
			c-0.197,1.436-0.877,2.828-1.9,3.863c-1.018,1.047-2.301,1.764-3.629,2.252c-1.34,0.479-2.719,0.76-4.168,0.795l-0.006,0.002
			l-0.029-0.002c-0.535-0.027-1.102-0.027-1.654,0c-0.555,0.021-1.104,0.088-1.65,0.162c-0.527,0.111-1.102,0.188-1.568,0.373
			c-0.48,0.115-0.99,0.406-1.494,0.676l-1.447,0.895c-0.508,0.295-1.078,0.516-1.615,0.773c-0.59,0.143-1.23,0.361-1.797,0.4
			l-0.855,0.057l-0.463,0.027h-0.428c-0.559,0.018-1.178-0.057-1.768-0.088c-0.596-0.043-1.188-0.258-1.775-0.396
			c-0.541-0.258-1.129-0.492-1.629-0.781l-1.471-0.91c-0.463-0.24-0.908-0.508-1.439-0.646c-0.498-0.197-1.053-0.268-1.586-0.381
			c-0.547-0.072-1.096-0.141-1.65-0.16c-0.553-0.029-1.119-0.027-1.654-0.002l-0.029,0.002h-0.006
			c-1.449-0.037-2.828-0.318-4.168-0.795c-1.328-0.488-2.611-1.207-3.629-2.252c-1.025-1.049-1.699-2.398-1.902-3.891
			c-0.049-0.354-0.053-0.686-0.082-1.029c-0.051-0.393,0.051-0.74,0.072-1.111c0.014-0.373,0.125-0.721,0.248-1.066
			c0.107-0.352,0.223-0.699,0.414-1.008c0.646-1.305,1.633-2.352,2.65-3.291c1.018-0.951,2.107-1.793,3.176-2.643
			c1.08-0.844,2.127-1.703,3.139-2.602c0.967-0.934,1.951-1.869,2.689-2.982c0.211-0.264,0.383-0.543,0.533-0.832
			c0.158-0.287,0.332-0.561,0.48-0.857l0.377-0.955c0.053-0.15,0.146-0.336,0.166-0.457l0.117-0.486l0.236-0.975l0.143-1.004
			c0.111-0.664,0.166-1.34,0.207-2.02c0.061-0.674,0.086-1.354,0.094-2.035c0.021-0.68,0.035-1.359,0.018-2.041
			c0.004-1.363-0.053-2.727-0.107-4.09C189.752,164.18,189.146,158.738,188.34,153.33z"/>
	</g>
	<g>
		<path fill="#FFFFFF" d="M182.561,229.284c0,0,17.123,3.959,32.164-0.28C214.725,229.004,188.967,229.45,182.561,229.284z"/>
	</g>
	<g>
		<path fill="#684459" d="M220.465,230.15c-21.574-1.744-43.311,0-43.311,0s10.154-15.865,21.418-10.947h0.477
			C210.312,214.285,220.465,230.15,220.465,230.15z"/>
	</g>
</g>
<g>
	<g>
		<defs>
			<path id="SVGID_3_" d="M615.809,325.962c52.613,0,52.119-49.037,52.119-49.037l105.406,44.142c0,0,36.928,16.228,36.928,75.697
				H421.534c0-59.47,36.928-75.697,36.928-75.697l105.406-44.142c0,0-0.494,49.037,52.119,49.037"/>
		</defs>
		<clipPath id="SVGID_2_">
			<use xlink:href="#SVGID_3_"  overflow="visible"/>
		</clipPath>
		<g clip-path="url(#SVGID_2_)">
			<rect x="387.495" y="247.214" fill="#30526F" width="456.807" height="25.309"/>
		</g>
		<g clip-path="url(#SVGID_2_)">
			<rect x="387.495" y="279.966" fill="#30526F" width="456.807" height="25.309"/>
		</g>
		<g clip-path="url(#SVGID_2_)">
			<rect x="387.495" y="312.718" fill="#30526F" width="456.807" height="25.311"/>
		</g>
		<g clip-path="url(#SVGID_2_)">
			<rect x="387.495" y="345.472" fill="#30526F" width="456.807" height="25.311"/>
		</g>
		<g clip-path="url(#SVGID_2_)">
			<rect x="387.495" y="378.226" fill="#30526F" width="456.807" height="25.311"/>
		</g>
	</g>
</g>
</svg>
