<?xml version="1.0" encoding="utf-8"?>
<!-- Generator: Adobe Illustrator 16.0.0, SVG Export Plug-In . SVG Version: 6.00 Build 0)  -->
<!DOCTYPE svg PUBLIC "-//W3C//DTD SVG 1.1//EN" "http://www.w3.org/Graphics/SVG/1.1/DTD/svg11.dtd">
<svg version="1.1" id="Layer_1" xmlns="http://www.w3.org/2000/svg" xmlns:xlink="http://www.w3.org/1999/xlink" x="0px" y="0px"
	 width="396.85px" height="396.851px" viewBox="0 0 396.85 396.851" enable-background="new 0 0 396.85 396.851"
	 xml:space="preserve">
	<defs>
	    <clipPath id="circle-clip">
	        <circle stroke="#000000" stroke-miterlimit="10" cx="200" cy="200" r="175" />
	    </clipPath>
	</defs>
<g>
	<rect width="400" height="400" class="player-bg" fill="rgba(0,0,0,0)"/>

	<path fill="#171717" d="M107.981,205.489c0,0-16.961,68.108,28.592,91.612c0,0,17.414-10.574,11.615-58.353
		c-5.799-47.777,11.889-40.509,11.889-40.509l-19.154-29.722l-15.011-8.076"/>
	<path fill="#171717" d="M285.895,205.489c0,0,16.961,68.108-28.592,91.612c0,0-17.414-10.574-11.614-58.353
		c5.799-47.777-11.889-40.509-11.889-40.509l19.153-29.722l15.012-8.076"/>
	<rect x="145.804" y="218.435" fill="#D4B69C" width="104.19" height="119.18"/>
	<path fill="#BFA48D" d="M244.74,247.035c0,0-22.67,47.309-37.949,47.309h-11.914c-15.278,0-37.938-46.604-37.938-46.604
		L244.74,247.035z"/>
	<path fill="#D4B69C" d="M256.699,205.417c0,0,16.051,2.031,18.958-15.415c2.908-17.445,0-25.685,0-25.685l-18.958-5.815
		l-9.634,46.987L256.699,205.417z"/>
	<path fill="#D4B69C" d="M140.429,205.417c0,0-16.051,2.031-18.959-15.415c-2.908-17.445,0-25.685,0-25.685l18.959-5.815
		l9.633,46.987L140.429,205.417z"/>
	<path fill="#D4B69C" d="M263.38,145.257c0,0-4.523,81.415-19.384,100.8c-14.861,19.385-23.908,27.783-39.416,27.783h-12.922
		c-15.507,0-24.554-8.398-39.415-27.783c-14.861-19.385-19.384-100.8-19.384-100.8v-33.762l49.432-36.346l51.508,9.692
		l29.581,33.923V145.257z"/>
	<path fill="#332120" d="M210.396,166.902c0,0,0.411-0.475,1.227-1.216c0.416-0.359,0.921-0.799,1.538-1.258
		c0.606-0.473,1.323-0.97,2.143-1.446c0.415-0.23,0.835-0.493,1.294-0.724c0.463-0.22,0.943-0.448,1.436-0.683
		c1.016-0.398,2.092-0.834,3.271-1.076c0.291-0.069,0.583-0.152,0.881-0.212c0.303-0.04,0.607-0.08,0.914-0.121
		c0.614-0.072,1.233-0.195,1.868-0.157c0.632,0.013,1.272-0.024,1.91,0.033c0.635,0.09,1.271,0.179,1.909,0.268
		c0.637,0.092,1.238,0.339,1.856,0.501l0.918,0.274c0.296,0.113,0.579,0.258,0.867,0.386c0.571,0.266,1.139,0.529,1.699,0.79
		c0.528,0.315,1.031,0.661,1.534,0.981c1.032,0.648,1.891,1.301,2.817,1.841c0.912,0.546,1.801,1.019,2.647,1.402
		c0.415,0.215,0.832,0.365,1.226,0.52c0.394,0.152,0.763,0.319,1.122,0.438c0.727,0.193,1.358,0.408,1.891,0.508
		c1.082,0.155,1.7,0.244,1.7,0.244s-0.628-0.021-1.729-0.058c-0.549-0.053-1.201-0.214-1.963-0.349
		c-0.735-0.216-1.591-0.425-2.462-0.801c-0.885-0.346-1.818-0.78-2.782-1.289c-0.963-0.494-1.959-1.155-2.927-1.736
		c-0.494-0.296-0.985-0.616-1.5-0.905c-0.54-0.239-1.085-0.48-1.636-0.724c-0.276-0.119-0.546-0.257-0.829-0.361l-0.875-0.25
		c-0.587-0.147-1.159-0.38-1.763-0.462l-1.803-0.269c-0.603-0.061-1.209-0.029-1.808-0.049c-0.601-0.04-1.191,0.065-1.778,0.116
		c-0.292,0.03-0.584,0.061-0.874,0.091c-0.286,0.05-0.567,0.121-0.848,0.18c-1.13,0.212-2.188,0.564-3.193,0.899
		c-0.491,0.202-0.968,0.398-1.429,0.589c-0.458,0.2-0.881,0.435-1.299,0.638c-0.422,0.196-0.795,0.442-1.167,0.647
		c-0.372,0.206-0.722,0.406-1.036,0.619c-0.646,0.399-1.181,0.789-1.624,1.109C210.869,166.488,210.396,166.902,210.396,166.902z"/>
	<circle fill="#332120" cx="226.065" cy="165.449" r="5.008"/>
	<path fill="#C29F86" d="M211.85,169.972c0,0,16.153,17.284,30.369,1.453C242.219,171.425,225.581,174.494,211.85,169.972z"/>
	<path fill="#332120" d="M182.291,166.902c0,0-0.472-0.414-1.345-1.07c-0.443-0.32-0.978-0.71-1.624-1.109
		c-0.314-0.213-0.665-0.413-1.036-0.619c-0.372-0.205-0.744-0.451-1.167-0.647c-0.417-0.203-0.841-0.438-1.299-0.639
		c-0.461-0.189-0.938-0.386-1.429-0.588c-1.005-0.335-2.062-0.688-3.192-0.899c-0.281-0.059-0.562-0.13-0.848-0.18
		c-0.29-0.03-0.581-0.061-0.874-0.091c-0.586-0.051-1.177-0.156-1.778-0.116c-0.599,0.02-1.206-0.012-1.808,0.049l-1.803,0.269
		c-0.604,0.082-1.175,0.314-1.763,0.462l-0.874,0.25c-0.283,0.104-0.553,0.242-0.829,0.361c-0.551,0.244-1.097,0.485-1.637,0.724
		c-0.515,0.289-1.006,0.609-1.5,0.905c-0.968,0.581-1.964,1.242-2.928,1.736c-0.963,0.509-1.897,0.943-2.782,1.289
		c-0.871,0.376-1.727,0.585-2.462,0.801c-0.762,0.135-1.414,0.296-1.963,0.349c-1.101,0.037-1.729,0.058-1.729,0.058
		s0.619-0.089,1.7-0.244c0.534-0.1,1.165-0.314,1.891-0.508c0.358-0.118,0.728-0.285,1.122-0.438
		c0.394-0.154,0.812-0.305,1.226-0.52c0.846-0.384,1.735-0.856,2.648-1.402c0.925-0.54,1.785-1.192,2.817-1.841
		c0.504-0.32,1.006-0.666,1.535-0.981c0.56-0.261,1.127-0.524,1.698-0.79c0.289-0.128,0.571-0.272,0.868-0.386l0.917-0.274
		c0.618-0.162,1.22-0.409,1.856-0.501c0.638-0.089,1.275-0.178,1.909-0.268c0.637-0.058,1.278-0.021,1.91-0.033
		c0.635-0.038,1.254,0.085,1.869,0.157c0.307,0.041,0.611,0.081,0.914,0.121c0.298,0.06,0.59,0.143,0.882,0.212
		c1.178,0.242,2.254,0.678,3.271,1.076c0.493,0.234,0.973,0.463,1.437,0.683c0.458,0.23,0.879,0.493,1.294,0.724
		c0.819,0.477,1.536,0.974,2.142,1.445c0.616,0.46,1.122,0.899,1.538,1.259C181.879,166.428,182.291,166.902,182.291,166.902z"/>
	<circle fill="#332120" cx="166.622" cy="165.449" r="5.008"/>
	<path fill="#C29F86" d="M180.837,169.972c0,0-16.153,17.284-30.369,1.453C150.468,171.425,167.106,174.494,180.837,169.972z"/>
	<path fill="#C29F86" d="M203.583,156.936c0.04,1.118,0.117,2.233,0.196,3.347l0.278,3.333c0.227,2.216,0.468,4.425,0.805,6.613
		c0.162,1.096,0.363,2.183,0.566,3.265c0.234,1.076,0.42,2.162,0.706,3.216c0.24,1.07,0.568,2.105,0.887,3.14
		c0.146,0.523,0.372,1.009,0.552,1.513c0.188,0.502,0.373,1.004,0.62,1.466c0.234,0.467,0.433,0.96,0.687,1.406l0.805,1.294
		c0.619,0.898,1.303,1.882,1.902,2.853c1.212,1.96,2.332,4.004,3.156,6.239c0.411,1.119,0.771,2.275,0.98,3.525
		c0.194,1.246,0.312,2.587-0.077,4.063c-0.2,0.729-0.525,1.491-1.066,2.148c-0.534,0.657-1.228,1.169-1.945,1.516
		c-1.447,0.657-2.866,0.754-4.146,0.692l-0.356-0.018l-0.392-0.186c-0.302-0.142-0.816-0.329-1.232-0.431
		c-0.438-0.111-0.87-0.173-1.264-0.181c-0.397-0.011-0.751,0.039-1.033,0.146c-0.153,0.04-0.269,0.119-0.394,0.187
		c-0.056,0.043-0.114,0.082-0.175,0.118l-0.314,0.253l-1.335,1.089l-0.728,0.568l-0.821,0.57c-0.605,0.367-1.289,0.732-2.077,0.938
		c-0.393,0.104-0.788,0.193-1.179,0.208l-0.59,0.041l-0.432,0.003l-0.214,0.001l-0.364-0.007l-0.427-0.035
		c-0.163-0.019-0.241-0.007-0.472-0.051c-0.226-0.042-0.453-0.092-0.678-0.146c-0.88-0.229-1.497-0.576-2.124-0.949l-0.821-0.571
		l-0.729-0.568l-1.332-1.086l-0.163-0.132l-0.081-0.066l-0.041-0.033l-0.01-0.009l-0.005-0.004c0.05,0.036-0.119-0.088,0.111,0.081
		l-0.022-0.016l-0.354-0.242l-0.089-0.061l-0.03-0.004c-0.018-0.003-0.034-0.008-0.05-0.014c-0.019-0.014-0.062-0.038-0.152-0.061
		c-0.281-0.107-0.634-0.158-1.032-0.146c-0.395,0.008-0.827,0.069-1.264,0.181c-0.416,0.102-0.93,0.289-1.231,0.431l-0.395,0.187
		l-0.355,0.017c-1.279,0.059-2.701-0.03-4.149-0.689c-0.717-0.348-1.412-0.86-1.946-1.518c-0.542-0.658-0.868-1.422-1.067-2.15
		c-0.389-1.478-0.271-2.819-0.077-4.065c0.209-1.25,0.57-2.406,0.981-3.526c0.825-2.235,1.94-4.281,3.154-6.24
		c0.306-0.488,0.615-0.974,0.939-1.449l0.922-1.337l0.882-1.425c0.263-0.467,0.433-0.91,0.661-1.367
		c0.232-0.432,0.421-0.937,0.608-1.439c0.181-0.504,0.406-0.988,0.552-1.512c0.32-1.034,0.647-2.069,0.889-3.139
		c0.286-1.056,0.474-2.141,0.706-3.216c0.204-1.083,0.406-2.17,0.568-3.266c0.338-2.188,0.578-4.397,0.807-6.612l0.277-3.333
		c0.079-1.113,0.148-2.229,0.2-3.347c0.231,2.228,0.359,4.468,0.399,6.711c0.015,1.122,0.042,2.246,0.013,3.371
		c-0.016,1.124-0.066,2.248-0.127,3.374c-0.132,2.251-0.328,4.509-0.73,6.754c-0.167,1.128-0.429,2.245-0.687,3.368
		c-0.113,0.562-0.316,1.115-0.472,1.674c-0.164,0.557-0.322,1.114-0.574,1.689c-0.237,0.557-0.462,1.163-0.721,1.681l-0.804,1.469
		l-0.897,1.472c-0.281,0.463-0.547,0.935-0.808,1.406c-1.046,1.889-1.936,3.855-2.611,5.826c-0.327,0.984-0.596,1.981-0.721,2.94
		c-0.125,0.95-0.129,1.895,0.094,2.576c0.218,0.7,0.551,1.035,1.126,1.304c0.606,0.241,1.472,0.351,2.412,0.29l-0.75,0.202
		c0.728-0.354,1.297-0.547,1.985-0.738c0.668-0.177,1.372-0.296,2.119-0.319c0.742-0.026,1.545,0.054,2.342,0.328
		c0.336,0.081,0.971,0.417,1.229,0.58l0.356,0.237l0.202,0.152l0.085,0.067l0.171,0.136l1.336,1.065l0.628,0.48l0.589,0.401
		c0.354,0.208,0.758,0.402,0.989,0.448c-0.029,0.067,1.046,0.142,1.24,0.114l0.426,0.002l0.265-0.022
		c0.184,0.007,0.344-0.042,0.505-0.079c0.323-0.07,0.661-0.248,1.036-0.461l0.59-0.402l0.628-0.479l1.334-1.063l0.355-0.28
		l0.535-0.361c0.366-0.214,0.76-0.415,1.155-0.533c0.796-0.274,1.599-0.354,2.342-0.328c0.747,0.023,1.45,0.143,2.118,0.319
		c0.688,0.19,1.257,0.385,1.985,0.738l-0.748-0.202c0.939,0.059,1.807-0.044,2.414-0.287c0.577-0.27,0.911-0.605,1.129-1.308
		c0.223-0.683,0.219-1.627,0.093-2.578c-0.125-0.959-0.395-1.956-0.722-2.941c-0.676-1.971-1.561-3.939-2.61-5.826
		c-0.523-0.958-1.07-1.84-1.666-2.812l-0.88-1.601c-0.267-0.539-0.463-1.094-0.694-1.641c-0.238-0.547-0.399-1.105-0.563-1.664
		c-0.156-0.559-0.358-1.109-0.473-1.673c-0.258-1.123-0.52-2.24-0.687-3.368c-0.403-2.245-0.598-4.503-0.731-6.753
		C203.046,165.89,203.145,161.393,203.583,156.936z"/>
	<path fill="#CF9684" d="M165.652,219.726c0,0,14.726-1.455,21.173-1.293c6.447,0.162,8,2.423,8.92,2.423
		c0.92,0,9.643-4.039,13.035-3.877c3.392,0.162,18.254,1.936,18.254,1.936s-15.832,2.75-20.193,3.719
		c-4.361,0.97-8.078,2.424-29.562,0L165.652,219.726z"/>
	<path fill="#CF9684" d="M167.589,221.664c0,0,5.754,19.061,28.158,19.061c22.403,0,23.373-13.406,31.289-19.061
		c0,0-12.759,8.884-30.691,8.884S167.589,221.664,167.589,221.664z"/>
	<path fill="#C29F86" d="M172.919,195.495c0,0-13.085,7.753-15.346,15.184"/>
	<path fill="#C29F86" d="M221.057,193.879c0,0,15.507,12.762,15.507,20.354"/>
	<path fill="#C29F86" d="M146.75,211.648c0,0,13.246,56.214,41.354,62.027C188.104,273.676,160.966,262.531,146.75,211.648z"/>
	<path fill="#C29F86" d="M246.258,211.648c0,0-13.247,56.214-41.354,62.027C204.904,273.676,232.042,262.531,246.258,211.648z"/>
	<path fill="#C29F86" d="M146.75,128.617c0,0,0.323,14.053-4.039,19.223"/>
	<path fill="#C29F86" d="M246.045,128.617c0,0-0.323,14.053,4.039,19.223"/>
	<path fill="#231F20" d="M197.312,55.765c-97.002-0.231-93.45,157.015-93.45,157.015l15.75-13.085c0,0,0,0,9.45-13.812
		c9.45-13.812,11.388-42.646,13.65-66.392s45.392-30.288,45.392-30.288s40.061,1.696,55.327,15.022
		c15.265,13.327,2.665,51.127,30.288,86.019l14.539,12.843C288.257,203.087,299.242,56.007,197.312,55.765z"/>
	<path fill="#F0EBE6" d="M168.617,220.467c0,0,18.025,7.931,54.859-0.929C223.476,219.538,192.26,238.493,168.617,220.467z"/>
	<path fill="#C29F86" d="M210.986,165.529c0,0-8.723-8.965,0-12.6c8.723-3.635,24.715-2.181,24.715-2.181l16.477,7.246
		c0,0,1.696,7.534-7.996,7.534C234.49,165.529,227.221,150.991,210.986,165.529z"/>
	<path fill="#C29F86" d="M181.539,165.529c0,0,8.723-8.965,0-12.6c-8.723-3.635-24.715-2.181-24.715-2.181l-16.477,7.246
		c0,0-1.696,7.534,7.996,7.534S165.304,150.991,181.539,165.529z"/>
	<path fill="#231F20" d="M205.873,155.918c0,0-0.646-5.814,7.754-7.753c8.399-1.938,24.876-5.169,28.107-2.908
		c3.231,2.262,9.692,7.431,10.016,10.661c0.322,3.23-4.846-2.261-15.832-2.261S205.873,155.918,205.873,155.918z"/>
	<path fill="#231F20" d="M182.291,203.087c0,0,1.533,6.016,11.467,1.433s-5.654-4.583-5.654-4.583L182.291,203.087z"/>
	<path fill="#231F20" d="M209.668,203.087c0,0-1.532,6.016-11.467,1.433s5.653-4.583,5.653-4.583L209.668,203.087z"/>
	<path fill="#D4B69C" d="M203.583,156.936c0,0-0.809,20.951,5.007,29.514c5.815,8.562,8.886,18.738,0,18.254
		c0,0-3.715-1.904-6.138,0.018c-2.423,1.921-3.654,3.213-5.865,3.213h-0.839c-2.212,0-3.443-1.292-5.866-3.213
		c-2.423-1.922-6.139-0.018-6.139-0.018c-8.885,0.484-5.815-9.692,0-18.254c5.815-8.562,5.008-29.514,5.008-29.514"/>
	<path fill="#231F20" d="M202.28,89.688l-2.707,2.665v-1.696l-4.683,2.908l1.156-5.815l-3.985,5.815v-5.815l-2.382,4.847
		l-1.576-4.847l-0.609,2.772l-0.669,3.043l-1.41-5.815v5.815c0,0-4.742-3.635-4.579-4.119c0,0,3.07-12.462,14.053-11.925
		C205.873,78.057,202.28,89.688,202.28,89.688z"/>
	<path fill="#D8BDA5" d="M215.156,134.441c3.375-3.676,4.831-8.409,3.646-13.578c-2.68-11.687-13.603-21.161-24.398-21.161
		s-21.604,9.475-24.143,21.161c-1.143,5.259,0.448,10.065,3.993,13.767c-16.268,2.253-28.15,9.334-28.15,9.334s16.477-4.199,48.3,0
		h2.099c31.823-4.199,48.299,0,48.299,0S232.186,136.449,215.156,134.441z"/>
	<path fill="#E53543" d="M198.03,326.049c52.613,0,52.119-49.037,52.119-49.037l105.407,44.142c0,0,36.928,16.228,36.928,75.697
		H3.755c0-59.47,36.928-75.697,36.928-75.697l105.406-44.142c0,0-0.494,49.037,52.119,49.037"/>
	<circle cx="198.119" cy="342.452" r="5.521"/>
	<path fill="#231F20" d="M186.814,155.918c0,0,0.646-5.814-7.753-7.753c-8.4-1.938-24.877-5.169-28.108-2.908
		c-3.231,2.262-9.692,7.431-10.015,10.661s4.846-2.261,15.831-2.261C167.753,153.657,186.814,155.918,186.814,155.918z"/>
</g>
</svg>
