<?xml version="1.0" encoding="utf-8"?>
<!-- Generator: Adobe Illustrator 16.0.0, SVG Export Plug-In . SVG Version: 6.00 Build 0)  -->
<!DOCTYPE svg PUBLIC "-//W3C//DTD SVG 1.1//EN" "http://www.w3.org/Graphics/SVG/1.1/DTD/svg11.dtd">
<svg version="1.1" id="Layer_1" xmlns="http://www.w3.org/2000/svg" xmlns:xlink="http://www.w3.org/1999/xlink" x="0px" y="0px"
	 width="396.85px" height="396.851px" viewBox="0 0 396.85 396.851" enable-background="new 0 0 396.85 396.851"
	 xml:space="preserve">
	<defs>
	    <clipPath id="circle-clip">
	        <circle stroke="#000000" stroke-miterlimit="10" cx="200" cy="200" r="175" />
	    </clipPath>
	</defs>
<g>
	<rect width="400" height="400" class="player-bg"/>
	<rect x="146.393" y="165.76" fill="#E0C1A6" width="103.58" height="176.691"/>
	<path fill="#C83417" d="M198.336,326.049c52.613,0,52.119-49.037,52.119-49.037l105.406,44.142c0,0,36.928,16.228,36.928,75.697
		H4.061c0-59.47,36.928-75.697,36.928-75.697l105.406-44.142c0,0-0.494,49.037,52.119,49.037"/>
	<path fill="#D4B69D" d="M238.559,235.062c0,0-20.895,46.152-34.639,46.152h-10.723c-13.744,0-34.639-46.152-34.639-46.152H238.559z
		"/>
	<path fill="#E0C1A6" d="M139.299,154.566c0,0,7,56,15.5,72.5s19,42,40,42h4.5c21,0,31.5-25.5,40-42s15.5-72.5,15.5-72.5
		l0.844-35.445l-33.699-38.555h-54.145l-28.5,17V154.566z"/>
	<path fill="#5E595A" d="M142.918,160.201c0,0-8.605-60.605,33.381-65.635c41.984-5.029-15.5-5.75-15.5-5.75l-13.25,4.75
		C147.549,93.566,131.537,147.586,142.918,160.201z"/>
	<path fill="#5E595A" d="M251.559,160.201c0,0,8.604-60.605-33.381-65.635c-41.986-5.029,15.5-5.75,15.5-5.75l13.25,4.75
		C246.928,93.566,262.939,147.586,251.559,160.201z"/>
	<path fill="#373132" d="M250.389,165.566c0,0,7.68-59-12.82-70c0,0-12.5,2-35.5,2h-10.27c-23,0-35.5-2-35.5-2
		c-20.5,11-12.82,70-12.82,70l-8.34,4c0,0-18.84-77,21.16-92.5s117.5-20,106,82.5L250.389,165.566z"/>
	<path fill="#231F20" d="M237.605,78.918c0,0-31.27,18.648-40.527,18.648s-9.279-17.5-18.779-18s-26.141,0.752-28.32,0.752
		c0,0,22.32-30.252,47.07-30.252l-3.66,3.5C193.389,53.566,220.105,50.918,237.605,78.918z"/>
	<path fill="#D6B99E" d="M189.055,180.566c0,0-2.756,5.25-5.256,7.75s-4.75,8.75-1.5,10.5s9.752,8.643,13.26,8.193"/>
	<path fill="#D6B99E" d="M205.184,180.566c0,0,2.758,5.25,5.258,7.75s4.75,8.75,1.5,10.5s-9.754,8.643-13.26,8.193"/>
	<path fill="#CCB097" d="M180.682,187.816c0,0-9.133,7.18-12.883,19.215"/>
	<path fill="#CCB097" d="M213.799,187.816c0,0,9.133,7.18,12.883,19.215"/>
	<path fill="#E0C1A6" d="M250.799,165.566c0,0,13-15.5,20.5-15.5s-0.5,69-27,47L250.799,165.566z"/>
	<circle fill="#E3E6E6" cx="255.719" cy="196.486" r="3.42"/>
	<path fill="#E0C1A6" d="M143.479,165.566c0,0-13-15.5-20.5-15.5s0.5,69,27,47L143.479,165.566z"/>
	<circle fill="#E3E6E6" cx="138.559" cy="196.486" r="3.42"/>
	<g>
		<path fill="#E0C1A6" d="M190.301,151.316c0,0-0.654,28.5-2.154,38.75s-0.189,12,4.154,15.75c0,0,4.936,3.084,9.592,0
			c4.785-3.17,5.656-5.5,4.156-15.75s-2.154-38.75-2.154-38.75"/>
		<path fill="#CCB097" d="M190.301,151.316c-0.016,4.688-0.121,9.373-0.234,14.059c-0.043,2.344-0.162,4.684-0.24,7.027
			c-0.094,2.342-0.225,4.684-0.336,7.025l-0.234,3.512c-0.092,1.17-0.131,2.342-0.275,3.512l-0.387,3.51
			c-0.15,1.156-0.311,2.322-0.422,3.469c-0.1,1.154-0.188,2.312-0.158,3.457c0.02,1.143,0.121,2.285,0.457,3.342
			c0.324,1.061,0.908,2.008,1.652,2.852c0.742,0.846,1.613,1.609,2.494,2.371l-0.059-0.045c1.109,0.629,2.43,1.062,3.725,1.215
			c1.303,0.141,2.639,0.043,3.848-0.447c0.611-0.238,1.174-0.555,1.73-0.924c0.582-0.395,1.119-0.775,1.623-1.213
			c1.02-0.859,1.844-1.893,2.248-3.137c0.428-1.23,0.531-2.588,0.521-3.943c-0.01-1.359-0.125-2.73-0.285-4.1
			c-0.143-1.359-0.375-2.746-0.504-4.125c-0.139-1.381-0.34-2.75-0.416-4.143c-0.195-2.777-0.387-5.551-0.502-8.322
			c-0.15-2.771-0.24-5.543-0.346-8.314c-0.061-1.385-0.074-2.773-0.113-4.158l-0.09-4.16c-0.057-2.771-0.096-5.545-0.104-8.318
			c0.254,5.541,0.51,11.08,0.822,16.615c0.156,2.766,0.295,5.535,0.494,8.297c0.166,2.77,0.406,5.521,0.648,8.273
			c0.105,1.375,0.312,2.752,0.459,4.129c0.137,1.381,0.373,2.729,0.529,4.125c0.17,1.385,0.297,2.779,0.314,4.193
			c0.016,1.408-0.074,2.859-0.549,4.258c-0.447,1.414-1.412,2.631-2.504,3.555c-0.539,0.475-1.135,0.9-1.697,1.287
			c-0.594,0.4-1.242,0.771-1.924,1.039c-1.367,0.559-2.881,0.693-4.324,0.52c-1.453-0.189-2.822-0.635-4.119-1.379l-0.027-0.018
			l-0.033-0.027c-0.885-0.775-1.779-1.562-2.578-2.484c-0.799-0.912-1.467-2.008-1.82-3.197c-0.367-1.186-0.463-2.406-0.479-3.6
			c-0.023-1.199,0.074-2.381,0.184-3.559c0.123-1.184,0.287-2.34,0.445-3.506l0.406-3.473c0.16-1.154,0.223-2.326,0.334-3.488
			l0.297-3.496c0.15-2.336,0.324-4.672,0.459-7.01l0.385-7.014C189.879,160.68,190.078,155.998,190.301,151.316z"/>
	</g>
	<path fill="#FFFFFF" d="M174.281,220.316l0.01-0.75c0,0,37.844,1.879,47.609-1.936v1.436c0,0-12.109,14.25-23.109,14.25
		S174.281,220.316,174.281,220.316z"/>
	<path fill="#E9CFC4" d="M174.24,219.566c0,0,10.545-6.5,19.551-3.75c9.008,2.75,5.449,1.25,10.104,0.5s13.154,0.822,17.404,1.035
		C225.549,217.566,208.682,221.566,174.24,219.566z"/>
	<path fill="#F4E6E1" d="M174.24,220.125c0,0,6.395,22.691,23.852,22.691s23.809-23.75,23.809-23.75s-11.336,14.25-23.219,14.25
		S174.24,220.125,174.24,220.125z"/>
	<path fill="#D6B99E" d="M179.938,121.508c0,0-30.18,1.059-34.59,41.059C145.348,162.566,155.375,127.951,179.938,121.508z"/>
	<path fill="#D6B99E" d="M212.348,121.508c0,0,30.18,1.059,34.59,41.059C246.938,162.566,236.91,127.951,212.348,121.508z"/>
	<path fill="#231F20" d="M206.049,148.316c0,0,9.5-8,21-7.75s15,9.5,15,9.5S234.549,141.066,206.049,148.316z"/>
	<path fill="#231F20" d="M187.049,148.316c0,0-9.5-8-21-7.75s-15,9.5-15,9.5S158.549,141.066,187.049,148.316z"/>
	<path fill="#CCB097" d="M161.137,162.006c0,0,9.5,7.635,21.547,1.018C182.684,163.023,169.449,178.633,161.137,162.006z"/>
	<path fill="#CCB097" d="M232.684,162.006c0,0-9.5,7.635-21.547,1.018C211.137,163.023,224.369,178.633,232.684,162.006z"/>
	<path fill="#332120" d="M182.473,159.117c0,0-0.324-0.309-0.939-0.783c-0.295-0.252-0.691-0.512-1.123-0.83
		c-0.463-0.277-0.951-0.635-1.533-0.948c-0.287-0.159-0.58-0.339-0.895-0.5c-0.32-0.149-0.652-0.304-0.992-0.462
		c-0.334-0.173-0.703-0.287-1.072-0.421c-0.373-0.116-0.734-0.3-1.131-0.392c-0.787-0.204-1.592-0.439-2.439-0.524
		c-0.836-0.172-1.699-0.158-2.561-0.169c-0.432-0.038-0.859,0.037-1.285,0.081c-0.428,0.048-0.854,0.095-1.275,0.142
		c-0.826,0.206-1.641,0.408-2.428,0.604c-0.754,0.311-1.494,0.586-2.199,0.853c-0.686,0.303-1.295,0.682-1.881,0.983
		c-0.586,0.308-1.123,0.592-1.555,0.914c-0.449,0.302-0.84,0.565-1.162,0.782c-0.654,0.426-1.029,0.67-1.029,0.67
		s0.33-0.299,0.908-0.822c0.295-0.259,0.654-0.572,1.066-0.933c0.209-0.175,0.418-0.384,0.666-0.563
		c0.258-0.168,0.527-0.344,0.811-0.527c0.574-0.354,1.17-0.791,1.855-1.159c0.703-0.331,1.447-0.687,2.23-1.029
		c0.816-0.246,1.666-0.505,2.539-0.722c0.449-0.057,0.9-0.113,1.354-0.17c0.453-0.053,0.908-0.138,1.369-0.103
		c0.918,0.021,1.838,0.023,2.725,0.215c0.902,0.098,1.742,0.4,2.562,0.642c0.412,0.118,0.789,0.312,1.168,0.472
		c0.375,0.169,0.748,0.318,1.082,0.523c0.338,0.191,0.67,0.377,0.988,0.557c0.312,0.191,0.6,0.399,0.881,0.586
		c0.578,0.356,1.031,0.79,1.459,1.128c0.398,0.38,0.762,0.688,1.025,0.979C182.213,158.75,182.473,159.117,182.473,159.117z"/>
	<circle fill="#332120" cx="169.723" cy="157.34" r="4.555"/>
	<path fill="#332120" d="M209.973,159.117c0,0,0.258-0.367,0.809-0.927c0.266-0.292,0.627-0.6,1.025-0.979
		c0.43-0.338,0.883-0.771,1.459-1.128c0.283-0.187,0.57-0.395,0.881-0.586c0.32-0.18,0.65-0.365,0.99-0.557
		c0.334-0.205,0.707-0.354,1.082-0.523c0.377-0.159,0.754-0.354,1.166-0.472c0.82-0.241,1.66-0.544,2.562-0.642
		c0.889-0.191,1.807-0.194,2.727-0.215c0.461-0.035,0.914,0.05,1.369,0.103c0.453,0.057,0.904,0.113,1.352,0.17
		c0.873,0.217,1.725,0.476,2.541,0.722c0.781,0.343,1.527,0.698,2.23,1.029c0.684,0.368,1.281,0.805,1.854,1.159
		c0.283,0.184,0.555,0.359,0.812,0.527c0.248,0.18,0.457,0.389,0.666,0.563c0.412,0.36,0.77,0.674,1.064,0.933
		c0.58,0.523,0.91,0.822,0.91,0.822s-0.375-0.244-1.031-0.67c-0.32-0.217-0.711-0.48-1.16-0.782
		c-0.434-0.322-0.971-0.606-1.555-0.914c-0.588-0.302-1.195-0.681-1.883-0.983c-0.705-0.267-1.443-0.542-2.197-0.853
		c-0.787-0.196-1.602-0.398-2.428-0.604c-0.424-0.047-0.848-0.094-1.275-0.142c-0.428-0.044-0.854-0.119-1.285-0.081
		c-0.861,0.011-1.725-0.003-2.561,0.169c-0.848,0.085-1.652,0.32-2.439,0.524c-0.398,0.092-0.758,0.275-1.133,0.392
		c-0.369,0.134-0.738,0.248-1.07,0.421c-0.342,0.158-0.674,0.312-0.994,0.462c-0.314,0.161-0.605,0.341-0.895,0.5
		c-0.58,0.313-1.068,0.671-1.533,0.948c-0.43,0.318-0.828,0.578-1.121,0.83C210.297,158.809,209.973,159.117,209.973,159.117z"/>
	<circle fill="#332120" cx="222.723" cy="157.34" r="4.555"/>
	<circle fill="#010202" cx="198.425" cy="342.452" r="5.521"/>
</g>
</svg>
