<?xml version="1.0" encoding="utf-8"?>
<!-- Generator: Adobe Illustrator 16.0.0, SVG Export Plug-In . SVG Version: 6.00 Build 0)  -->
<!DOCTYPE svg PUBLIC "-//W3C//DTD SVG 1.1//EN" "http://www.w3.org/Graphics/SVG/1.1/DTD/svg11.dtd">
<svg version="1.1" id="Layer_1" xmlns="http://www.w3.org/2000/svg" xmlns:xlink="http://www.w3.org/1999/xlink" x="0px" y="0px"
	 width="396.85px" height="396.851px" viewBox="0 0 396.85 396.851" enable-background="new 0 0 396.85 396.851"
	 xml:space="preserve">
	<defs>
	    <clipPath id="circle-clip">
	        <circle stroke="#000000" stroke-miterlimit="10" cx="200" cy="200" r="175" />
	    </clipPath>
	</defs>
<g>
	<rect width="400" height="400" class="player-bg"/>
	<g>
		<defs>
			<path id="SVGID_7_" d="M197.944-90.212c52.613,0,52.119-49.037,52.119-49.037L355.47-95.107c0,0,36.928,16.228,36.928,75.697
				H3.669c0-59.47,36.928-75.697,36.928-75.697l105.406-44.142c0,0-0.494,49.037,52.119,49.037"/>
		</defs>
		<clipPath id="SVGID_2_">
			<use xlink:href="#SVGID_7_"  overflow="visible"/>
		</clipPath>
		<g clip-path="url(#SVGID_2_)">
			<rect x="-30.37" y="-5.196" fill="#30526F" width="456.807" height="25.311"/>
		</g>
	</g>
</g>
<g>
	<rect x="145.066" y="221.155" fill="#E5CDB7" width="104.334" height="129.296"/>
	<path fill="#DFC1A5" d="M252.928,218.664c0,0-28.531,54.474-47.758,54.474h-14.992c-19.227,0-47.74-53.661-47.74-53.661
		L252.928,218.664z"/>
	<path fill="#8691A6" d="M225.232,152.532c-8.789,0-12.332,5.581-12.332,5.581s3.506-3.156,8.014-3.938
		c-2.297,1.54-5.312,6.537-5.312,6.537h19.873h5.027C240.502,160.712,236.764,152.532,225.232,152.532z"/>
	<path fill="#E5CDB7" d="M265.709,110.449c0,0,0.635,81.365-11.453,105.582c-12.088,24.215-26.723,45.849-53.445,45.849h-6.676
		c-26.723,0-41.357-21.634-53.445-45.849c-12.09-24.217-11.453-105.582-11.453-105.582l22.723-27.997l40.561-5.249l34.184,1.909
		l25.492,9.066L265.709,110.449z"/>
	<path fill="#E5CDB7" d="M259.828,160.236c0,0,10.977-13.839,18.611-13.839c7.637,0,5.42,40.276-7.156,48.197
		c-12.578,7.92-15.748-2.386-15.748-2.386L259.828,160.236z"/>
	<path fill="#E5CDB7" d="M135.395,160.236c0,0-10.977-13.839-18.611-13.839s-5.418,40.276,7.158,48.197
		c12.576,7.92,15.748-2.386,15.748-2.386L135.395,160.236z"/>
	<path fill="#805931" d="M132.498,132.4c0.859,23.846-1.018,33.462-0.895,34.99c0.121,1.53-15.332-57.896,3.439-81.119
		c18.77-23.224,53.445-27.041,53.445-27.041s9.482-1.658,18.373,0c0,0,34.676,3.817,53.445,27.041
		c18.771,23.223,3.318,82.649,3.441,81.119c0.121-1.528-0.578-11.13-0.896-34.99c-0.316-23.859-15.27-42.311-15.27-42.311
		s-58.219-12.407-95.441,12.088c0,0,3.818-6.681,6.365-8.59C158.506,93.588,131.307,99.315,132.498,132.4z"/>
	<path opacity="0.4" fill="#AC8F72" d="M207.098,151.768c0,0,11.932-12.04,31.018-10.172c0,0,9.066,1.463,10.977,4.986
		c0,0-4.295-2.08-10.977-2.08c-6.68,0-18.984,5.854-24.334,7.266C208.531,153.15,207.098,151.768,207.098,151.768z"/>
	<ellipse fill="#645251" cx="205.827" cy="193.162" rx="3.222" ry="1.073"/>
	<path fill="#645251" d="M188.445,193.162c0-0.592-1.439-1.073-3.221-1.073c-1.779,0-3.219,0.481-3.219,1.073
		c0,0.593,1.439,1.074,3.219,1.074C187.006,194.236,188.445,193.755,188.445,193.162z"/>
	<path fill="#E9CFC4" d="M222.268,216.031c0,0-7.713-0.44-13.76-4.019c-6.043-3.579-11.928,0-11.928,0h-0.082
		c0,0-5.883-3.579-11.93,0c-6.045,3.578-13.756,4.019-13.756,4.019s20.277,0.634,25.686,0.634S222.268,216.031,222.268,216.031z"/>
	<path fill="#DFC1A5" d="M235.936,160.723c0,0-10.068,4.977-22.834,0.664C213.102,161.387,227.127,171.564,235.936,160.723z"/>
	<path opacity="0.4" fill="#AC8F72" d="M186.102,151.768c0,0-11.928-12.04-31.018-10.172c0,0-9.066,1.463-10.975,4.986
		c0,0,4.293-2.08,10.975-2.08s18.988,5.854,24.338,7.266C184.672,153.15,186.102,151.768,186.102,151.768z"/>
	<path fill="#DFC1A5" d="M157.266,160.723c0,0,10.068,4.977,22.832,0.664C180.098,161.387,166.076,171.564,157.266,160.723z"/>
	<path fill="#805931" d="M248.523,87.283c0,0-19.383,1.534-25.174,9.169"/>
	<path fill="#805931" d="M248.234,87.227c0,0-2.746,11.453-11.645,14.635"/>
	<path fill="#DFC1A5" d="M181.139,237.611c0,0,0.41-0.305,1.168-0.786c0.387-0.226,0.855-0.503,1.395-0.819
		c0.547-0.302,1.178-0.615,1.871-0.956c0.697-0.317,1.477-0.624,2.291-0.97c0.83-0.308,1.725-0.582,2.65-0.874
		c0.939-0.229,1.928-0.421,2.928-0.624c1.018-0.102,2.059-0.162,3.098-0.244c1.08,0.082,2.049,0.143,3.066,0.24
		c1.012,0.199,2.014,0.397,2.959,0.628c0.924,0.29,1.82,0.565,2.648,0.872c0.816,0.348,1.594,0.651,2.295,0.972
		c0.693,0.338,1.322,0.652,1.869,0.956c0.539,0.314,1.01,0.591,1.395,0.819c0.758,0.481,1.168,0.786,1.168,0.786
		s-0.457-0.233-1.258-0.625c-0.404-0.182-0.896-0.405-1.461-0.662c-0.574-0.232-1.219-0.496-1.924-0.779
		c-0.709-0.271-1.492-0.521-2.312-0.808c-0.83-0.251-1.723-0.452-2.625-0.717c-0.916-0.197-1.865-0.327-2.82-0.522
		c-0.979-0.086-2.049-0.137-3-0.205c-0.994,0.069-1.99,0.117-2.969,0.201c-0.967,0.192-1.932,0.327-2.852,0.525
		c-0.902,0.264-1.797,0.467-2.627,0.716c-0.818,0.286-1.602,0.537-2.312,0.81c-0.703,0.283-1.352,0.547-1.922,0.777
		c-0.564,0.259-1.057,0.48-1.463,0.664C181.596,237.376,181.139,237.611,181.139,237.611z"/>
	<circle fill="#8691A6" cx="167.438" cy="157.518" r="4.304"/>
	<circle fill="#8691A6" cx="224.702" cy="157.518" r="4.304"/>
	<path fill="#8691A6" d="M180.689,158.182c0,0-0.334-0.312-0.969-0.785c-0.631-0.479-1.572-1.112-2.764-1.738
		c-0.578-0.342-1.262-0.604-1.961-0.917c-0.357-0.138-0.736-0.249-1.117-0.379c-0.189-0.064-0.381-0.129-0.574-0.196
		c-0.199-0.048-0.398-0.096-0.602-0.146c-0.404-0.097-0.816-0.194-1.23-0.293c-0.424-0.056-0.855-0.108-1.287-0.163l-0.648-0.089
		l-0.66-0.01l-1.326-0.019c-0.879,0.064-1.766,0.142-2.627,0.271c-0.848,0.217-1.705,0.343-2.502,0.587
		c-0.787,0.283-1.557,0.535-2.289,0.779c-0.707,0.307-1.359,0.635-1.975,0.918c-0.307,0.143-0.602,0.279-0.881,0.411
		c-0.271,0.144-0.521,0.298-0.76,0.435c-0.479,0.277-0.896,0.52-1.236,0.721c-0.695,0.391-1.094,0.613-1.094,0.613
		s0.359-0.277,0.988-0.768c0.318-0.239,0.707-0.533,1.154-0.868c0.223-0.165,0.455-0.353,0.715-0.53
		c0.273-0.154,0.561-0.318,0.857-0.488c0.604-0.332,1.248-0.714,1.951-1.08c0.73-0.305,1.504-0.631,2.314-0.944
		c0.82-0.275,1.703-0.468,2.592-0.692c0.902-0.146,1.834-0.243,2.762-0.316l1.398,0.035l0.693,0.02l0.686,0.102
		c0.453,0.069,0.902,0.139,1.348,0.207c0.434,0.121,0.863,0.238,1.283,0.355c0.422,0.104,0.83,0.241,1.215,0.415
		c0.385,0.164,0.77,0.308,1.127,0.478c0.703,0.376,1.385,0.697,1.955,1.09c0.598,0.352,1.092,0.755,1.533,1.099
		c0.428,0.361,0.795,0.682,1.08,0.962C180.418,157.814,180.689,158.182,180.689,158.182z"/>
	<path fill="#8691A6" d="M211.451,158.182c0,0,0.271-0.367,0.85-0.926c0.285-0.28,0.652-0.601,1.082-0.962
		c0.439-0.344,0.932-0.747,1.529-1.099c0.572-0.393,1.252-0.714,1.955-1.09c0.359-0.17,0.744-0.313,1.129-0.478
		c0.385-0.174,0.791-0.311,1.215-0.415c0.422-0.117,0.85-0.234,1.283-0.355c0.445-0.068,0.895-0.138,1.35-0.207l0.684-0.102
		l0.693-0.02l1.4-0.035c0.926,0.073,1.857,0.17,2.76,0.316c0.887,0.225,1.77,0.417,2.592,0.692c0.811,0.313,1.584,0.64,2.314,0.944
		c0.703,0.366,1.348,0.748,1.949,1.08c0.301,0.17,0.586,0.334,0.859,0.488c0.258,0.178,0.49,0.365,0.715,0.53
		c0.445,0.335,0.834,0.629,1.154,0.868c0.629,0.49,0.988,0.768,0.988,0.768s-0.398-0.223-1.094-0.613
		c-0.342-0.201-0.758-0.443-1.236-0.721c-0.24-0.137-0.488-0.291-0.76-0.435c-0.279-0.132-0.576-0.269-0.881-0.411
		c-0.615-0.283-1.268-0.611-1.973-0.918c-0.734-0.244-1.504-0.496-2.291-0.779c-0.799-0.244-1.656-0.37-2.502-0.587
		c-0.861-0.129-1.748-0.206-2.629-0.271l-1.324,0.019l-0.66,0.01l-0.648,0.089c-0.434,0.055-0.863,0.107-1.287,0.163
		c-0.416,0.099-0.826,0.196-1.23,0.293c-0.203,0.05-0.404,0.098-0.602,0.146c-0.195,0.067-0.387,0.132-0.576,0.196
		c-0.379,0.13-0.76,0.241-1.117,0.379c-0.697,0.312-1.381,0.575-1.959,0.917c-1.193,0.626-2.133,1.26-2.764,1.738
		C211.785,157.87,211.451,158.182,211.451,158.182z"/>
	<path fill="#C83417" d="M197.383,326.049c52.613,0,52.119-49.037,52.119-49.037l105.406,44.142c0,0,36.928,16.228,36.928,75.697
		H3.107c0-59.47,36.928-75.697,36.928-75.697l105.406-44.142c0,0-0.494,49.037,52.119,49.037"/>
	<circle fill="#010202" cx="197.472" cy="342.452" r="5.521"/>
	<path fill="#F4E6E1" d="M172.949,216.031c0,0,22.617,11.506,46.381,0C219.33,216.031,199.109,217.958,172.949,216.031z"/>
	<path fill="#DFC1A5" d="M203.176,166.167c0.006,1.012,0.127,2.017,0.301,3.007c0.168,0.99,0.402,1.967,0.703,2.919
		c0.609,1.901,1.492,3.707,2.666,5.287c0.582,0.79,1.221,1.537,1.928,2.212c0.727,0.661,1.51,1.48,2.1,2.332
		c1.225,1.713,2.131,3.633,2.688,5.688c0.268,1.029,0.438,2.101,0.434,3.206c0.006,1.101-0.223,2.255-0.764,3.313
		c-0.541,1.061-1.48,1.932-2.527,2.458c-1.059,0.522-2.174,0.74-3.279,0.827c-0.998,0.066-2.035,0.139-3.094,0.122
		c-0.531-0.008-1.072-0.029-1.633-0.106c-0.562-0.07-1.121-0.222-1.576-0.332c-1.797-0.422-3.812-0.418-5.803-0.43v-1.996
		l0.416-0.002v2c-1.994,0.012-4.012,0.007-5.812,0.431c-0.455,0.11-1.018,0.264-1.58,0.332c-0.562,0.076-1.105,0.098-1.635,0.104
		c-1.08,0.012-2.043-0.05-3.148-0.125l-0.754-0.087c-0.268-0.039-0.572-0.108-0.855-0.165c-0.561-0.138-1.1-0.33-1.629-0.59
		c-1.045-0.533-1.98-1.406-2.521-2.465c-0.543-1.057-0.781-2.209-0.783-3.312c-0.012-1.107,0.15-2.183,0.416-3.218
		c0.545-2.062,1.459-3.991,2.711-5.698c0.6-0.847,1.412-1.654,2.162-2.298c0.725-0.655,1.367-1.381,1.957-2.172
		c1.184-1.57,2.049-3.391,2.643-5.299c0.297-0.956,0.52-1.938,0.684-2.931c0.166-0.993,0.281-2,0.289-3.014
		c0.172,2.023-0.004,4.082-0.467,6.08c-0.463,1.996-1.219,3.955-2.352,5.714c-0.561,0.876-1.234,1.702-1.973,2.447
		c-0.748,0.72-1.344,1.385-1.881,2.219c-1.055,1.62-1.857,3.438-2.268,5.312c-0.396,1.852-0.424,3.851,0.395,5.339
		c0.406,0.737,1.035,1.294,1.795,1.669c0.387,0.177,0.807,0.316,1.232,0.412c0.215,0.033,0.404,0.08,0.639,0.11l0.756,0.069
		c0.918,0.031,1.979,0.093,2.924,0.072c0.482-0.01,0.953-0.034,1.395-0.099c0.445-0.057,0.861-0.173,1.389-0.307
		c1.059-0.264,2.145-0.383,3.178-0.442c1.043-0.068,2.07-0.081,3.096-0.092v2l-0.416-0.002v-1.996c1.023,0.01,2.049,0.022,3.09,0.09
		c1.031,0.061,2.115,0.178,3.172,0.44c0.525,0.133,0.945,0.25,1.389,0.308c0.439,0.066,0.91,0.09,1.391,0.1
		c0.963,0.02,1.945-0.033,2.967-0.072c0.906-0.05,1.814-0.217,2.582-0.576c0.76-0.371,1.389-0.922,1.791-1.656
		c0.811-1.482,0.766-3.48,0.361-5.33c-0.42-1.871-1.221-3.686-2.256-5.323c-0.525-0.839-1.109-1.522-1.836-2.267
		c-0.715-0.763-1.365-1.585-1.92-2.465c-1.115-1.758-1.889-3.699-2.371-5.689C203.201,170.242,203.002,168.188,203.176,166.167z"/>
</g>
</svg>
