<?xml version="1.0" encoding="utf-8"?>
<!-- Generator: Adobe Illustrator 16.0.0, SVG Export Plug-In . SVG Version: 6.00 Build 0)  -->
<!DOCTYPE svg PUBLIC "-//W3C//DTD SVG 1.1//EN" "http://www.w3.org/Graphics/SVG/1.1/DTD/svg11.dtd">
<svg version="1.1" id="Layer_1" xmlns="http://www.w3.org/2000/svg" xmlns:xlink="http://www.w3.org/1999/xlink" x="0px" y="0px"
	 width="396.849px" height="396.851px" viewBox="0 0 396.849 396.851" enable-background="new 0 0 396.849 396.851"
	 xml:space="preserve">
	<defs>
	    <clipPath id="circle-clip">
	        <circle stroke="#000000" stroke-miterlimit="10" cx="200" cy="200" r="175" />
	    </clipPath>
	</defs>
<g>
	<rect width="400" height="400" class="player-bg" fill="rgba(0,0,0,0)"/>
	<g>
		<defs>
			<path id="SVGID_3_" d="M-217.891-90.889c52.613,0,52.119-49.037,52.119-49.037l105.406,44.142c0,0,36.928,16.228,36.928,75.697
				h-388.729c0-59.47,36.928-75.697,36.928-75.697l105.406-44.142c0,0-0.494,49.037,52.119,49.037"/>
		</defs>
		<clipPath id="SVGID_2_">
			<use xlink:href="#SVGID_3_"  overflow="visible"/>
		</clipPath>
		<g clip-path="url(#SVGID_2_)">
			<rect x="-446.205" y="-5.873" fill="#30526F" width="456.807" height="25.311"/>
		</g>
	</g>
</g>
<g>
	<g>
		<defs>
			<path id="SVGID_7_" d="M-218.905,326.639c52.613,0,52.119-49.037,52.119-49.037l105.406,44.142c0,0,36.928,16.228,36.928,75.697
				h-388.729c0-59.47,36.928-75.697,36.928-75.697l105.406-44.142c0,0-0.494,49.037,52.119,49.037"/>
		</defs>
		<clipPath id="SVGID_4_">
			<use xlink:href="#SVGID_7_"  overflow="visible"/>
		</clipPath>
		<g clip-path="url(#SVGID_4_)">
			<rect x="-447.22" y="247.891" fill="#30526F" width="456.807" height="25.309"/>
		</g>
		<g clip-path="url(#SVGID_4_)">
			<rect x="-447.22" y="280.643" fill="#30526F" width="456.807" height="25.309"/>
		</g>
		<g clip-path="url(#SVGID_4_)">
			<rect x="-447.22" y="313.395" fill="#30526F" width="456.807" height="25.311"/>
		</g>
		<g clip-path="url(#SVGID_4_)">
			<rect x="-447.22" y="346.148" fill="#30526F" width="456.807" height="25.311"/>
		</g>
		<g clip-path="url(#SVGID_4_)">
			<rect x="-447.22" y="378.902" fill="#30526F" width="456.807" height="25.311"/>
		</g>
	</g>
</g>
<g>
	<g>
		<rect x="145.832" y="221.329" fill="#E0C1A6" width="104.24" height="111.015"/>
	</g>
	<g>
		<g>
			<path fill="#F4F6F6" d="M198.333,326.348c52.613,0,52.119-49.037,52.119-49.037l105.408,44.142c0,0,36.928,16.228,36.928,75.697
				H4.06c0-59.47,36.928-75.697,36.928-75.697l105.406-44.142c0,0-0.494,49.037,52.119,49.037"/>
		</g>
		<g>
			<path fill="#231F20" d="M384.394,397.149h-4v-10.508c-3.42-41.918-28.369-54.314-29.432-54.822l-93.193-39.024l1.545-3.689
				l93.285,39.065c2.965,1.415,28.27,14.729,31.787,58.229l0.008,0.161V397.149z M16.453,396.561h-4l0.008-10.161
				c3.592-44.424,30.518-57.633,31.662-58.174l93.41-39.12l1.545,3.689L45.75,331.879c-0.977,0.464-25.863,12.682-29.297,54.763
				V396.561z"/>
		</g>
	</g>
	<g>
		<path fill="#D4B69D" d="M150.626,233.724c0,0,18.861,31.795,45.27,31.795c26.406,0,50.656-31.795,50.656-31.795H150.626z"/>
	</g>
	<g>
		<path fill="#E0C1A6" d="M259.181,162.997c0,0,4.553-10.762,11.473-6.703c5.209,3.055,0.789,14.916,0.07,18.329
			s-4.492,26.945-17.426,21.736l3.055-32.694L259.181,162.997z"/>
	</g>
	<g>
		<path fill="#E0C1A6" d="M137.935,162.997c0,0-4.551-10.762-11.471-6.703c-5.209,3.055-0.789,14.916-0.07,18.329
			s4.49,26.945,17.426,21.736l-3.055-32.694L137.935,162.997z"/>
	</g>
	<g>
		<path fill="#E0C1A6" d="M261.921,137.259c0,0-5.748,52.095-6.107,63.592s0.018,25.533-21.916,42.754
			c-18.816,14.773-30.178,14.012-30.178,14.012c-4.611,0.543-10.779,0-10.779,0s-11.361,0.762-30.178-14.012
			c-21.936-17.221-21.557-31.257-21.916-42.754s-6.107-63.592-6.107-63.592l9.08-35.209l31.359-13.652h55.76l24.875,22.096
			L261.921,137.259z"/>
	</g>
	<g>
		<path fill="#422221" d="M182.388,156.524c0,0-0.348-0.334-1.016-0.835c-0.654-0.516-1.643-1.184-2.895-1.839
			c-0.611-0.355-1.324-0.635-2.068-0.941c-0.371-0.155-0.777-0.241-1.178-0.37c-0.402-0.122-0.811-0.258-1.244-0.314
			c-0.428-0.08-0.861-0.161-1.301-0.243c-0.447-0.024-0.898-0.05-1.354-0.074c-0.227-0.012-0.455-0.035-0.684-0.037l-0.688,0.058
			l-1.381,0.113l-1.355,0.302c-0.445,0.115-0.91,0.161-1.328,0.358c-0.43,0.163-0.855,0.324-1.275,0.484
			c-0.422,0.155-0.846,0.296-1.221,0.53c-0.764,0.431-1.533,0.8-2.238,1.2c-0.666,0.465-1.295,0.904-1.877,1.311
			c-0.289,0.205-0.576,0.393-0.834,0.59c-0.248,0.209-0.484,0.408-0.705,0.595c-0.443,0.375-0.832,0.702-1.15,0.971
			c-0.65,0.532-1.021,0.837-1.021,0.837s0.322-0.354,0.885-0.976c0.289-0.308,0.639-0.681,1.039-1.108
			c0.201-0.215,0.414-0.444,0.641-0.686c0.236-0.229,0.52-0.432,0.797-0.664c0.564-0.457,1.178-0.953,1.824-1.477
			c0.691-0.464,1.455-0.912,2.242-1.378c0.383-0.257,0.82-0.423,1.258-0.603s0.881-0.359,1.33-0.542
			c0.438-0.211,0.932-0.271,1.404-0.398l1.438-0.335l1.477-0.105l0.734-0.051c0.244,0.005,0.488,0.032,0.73,0.047
			c0.484,0.04,0.965,0.079,1.439,0.118c0.465,0.104,0.922,0.206,1.373,0.308c0.455,0.082,0.885,0.228,1.297,0.393
			c0.41,0.165,0.828,0.287,1.203,0.477c0.754,0.374,1.467,0.717,2.072,1.127c0.635,0.361,1.145,0.801,1.613,1.155
			c0.441,0.392,0.836,0.718,1.129,1.023c0.305,0.291,0.521,0.543,0.666,0.715C182.318,156.427,182.388,156.524,182.388,156.524z"/>
	</g>
	<g>
		<circle fill="#422221" cx="170.396" cy="155.379" r="4.783"/>
	</g>
	<g>
		<path fill="#422221" d="M214.166,156.524c0,0,0.07-0.098,0.221-0.266c0.145-0.172,0.361-0.424,0.666-0.715
			c0.293-0.306,0.688-0.632,1.129-1.023c0.469-0.354,0.979-0.794,1.613-1.154c0.605-0.411,1.318-0.754,2.072-1.128
			c0.375-0.189,0.791-0.312,1.203-0.477s0.842-0.311,1.297-0.393c0.449-0.102,0.908-0.204,1.373-0.308
			c0.475-0.039,0.955-0.078,1.439-0.118c0.242-0.015,0.484-0.041,0.729-0.047l0.734,0.051l1.477,0.105l1.439,0.335
			c0.473,0.128,0.967,0.188,1.404,0.398c0.447,0.183,0.893,0.362,1.33,0.542s0.875,0.346,1.258,0.602
			c0.787,0.467,1.551,0.915,2.242,1.379c0.646,0.523,1.258,1.02,1.824,1.477c0.275,0.232,0.559,0.436,0.797,0.664
			c0.225,0.241,0.439,0.471,0.641,0.686c0.4,0.428,0.75,0.801,1.037,1.108c0.562,0.621,0.885,0.976,0.885,0.976
			s-0.371-0.305-1.021-0.837c-0.318-0.269-0.705-0.596-1.15-0.971c-0.221-0.187-0.455-0.386-0.703-0.595
			c-0.258-0.197-0.545-0.385-0.834-0.59c-0.582-0.406-1.213-0.846-1.879-1.311c-0.703-0.4-1.473-0.77-2.236-1.2
			c-0.375-0.234-0.799-0.375-1.221-0.53c-0.422-0.16-0.846-0.321-1.275-0.484c-0.418-0.197-0.883-0.243-1.328-0.358l-1.355-0.302
			l-1.381-0.113l-0.688-0.058c-0.229,0.002-0.457,0.025-0.684,0.037c-0.455,0.024-0.906,0.05-1.354,0.074
			c-0.439,0.082-0.873,0.163-1.301,0.243c-0.436,0.057-0.842,0.192-1.244,0.314c-0.4,0.129-0.807,0.215-1.178,0.37
			c-0.744,0.307-1.457,0.586-2.068,0.941c-1.252,0.655-2.24,1.323-2.895,1.839C214.513,156.19,214.166,156.524,214.166,156.524z"/>
	</g>
	<g>
		<circle fill="#422221" cx="226.157" cy="155.379" r="4.782"/>
	</g>
	<g>
		<path fill="#CCB097" d="M187.912,153.087c0.67,2.378,1.182,4.804,1.562,7.256c0.379,2.452,0.615,4.934,0.658,7.44
			c0.033,2.504-0.15,5.039-0.75,7.557c-0.312,1.255-0.754,2.503-1.398,3.686c-0.314,0.594-0.697,1.164-1.131,1.702
			c-0.232,0.257-0.43,0.544-0.697,0.775l-0.732,0.677l-1.377,1.221c-0.398,0.414-0.828,0.796-1.203,1.23
			c-0.777,0.85-1.471,1.76-1.891,2.661c-0.092,0.223-0.205,0.448-0.23,0.649c-0.02,0.1-0.062,0.209-0.068,0.301
			c0.002,0.087,0,0.172-0.008,0.258c0.027,0.316,0.105,0.473,0.275,0.617c0.172,0.142,0.498,0.275,0.877,0.269
			c0.09,0.016,0.189-0.017,0.283-0.016c0.039-0.004,0.115-0.005,0.121-0.009l0.229-0.041l0.906-0.166
			c1.119-0.245,2.445-0.514,3.803-0.604c0.693-0.011,1.385-0.047,2.086,0.063c0.705,0.045,1.381,0.229,2.057,0.41
			c0.691,0.148,1.287,0.488,1.934,0.73c0.561,0.23,1.117,0.512,1.676,0.766l3.352,1.562l-0.633-0.14l1.092-0.001l-0.561,0.109
			l3.215-1.532l0.506-0.234l0.424-0.179l0.852-0.356c0.637-0.213,1.391-0.416,2.068-0.569c1.332-0.227,2.67-0.351,3.973-0.307
			c1.314,0.003,2.586,0.158,3.836,0.324l0.924,0.137c0.043,0.014,0.67,0.078,0.699,0.039c0.102,0,0.279-0.043,0.436-0.084
			c0.062-0.035,0.129-0.063,0.199-0.086c0.047-0.042,0.092-0.078,0.146-0.106c0.156-0.144,0.23-0.312,0.24-0.645l-0.008-0.261
			l-0.078-0.305c-0.02-0.2-0.164-0.432-0.242-0.652c-0.43-0.902-1.137-1.803-1.908-2.652c-0.385-0.428-0.822-0.827-1.229-1.245
			l-1.334-1.178l-0.137-0.118l-0.084-0.079l-0.168-0.158l-0.336-0.315c-0.225-0.21-0.482-0.534-0.715-0.8
			c-0.443-0.562-0.811-1.117-1.125-1.716c-0.637-1.184-1.072-2.428-1.381-3.682c-0.311-1.254-0.482-2.518-0.602-3.775
			c-0.119-1.259-0.156-2.516-0.137-3.766c0.045-2.501,0.283-4.977,0.662-7.424c0.383-2.446,0.893-4.867,1.562-7.239
			c-0.363,2.437-0.592,4.884-0.742,7.326c-0.129,2.443-0.189,4.888-0.023,7.304c0.141,2.412,0.467,4.813,1.16,7.053
			c0.359,1.111,0.799,2.182,1.373,3.141c0.277,0.479,0.619,0.935,0.953,1.322c0.188,0.184,0.303,0.354,0.535,0.555l0.654,0.554
			l1.488,1.195c0.475,0.438,0.967,0.85,1.426,1.314c0.92,0.928,1.789,1.952,2.465,3.248c0.146,0.351,0.334,0.652,0.426,1.062
			l0.156,0.587c0.031,0.21,0.043,0.438,0.057,0.658c0.047,0.883-0.289,1.979-1.051,2.68c-0.188,0.158-0.385,0.314-0.584,0.455
			c-0.207,0.11-0.418,0.215-0.633,0.312c-0.426,0.15-0.846,0.27-1.359,0.294c-0.582,0.03-0.574,0.01-1.139-0.038l-0.906-0.107
			c-1.189-0.114-2.367-0.247-3.514-0.237c-1.158-0.03-2.275,0.096-3.365,0.285c-0.516,0.134-0.957,0.239-1.484,0.406l-0.848,0.365
			l-0.424,0.183l-0.053,0.022l-0.025,0.012l-0.014,0.006c0.039-0.019-0.107,0.05,0.086-0.041l-0.107,0.052l-0.215,0.105
			l-3.432,1.668l-0.225,0.109h-0.336l-1.092-0.001l-0.34-0.001l-0.291-0.139l-3.336-1.594c-0.561-0.262-1.102-0.541-1.678-0.787
			c-0.508-0.185-0.99-0.485-1.512-0.588c-0.516-0.141-1.027-0.296-1.557-0.326c-0.521-0.097-1.064-0.063-1.604-0.066
			c-1.102,0.071-2.201,0.268-3.5,0.504l-0.914,0.141l-0.229,0.035c-0.146,0.022-0.225,0.019-0.34,0.028
			c-0.213,0.005-0.422,0.035-0.639,0.009c-0.848-0.036-1.766-0.316-2.527-0.979c-0.779-0.655-1.182-1.737-1.166-2.646l0.047-0.665
			c0.029-0.213,0.094-0.397,0.145-0.596c0.092-0.41,0.258-0.737,0.412-1.078c0.666-1.312,1.527-2.354,2.453-3.279
			c0.455-0.476,0.967-0.896,1.449-1.342l1.445-1.165l0.652-0.548c0.213-0.159,0.373-0.384,0.564-0.571
			c0.357-0.404,0.689-0.846,0.973-1.329c0.58-0.957,1.025-2.027,1.389-3.14c0.697-2.243,1.025-4.648,1.17-7.066
			c0.168-2.422,0.107-4.871-0.021-7.319C188.507,157.981,188.277,155.528,187.912,153.087z"/>
	</g>
	<g>
		<path fill="#231F20" d="M183.869,189.667c0,0,3.639,3.368,9.566,0.943"/>
	</g>
	<g>
		<path fill="#231F20" d="M212.027,189.667c0,0-3.637,3.368-9.564,0.943"/>
	</g>
	<g>
		<path fill="#CCB097" d="M233.718,194.204c0,0,0.303,0.14,0.775,0.479c0.236,0.169,0.516,0.388,0.824,0.653
			c0.305,0.271,0.648,0.581,0.973,0.97c0.354,0.363,0.654,0.824,0.994,1.299c0.279,0.508,0.633,1.023,0.846,1.629
			c0.271,0.582,0.453,1.219,0.611,1.875c0.154,0.654,0.205,1.341,0.277,2.019c-0.037,0.68,0.014,1.37-0.102,2.028
			c-0.119,0.656-0.176,1.318-0.379,1.918c-0.188,0.604-0.365,1.188-0.566,1.727c-0.246,0.52-0.479,1.01-0.693,1.463
			c-0.113,0.223-0.205,0.443-0.32,0.64c-0.125,0.19-0.242,0.371-0.354,0.541c-0.223,0.338-0.416,0.632-0.576,0.874
			c-0.32,0.481-0.514,0.747-0.514,0.747s0.119-0.312,0.344-0.842c0.209-0.537,0.607-1.256,0.895-2.19
			c0.158-0.458,0.332-0.954,0.516-1.479c0.131-0.536,0.27-1.101,0.412-1.685c0.172-0.577,0.162-1.203,0.277-1.817
			c0.1-0.618,0.033-1.253,0.061-1.883c-0.057-0.623-0.09-1.258-0.221-1.861c-0.145-0.603-0.256-1.205-0.486-1.753
			c-0.172-0.569-0.449-1.073-0.67-1.575c-0.285-0.465-0.512-0.938-0.803-1.322c-0.535-0.805-1.072-1.418-1.471-1.828
			C233.972,194.418,233.718,194.204,233.718,194.204z"/>
	</g>
	<g>
		<path fill="#CCB097" d="M165.246,194.204c0,0-0.254,0.214-0.65,0.626c-0.398,0.41-0.938,1.024-1.471,1.828
			c-0.291,0.384-0.518,0.857-0.803,1.322c-0.221,0.502-0.498,1.006-0.672,1.575c-0.229,0.548-0.34,1.15-0.484,1.753
			c-0.131,0.604-0.166,1.238-0.221,1.861c0.027,0.631-0.039,1.266,0.061,1.883c0.115,0.614,0.104,1.24,0.277,1.817
			c0.143,0.584,0.281,1.148,0.412,1.685c0.184,0.524,0.357,1.021,0.516,1.479c0.287,0.935,0.688,1.653,0.895,2.19
			c0.225,0.529,0.344,0.842,0.344,0.842s-0.193-0.265-0.514-0.747c-0.16-0.242-0.354-0.536-0.574-0.874
			c-0.113-0.17-0.23-0.351-0.355-0.541c-0.113-0.196-0.207-0.417-0.32-0.64c-0.215-0.453-0.447-0.943-0.693-1.463
			c-0.201-0.539-0.379-1.123-0.566-1.727c-0.203-0.6-0.26-1.262-0.379-1.918c-0.115-0.658-0.064-1.348-0.102-2.028
			c0.07-0.677,0.123-1.364,0.277-2.019c0.158-0.656,0.34-1.293,0.611-1.875c0.213-0.605,0.564-1.121,0.846-1.629
			c0.34-0.475,0.641-0.936,0.994-1.299c0.322-0.389,0.666-0.699,0.971-0.97c0.311-0.266,0.588-0.484,0.824-0.653
			C164.943,194.344,165.246,194.204,165.246,194.204z"/>
	</g>
	<g>
		<path fill="#E9CFC4" d="M225.095,209.651c0,0-13.898-7.363-27.012-3.951c0,0-0.58,0.343-2.088,0
			c-13.215-2.994-27.014,3.951-27.014,3.951s18.172-1.256,28.057-1.256C206.925,208.396,225.095,209.651,225.095,209.651z"/>
	</g>
	<g>
		<path fill="#F4E6E1" d="M224.804,210.371c0,0-9.025,16.526-26.385,16.526h-1.639c-17.359,0-26.385-16.526-26.385-16.526
			s7.297,8.263,27.215,8.263C217.531,218.634,224.804,210.371,224.804,210.371z"/>
	</g>
	<g>
		<path fill="#FFFFFF" d="M171.205,209.651c0,0,26.586-0.717,52.455,0.72C223.66,210.371,195.277,226.358,171.205,209.651z"/>
	</g>
	<g>
		<path fill="#CCB097" d="M150.726,200.671c0,0,0.295,0.981,0.855,2.683c0.551,1.704,1.412,4.113,2.479,6.988
			c1.068,2.874,2.439,6.178,3.98,9.683c0.783,1.746,1.605,3.545,2.502,5.343c0.881,1.805,1.838,3.606,2.826,5.39
			c0.971,1.793,2,3.554,3.047,5.265c1.066,1.698,2.15,3.35,3.264,4.901c1.119,1.548,2.221,3.029,3.326,4.387
			c1.098,1.365,2.203,2.599,3.244,3.717c0.535,0.547,1.047,1.071,1.533,1.569c0.506,0.48,0.984,0.938,1.434,1.365
			c0.893,0.87,1.758,1.526,2.428,2.121c1.416,1.096,2.225,1.723,2.225,1.723s-0.213-0.141-0.613-0.405
			c-0.396-0.271-1-0.64-1.729-1.163c-0.703-0.558-1.611-1.172-2.555-1.995c-0.477-0.406-0.984-0.839-1.52-1.295
			c-0.51-0.485-1.045-0.994-1.605-1.525c-2.184-2.178-4.598-4.869-6.871-7.99c-1.143-1.556-2.254-3.21-3.35-4.913
			c-1.076-1.716-2.139-3.479-3.133-5.279c-0.977-1.81-1.922-3.636-2.789-5.463c-0.883-1.82-1.691-3.641-2.459-5.406
			c-1.514-3.541-2.719-6.929-3.713-9.84c-0.986-2.916-1.664-5.392-2.137-7.121C150.937,201.674,150.726,200.671,150.726,200.671z"/>
	</g>
	<g>
		<path fill="#CCB097" d="M248.539,199.593c0,0-0.211,1.003-0.67,2.737c-0.475,1.729-1.15,4.205-2.137,7.121
			c-0.994,2.911-2.199,6.299-3.713,9.841c-0.768,1.766-1.576,3.585-2.459,5.405c-0.867,1.828-1.812,3.654-2.789,5.464
			c-0.994,1.8-2.057,3.563-3.131,5.278c-1.098,1.703-2.209,3.358-3.352,4.914c-2.273,3.121-4.686,5.812-6.871,7.99
			c-0.559,0.531-1.096,1.041-1.605,1.525c-0.535,0.456-1.041,0.889-1.52,1.295c-0.943,0.824-1.852,1.438-2.553,1.995
			c-0.73,0.523-1.334,0.893-1.73,1.163c-0.4,0.264-0.613,0.405-0.613,0.405s0.809-0.626,2.225-1.724
			c0.67-0.594,1.535-1.25,2.428-2.119c0.449-0.429,0.928-0.885,1.434-1.366c0.486-0.498,0.998-1.022,1.533-1.569
			c1.041-1.119,2.146-2.352,3.244-3.717c1.105-1.357,2.207-2.839,3.326-4.387c1.113-1.552,2.197-3.203,3.264-4.902
			c1.047-1.711,2.076-3.471,3.047-5.264c0.988-1.783,1.945-3.585,2.826-5.391c0.896-1.797,1.719-3.596,2.502-5.343
			c1.539-3.504,2.912-6.808,3.979-9.683c1.068-2.875,1.93-5.284,2.48-6.988C248.242,200.574,248.539,199.593,248.539,199.593z"/>
	</g>
	<g>
		<path fill="#373132" d="M249.593,91.271c16.707,14.19,20.479,55.915,14.73,64.107s-6.295,17.886-6.295,17.886
			s-2.521-15.707,0-26.305c2.521-10.599-5.301-14.73-6.279-19.401c-0.68-3.241-4.492-22.567-13.654-26.879
			c-9.16-4.312-25.102,0.831-38.328,0.831h-2.986c-13.227,0-29.168-5.143-38.33-0.831c-9.16,4.312-12.973,23.638-13.652,26.879
			c-0.979,4.671-8.803,8.803-6.281,19.401c2.521,10.598,0,26.305,0,26.305s-0.545-9.693-6.293-17.886s-1.977-49.917,14.73-64.107
			l30.357-10.06l43.293,1.797L249.593,91.271z"/>
	</g>
	<g>
		<path fill="#231F20" d="M230.072,98.99c9.646-1.804,19.635,6.114,19.521-7.719s-28.09-23.353-20.725-24.43
			s10.957,2.335,10.957,2.335c-1.615-7.366-16.705-9.341-16.346-11.138c0.357-1.796,2.678-5.388,2.678-5.388
			c-14.389,2.693-30.521,15.986-50.979,15.986s-29.33,23.634-29.33,23.634c-2.936,6.69,9.727,10.385,9.727,10.385
			s5.422-4.68,15.629-3.603c10.209,1.078,25.576,2.457,25.576,2.457L230.072,98.99z"/>
	</g>
	<g>
		<path fill="#CCB097" d="M226.158,169.952c0,0,0.557-0.06,1.535-0.026c0.49,0.009,1.082,0.058,1.764,0.112
			c0.676,0.083,1.449,0.148,2.271,0.335c0.832,0.141,1.713,0.379,2.648,0.628c0.928,0.27,1.902,0.592,2.881,0.992
			c0.963,0.439,1.988,0.835,2.938,1.423c0.48,0.28,0.982,0.536,1.455,0.842l1.393,0.969c0.955,0.612,1.746,1.438,2.602,2.147
			c0.439,0.347,0.789,0.778,1.16,1.179c0.365,0.403,0.729,0.803,1.084,1.195c0.703,0.791,1.234,1.675,1.809,2.452
			c0.596,0.765,0.957,1.618,1.387,2.341c0.395,0.742,0.809,1.396,1.025,2.05c0.25,0.635,0.467,1.188,0.646,1.644
			c0.346,0.912,0.543,1.433,0.543,1.433s-0.262-0.492-0.721-1.354c-0.223-0.431-0.492-0.955-0.803-1.555
			c-0.277-0.617-0.754-1.222-1.178-1.932c-0.467-0.684-0.865-1.494-1.496-2.205c-0.609-0.725-1.182-1.543-1.879-2.297
			c-0.729-0.723-1.418-1.535-2.232-2.24c-0.836-0.677-1.605-1.467-2.535-2.05l-1.336-0.95c-0.453-0.301-0.936-0.552-1.398-0.828
			c-0.914-0.572-1.885-1.004-2.809-1.456c-0.943-0.406-1.865-0.79-2.754-1.106c-0.896-0.299-1.746-0.586-2.553-0.773
			c-1.6-0.422-2.965-0.678-3.928-0.802C226.716,169.98,226.158,169.952,226.158,169.952z"/>
	</g>
	<g>
		<path fill="#CCB097" d="M170.306,169.952c0,0-0.559,0.028-1.521,0.166c-0.963,0.124-2.326,0.38-3.926,0.802
			c-0.807,0.188-1.656,0.475-2.553,0.773c-0.891,0.316-1.812,0.7-2.754,1.106c-0.924,0.452-1.895,0.884-2.811,1.456
			c-0.461,0.276-0.945,0.527-1.398,0.828l-1.334,0.95c-0.932,0.583-1.699,1.373-2.537,2.05c-0.812,0.705-1.502,1.518-2.232,2.24
			c-0.697,0.754-1.27,1.572-1.877,2.297c-0.631,0.711-1.031,1.521-1.498,2.205c-0.422,0.71-0.9,1.314-1.178,1.932
			c-0.309,0.6-0.58,1.124-0.803,1.555c-0.457,0.862-0.721,1.354-0.721,1.354s0.197-0.521,0.543-1.433
			c0.18-0.456,0.398-1.009,0.648-1.644c0.215-0.653,0.629-1.308,1.025-2.05c0.43-0.723,0.789-1.576,1.387-2.341
			c0.572-0.777,1.105-1.661,1.809-2.452c0.355-0.393,0.717-0.792,1.084-1.195c0.369-0.4,0.721-0.832,1.158-1.179
			c0.857-0.71,1.646-1.535,2.604-2.147l1.393-0.969c0.473-0.306,0.973-0.562,1.453-0.842c0.951-0.588,1.977-0.983,2.938-1.423
			c0.979-0.4,1.953-0.723,2.881-0.992c0.936-0.249,1.818-0.487,2.65-0.628c0.82-0.187,1.594-0.252,2.271-0.335
			c0.68-0.055,1.273-0.104,1.764-0.112C169.75,169.893,170.306,169.952,170.306,169.952z"/>
	</g>
	<g>
		<path fill="#E4CAB2" d="M241.982,140.28c0,0-3.852-6.973-42.115-3.021h-4.23c-38.264-3.951-42.115,3.021-42.115,3.021
			s26.844,3.445,43.91,3.445S241.982,140.28,241.982,140.28z"/>
	</g>
	<g>
		<path fill="#231F20" d="M187.013,148.757c0,0,1.438-4.312-6.646-7.006c-7.191-2.398-22.918-6.369-28.486-0.082
			c-5.568,6.286-6.184,10.859-6.004,11.398c0.18,0.541,5.309-9.915,12.035-10.239C172.822,142.109,186.294,150.192,187.013,148.757z
			"/>
	</g>
	<g>
		<path fill="#231F20" d="M209.541,148.757c0,0-1.438-4.312,6.646-7.006c7.191-2.398,22.916-6.369,28.486-0.082
			c5.568,6.286,6.184,10.859,6.004,11.398c-0.18,0.541-5.309-9.915-12.035-10.239C223.732,142.109,210.259,150.192,209.541,148.757z
			"/>
	</g>
	<g>
		<path fill="#E0C1A6" d="M187.912,153.087c0,0,4.961,21.695-3.1,28.092c-8.488,6.736-5.389,9.971-2.424,9.566
			c2.963-0.404,6.068-1.752,10.488,0.459c2.789,1.396,4.734,2.235,4.734,2.235h1.092c0,0,1.146-0.463,3.637-1.751
			c3.908-2.021,8.623-1.348,11.586-0.943c2.965,0.404,6.064-2.83-2.424-9.566c-8.061-6.396-3.1-28.092-3.1-28.092"/>
	</g>
	<g>
		<ellipse fill="#422221" cx="225.881" cy="190.341" rx="1.347" ry="0.539"/>
	</g>
	<g>
		<circle fill="#E9ECEC" cx="134.74" cy="188.856" r="2.93"/>
	</g>
	<g>
		<circle fill="#E9ECEC" cx="261.921" cy="188.856" r="2.93"/>
	</g>
	<g>
		<defs>
			<path id="SVGID_15_" d="M355.478,395.357v-75.703l-105.406-44.142c0,0,0.494,49.037-52.119,49.037
				c-52.615,0-52.121-49.037-52.121-49.037L43.667,316.321v79.03"/>
		</defs>
		<clipPath id="SVGID_6_">
			<use xlink:href="#SVGID_15_"  overflow="visible"/>
		</clipPath>
		<g clip-path="url(#SVGID_6_)">
			<path fill="#231F20" d="M197.953,339.05c-20.172,0-36.414-6.076-48.275-18.059c-18.396-18.581-18.357-44.528-18.346-45.624
				l5,0.049c-0.01,1.011-0.047,24.94,16.898,42.058c10.889,10.999,25.936,16.576,44.723,16.576c18.785,0,33.83-5.577,44.719-16.575
				c16.945-17.117,16.908-41.048,16.898-42.059l5-0.049c0.012,1.096,0.051,27.043-18.344,45.625
				C234.363,332.975,218.121,339.05,197.953,339.05z"/>
		</g>
		<g clip-path="url(#SVGID_6_)">
			<path fill="#F38F1B" d="M197.953,328.05c-17.127,0-30.738-4.979-40.459-14.797c-15.211-15.366-15.172-36.868-15.162-37.775
				l7,0.07c-0.002,0.188,0.023,19.58,13.186,32.828c8.354,8.41,20.275,12.674,35.436,12.674c15.186,0,27.123-4.28,35.48-12.722
				c13.18-13.313,13.141-32.587,13.139-32.78l7-0.07c0.008,0.907,0.049,22.409-15.164,37.775
				C228.687,323.071,215.076,328.05,197.953,328.05z"/>
		</g>
	</g>
</g>
</svg>
