<?xml version="1.0" encoding="utf-8"?>
<!-- Generator: Adobe Illustrator 16.0.0, SVG Export Plug-In . SVG Version: 6.00 Build 0)  -->
<!DOCTYPE svg PUBLIC "-//W3C//DTD SVG 1.1//EN" "http://www.w3.org/Graphics/SVG/1.1/DTD/svg11.dtd">
<svg version="1.1" id="Layer_1" xmlns="http://www.w3.org/2000/svg" xmlns:xlink="http://www.w3.org/1999/xlink" x="0px" y="0px"
	 width="396.849px" height="396.851px" viewBox="0 0 396.849 396.851" enable-background="new 0 0 396.849 396.851"
	 xml:space="preserve">
	<defs>
	    <clipPath id="circle-clip">
	        <circle stroke="#000000" stroke-miterlimit="10" cx="200" cy="200" r="175" />
	    </clipPath>
	</defs>
<g>
	<rect width="400" height="400" class="player-bg" fill="rgba(0,0,0,0)"/>
	<rect x="145.978" y="211.255" fill="#CCB097" width="104.436" height="133.879"/>
	<path fill="#BFA48D" d="M243.482,250.273c0,0-23.391,45.553-39.154,45.553h-12.293c-15.764,0-39.143-44.873-39.143-44.873
		L243.482,250.273z"/>
	<path fill="#CCB097" d="M136.558,122.826c0,0-10.5,31,4,84s14,46,26,60.5s22.5,17.5,27,17.5h9.326c4.5,0,15-3,27-17.5
		s11.5-7.5,26-60.5s4-84,4-84l-23.66-21.998l-77.791,6.666"/>
	<path fill="#CCB097" d="M250.558,211.826c14,23.5,32-38,23-39.5s-17,13.5-17,13.5L250.558,211.826z"/>
	<path fill="#CCB097" d="M145.978,211.826c-14,23.5-32-38-23-39.5s17,13.5,17,13.5L145.978,211.826z"/>
	<path fill="#5E595A" d="M201.941,95.826l43,3l10.5,12c19,28,3.982,83.871,3.982,83.871s3.482-31.371,0-36.871s-7.482-8-6.982-19
		s-3.5-23.5-17-24s-26,3.5-33.5,3.5h-6.883c-7.5,0-20-4-33.5-3.5s-17.5,13-17,24s-3.5,13.5-6.982,19c-3.48,5.5,0,36.871,0,36.871
		s-15.018-55.871,3.982-83.871l10.5-12l43-3H201.941z"/>
	<path fill="#231F20" d="M250.558,107.826c0,0,1.5-18.5-7.5-26.5v5.5c0,0-23.5-25-71.5-12l3.5,2c0,0-10,0.754-34,12.627
		l3.125,18.373c0,0,33.969,3.5,51.672,3.5S250.558,107.826,250.558,107.826z"/>
	<path fill="#B39B85" d="M230.808,192.826c0,0,11.25,1,17.25,9.5"/>
	<path fill="#B39B85" d="M168.058,192.826c0,0-11.25,1-17.25,9.5"/>
	<path fill="#B39B85" d="M223.808,217.172c0,0,0.713,0.25,1.889,0.852c1.166,0.613,2.83,1.541,4.578,3.018
		c0.873,0.734,1.762,1.607,2.592,2.635c0.826,1.025,1.6,2.213,2.135,3.57c0.547,1.35,0.877,2.852,0.906,4.389
		c0.033,1.537-0.229,3.092-0.693,4.568c-0.467,1.482-1.203,2.846-1.973,4.139c-0.404,0.619-0.82,1.287-1.256,1.852
		c-0.42,0.58-0.828,1.162-1.217,1.746c-0.789,1.156-1.523,2.295-2.207,3.383c-0.662,1.102-1.305,2.135-1.807,3.137
		c-0.264,0.494-0.518,0.969-0.758,1.42c-0.227,0.457-0.418,0.902-0.611,1.314c-0.375,0.83-0.734,1.545-0.908,2.178
		c-0.426,1.244-0.67,1.955-0.67,1.955s0.178-0.732,0.486-2.014c0.127-0.654,0.432-1.396,0.748-2.262
		c0.164-0.43,0.324-0.896,0.518-1.375c0.221-0.467,0.451-0.959,0.693-1.471c0.461-1.039,1.062-2.109,1.68-3.254
		c0.639-1.129,1.32-2.32,2.115-3.494c0.383-0.596,0.789-1.193,1.211-1.793c0.441-0.594,0.787-1.18,1.184-1.805
		c0.721-1.254,1.402-2.568,1.82-3.965c0.457-1.381,0.723-2.822,0.713-4.246c-0.006-1.422-0.289-2.816-0.779-4.084
		c-0.986-2.547-2.662-4.602-4.295-6.105c-1.643-1.504-3.18-2.588-4.299-3.268C224.486,217.502,223.808,217.172,223.808,217.172z"/>
	<path fill="#231F20" d="M207.558,170.076c0,0,7-4.561,17.75-2.561s10.145,4.705,10.145,4.705S219.058,169.326,207.558,170.076z"/>
	<path opacity="0.5" fill="#312D2E" d="M207.558,170.076c0,0,13.229-9.482,27.902-3.066c23.598,10.316-0.008,5.211-0.008,5.211
		S220.808,169.076,207.558,170.076z"/>
	<path fill="#231F20" d="M182.947,171.076c0,0-7-4.561-17.75-2.561s-10.145,4.705-10.145,4.705S171.447,170.326,182.947,171.076z"/>
	<path opacity="0.5" fill="#312D2E" d="M182.947,171.076c0,0-13.229-9.482-27.9-3.066c-23.6,10.316,0.006,5.211,0.006,5.211
		S169.697,170.076,182.947,171.076z"/>
	<path fill="#E9CFC4" d="M169.558,235.627c0,0,7.5,1.549,13.75,0c6.25-1.551,7.844-1.551,11.922-1.051s8.828-2,12.328-2.25
		s12.389,2,19.193,0C233.558,230.326,198.808,243.426,169.558,235.627z"/>
	<path fill="#F4E6E1" d="M171.808,238.131c0,0,5.309,12.195,26.779,12.195s28.164-16.75,28.164-16.75s-9.693,9.75-25.943,10.5
		S171.808,238.131,171.808,238.131z"/>
	<path fill="#B39B85" d="M171.808,219.076c0,0-0.529,0.467-1.383,1.354c-0.861,0.877-2.016,2.205-3.236,3.904
		c-1.221,1.697-2.439,3.836-3.248,6.285c-0.822,2.439-1.064,5.254-0.393,7.895c0.299,1.34,0.848,2.564,1.473,3.807
		c0.619,1.24,1.229,2.461,1.82,3.643c1.209,2.342,2.18,4.629,3.037,6.568c0.467,0.951,0.678,1.928,0.967,2.738
		c0.291,0.814,0.432,1.553,0.564,2.156c0.254,1.209,0.398,1.9,0.398,1.9s-0.213-0.672-0.586-1.848
		c-0.18-0.588-0.379-1.311-0.73-2.092c-0.162-0.393-0.334-0.812-0.516-1.256c-0.088-0.221-0.178-0.447-0.27-0.68
		c-0.113-0.227-0.227-0.457-0.344-0.693c-0.471-0.941-0.982-1.959-1.521-3.037c-0.564-1.07-1.16-2.199-1.775-3.367
		c-0.609-1.172-1.238-2.381-1.879-3.611c-0.639-1.223-1.277-2.576-1.609-3.994c-0.68-2.854-0.361-5.865,0.543-8.406
		c0.891-2.564,2.312-4.668,3.619-6.344c1.32-1.682,2.631-2.887,3.553-3.709C171.224,219.473,171.808,219.076,171.808,219.076z"/>
	<path fill="#C4AA92" d="M187.355,183.85c0,0-11.26,10.068-7.654,24.898l7.654,3.078l4.203-30.5L187.355,183.85z"/>
	<path fill="#C4AA92" d="M203.193,183.85c0,0,11.26,10.068,7.652,24.898l-7.652,3.078l-4.203-30.5L203.193,183.85z"/>
	<g>
		<path fill="#CCB097" d="M187.558,175.576c0,0,1,15.75-5.5,28.25s-4.832,15.5-1.498,15.5c6.498,0,9.998,3.5,12.248,3.5h4.844
			c2.25,0,6.906-3.5,12.248-3.5c3.334,0,5.002-3-1.498-15.5s-5.5-28.25-5.5-28.25"/>
		<path fill="#B39B85" d="M187.558,175.576c0,0,0.176,1.949,0.082,5.373c-0.127,3.412-0.443,8.334-1.928,14.043
			c-0.744,2.846-1.76,5.896-3.295,8.924c-1.498,2.994-3.027,6.188-3.963,9.66c-0.232,0.865-0.367,1.752-0.389,2.625
			c0.02,0.852,0.188,1.74,0.797,2.188c0.283,0.244,0.676,0.361,1.082,0.436c0.398,0.047,0.893,0.055,1.367,0.068
			c0.957,0.025,1.973,0.158,2.926,0.354c1.938,0.395,3.799,1.15,5.553,2.002c0.877,0.408,1.756,0.859,2.592,1.037
			c0.361,0.068,0.883,0.043,1.367,0.045l1.465-0.004l1.465,0.004l0.732,0.002h0.184h0.045c0.023,0-0.045,0.002,0.006-0.002
			l0.092-0.006c0.117-0.014,0.25-0.018,0.357-0.037c0.783-0.156,1.736-0.553,2.607-0.922c1.781-0.762,3.6-1.545,5.518-2.014
			c0.953-0.25,1.936-0.393,2.918-0.455l0.738-0.025c0.174-0.016,0.475-0.016,0.666-0.051c0.369-0.072,0.773-0.188,1.055-0.432
			c0.609-0.447,0.779-1.338,0.797-2.188c-0.021-0.873-0.156-1.76-0.387-2.625c-0.936-3.471-2.469-6.664-3.971-9.67
			c-1.514-2.984-2.553-6.086-3.289-8.914c-1.484-5.709-1.799-10.631-1.926-14.043c-0.096-3.424,0.08-5.373,0.08-5.373
			s-0.086,1.955,0.113,5.363c0.207,3.402,0.721,8.281,2.275,13.906c0.793,2.82,1.826,5.76,3.404,8.746
			c1.543,2.961,3.178,6.164,4.152,9.773c0.246,0.902,0.402,1.852,0.43,2.838c-0.018,0.498-0.049,1.006-0.213,1.518
			c-0.057,0.256-0.221,0.496-0.334,0.742c-0.174,0.215-0.338,0.463-0.568,0.625c-0.443,0.373-0.977,0.539-1.531,0.637
			c-0.275,0.041-0.453,0.037-0.752,0.059l-0.688,0.029c-0.916,0.064-1.838,0.201-2.744,0.445c-1.822,0.455-3.576,1.221-5.365,1.996
			c-0.918,0.381-1.76,0.789-2.895,1.014c-0.135,0.023-0.246,0.025-0.371,0.039l-0.09,0.008l-0.131,0.006h-0.184l-0.732,0.002
			l-1.465,0.002l-1.465-0.004c-0.488-0.012-0.951,0.031-1.553-0.07c-1.076-0.244-1.939-0.721-2.82-1.131
			c-1.738-0.855-3.492-1.576-5.33-1.963c-0.928-0.189-1.816-0.316-2.764-0.35c-0.479-0.02-0.938-0.02-1.477-0.086
			c-0.52-0.096-1.064-0.26-1.506-0.633c-0.23-0.164-0.395-0.41-0.568-0.625c-0.113-0.246-0.277-0.486-0.334-0.744
			c-0.164-0.512-0.195-1.018-0.213-1.516c0.027-0.986,0.184-1.936,0.43-2.838c0.975-3.607,2.611-6.812,4.158-9.783
			c1.557-2.941,2.613-5.934,3.398-8.736c1.555-5.623,2.068-10.504,2.273-13.904C187.646,177.531,187.558,175.576,187.558,175.576z"
			/>
	</g>
	<path fill="#F4E6E1" d="M170.31,235.82c0,0,6.725,8.32,28.971,8.305c15.033-0.01,26.711-9.002,28.336-12.01
		c0,0-10.803,4.02-25.305,5.365C187.808,238.826,175.062,237.562,170.31,235.82z"/>
	<path fill="#231F20" d="M175.966,177.799c0,0-0.342-0.163-0.959-0.382c-0.613-0.229-1.508-0.503-2.596-0.713
		c-0.539-0.128-1.139-0.181-1.762-0.269c-0.627-0.035-1.291-0.097-1.973-0.063c-0.34,0.017-0.688,0.032-1.037,0.049
		c-0.348,0.039-0.697,0.108-1.051,0.153c-0.715,0.061-1.402,0.321-2.105,0.492c-0.688,0.222-1.355,0.514-2.018,0.784
		c-0.617,0.362-1.26,0.662-1.846,1.021c-0.562,0.396-1.109,0.777-1.627,1.14c-0.49,0.398-0.93,0.81-1.357,1.167
		c-0.428,0.358-0.814,0.694-1.117,1.036c-0.316,0.328-0.592,0.614-0.818,0.851c-0.459,0.471-0.734,0.734-0.734,0.734
		s0.203-0.315,0.582-0.856c0.191-0.271,0.426-0.599,0.691-0.976c0.139-0.186,0.271-0.396,0.436-0.597
		c0.176-0.19,0.361-0.391,0.555-0.6c0.395-0.413,0.803-0.885,1.285-1.331c0.514-0.413,1.057-0.85,1.617-1.301
		c0.6-0.399,1.252-0.772,1.91-1.155c0.697-0.301,1.408-0.625,2.143-0.87c0.756-0.176,1.494-0.437,2.262-0.493
		c0.379-0.047,0.754-0.104,1.127-0.125c0.373-0.001,0.742-0.001,1.105-0.001c0.725-0.01,1.422,0.117,2.074,0.205
		c0.648,0.134,1.258,0.259,1.801,0.452c0.555,0.152,1.033,0.375,1.461,0.552c0.42,0.2,0.785,0.372,1.072,0.538
		C175.669,177.561,175.966,177.799,175.966,177.799z"/>
	<circle fill="#231F20" cx="168.882" cy="180.216" r="4.25"/>
	<path fill="#231F20" d="M214.966,177.799c0,0,0.297-0.238,0.879-0.558c0.287-0.166,0.652-0.338,1.07-0.538
		c0.428-0.177,0.908-0.399,1.461-0.552c0.543-0.193,1.154-0.318,1.803-0.452c0.652-0.088,1.348-0.215,2.072-0.205
		c0.363,0,0.732,0,1.107,0.001c0.373,0.021,0.748,0.078,1.127,0.125c0.768,0.057,1.506,0.317,2.262,0.493
		c0.734,0.245,1.445,0.569,2.143,0.87c0.658,0.383,1.311,0.756,1.91,1.155c0.561,0.451,1.104,0.888,1.617,1.301
		c0.482,0.446,0.891,0.918,1.283,1.331c0.193,0.209,0.379,0.409,0.557,0.6c0.164,0.201,0.297,0.411,0.434,0.597
		c0.268,0.377,0.5,0.705,0.693,0.976c0.379,0.541,0.582,0.856,0.582,0.856s-0.275-0.264-0.734-0.734
		c-0.227-0.236-0.504-0.522-0.82-0.851c-0.301-0.342-0.688-0.678-1.115-1.036c-0.428-0.357-0.867-0.769-1.359-1.167
		c-0.516-0.362-1.062-0.744-1.627-1.14c-0.584-0.358-1.227-0.658-1.844-1.021c-0.662-0.271-1.33-0.562-2.02-0.784
		c-0.703-0.171-1.389-0.432-2.104-0.492c-0.354-0.045-0.703-0.114-1.051-0.153c-0.352-0.017-0.697-0.032-1.037-0.049
		c-0.682-0.033-1.346,0.028-1.973,0.063c-0.625,0.088-1.223,0.141-1.762,0.269c-1.088,0.21-1.982,0.483-2.596,0.713
		C215.308,177.636,214.966,177.799,214.966,177.799z"/>
	<circle fill="#231F20" cx="222.05" cy="180.216" r="4.25"/>
	<path fill="#CD2422" d="M197.894,336.049c-52.613,0-52.119-49.037-52.119-49.037L40.369,331.153c0,0-32.732,14.384-36.564,65.693
		h387.998c-3.832-51.31-36.562-65.693-36.562-65.693l-105.406-44.142c0,0,0.494,49.037-52.119,49.037"/>
	<path fill="#CD2422" d="M13.833,396.851h367.941c-3.459-42.745-28.596-55.602-30.568-56.545l-93.283-39.065
		c-2.055,8.444-6.314,19.177-15.133,28.085c-10.951,11.062-26.057,16.688-44.896,16.724l0,0c-0.062,0-0.119,0-0.18,0
		c-18.84-0.036-33.945-5.662-44.896-16.724c-8.818-8.908-13.078-19.641-15.133-28.085l-93.326,39.083
		C42.861,341.031,17.322,353.735,13.833,396.851z"/>
	<path fill="#CD2422" d="M250.248,287.012c0,0,0.494,49.037-52.119,49.037c-52.615,0-52.121-49.037-52.121-49.037l-10.455,4.176
		c3.281,31.87,30.211,56.729,62.949,56.729c32.568,0,59.379-24.606,62.885-56.24L250.248,287.012z"/>
	<path fill="#FFFFFF" d="M351.207,340.306l-93.283-39.065c-0.629,2.582-1.467,5.379-2.574,8.271l-0.34,3.611
		c0,0,59.111,29.013,61.576,83.729h65.189C378.316,354.105,353.179,341.249,351.207,340.306z"/>
	<path fill="#FFFFFF" d="M44.402,340.306l93.283-39.065c0.629,2.582,1.467,5.379,2.574,8.271l0.34,3.611
		c0,0-59.111,29.013-61.576,83.729H13.833C17.292,354.105,42.429,341.249,44.402,340.306z"/>
</g>
</svg>
