<?xml version="1.0" encoding="utf-8"?>
<!-- Generator: Adobe Illustrator 16.0.0, SVG Export Plug-In . SVG Version: 6.00 Build 0)  -->
<!DOCTYPE svg PUBLIC "-//W3C//DTD SVG 1.1//EN" "http://www.w3.org/Graphics/SVG/1.1/DTD/svg11.dtd">
<svg version="1.1" id="Layer_1" xmlns="http://www.w3.org/2000/svg" xmlns:xlink="http://www.w3.org/1999/xlink" x="0px" y="0px"
	 width="396.85px" height="396.851px" viewBox="0 0 396.85 396.851" enable-background="new 0 0 396.85 396.851"
	 xml:space="preserve">
	<defs>
	    <clipPath id="circle-clip">
	        <circle stroke="#000000" stroke-miterlimit="10" cx="200" cy="200" r="175" />
	    </clipPath>
	</defs>
<g>
	<rect width="400" height="400" class="player-bg"/>
	<g>
		<path fill="#242424" d="M198.334,326.049c52.613,0,52.119-49.037,52.119-49.037l105.408,44.142c0,0,36.928,16.228,36.928,75.697
			H4.061c0-59.47,36.928-75.697,36.928-75.697l105.406-44.142c0,0-0.494,49.037,52.119,49.037"/>
	</g>
	<g>
		<rect x="150.19" y="225.618" fill="#E0C1A6" width="97.364" height="121.98"/>
	</g>
	<g>
		<path fill="#D4B69D" d="M243.783,234.747c0,0-22.027,35.944-36.521,35.944h-11.305c-14.494,0-36.523-35.944-36.523-35.944H243.783
			z"/>
	</g>
	<g>
		<path fill="#E0C1A6" d="M260.436,162.032l-3.477,43.15c0,0-1.305,18.261-12.609,28.696s-15.861,19.131-41.627,19.131h-7.506
			c-25.766,0-30.322-8.695-41.627-19.131s-12.609-28.696-12.609-28.696l-3.479-43.15l-8.084-49.026l28.406-34.783l64.932-3.479
			l37.68,25.436l5.424,38.335L260.436,162.032"/>
	</g>
	<g>
		<path fill="#E0C1A6" d="M261.307,152.137c0-3.602,2.918-6.521,6.521-6.521c3.602,0,6.521,2.92,6.521,6.521
			c0,0,2.174,6.522-3.479,18.697c-5.652,12.174-5.217,32.58-13.912,32.146"/>
	</g>
	<g>
		<path fill="#E0C1A6" d="M136.496,152.137c0-3.602-2.92-6.521-6.521-6.521c-3.604,0-6.521,2.92-6.521,6.521
			c0,0-2.176,6.522,3.477,18.697c5.652,12.174,5.219,32.58,13.914,32.146"/>
	</g>
	<g>
		<path fill="#ACA0A0" d="M164.055,94.494c0,0-27.961-1.055-26.553,31.773c1.41,32.826,2.76,39.779,0.779,45.434
			c-1.979,5.654-18.936-32.825-15.24-57.174c3.68-24.246,27.176-55.555,73.697-55.437c0,0,35.219-1.956,54.35,15.87
			c0,0,29.783,20.87,19.566,65.438c-10.244,44.68-12.174,28.044-12.174,28.044c-0.576-2.24,7.379-58.046-18.914-76.307
			c0,0-6.305-4.349-15.652-5.435C214.564,85.613,164.055,94.494,164.055,94.494z"/>
	</g>
	<g>
		<path fill="#938F90" d="M235.652,88.223c0,0-50.652-17.609-77.828,11.957C157.824,100.18,204.564,89.744,235.652,88.223z"/>
	</g>
	<g>
		<path fill="#D9BBA0" d="M195.434,199.676c0,0,0.727,13.623,3.262,13.623s3.221-13.623,3.221-13.623H195.434z"/>
	</g>
	<g>
		<path fill="#E0C1A6" d="M160.031,166.234c0,0,9.174,7.371,20.805,0.981C180.836,167.216,168.059,182.289,160.031,166.234z"/>
	</g>
	<g>
		<path fill="#E0C1A6" d="M236.49,166.234c0,0-9.174,7.371-20.805,0.981C215.686,167.216,228.463,182.289,236.49,166.234z"/>
	</g>
	<g>
		<path fill="#E0C1A6" d="M191.305,160.615c0,0,4.418-12.535,4.129-18.332"/>
	</g>
	<g>
		<path fill="#E0C1A6" d="M205.012,160.615c0,0-4.418-12.535-4.129-18.332"/>
	</g>
	<g>
		<path fill="#F4E6E1" d="M177.695,218.661c0,0,9.566,6.957,20.219,6.957h1.521c10.652,0,20.219-6.957,20.219-6.957"/>
	</g>
	<g>
		<path fill="#E9CFC4" d="M199.002,216.487c0,0-1.74-2.174-5.002-2.174c-3.26,0-15.434,4.348-15.434,4.348
			c20.365,1.315,20.068,1.315,40.436,0c0,0-12.174-4.348-15.436-4.348s-5,2.174-5,2.174"/>
	</g>
	<g>
		<path fill="#B9B3B4" d="M235.652,85.179c0,0,0.111,0.914-0.049,2.278c-0.084,0.679-0.211,1.474-0.451,2.301
			c-0.217,0.835-0.561,1.694-0.951,2.533c-0.229,0.403-0.422,0.825-0.682,1.203c-0.248,0.385-0.496,0.76-0.785,1.088
			c-0.275,0.339-0.545,0.662-0.848,0.925c-0.297,0.27-0.555,0.543-0.852,0.73c-0.281,0.204-0.545,0.381-0.777,0.535
			c-0.246,0.138-0.471,0.236-0.65,0.324c-0.363,0.163-0.57,0.257-0.57,0.257s0.168-0.154,0.461-0.423
			c0.146-0.128,0.324-0.284,0.527-0.463c0.186-0.2,0.393-0.424,0.625-0.656c0.24-0.222,0.438-0.527,0.684-0.808
			c0.25-0.277,0.457-0.618,0.695-0.947c0.25-0.32,0.434-0.705,0.664-1.062c0.234-0.357,0.404-0.764,0.611-1.145
			c0.193-0.391,0.375-0.788,0.545-1.183c0.146-0.405,0.34-0.786,0.467-1.179c0.297-0.771,0.521-1.511,0.727-2.147
			C235.43,86.063,235.652,85.179,235.652,85.179z"/>
	</g>
	<g>
		<path fill="#B9B3B4" d="M236.281,87.193c0,0,0.463,0.796,0.855,2.111c0.193,0.656,0.391,1.438,0.498,2.292
			c0.131,0.853,0.156,1.777,0.129,2.702c-0.051,0.461-0.061,0.924-0.15,1.374c-0.076,0.452-0.154,0.894-0.289,1.311
			c-0.119,0.42-0.238,0.823-0.414,1.185c-0.164,0.365-0.293,0.718-0.492,1.008c-0.178,0.299-0.35,0.565-0.502,0.799
			c-0.17,0.224-0.34,0.403-0.469,0.555c-0.27,0.294-0.422,0.462-0.422,0.462s0.092-0.208,0.256-0.571
			c0.084-0.176,0.186-0.389,0.301-0.634c0.092-0.257,0.193-0.544,0.312-0.85c0.135-0.299,0.195-0.657,0.311-1.012
			c0.119-0.354,0.174-0.748,0.262-1.146c0.104-0.393,0.119-0.818,0.191-1.238c0.074-0.421,0.066-0.86,0.107-1.293
			c0.021-0.435,0.031-0.871,0.031-1.302c-0.025-0.43,0.002-0.856-0.037-1.267c-0.033-0.824-0.119-1.594-0.182-2.26
			C236.426,88.095,236.281,87.193,236.281,87.193z"/>
	</g>
	<g>
		<path fill="none" stroke="#BBB8B9" stroke-miterlimit="10" d="M191.898,160.615"/>
	</g>
	<g>
		<path fill="#645251" d="M185.361,197.789c0,0,2.32,1.307,6.232,1.887c3.914,0.58,0-3.479,0-3.479L185.361,197.789z"/>
	</g>
	<g>
		<path fill="#645251" d="M211.596,197.789c0,0-2.318,1.307-6.232,1.887s0-3.479,0-3.479L211.596,197.789z"/>
	</g>
	<g>
		<path fill="#E0C1A6" d="M204.854,161.485c0,0,1.521,21.088,4.131,25.001s6.088,8.044,4.348,10.436
			c-1.738,2.391-5.928-1.297-9.783,3.261c-2.371,2.804-4.348,2.804-4.348,2.804h-1.053c0,0-1.977,0-4.348-2.804
			c-3.855-4.558-8.045-0.87-9.783-3.261c-1.738-2.392,1.738-6.522,4.348-10.436s4.131-25.001,4.131-25.001"/>
	</g>
	<g>
		<path fill="#E0C1A6" d="M183.881,235.254c0,0,0.412-0.309,1.178-0.798c0.775-0.469,1.889-1.138,3.301-1.802
			c0.709-0.324,1.496-0.634,2.32-0.984c0.84-0.312,1.744-0.594,2.68-0.887c0.953-0.232,1.953-0.43,2.965-0.634
			c1.045-0.102,2.051-0.167,3.17-0.247c1.029,0.082,2.057,0.144,3.07,0.243c1.023,0.202,2.039,0.402,2.996,0.636
			c0.936,0.294,1.842,0.574,2.68,0.887c0.826,0.352,1.613,0.661,2.32,0.985c0.701,0.343,1.34,0.663,1.893,0.971
			c0.543,0.321,1.018,0.601,1.408,0.831c0.766,0.489,1.18,0.799,1.18,0.799s-0.463-0.234-1.273-0.628
			c-0.41-0.185-0.908-0.41-1.479-0.668c-0.58-0.234-1.234-0.498-1.947-0.786c-0.719-0.273-1.512-0.525-2.34-0.814
			c-0.84-0.251-1.742-0.455-2.658-0.722c-0.924-0.199-1.883-0.329-2.85-0.527c-1.004-0.088-2.041-0.137-3.068-0.21
			c-0.994,0.069-1.988,0.139-2.967,0.206c-0.979,0.195-1.953,0.33-2.883,0.529c-0.914,0.268-1.818,0.47-2.658,0.722
			c-0.826,0.289-1.621,0.542-2.338,0.814c-0.715,0.289-1.369,0.553-1.947,0.787c-0.572,0.258-1.07,0.483-1.48,0.668
			C184.344,235.018,183.881,235.254,183.881,235.254z"/>
	</g>
	<g>
		<path fill="#E0C1A6" d="M177.695,197.965c0,0-0.186,0.262-0.492,0.728c-0.311,0.462-0.727,1.142-1.191,1.967
			c-0.471,0.823-0.982,1.801-1.48,2.867c-0.492,1.069-0.99,2.223-1.393,3.409c-0.236,0.582-0.393,1.189-0.584,1.776
			c-0.188,0.588-0.322,1.181-0.479,1.748c-0.156,0.568-0.244,1.132-0.369,1.659s-0.191,1.035-0.27,1.503
			c-0.064,0.469-0.17,0.896-0.207,1.281c-0.045,0.385-0.082,0.721-0.113,0.997c-0.064,0.555-0.117,0.875-0.117,0.875
			s-0.037-0.317-0.076-0.878c-0.02-0.281-0.041-0.622-0.066-1.014c-0.033-0.393-0.004-0.834,0.008-1.317
			c0.016-0.484,0.02-1.012,0.104-1.561c0.078-0.549,0.109-1.14,0.246-1.73s0.219-1.218,0.41-1.826
			c0.188-0.609,0.338-1.243,0.572-1.848c0.436-1.221,0.965-2.408,1.549-3.472c0.275-0.54,0.602-1.03,0.889-1.505
			c0.311-0.461,0.598-0.9,0.898-1.28c0.572-0.781,1.139-1.362,1.52-1.774C177.445,198.167,177.695,197.965,177.695,197.965z"/>
	</g>
	<g>
		<path fill="#E0C1A6" d="M218.826,197.965c0,0,0.25,0.202,0.645,0.605c0.379,0.412,0.945,0.993,1.518,1.774
			c0.301,0.38,0.588,0.819,0.898,1.28c0.287,0.475,0.613,0.965,0.889,1.505c0.584,1.063,1.113,2.251,1.549,3.472
			c0.236,0.604,0.385,1.238,0.572,1.848c0.191,0.608,0.273,1.235,0.41,1.826s0.17,1.182,0.246,1.73
			c0.084,0.549,0.088,1.076,0.104,1.561c0.014,0.483,0.041,0.925,0.008,1.317c-0.025,0.392-0.047,0.732-0.064,1.014
			c-0.041,0.561-0.078,0.878-0.078,0.878s-0.051-0.32-0.117-0.875c-0.031-0.276-0.068-0.612-0.111-0.997
			c-0.039-0.385-0.145-0.812-0.207-1.281c-0.078-0.468-0.146-0.976-0.271-1.503s-0.211-1.091-0.369-1.659
			c-0.156-0.567-0.291-1.16-0.477-1.748c-0.193-0.587-0.35-1.194-0.586-1.776c-0.402-1.187-0.898-2.34-1.391-3.409
			c-0.5-1.066-1.01-2.044-1.482-2.867c-0.465-0.825-0.879-1.505-1.189-1.967C219.012,198.227,218.826,197.965,218.826,197.965z"/>
	</g>
	<g>
		<ellipse fill="#D9BBA0" cx="199.427" cy="242.703" rx="2.657" ry="5.054"/>
	</g>
	<g>
		<path fill="#CCB097" d="M204.854,161.485c0,0,0.18,1.677,0.492,4.609c0.332,2.93,0.83,7.118,1.684,12.09
			c0.219,1.241,0.463,2.532,0.781,3.848c0.314,1.304,0.664,2.696,1.297,3.898c0.695,1.199,1.65,2.39,2.496,3.653
			c0.859,1.264,1.742,2.582,2.309,4.156c0.266,0.779,0.457,1.689,0.178,2.609c-0.051,0.234-0.168,0.441-0.291,0.647l-0.09,0.154
			c-0.023,0.031,0.021-0.015-0.059,0.079l-0.025,0.028l-0.051,0.056l-0.205,0.222c-0.139,0.146-0.424,0.321-0.639,0.44
			c-0.225,0.071-0.457,0.19-0.684,0.208c-0.914,0.159-1.744,0.045-2.551,0.024c-0.805-0.032-1.59-0.008-2.338,0.167
			c-0.756,0.156-1.438,0.532-2.059,0.989c-0.309,0.238-0.605,0.49-0.865,0.793l-0.859,0.916c-0.553,0.618-1.309,1.223-2.055,1.682
			c-0.395,0.221-0.805,0.421-1.252,0.563c-0.23,0.062-0.455,0.126-0.713,0.154c-0.309,0.021-0.447,0.007-0.68,0.013
			c-0.225-0.003-0.395,0.008-0.66-0.01c-0.283-0.029-0.506-0.096-0.734-0.156c-0.447-0.143-0.857-0.342-1.252-0.563
			c-0.762-0.476-1.467-1.029-2.051-1.678l-0.861-0.919c-0.145-0.147-0.287-0.314-0.434-0.445l-0.439-0.354
			c-0.609-0.447-1.301-0.83-2.053-0.984c-0.748-0.176-1.533-0.199-2.338-0.167c-0.807,0.021-1.637,0.134-2.551-0.024
			c-0.227-0.018-0.459-0.137-0.684-0.208c-0.209-0.124-0.441-0.243-0.613-0.416l-0.25-0.27c-0.049-0.063-0.064-0.05-0.139-0.178
			l-0.074-0.131c-0.1-0.171-0.203-0.338-0.275-0.608c-0.295-0.971-0.092-1.845,0.17-2.635c0.568-1.574,1.447-2.894,2.307-4.158
			c0.844-1.259,1.807-2.461,2.494-3.646c0.178-0.32,0.342-0.639,0.436-0.958c0.111-0.323,0.242-0.624,0.336-0.959
			c0.184-0.671,0.391-1.322,0.529-1.987c0.316-1.314,0.562-2.605,0.779-3.847c0.855-4.972,1.354-9.16,1.686-12.09
			c0.312-2.933,0.492-4.609,0.492-4.609s-0.074,1.685-0.299,4.628c-0.252,2.939-0.553,7.15-1.322,12.163
			c-0.195,1.253-0.414,2.557-0.709,3.898c-0.125,0.674-0.324,1.35-0.498,2.04c-0.225,0.677-0.434,1.452-0.785,2.064
			c-0.742,1.33-1.637,2.477-2.457,3.761c-0.814,1.264-1.678,2.563-2.168,3.978c-0.24,0.688-0.348,1.466-0.164,2.044
			c0.012,0.127,0.113,0.307,0.221,0.483l0.074,0.131c-0.029-0.037,0.041,0.039,0.055,0.053l0.162,0.174
			c0.111,0.114,0.258,0.174,0.387,0.262c0.164,0.038,0.295,0.128,0.48,0.138c1.412,0.202,3.189-0.266,4.932,0.167
			c0.883,0.18,1.693,0.609,2.424,1.143l0.535,0.435c0.166,0.147,0.297,0.301,0.445,0.451l0.865,0.911
			c0.543,0.598,1.184,1.084,1.848,1.496c0.342,0.188,0.689,0.354,1.049,0.467c0.18,0.045,0.363,0.094,0.5,0.109
			c0.154,0.014,0.406,0.002,0.605,0.006c0.463,0.014,0.723,0.006,1.104-0.114c0.359-0.112,0.707-0.279,1.051-0.466
			c0.68-0.43,1.268-0.865,1.842-1.493l0.869-0.914c0.291-0.333,0.631-0.62,0.988-0.892c0.717-0.524,1.537-0.96,2.416-1.138
			c1.742-0.433,3.52,0.035,4.932-0.167c0.186-0.01,0.316-0.1,0.48-0.139c0.125-0.092,0.219-0.097,0.361-0.236l0.207-0.222
			l0.053-0.055l0.025-0.028c-0.061,0.076-0.008,0.006-0.018,0.016l0.059-0.107c0.084-0.141,0.172-0.28,0.203-0.444
			c0.201-0.628,0.082-1.37-0.156-2.069c-0.49-1.414-1.35-2.715-2.166-3.979c-0.818-1.28-1.719-2.438-2.453-3.754
			c-0.688-1.383-0.986-2.77-1.287-4.11c-0.295-1.342-0.514-2.646-0.709-3.898c-0.77-5.014-1.072-9.224-1.322-12.163
			C204.93,163.17,204.854,161.485,204.854,161.485z"/>
	</g>
	<g>
		<path fill="#4A3836" d="M158.783,164.495c0,0,0.232-0.336,0.734-0.847c0.24-0.267,0.568-0.549,0.93-0.896
			c0.389-0.31,0.801-0.708,1.324-1.034c0.258-0.172,0.525-0.352,0.801-0.537c0.291-0.164,0.592-0.335,0.9-0.51
			c0.617-0.353,1.318-0.643,2.045-0.921c0.75-0.216,1.512-0.508,2.336-0.596c0.408-0.054,0.814-0.161,1.232-0.169l1.256-0.037
			c0.42-0.029,0.834,0.033,1.248,0.088c0.414,0.052,0.826,0.104,1.236,0.156c0.801,0.183,1.57,0.44,2.318,0.654
			c0.713,0.314,1.391,0.645,2.029,0.951c0.625,0.334,1.164,0.741,1.684,1.066c0.256,0.17,0.502,0.333,0.736,0.488
			c0.227,0.163,0.412,0.358,0.602,0.52c0.371,0.332,0.693,0.623,0.959,0.861c0.527,0.479,0.816,0.761,0.816,0.761
			s-0.34-0.222-0.938-0.609c-0.293-0.197-0.648-0.437-1.057-0.711c-0.393-0.294-0.885-0.549-1.414-0.831
			c-0.535-0.272-1.084-0.623-1.711-0.891c-0.641-0.242-1.312-0.49-1.996-0.773c-0.715-0.174-1.453-0.354-2.205-0.537
			c-0.383-0.042-0.77-0.085-1.156-0.128c-0.387-0.047-0.773-0.1-1.166-0.065l-1.17,0.016c-0.389,0-0.77,0.1-1.152,0.143
			c-0.77,0.075-1.498,0.3-2.213,0.479c-0.693,0.245-1.385,0.45-2.002,0.738c-0.311,0.143-0.611,0.281-0.904,0.416
			c-0.281,0.156-0.553,0.307-0.814,0.452c-0.529,0.282-0.975,0.605-1.398,0.854c-0.395,0.286-0.758,0.52-1.027,0.746
			C159.082,164.219,158.783,164.495,158.783,164.495z"/>
	</g>
	<g>
		<path fill="#BFB5B4" d="M189.508,158.225c0,0-4.637-4.928-7.537-5.508c-2.898-0.58-18.262-4.928-21.16-4.058
			s-11.014,4.941-11.014,6.674s4.348-2.44,8.986-1.948C163.42,153.877,184.871,156.775,189.508,158.225z"/>
	</g>
	<g>
		<path fill="none" stroke="#BBB8B9" stroke-miterlimit="10" d="M205.451,160.615"/>
	</g>
	<g>
		<path fill="#4A3836" d="M238.568,164.495c0,0-0.301-0.276-0.865-0.703c-0.27-0.227-0.631-0.46-1.027-0.746
			c-0.424-0.248-0.869-0.571-1.398-0.854c-0.262-0.146-0.533-0.296-0.814-0.452c-0.293-0.135-0.594-0.273-0.904-0.416
			c-0.617-0.288-1.309-0.493-2-0.738c-0.717-0.179-1.445-0.403-2.215-0.479c-0.381-0.043-0.762-0.143-1.152-0.143l-1.17-0.016
			c-0.391-0.034-0.779,0.019-1.166,0.065c-0.387,0.043-0.773,0.086-1.156,0.128c-0.75,0.184-1.49,0.363-2.205,0.537
			c-0.684,0.282-1.355,0.531-1.994,0.773c-0.627,0.268-1.178,0.618-1.711,0.891c-0.531,0.282-1.021,0.537-1.416,0.831
			c-0.406,0.274-0.762,0.514-1.055,0.711c-0.598,0.388-0.939,0.609-0.939,0.609s0.289-0.282,0.816-0.761
			c0.268-0.238,0.59-0.529,0.961-0.861c0.189-0.161,0.375-0.356,0.602-0.52c0.232-0.155,0.479-0.318,0.734-0.488
			c0.521-0.325,1.059-0.732,1.684-1.066c0.639-0.307,1.316-0.637,2.029-0.951c0.748-0.214,1.52-0.472,2.32-0.654
			c0.408-0.052,0.82-0.104,1.234-0.156c0.414-0.056,0.83-0.117,1.25-0.088l1.256,0.037c0.418,0.008,0.824,0.115,1.23,0.169
			c0.824,0.088,1.588,0.38,2.336,0.596c0.729,0.278,1.428,0.568,2.045,0.921c0.309,0.175,0.609,0.346,0.9,0.51
			c0.277,0.186,0.545,0.365,0.801,0.537c0.525,0.326,0.936,0.725,1.324,1.034c0.361,0.347,0.689,0.63,0.932,0.896
			C238.334,164.159,238.568,164.495,238.568,164.495z"/>
	</g>
	<g>
		<path fill="#BFB5B4" d="M207.842,158.225c0,0,4.639-4.928,7.537-5.508s18.262-4.928,21.16-4.058s11.016,4.941,11.016,6.674
			s-4.35-2.44-8.986-1.948C233.93,153.877,212.48,156.775,207.842,158.225z"/>
	</g>
	<g>
		<path fill="#231F20" d="M207.842,158.225c0,0,8.262-7.508,19.855-6.82c0,0,7.725,1.418,3.768,1.98
			C227.51,153.947,207.842,158.225,207.842,158.225z"/>
	</g>
	<g>
		<path fill="#231F20" d="M189.113,158.225c0,0-8.262-7.508-19.855-6.82c0,0-7.725,1.418-3.768,1.98
			C169.445,153.947,189.113,158.225,189.113,158.225z"/>
	</g>
	<g>
		<path fill="#CCB097" d="M160.232,166.234c0,0,12.174,5.613,20.289-0.908C180.521,165.326,170.377,179.172,160.232,166.234z"/>
	</g>
	<g>
		<path fill="#CCB097" d="M236.9,166.234c0,0-12.174,5.613-20.289-0.908C216.611,165.326,226.756,179.172,236.9,166.234z"/>
	</g>
	<g>
		<rect x="169.652" y="130.783" fill="#CCB097" width="57.104" height="1"/>
	</g>
	<g>
		<circle fill="#4A3836" cx="226.974" cy="162.875" r="3.926"/>
	</g>
	<g>
		<circle fill="#4A3836" cx="169.652" cy="162.875" r="3.926"/>
	</g>
	<g>
		<polygon fill="#F8F9F9" points="199.264,324.939 140.439,266.114 140.439,396.625 197.59,396.625 200.936,396.625 258.09,396.625 
			258.09,266.114 		"/>
	</g>
	<g>
		
			<rect x="186.102" y="332.838" transform="matrix(0.7071 0.7071 -0.7071 0.7071 302.9567 -39.5465)" fill="#041E41" width="26.233" height="26.233"/>
	</g>
	<g>
		<polyline fill="#041E41" points="178.188,396.625 199.217,340.025 220.246,396.622 		"/>
	</g>
</g>
</svg>
