<?xml version="1.0" encoding="utf-8"?>
<!-- Generator: Adobe Illustrator 16.0.0, SVG Export Plug-In . SVG Version: 6.00 Build 0)  -->
<!DOCTYPE svg PUBLIC "-//W3C//DTD SVG 1.1//EN" "http://www.w3.org/Graphics/SVG/1.1/DTD/svg11.dtd">
<svg version="1.1" id="Layer_1" xmlns="http://www.w3.org/2000/svg" xmlns:xlink="http://www.w3.org/1999/xlink" x="0px" y="0px"
	 width="396.849px" height="396.851px" viewBox="0 0 396.849 396.851" enable-background="new 0 0 396.849 396.851"
	 xml:space="preserve">
	<defs>
	    <clipPath id="circle-clip">
	        <circle stroke="#000000" stroke-miterlimit="10" cx="200" cy="200" r="175" />
	    </clipPath>
	</defs>
<g>
	<rect width="400" height="400" class="player-bg"/>
	<g>
		<defs>
			<path id="SVGID_3_" d="M-217.891,325.962c52.613,0,52.119-49.037,52.119-49.037l105.406,44.142c0,0,36.928,16.228,36.928,75.697
				h-388.729c0-59.47,36.928-75.697,36.928-75.697l105.406-44.142c0,0-0.494,49.037,52.119,49.037"/>
		</defs>
		<clipPath id="SVGID_2_">
			<use xlink:href="#SVGID_3_"  overflow="visible"/>
		</clipPath>
		<g clip-path="url(#SVGID_2_)">
			<rect x="-446.205" y="247.214" fill="#30526F" width="456.807" height="25.309"/>
		</g>
		<g clip-path="url(#SVGID_2_)">
			<rect x="-446.205" y="279.966" fill="#30526F" width="456.807" height="25.309"/>
		</g>
		<g clip-path="url(#SVGID_2_)">
			<rect x="-446.205" y="312.718" fill="#30526F" width="456.807" height="25.311"/>
		</g>
		<g clip-path="url(#SVGID_2_)">
			<rect x="-446.205" y="345.472" fill="#30526F" width="456.807" height="25.311"/>
		</g>
		<g clip-path="url(#SVGID_2_)">
			<rect x="-446.205" y="378.226" fill="#30526F" width="456.807" height="25.311"/>
		</g>
	</g>
</g>
<g>
	<polygon fill="#E0C1A6" points="315.133,303.597 200.321,372.501 85.506,301.015 146.534,277.162 146.534,202.284 250.813,202.284 
		250.813,277.162 	"/>
	<path fill="#D4B69D" d="M240.211,238.417c0,0-21.531,43.072-35.695,43.072h-11.048c-14.165,0-35.694-43.072-35.694-43.072H240.211z
		"/>
	<path fill="#E0C1A6" d="M139.584,173.36c0,0-7.496-20.936-10.332-20.936c-2.834,0-5.014-0.217-3.27,5.67
		c1.744,5.888-2.044,24.152-0.518,29.875c1.158,4.346,8.805,27.478,15.781,13.52l3.271-10.685L139.584,173.36z"/>
	<path fill="#E0C1A6" d="M256.95,173.36c0,0,7.498-20.936,10.332-20.936c2.836,0,5.016-0.217,3.271,5.67
		c-1.746,5.888,2.043,24.152,0.516,29.875c-1.158,4.346-8.803,27.478-15.781,13.52l-3.271-10.685L256.95,173.36z"/>
	<path fill="#E0C1A6" d="M261.167,125.722c0,0-2.021,73.571-12.908,95.348c-9.338,18.676-24.266,47.596-44.486,47.596H193.04
		c-20.221,0-35.148-28.92-44.484-47.596c-10.888-21.776-12.91-95.348-12.91-95.348l23.486-26.598l66.838,3.266l23.844,3.732
		L261.167,125.722z"/>
	<path fill="#E9CFC4" d="M219.66,220.446c0,0-6.056,1.891-12.366,0.777c-6.609-1.166-8.943,0.623-8.943,0.623h-0.154
		c0,0-2.334-1.789-8.943-0.623c-6.31,1.113-12.365-0.777-12.365-0.777S194.459,229.234,219.66,220.446z"/>
	<path fill="#F4E6E1" d="M219.232,221.457c0,0-9.409,16.176-20.453,16.176h-1.012c-11.043,0-20.453-16.176-20.453-16.176
		s10.968,9.255,21.077,9.255C208.5,230.712,219.232,221.457,219.232,221.457z"/>
	<path fill="#CCB097" d="M189.096,250.31c0,0,0.271-0.111,0.751-0.282c0.487-0.145,1.183-0.377,2.032-0.607
		c0.854-0.197,1.861-0.392,2.943-0.586c1.096-0.119,2.273-0.187,3.449-0.268c0.588,0.04,1.176,0.08,1.755,0.118
		c0.57,0.036,1.128,0.091,1.672,0.146c1.094,0.194,2.11,0.391,2.968,0.588c0.848,0.23,1.542,0.463,2.03,0.608
		c0.483,0.172,0.753,0.283,0.753,0.283s-0.294-0.025-0.797-0.094c-0.506-0.061-1.232-0.114-2.09-0.232
		c-0.861-0.067-1.855-0.152-2.914-0.274c-0.543-0.02-1.104-0.039-1.674-0.061c-0.562-0.027-1.133-0.055-1.702-0.082
		c-1.14,0.059-2.279,0.109-3.353,0.141c-1.069,0.121-2.073,0.207-2.939,0.275c-0.854,0.117-1.58,0.172-2.087,0.232
		C189.388,250.283,189.096,250.31,189.096,250.31z"/>
	<path fill="#231F20" d="M210.149,173.007c0,0,0.199-0.449,0.688-1.157c0.246-0.352,0.559-0.771,0.951-1.226
		c0.203-0.224,0.418-0.462,0.645-0.712c0.238-0.24,0.517-0.463,0.793-0.713c0.271-0.258,0.584-0.485,0.918-0.712
		c0.336-0.22,0.652-0.502,1.039-0.691c0.379-0.204,0.768-0.413,1.166-0.627c0.404-0.205,0.855-0.323,1.295-0.492
		c0.223-0.078,0.447-0.157,0.674-0.237l0.709-0.143c0.477-0.089,0.959-0.2,1.449-0.263c0.494-0.015,0.993-0.03,1.494-0.046
		l0.752-0.018l0.746,0.09l1.487,0.198c0.496,0.059,0.96,0.247,1.435,0.364c0.471,0.137,0.938,0.271,1.4,0.405
		c0.455,0.146,0.874,0.372,1.303,0.55c0.422,0.19,0.838,0.378,1.246,0.561c0.201,0.095,0.4,0.188,0.598,0.279
		c0.186,0.114,0.369,0.227,0.549,0.338c0.721,0.442,1.4,0.861,2.029,1.248c0.646,0.354,1.145,0.819,1.617,1.184
		c0.465,0.373,0.871,0.698,1.205,0.966c0.657,0.543,1.033,0.854,1.033,0.854s-0.418-0.253-1.148-0.696
		c-0.36-0.227-0.798-0.501-1.299-0.815c-0.509-0.302-1.047-0.697-1.703-1.011c-0.641-0.335-1.336-0.697-2.07-1.081
		c-0.183-0.096-0.368-0.192-0.557-0.291c-0.197-0.075-0.397-0.151-0.6-0.229c-0.402-0.159-0.812-0.322-1.229-0.487
		c-0.419-0.156-0.831-0.362-1.272-0.485c-0.444-0.116-0.893-0.234-1.346-0.354c-0.455-0.105-0.9-0.283-1.369-0.332l-1.404-0.17
		l-0.702-0.095l-0.703,0.011c-0.469,0.008-0.936,0.016-1.398,0.023c-0.458,0.058-0.907,0.148-1.356,0.213l-0.668,0.107
		c-0.214,0.066-0.426,0.134-0.636,0.2c-0.417,0.141-0.843,0.245-1.235,0.404c-0.39,0.175-0.771,0.347-1.141,0.514
		c-0.381,0.152-0.696,0.4-1.033,0.587c-0.332,0.193-0.649,0.39-0.926,0.619c-0.58,0.422-1.084,0.845-1.518,1.242
		c-0.432,0.396-0.785,0.771-1.065,1.088c-0.274,0.322-0.497,0.572-0.631,0.757C210.215,172.903,210.149,173.007,210.149,173.007z"/>
	<circle fill="#231F20" cx="222.504" cy="170.724" r="4.185"/>
	<path fill="#A58F79" d="M207.35,170.983c0,0,0.146-0.514,0.588-1.353c0.246-0.398,0.518-0.917,0.945-1.423
		c0.387-0.547,0.926-1.073,1.523-1.646c0.326-0.257,0.666-0.524,1.018-0.802c0.343-0.297,0.777-0.473,1.184-0.726
		c0.209-0.118,0.422-0.238,0.637-0.359c0.221-0.108,0.455-0.188,0.688-0.285c0.469-0.184,0.949-0.382,1.451-0.529
		c1.02-0.198,2.073-0.542,3.17-0.528c0.546-0.022,1.099-0.072,1.649-0.07l1.646,0.131c1.11,0.056,2.161,0.36,3.211,0.591
		c1.066,0.185,2.029,0.616,2.982,0.96c0.473,0.181,0.943,0.345,1.393,0.529c0.453,0.178,0.859,0.429,1.274,0.63
		c0.823,0.417,1.588,0.833,2.29,1.219c0.713,0.364,1.289,0.835,1.832,1.19c0.537,0.365,0.994,0.701,1.371,0.973
		c0.752,0.549,1.168,0.877,1.168,0.877s-0.506-0.185-1.365-0.531c-0.426-0.179-0.943-0.396-1.537-0.645
		c-0.596-0.236-1.232-0.576-1.975-0.833c-0.739-0.263-1.536-0.549-2.365-0.874c-0.82-0.354-1.728-0.592-2.65-0.867
		c-0.922-0.279-1.871-0.583-2.857-0.748c-0.98-0.191-1.971-0.457-2.977-0.482l-1.498-0.156c-0.496-0.012-0.99,0.025-1.48,0.033
		c-0.99-0.027-1.924,0.186-2.852,0.306c-0.453,0.097-0.879,0.262-1.316,0.367c-0.215,0.062-0.435,0.108-0.641,0.183
		c-0.201,0.087-0.398,0.173-0.595,0.257c-0.806,0.305-1.498,0.728-2.162,1.101c-0.608,0.444-1.206,0.826-1.659,1.257
		c-0.486,0.399-0.854,0.808-1.18,1.132c-0.289,0.349-0.545,0.613-0.686,0.815C207.42,170.869,207.35,170.983,207.35,170.983z"/>
	<path fill="#634E3B" d="M209.372,162.274c0,0-0.311-3.578,3.267-4.667s18.546-5.001,23.368-2.667c4.822,2.332,9.1,8.557,4.785,6.4
		C234.88,158.385,209.263,163.545,209.372,162.274z"/>
	<path fill="#CCB097" d="M209.372,175.961c0,0,0.391,0.247,1.096,0.614c0.341,0.198,0.787,0.393,1.266,0.65
		c0.506,0.218,1.049,0.501,1.672,0.745c0.609,0.269,1.289,0.507,2,0.762c0.708,0.266,1.489,0.438,2.268,0.68
		c0.802,0.16,1.615,0.383,2.464,0.473c0.421,0.061,0.846,0.121,1.272,0.182l1.291,0.049c0.861,0.103,1.723-0.014,2.572-0.034
		c0.848-0.042,1.672-0.218,2.482-0.312c0.803-0.136,1.559-0.379,2.299-0.535c0.184-0.045,0.365-0.088,0.545-0.131
		c0.173-0.062,0.343-0.124,0.51-0.185c0.339-0.117,0.666-0.231,0.979-0.34c0.622-0.235,1.233-0.379,1.716-0.635
		c0.494-0.231,0.939-0.417,1.305-0.574c0.735-0.311,1.172-0.477,1.172-0.477s-0.338,0.304-0.961,0.814
		c-0.314,0.253-0.693,0.566-1.146,0.907c-0.433,0.375-1.002,0.658-1.607,1.008c-0.618,0.319-1.248,0.779-2.02,1.02
		c-0.757,0.271-1.538,0.645-2.401,0.844c-0.434,0.097-0.874,0.194-1.32,0.293c-0.447,0.101-0.898,0.216-1.369,0.225
		c-0.932,0.051-1.881,0.196-2.832,0.109l-1.422-0.094c-0.466-0.078-0.93-0.156-1.391-0.233c-0.932-0.112-1.791-0.462-2.644-0.691
		c-0.828-0.307-1.625-0.617-2.339-0.991c-0.356-0.186-0.703-0.367-1.039-0.542c-0.325-0.192-0.629-0.397-0.924-0.583
		c-0.601-0.355-1.092-0.776-1.543-1.111c-0.434-0.365-0.807-0.684-1.091-0.974c-0.294-0.276-0.503-0.519-0.646-0.682
		C209.446,176.049,209.372,175.961,209.372,175.961z"/>
	<path fill="#CCB097" d="M237.37,176.739c0,0,0.568,0.131,1.355,0.442c0.792,0.304,1.805,0.783,2.779,1.332
		c0.971,0.556,1.902,1.18,2.568,1.704c0.67,0.519,1.072,0.94,1.072,0.94s-0.568-0.13-1.355-0.441
		c-0.793-0.303-1.805-0.784-2.779-1.334c-0.971-0.555-1.9-1.18-2.567-1.705C237.772,177.161,237.37,176.739,237.37,176.739z"/>
	<polygon fill="#CCB097" points="238.815,171.896 245.145,170.983 239.036,172.871 	"/>
	<path fill="#231F20" d="M186.351,173.007c0,0-0.065-0.104-0.21-0.281c-0.133-0.185-0.355-0.435-0.631-0.757
		c-0.279-0.316-0.633-0.691-1.064-1.088c-0.434-0.397-0.938-0.82-1.519-1.242c-0.276-0.229-0.593-0.426-0.926-0.619
		c-0.337-0.187-0.652-0.435-1.032-0.587c-0.371-0.167-0.752-0.339-1.141-0.514c-0.394-0.159-0.818-0.264-1.236-0.404
		c-0.209-0.066-0.422-0.134-0.635-0.2l-0.668-0.107c-0.449-0.064-0.899-0.155-1.357-0.213c-0.463-0.008-0.93-0.016-1.398-0.023
		l-0.703-0.011l-0.701,0.095l-1.405,0.17c-0.469,0.049-0.914,0.227-1.368,0.332c-0.453,0.119-0.902,0.237-1.346,0.354
		c-0.442,0.123-0.854,0.329-1.273,0.485c-0.416,0.165-0.827,0.328-1.229,0.487c-0.203,0.078-0.402,0.154-0.601,0.229
		c-0.188,0.099-0.374,0.195-0.557,0.291c-0.735,0.384-1.429,0.746-2.07,1.081c-0.656,0.313-1.194,0.709-1.702,1.011
		c-0.502,0.314-0.939,0.589-1.299,0.815c-0.73,0.443-1.148,0.696-1.148,0.696s0.375-0.311,1.033-0.854
		c0.334-0.268,0.739-0.593,1.205-0.966c0.472-0.364,0.971-0.829,1.617-1.184c0.629-0.387,1.309-0.806,2.028-1.248
		c0.181-0.111,0.364-0.224,0.549-0.338c0.197-0.092,0.397-0.185,0.599-0.279c0.407-0.183,0.823-0.37,1.246-0.561
		c0.428-0.178,0.847-0.404,1.303-0.55c0.461-0.134,0.929-0.269,1.399-0.405c0.476-0.117,0.938-0.306,1.435-0.364l1.488-0.198
		l0.746-0.09l0.752,0.018c0.5,0.016,1,0.031,1.494,0.046c0.49,0.062,0.973,0.174,1.449,0.263l0.709,0.143
		c0.226,0.08,0.45,0.159,0.673,0.237c0.44,0.169,0.892,0.287,1.295,0.492c0.397,0.214,0.788,0.423,1.167,0.627
		c0.387,0.189,0.703,0.472,1.039,0.691c0.333,0.227,0.646,0.454,0.918,0.712c0.275,0.25,0.555,0.473,0.792,0.713
		c0.228,0.25,0.442,0.488,0.645,0.712c0.393,0.454,0.706,0.874,0.951,1.226C186.153,172.558,186.351,173.007,186.351,173.007z"/>
	<circle fill="#231F20" cx="173.997" cy="170.724" r="4.186"/>
	<path fill="#A58F79" d="M189.151,170.983c0,0-0.07-0.114-0.226-0.309c-0.141-0.202-0.396-0.467-0.686-0.815
		c-0.325-0.324-0.692-0.732-1.179-1.132c-0.453-0.431-1.052-0.812-1.66-1.257c-0.664-0.373-1.355-0.796-2.162-1.101
		c-0.195-0.084-0.395-0.17-0.595-0.257c-0.206-0.074-0.426-0.12-0.642-0.183c-0.437-0.105-0.861-0.271-1.315-0.367
		c-0.929-0.12-1.86-0.333-2.852-0.306c-0.491-0.008-0.983-0.045-1.479-0.033l-1.498,0.156c-1.007,0.025-1.996,0.291-2.977,0.482
		c-0.987,0.165-1.936,0.469-2.857,0.748c-0.924,0.275-1.83,0.513-2.65,0.867c-0.83,0.325-1.627,0.611-2.366,0.874
		c-0.742,0.257-1.379,0.597-1.975,0.833c-0.593,0.249-1.11,0.466-1.536,0.645c-0.86,0.347-1.365,0.531-1.365,0.531
		s0.416-0.328,1.168-0.877c0.377-0.271,0.833-0.607,1.371-0.973c0.543-0.355,1.119-0.826,1.832-1.19
		c0.701-0.386,1.467-0.802,2.289-1.219c0.415-0.201,0.822-0.452,1.275-0.63c0.449-0.185,0.92-0.349,1.393-0.529
		c0.953-0.344,1.916-0.775,2.982-0.96c1.049-0.23,2.1-0.535,3.21-0.591l1.646-0.131c0.551-0.002,1.104,0.048,1.649,0.07
		c1.097-0.014,2.151,0.33,3.171,0.528c0.501,0.147,0.982,0.346,1.45,0.529c0.232,0.097,0.468,0.177,0.688,0.285
		c0.215,0.121,0.427,0.241,0.636,0.359c0.407,0.253,0.841,0.429,1.185,0.726c0.352,0.277,0.691,0.545,1.018,0.802
		c0.598,0.573,1.137,1.1,1.523,1.646c0.428,0.506,0.699,1.024,0.945,1.423C189.004,170.47,189.151,170.983,189.151,170.983z"/>
	<path fill="#634E3B" d="M187.129,162.274c0,0,0.311-3.578-3.268-4.667c-3.576-1.089-18.546-5.001-23.368-2.667
		c-4.822,2.332-9.101,8.557-4.784,6.4C161.62,158.385,187.237,163.545,187.129,162.274z"/>
	<path fill="#CCB097" d="M187.129,175.961c0,0-0.074,0.088-0.215,0.251c-0.143,0.163-0.352,0.405-0.646,0.682
		c-0.284,0.29-0.657,0.608-1.091,0.974c-0.451,0.335-0.942,0.756-1.543,1.111c-0.295,0.186-0.6,0.391-0.924,0.583
		c-0.336,0.175-0.683,0.356-1.039,0.542c-0.714,0.374-1.511,0.685-2.34,0.991c-0.852,0.229-1.711,0.579-2.643,0.691
		c-0.461,0.077-0.925,0.155-1.391,0.233l-1.422,0.094c-0.951,0.087-1.9-0.059-2.833-0.109c-0.47-0.009-0.921-0.124-1.368-0.225
		c-0.446-0.099-0.887-0.196-1.32-0.293c-0.863-0.199-1.645-0.573-2.401-0.844c-0.772-0.24-1.401-0.7-2.021-1.02
		c-0.605-0.35-1.175-0.633-1.607-1.008c-0.451-0.341-0.831-0.654-1.145-0.907c-0.623-0.511-0.962-0.814-0.962-0.814
		s0.437,0.166,1.172,0.477c0.366,0.157,0.811,0.343,1.305,0.574c0.482,0.256,1.095,0.399,1.716,0.635
		c0.314,0.108,0.641,0.223,0.979,0.34c0.167,0.061,0.337,0.122,0.511,0.185c0.179,0.043,0.36,0.086,0.545,0.131
		c0.74,0.156,1.496,0.399,2.299,0.535c0.811,0.094,1.634,0.27,2.482,0.312c0.85,0.021,1.711,0.137,2.572,0.034l1.291-0.049
		c0.427-0.061,0.852-0.121,1.272-0.182c0.849-0.09,1.662-0.312,2.464-0.473c0.778-0.242,1.56-0.414,2.268-0.68
		c0.711-0.255,1.391-0.493,2-0.762c0.623-0.244,1.166-0.527,1.672-0.745c0.479-0.258,0.925-0.452,1.266-0.65
		C186.739,176.208,187.129,175.961,187.129,175.961z"/>
	<path fill="#CCB097" d="M159.131,176.739c0,0-0.403,0.422-1.074,0.938c-0.666,0.525-1.598,1.15-2.567,1.705
		c-0.974,0.55-1.986,1.031-2.778,1.334c-0.787,0.312-1.357,0.441-1.357,0.441s0.403-0.422,1.074-0.94
		c0.666-0.524,1.598-1.148,2.568-1.704c0.973-0.549,1.986-1.028,2.778-1.332C158.563,176.87,159.131,176.739,159.131,176.739z"/>
	<polygon fill="#CCB097" points="157.465,172.871 151.354,170.983 157.685,171.896 	"/>
	<path fill="#CCB097" d="M203.845,165.539c0,0,0.293,1.887,0.879,5.168c0.597,3.275,1.437,7.971,2.854,13.454
		c0.363,1.366,0.77,2.78,1.264,4.202c0.495,1.414,1.053,2.871,1.807,4.155c0.199,0.3,0.392,0.621,0.613,0.866
		c0.105,0.143,0.217,0.255,0.328,0.348c0.088,0.09,0.258,0.241,0.422,0.372c0.634,0.507,1.347,1.175,1.973,1.795
		c0.634,0.652,1.25,1.351,1.809,2.141c0.543,0.808,1.075,1.682,1.344,2.857c0.085,0.272,0.078,0.635,0.104,0.952
		c-0.021,0.34-0.061,0.712-0.179,1.061c-0.143,0.354-0.29,0.717-0.543,0.988c-0.118,0.143-0.237,0.296-0.366,0.417l-0.404,0.31
		c-0.279,0.227-0.552,0.336-0.83,0.466l-0.209,0.095l-0.105,0.046c0.014-0.004-0.104,0.042,0.018-0.004l-0.04,0.017l-0.314,0.135
		l-0.63,0.271c-0.191,0.093-0.341,0.189-0.514,0.282c-1.389,0.767-2.798,1.913-4.176,3.118c-1.402,1.207-2.783,2.539-4.496,3.715
		c-0.844,0.592-1.82,1.11-2.9,1.489c-0.567,0.151-1.13,0.313-1.742,0.336c-0.66,0.069-1.029,0.031-1.536,0.045l-0.714-0.002h-0.179
		l-0.089-0.001l-0.172-0.006l-0.044-0.004l-0.355-0.032l-0.356-0.032l-0.178-0.017l-0.236-0.051
		c-0.317-0.069-0.635-0.147-0.947-0.232c-1.096-0.383-2.062-0.898-2.91-1.492c-1.711-1.176-3.092-2.508-4.494-3.715
		c-1.391-1.212-2.762-2.332-4.206-3.131c-0.358-0.214-0.726-0.379-1.095-0.529l-0.693-0.307c-0.208-0.102-0.377-0.149-0.746-0.415
		c-0.16-0.11-0.314-0.228-0.463-0.347c-0.137-0.129-0.252-0.277-0.371-0.421c-0.254-0.272-0.4-0.636-0.543-0.989
		c-0.118-0.35-0.158-0.722-0.178-1.062c0.024-0.317,0.018-0.68,0.103-0.953c0.269-1.177,0.802-2.051,1.345-2.858
		c0.559-0.789,1.172-1.491,1.808-2.143c0.646-0.638,1.296-1.249,1.979-1.799l0.253-0.21c-0.121,0.11-0.018,0.015-0.037,0.033
		l0.027-0.027l0.058-0.054l0.114-0.108l0.227-0.214l0.134-0.173c0.173-0.188,0.388-0.532,0.581-0.827
		c0.754-1.284,1.313-2.74,1.807-4.155c0.493-1.422,0.9-2.835,1.264-4.201c1.418-5.482,2.26-10.178,2.857-13.453
		c0.586-3.281,0.88-5.168,0.88-5.168s-0.042,1.909-0.288,5.243c-0.13,1.666-0.295,3.69-0.579,6.005
		c-0.274,2.315-0.626,4.928-1.192,7.76c-0.596,2.832-1.193,5.906-2.801,9.078c-0.239,0.399-0.432,0.776-0.795,1.225l-0.25,0.317
		l-0.217,0.226l-0.109,0.112l-0.054,0.057l-0.027,0.028l-0.093,0.087l-0.223,0.203c-0.603,0.532-1.164,1.116-1.717,1.711
		c-0.533,0.608-1.04,1.239-1.482,1.892c-0.422,0.648-0.771,1.352-0.877,1.927c-0.116,0.607,0.068,0.768,0.299,0.954
		c-0.023,0.035,0.238,0.146,0.445,0.232l0.156,0.068l0.079,0.033c-0.038-0.015,0.14,0.058-0.075-0.029l0.045,0.018l0.357,0.141
		c0.483,0.182,0.955,0.382,1.396,0.626c1.81,0.925,3.354,2.165,4.791,3.406c1.445,1.228,2.819,2.507,4.253,3.464
		c0.71,0.492,1.448,0.849,2.147,1.097c0.148,0.03,0.293,0.068,0.438,0.114l0.109,0.035l0.178,0.015l0.356,0.028l0.356,0.029
		l0.044,0.004c-0.237-0.01-0.04-0.003-0.081-0.005l0.089-0.001h0.179l0.714-0.002c0.446-0.006,1.032,0.025,1.318-0.024
		c0.347,0.003,0.7-0.109,1.057-0.189c0.714-0.253,1.442-0.605,2.155-1.1c1.434-0.957,2.809-2.236,4.254-3.464
		c1.449-1.248,2.955-2.462,4.82-3.419c0.234-0.117,0.484-0.251,0.709-0.35l0.637-0.253l0.318-0.126l0.135-0.054l0.051-0.023
		l0.103-0.046c0.136-0.059,0.294-0.107,0.362-0.182c0.045-0.032,0.094-0.062,0.145-0.089c0.035-0.033,0.047-0.068,0.077-0.095
		c0.081-0.048,0.073-0.124,0.12-0.178c0.027-0.071,0.033-0.159,0.054-0.258c-0.027-0.127,0.018-0.224-0.035-0.38
		c-0.105-0.576-0.455-1.279-0.877-1.928c-0.442-0.652-0.946-1.286-1.482-1.893c-0.571-0.612-1.069-1.141-1.722-1.716
		c-0.26-0.239-0.746-0.685-1-1.063c-0.312-0.393-0.527-0.791-0.762-1.186c-1.607-3.172-2.203-6.245-2.801-9.077
		c-0.567-2.832-0.917-5.444-1.193-7.76c-0.285-2.313-0.449-4.339-0.58-6.005C203.888,167.448,203.845,165.539,203.845,165.539z"/>
	<path fill="#CCB097" d="M151.354,207.691c0,0,0.756,0.691,1.68,1.916c0.242,0.298,0.467,0.646,0.706,1.013
		c0.235,0.369,0.509,0.746,0.735,1.167c0.225,0.423,0.469,0.854,0.694,1.304c0.239,0.443,0.452,0.907,0.64,1.384
		s0.375,0.952,0.559,1.421c0.208,0.459,0.293,0.955,0.432,1.413c0.13,0.462,0.238,0.912,0.342,1.338
		c0.123,0.421,0.18,0.833,0.217,1.217c0.096,0.762,0.132,1.4,0.177,1.841c0.034,0.442,0.04,0.695,0.04,0.695
		s-0.094-0.241-0.232-0.663c-0.129-0.424-0.342-1.021-0.543-1.742c-0.098-0.361-0.215-0.749-0.377-1.148
		c-0.15-0.402-0.312-0.824-0.461-1.266c-0.158-0.438-0.295-0.9-0.498-1.347c-0.189-0.45-0.381-0.909-0.573-1.367
		c-0.171-0.467-0.367-0.923-0.591-1.358c-0.215-0.439-0.404-0.884-0.6-1.309c-0.209-0.418-0.41-0.821-0.603-1.205
		c-0.198-0.38-0.36-0.756-0.547-1.081c-0.358-0.66-0.628-1.233-0.858-1.608C151.477,207.914,151.354,207.691,151.354,207.691z"/>
	<path fill="#CCB097" d="M245.301,207.691c0,0-0.123,0.223-0.338,0.613c-0.23,0.375-0.5,0.948-0.857,1.608
		c-0.188,0.325-0.35,0.701-0.549,1.081c-0.191,0.384-0.393,0.787-0.602,1.205c-0.195,0.425-0.385,0.869-0.6,1.309
		c-0.223,0.436-0.42,0.892-0.59,1.358c-0.193,0.458-0.385,0.917-0.574,1.367c-0.203,0.446-0.34,0.908-0.498,1.347
		c-0.148,0.441-0.311,0.863-0.461,1.266c-0.162,0.399-0.279,0.787-0.377,1.148c-0.201,0.721-0.414,1.318-0.543,1.742
		c-0.139,0.422-0.232,0.663-0.232,0.663s0.006-0.253,0.04-0.695c0.045-0.44,0.081-1.079,0.177-1.841
		c0.037-0.384,0.094-0.796,0.217-1.217c0.104-0.426,0.213-0.876,0.342-1.338c0.139-0.458,0.223-0.954,0.432-1.413
		c0.184-0.469,0.371-0.944,0.559-1.421s0.4-0.94,0.641-1.384c0.225-0.45,0.469-0.881,0.693-1.304c0.227-0.421,0.5-0.798,0.736-1.167
		c0.238-0.367,0.463-0.715,0.705-1.013C244.545,208.383,245.301,207.691,245.301,207.691z"/>
	<path fill="#513D29" d="M206.429,62.96c95.735,3.732,48.14,143.021,49.79,115.6s-14.963-64.037-14.963-64.037
		s-56.446-3.967-72.715,11.199c0,0-1.633-5.133,0.701-11.434c0,0-25.699,2.785-28.949,64.271
		c-1.449,27.432-45.945-111.867,49.791-115.6H206.429z"/>
	<path fill="#231F20" d="M183.708,201.781c0,0-3.223,5.84,5.389,5.72"/>
	<path fill="#231F20" d="M212.77,201.781c0,0,3.223,5.84-5.389,5.72"/>
	<path fill="#E0C1A6" d="M203.844,165.539c0,0,2.294,25.15,7.155,29.239c3.888,3.27,7.048,7.797,3.11,9.18
		c-5.754,2.023-9.727,9.178-14.818,9.178h-2.039c-5.092,0-9.064-7.154-14.818-9.178c-3.938-1.383-0.777-5.91,3.111-9.18
		c4.861-4.089,7.154-29.239,7.154-29.239"/>
	<path fill="#FFFFFF" d="M178.102,221.457c0,0,10.713,6.888,20.289,6.888c9.574,0,20.189-6.888,20.189-6.888
		S198.268,228.812,178.102,221.457z"/>
	<path fill="#9B1A17" d="M261.331,280.98l93.826,39.292c0,0,36.928,16.228,36.928,75.697H3.356c0-59.47,36.928-75.697,36.928-75.697
		l91.682-38.394l65.322,56.416L261.331,280.98z"/>
	<polyline fill="none" points="355.362,396.533 355.362,320.83 258.856,280.417 197.834,333.384 136.139,280.258 43.549,318.904 
		43.549,396.527 	"/>
	<g>
		<defs>
			<path id="SVGID_11_" d="M261.331,280.98l93.826,39.292c0,0,36.928,16.228,36.928,75.697H3.356
				c0-59.47,36.928-75.697,36.928-75.697l91.682-38.394l65.322,56.416L261.331,280.98z"/>
		</defs>
		<clipPath id="SVGID_4_">
			<use xlink:href="#SVGID_11_"  overflow="visible"/>
		</clipPath>
		<g clip-path="url(#SVGID_4_)">
			<rect x="181.956" y="272.967" fill="#00405E" width="35" height="138.17"/>
		</g>
		<g clip-path="url(#SVGID_4_)">
			<rect x="104.002" y="272.967" fill="#00405E" width="35" height="138.17"/>
		</g>
		<g clip-path="url(#SVGID_4_)">
			<rect x="-5.82" y="272.967" fill="#00405E" width="66.869" height="138.17"/>
		</g>
		<g clip-path="url(#SVGID_4_)">
			<rect x="337.862" y="272.967" fill="#00405E" width="89.422" height="138.17"/>
		</g>
		<g clip-path="url(#SVGID_4_)">
			<rect x="259.909" y="272.967" fill="#00405E" width="35" height="138.17"/>
		</g>
	</g>
	<g>
		<defs>
			<polyline id="SVGID_13_" points="354.147,395.427 354.147,319.724 257.643,279.311 196.622,332.277 136.125,280.136 
				42.336,319.412 42.336,395.421 			"/>
		</defs>
		<clipPath id="SVGID_6_">
			<use xlink:href="#SVGID_13_"  overflow="visible"/>
		</clipPath>
		<g clip-path="url(#SVGID_6_)">
			<polygon fill="#F2E50D" points="196.68,342.193 118.514,274.822 128.307,263.461 196.645,322.361 264.483,263.478 
				274.317,274.806 			"/>
		</g>
	</g>
</g>
</svg>
