<?xml version="1.0" encoding="utf-8"?>
<!-- Generator: Adobe Illustrator 16.0.0, SVG Export Plug-In . SVG Version: 6.00 Build 0)  -->
<!DOCTYPE svg PUBLIC "-//W3C//DTD SVG 1.1//EN" "http://www.w3.org/Graphics/SVG/1.1/DTD/svg11.dtd">
<svg version="1.1" id="Layer_1" xmlns="http://www.w3.org/2000/svg" xmlns:xlink="http://www.w3.org/1999/xlink" x="0px" y="0px"
	 width="396.849px" height="396.851px" viewBox="0 0 396.849 396.851" enable-background="new 0 0 396.849 396.851"
	 xml:space="preserve">
	<defs>
	    <clipPath id="circle-clip">
	        <circle stroke="#000000" stroke-miterlimit="10" cx="200" cy="200" r="175" />
	    </clipPath>
	</defs>
<g>
	<rect width="400" height="400" class="player-bg" fill="rgba(0,0,0,0)"/>
	<polyline fill="#E0C1A6" points="98.677,305.201 151.451,284.758 151.451,204.788 245.675,204.788 245.675,284.424 
		300.052,306.727 251.439,358.756 	"/>
	<path fill="#D4B69D" d="M243.472,241.076c0,0-23.389,46.789-38.775,46.789h-12c-15.389,0-38.777-46.789-38.777-46.789H243.472z"/>
	<path fill="#E0C1A6" d="M256.228,171.125c0,0,8.248-12.963,12.166-6.083c2.021,3.548-3.549,15.714-3.041,18.248
		c0.506,2.534,1.521,43.594-20.783,20.783L256.228,171.125z"/>
	<path fill="#E0C1A6" d="M136.537,171.125c0,0-8.244-12.963-12.166-6.083c-2.021,3.548,3.549,15.714,3.041,18.248
		c-0.506,2.534-1.52,43.594,20.783,20.783L136.537,171.125z"/>
	<path fill="#E0C1A6" d="M137.107,136.655c0,0-7.096,78.569,16.729,106.449s25.852,28.387,37.004,28.387h11.211
		c11.15,0,13.18-0.507,37.004-28.387s16.727-106.449,16.727-106.449l-8.332-48.324L198.523,83.6h-32.1l-26.166,24.332
		L137.107,136.655z"/>
	<path fill="#634E3B" d="M149.949,96.104c-28.725,6.082-16.021,71.525-16.021,71.525l3.799,6.855c0,0-1.607-57.598,10.469-65.709
		c0,0,5.236-5.877,17.076-7.35"/>
	<path fill="#634E3B" d="M254.947,174.484c0,0-3.018-57.648-10.471-65.709c-2.693-2.914-8.861-18.502-42.879-12.672
		c0,0-29.812,9.188-43.773,7.973c0,0-31.996-5.945-9.629-27.235s127.297-13.065,115.637,8.448c0,0-10.252,8.833-6.25,19.938
		c5.068,14.071,3.824,59.774,3.824,59.774"/>
	<path fill="#66513D" d="M210.271,166.731c0,0,0.062-0.105,0.201-0.29c0.133-0.188,0.334-0.465,0.617-0.79
		c0.271-0.338,0.646-0.707,1.062-1.146c0.447-0.403,0.926-0.899,1.539-1.326c0.58-0.475,1.275-0.894,2.01-1.345
		c0.363-0.233,0.779-0.394,1.182-0.602c0.406-0.205,0.826-0.402,1.283-0.531c0.449-0.146,0.906-0.296,1.371-0.447
		c0.475-0.103,0.963-0.184,1.453-0.271l0.738-0.126l0.754-0.025l1.518-0.043c0.502,0.036,1.002,0.122,1.502,0.182
		c0.494,0.089,1.006,0.079,1.475,0.25c0.477,0.139,0.947,0.277,1.414,0.412c0.463,0.146,0.932,0.252,1.348,0.475
		c0.854,0.389,1.676,0.774,2.436,1.163c0.717,0.467,1.393,0.907,2.016,1.313c0.309,0.207,0.615,0.389,0.885,0.592
		c0.256,0.223,0.498,0.434,0.727,0.631c0.453,0.396,0.85,0.739,1.176,1.023c0.639,0.574,1.004,0.901,1.004,0.901
		s-0.41-0.272-1.129-0.748c-0.352-0.241-0.781-0.534-1.273-0.871c-0.244-0.168-0.506-0.347-0.781-0.535
		c-0.289-0.162-0.594-0.332-0.912-0.512c-0.637-0.353-1.324-0.734-2.053-1.14c-0.768-0.312-1.576-0.644-2.412-0.984
		c-0.828-0.354-1.758-0.482-2.654-0.765c-0.447-0.159-0.93-0.139-1.396-0.218c-0.471-0.051-0.941-0.126-1.414-0.158l-1.422,0.025
		l-0.707,0.012l-0.695,0.114c-0.463,0.072-0.92,0.146-1.373,0.217c-0.441,0.126-0.879,0.252-1.307,0.376
		c-0.438,0.102-0.838,0.286-1.238,0.446c-0.396,0.171-0.807,0.294-1.168,0.493c-0.73,0.383-1.432,0.738-2.023,1.157
		c-1.217,0.788-2.168,1.56-2.789,2.146C210.595,166.36,210.271,166.731,210.271,166.731z"/>
	<circle fill="#3F2B16" cx="224.125" cy="164.704" r="4.386"/>
	<path fill="#CCB097" d="M212.636,169.09c0,0,13.178,6.076,22.979,0C235.615,169.09,227.505,182.953,212.636,169.09z"/>
	<path fill="#CCB097" d="M214.763,170.924c0,0,6.529,6.416,20.852,12.197"/>
	<path fill="#CCB097" d="M211.22,161.156c0,0,0.332-0.383,1.004-0.961c0.676-0.567,1.664-1.375,3-2.121
		c1.326-0.75,2.969-1.511,4.852-1.959c0.938-0.229,1.932-0.373,2.949-0.438c1.016-0.024,2.059-0.02,3.084,0.147
		c1.029,0.139,2.029,0.422,2.996,0.731c0.959,0.344,1.865,0.77,2.711,1.23c0.412,0.249,0.826,0.477,1.213,0.731
		c0.375,0.271,0.742,0.533,1.1,0.79c0.68,0.554,1.34,1.058,1.877,1.597c0.275,0.263,0.541,0.514,0.791,0.754
		c0.23,0.258,0.451,0.502,0.658,0.731c0.414,0.457,0.768,0.86,1.033,1.215c0.537,0.699,0.846,1.099,0.846,1.099
		s-0.361-0.352-0.99-0.966c-0.303-0.319-0.697-0.678-1.154-1.08c-0.445-0.416-0.977-0.851-1.557-1.321
		c-0.562-0.491-1.238-0.937-1.932-1.426c-0.361-0.223-0.732-0.452-1.109-0.686c-0.391-0.213-0.789-0.429-1.193-0.649
		c-0.41-0.211-0.844-0.388-1.271-0.588c-0.441-0.166-0.887-0.334-1.336-0.505c-0.918-0.28-1.861-0.535-2.828-0.656
		c-0.959-0.168-1.938-0.183-2.895-0.172c-0.957,0.058-1.902,0.137-2.801,0.329c-1.799,0.365-3.445,0.94-4.781,1.593
		c-1.34,0.646-2.422,1.276-3.145,1.773C211.613,160.839,211.22,161.156,211.22,161.156z"/>
	<path fill="#66513D" d="M180.279,166.731c0,0-0.324-0.372-0.961-0.944c-0.621-0.586-1.572-1.357-2.789-2.146
		c-0.592-0.419-1.293-0.774-2.023-1.157c-0.363-0.199-0.771-0.322-1.168-0.493c-0.4-0.16-0.801-0.345-1.24-0.446
		c-0.428-0.124-0.865-0.25-1.307-0.376c-0.451-0.071-0.91-0.145-1.373-0.217l-0.693-0.114l-0.709-0.012l-1.42-0.025
		c-0.475,0.032-0.945,0.107-1.416,0.158c-0.467,0.079-0.949,0.059-1.396,0.218c-0.895,0.282-1.824,0.411-2.654,0.765
		c-0.836,0.341-1.645,0.672-2.412,0.984c-0.727,0.404-1.416,0.787-2.053,1.14c-0.318,0.18-0.623,0.35-0.912,0.512
		c-0.275,0.188-0.537,0.367-0.781,0.535c-0.492,0.337-0.922,0.63-1.273,0.871c-0.719,0.476-1.129,0.748-1.129,0.748
		s0.365-0.327,1.004-0.901c0.326-0.284,0.723-0.628,1.176-1.023c0.229-0.197,0.471-0.408,0.727-0.631
		c0.27-0.203,0.576-0.385,0.885-0.592c0.625-0.406,1.301-0.847,2.016-1.313c0.762-0.389,1.582-0.774,2.436-1.163
		c0.416-0.223,0.887-0.329,1.35-0.475c0.465-0.135,0.938-0.273,1.412-0.412c0.469-0.171,0.982-0.161,1.477-0.25
		c0.498-0.06,0.998-0.146,1.502-0.182l1.516,0.043l0.754,0.025l0.74,0.126c0.49,0.087,0.979,0.168,1.453,0.271
		c0.463,0.151,0.92,0.301,1.371,0.447c0.457,0.129,0.877,0.326,1.283,0.531c0.402,0.208,0.818,0.368,1.182,0.602
		c0.734,0.451,1.428,0.87,2.008,1.345c0.615,0.427,1.094,0.923,1.541,1.326c0.416,0.439,0.791,0.809,1.062,1.146
		c0.283,0.325,0.484,0.602,0.617,0.79C180.216,166.626,180.279,166.731,180.279,166.731z"/>
	<circle fill="#3F2B16" cx="166.423" cy="164.704" r="4.385"/>
	<path fill="#CCB097" d="M177.912,169.09c0,0-13.178,6.076-22.979,0C154.933,169.09,163.044,182.953,177.912,169.09z"/>
	<path fill="#CCB097" d="M175.787,170.924c0,0-6.529,6.416-20.854,12.197"/>
	<path fill="#CCB097" d="M179.328,161.156c0,0-0.393-0.317-1.121-0.806c-0.721-0.497-1.805-1.127-3.143-1.773
		c-1.338-0.652-2.982-1.228-4.781-1.593c-0.898-0.192-1.846-0.271-2.801-0.329c-0.957-0.011-1.936,0.004-2.895,0.172
		c-0.967,0.121-1.91,0.376-2.828,0.656c-0.451,0.171-0.896,0.339-1.338,0.505c-0.428,0.2-0.861,0.377-1.27,0.588
		c-0.406,0.221-0.803,0.437-1.193,0.649c-0.379,0.233-0.75,0.463-1.109,0.686c-0.693,0.489-1.371,0.935-1.934,1.426
		c-0.578,0.471-1.109,0.905-1.555,1.321c-0.459,0.402-0.854,0.761-1.154,1.08c-0.631,0.614-0.99,0.966-0.99,0.966
		s0.307-0.399,0.844-1.099c0.266-0.354,0.619-0.758,1.033-1.215c0.207-0.229,0.426-0.474,0.66-0.731
		c0.25-0.24,0.514-0.491,0.789-0.754c0.539-0.539,1.197-1.043,1.879-1.597c0.357-0.257,0.723-0.52,1.098-0.79
		c0.387-0.255,0.801-0.482,1.213-0.731c0.848-0.461,1.754-0.887,2.711-1.23c0.969-0.31,1.969-0.593,2.998-0.731
		c1.023-0.167,2.066-0.172,3.084-0.147c1.016,0.064,2.01,0.208,2.949,0.438c1.881,0.448,3.525,1.209,4.852,1.959
		c1.336,0.746,2.324,1.554,3,2.121C178.998,160.773,179.328,161.156,179.328,161.156z"/>
	<path fill="#E9CFC4" d="M170.48,218.604c0,0,16.303-3.042,19.514-1.352c3.211,1.689,3.688,1.352,5.141,1.352
		c1.449,0,4.82-2.036,7.443-1.863c2.623,0.174,20.027,4.398,20.027,4.398S192.361,222.828,170.48,218.604z"/>
	<path fill="#F4E6E1" d="M171.746,220.125c0,0,7.066,17.909,23.389,17.909c16.318,0,26.139-13.51,26.119-15.17
		c0,0-6.168,7.06-24.713,7.06C177.998,229.924,171.746,220.125,171.746,220.125z"/>
	<path fill="#FFFFFF" d="M173.259,219.102c0,0,7.309,8.964,21.875,8.964c14.564,0,24.598-3.726,25.273-6.593
		C220.408,221.473,188.875,222.864,173.259,219.102z"/>
	<path fill="#D9BBA0" d="M194.132,205.568l-4.139,11.684c0,0,4.055,3.517,11.574-0.522l-3.887-11.811"/>
	<path fill="#E0C1A6" d="M207.345,199.525"/>
	<path fill="#E4CAB2" d="M177.646,135.491c-17.016,2.357-29.445,9.764-29.445,9.764s17.236-4.393,50.521,0h2.195
		c33.287-4.393,50.521,0,50.521,0s-13.197-7.861-31.01-9.961"/>
	<circle fill="#231F20" cx="256.769" cy="207.452" r="2.195"/>
	<circle fill="#231F20" cx="136.119" cy="207.452" r="2.195"/>
	<g>
		<path fill="#E0C1A6" d="M222.55,151.182c0,0-27.119,3.295-20.021,21.036c7.096,17.741,14.193,23.824,6.842,26.612
			c-7.35,2.788-7.857,7.35-12.926,7.35h-1.268c-5.068,0-6.082-4.562-13.432-7.35c-7.352-2.788-0.254-8.871,6.842-26.612
			c7.098-17.741-20.021-21.036-20.021-21.036"/>
		<path fill="#CCB097" d="M222.55,151.182c0,0-0.623,0.082-1.779,0.312c-1.154,0.236-2.846,0.609-4.939,1.276
			c-2.086,0.668-4.604,1.612-7.211,3.188c-1.295,0.793-2.609,1.758-3.771,2.988c-1.158,1.225-2.17,2.726-2.717,4.481
			c-0.564,1.748-0.623,3.718-0.207,5.663c0.377,1.951,1.287,3.854,2.127,5.841c1.709,3.959,3.777,8.004,5.91,12.215
			c1.033,2.124,2.199,4.239,2.807,6.716c0.139,0.621,0.207,1.289,0.117,1.972c-0.086,0.683-0.398,1.367-0.869,1.88
			c-0.949,1.06-2.258,1.437-3.355,1.924c-2.238,0.927-4.205,2.379-6.039,4.063c-0.936,0.821-1.893,1.725-3.129,2.308
			c-0.602,0.312-1.273,0.481-1.939,0.592c-0.676,0.086-1.338,0.09-1.953,0.086c-1.256,0.03-2.697-0.194-3.877-0.83
			c-1.186-0.628-2.164-1.473-3.129-2.266c-1.902-1.611-3.896-3.025-6.145-3.955c-1.053-0.465-2.414-0.866-3.352-1.921
			c-0.473-0.514-0.783-1.198-0.869-1.881c-0.09-0.683-0.021-1.351,0.115-1.972c0.607-2.477,1.775-4.592,2.807-6.716
			c2.135-4.211,4.199-8.257,5.91-12.216c0.43-0.981,0.852-1.981,1.232-2.924c0.176-0.494,0.352-0.984,0.525-1.472
			c0.125-0.485,0.248-0.968,0.369-1.445c0.416-1.943,0.359-3.914-0.205-5.662c-0.549-1.755-1.559-3.257-2.717-4.48
			c-1.164-1.23-2.477-2.195-3.771-2.988c-2.607-1.575-5.125-2.52-7.213-3.188c-2.092-0.667-3.783-1.04-4.938-1.276
			c-1.156-0.229-1.779-0.312-1.779-0.312s0.625,0.066,1.787,0.268c1.16,0.208,2.863,0.54,4.98,1.157
			c2.111,0.62,4.664,1.504,7.35,3.038c1.334,0.771,2.699,1.722,3.934,2.962c1.229,1.236,2.303,2.802,2.91,4.646
			c0.621,1.839,0.709,3.926,0.303,5.965c-0.123,0.508-0.248,1.021-0.373,1.538c-0.168,0.489-0.336,0.982-0.506,1.479
			c-0.391,1.011-0.787,1.98-1.209,2.986c-1.664,4.002-3.678,8.116-5.803,12.317c-1.018,2.106-2.164,4.257-2.701,6.513
			c-0.25,1.12-0.188,2.27,0.553,3.043c0.727,0.816,1.836,1.166,3.031,1.671c2.346,0.953,4.479,2.455,6.396,4.069
			c0.971,0.793,1.918,1.588,2.963,2.134c1.055,0.548,2.17,0.722,3.42,0.706c0.645,0.007,1.242,0.001,1.812-0.068
			c0.57-0.095,1.135-0.229,1.652-0.496c1.055-0.485,1.969-1.317,2.908-2.143c1.854-1.689,3.967-3.243,6.324-4.201
			c1.148-0.488,2.314-0.858,3.027-1.671c0.74-0.773,0.803-1.924,0.553-3.044c-0.535-2.257-1.682-4.406-2.701-6.513
			c-2.125-4.202-4.137-8.315-5.803-12.318c-0.809-1.998-1.709-3.938-2.086-6.004c-0.406-2.036-0.32-4.124,0.303-5.962
			c0.607-1.845,1.68-3.411,2.91-4.646c1.232-1.241,2.598-2.19,3.934-2.964c2.684-1.533,5.236-2.418,7.348-3.038
			c2.117-0.616,3.82-0.948,4.98-1.157C221.925,151.248,222.55,151.182,222.55,151.182z"/>
	</g>
	<path fill="#CCB097" d="M222.55,151.182c0,0-0.623,0.082-1.779,0.312c-1.154,0.236-2.846,0.609-4.939,1.276
		c-2.086,0.668-4.604,1.612-7.211,3.188c-1.295,0.793-2.609,1.758-3.771,2.988c-1.158,1.225-2.17,2.726-2.717,4.481
		c-0.564,1.748-0.623,3.718-0.207,5.663c0.377,1.951,1.287,3.854,2.127,5.841c1.709,3.959,3.777,8.004,5.91,12.215
		c1.033,2.124,2.199,4.239,2.807,6.716c0.139,0.621,0.207,1.289,0.117,1.972c-0.086,0.683-0.398,1.367-0.869,1.88
		c-0.949,1.06-2.258,1.437-3.355,1.924c-2.238,0.927-4.205,2.379-6.039,4.063c-0.936,0.821-1.893,1.725-3.129,2.308
		c-0.602,0.312-1.273,0.481-1.939,0.592c-0.676,0.086-1.338,0.09-1.953,0.086c-1.256,0.03-2.697-0.194-3.877-0.83
		c-1.186-0.628-2.164-1.473-3.129-2.266c-1.902-1.611-3.896-3.025-6.145-3.955c-1.053-0.465-2.414-0.866-3.352-1.921
		c-0.473-0.514-0.783-1.198-0.869-1.881c-0.09-0.683-0.021-1.351,0.115-1.972c0.607-2.477,1.775-4.592,2.807-6.716
		c2.135-4.211,4.199-8.257,5.91-12.216c0.43-0.981,0.852-1.981,1.232-2.924c0.176-0.494,0.352-0.984,0.525-1.472
		c0.125-0.485,0.248-0.968,0.369-1.445c0.416-1.943,0.359-3.914-0.205-5.662c-0.549-1.755-1.559-3.257-2.717-4.48
		c-1.164-1.23-2.477-2.195-3.771-2.988c-2.607-1.575-5.125-2.52-7.213-3.188c-2.092-0.667-3.783-1.04-4.938-1.276
		c-1.156-0.229-1.779-0.312-1.779-0.312s0.625,0.066,1.787,0.268c1.16,0.208,2.863,0.54,4.98,1.157
		c2.111,0.62,4.664,1.504,7.35,3.038c1.334,0.771,2.699,1.722,3.934,2.962c1.229,1.236,2.303,2.802,2.91,4.646
		c0.621,1.839,0.709,3.926,0.303,5.965c-0.123,0.508-0.248,1.021-0.373,1.538c-0.168,0.489-0.336,0.982-0.506,1.479
		c-0.391,1.011-0.787,1.98-1.209,2.986c-1.664,4.002-3.678,8.116-5.803,12.317c-1.018,2.106-2.164,4.257-2.701,6.513
		c-0.25,1.12-0.188,2.27,0.553,3.043c0.727,0.816,1.836,1.166,3.031,1.671c2.346,0.953,4.479,2.455,6.396,4.069
		c0.971,0.793,1.918,1.588,2.963,2.134c1.055,0.548,2.17,0.722,3.42,0.706c0.645,0.007,1.242,0.001,1.812-0.068
		c0.57-0.095,1.135-0.229,1.652-0.496c1.055-0.485,1.969-1.317,2.908-2.143c1.854-1.689,3.967-3.243,6.324-4.201
		c1.148-0.488,2.314-0.858,3.027-1.671c0.74-0.773,0.803-1.924,0.553-3.044c-0.535-2.257-1.682-4.406-2.701-6.513
		c-2.125-4.202-4.137-8.315-5.803-12.318c-0.809-1.998-1.709-3.938-2.086-6.004c-0.406-2.036-0.32-4.124,0.303-5.962
		c0.607-1.845,1.68-3.411,2.91-4.646c1.232-1.241,2.598-2.19,3.934-2.964c2.684-1.533,5.236-2.418,7.348-3.038
		c2.117-0.616,3.82-0.948,4.98-1.157C221.925,151.248,222.55,151.182,222.55,151.182z"/>
	<path fill="#231F20" d="M181.095,198.558c0,0,0.6,2.792,6.018,3.225"/>
	<path fill="#231F20" d="M209.416,198.558c0,0-0.6,2.792-6.016,3.225"/>
	<path opacity="0.5" fill="#A28363" d="M239.501,142.484c-3.803-2.534-23.318,0.592-26.359,1.099
		c-1.842,0.307-2.023,2.518-1.881,4.215l-1.328-3.708v5.238l-1.354-4.225v5.238l3.381-0.589l0,0
		c2.238-0.234,13.793-1.444,16.389-1.81c1.398-0.195,7.771-0.787,10.984,0.135c5.406,1.554,8.531,6.572,8.531,6.572
		C247.357,149.328,243.302,145.02,239.501,142.484z"/>
	<path opacity="0.5" fill="#A28363" d="M180.617,149.328v-5.238l-1.328,3.708c0.141-1.697-0.039-3.908-1.883-4.215
		c-3.041-0.507-22.557-3.633-26.359-1.099c-3.801,2.535-7.857,6.844-8.363,12.166c0,0,3.127-5.019,8.533-6.572
		c3.211-0.922,9.586-0.33,10.982-0.135c2.598,0.365,14.152,1.575,16.391,1.81l0,0l3.379,0.589v-5.238L180.617,149.328z"/>
	<path fill="#CD2422" d="M198.49,335.081c-52.613,0-52.119-49.037-52.119-49.037L40.964,330.186c0,0-32.732,14.384-36.564,65.693
		h387.998c-3.832-51.31-36.562-65.693-36.562-65.693l-105.406-44.142c0,0,0.494,49.037-52.119,49.037"/>
	<path fill="#CD2422" d="M14.429,395.883h367.941c-3.459-42.745-28.596-55.602-30.568-56.545l-93.283-39.065
		c-2.055,8.444-6.314,19.177-15.133,28.085c-10.951,11.062-26.057,16.688-44.896,16.724l0,0c-0.062,0-0.119,0-0.18,0
		c-18.84-0.036-33.945-5.662-44.896-16.724c-8.818-8.908-13.078-19.641-15.133-28.085l-93.326,39.083
		C43.457,340.063,17.917,352.768,14.429,395.883z"/>
	<path fill="#FFFFFF" d="M351.802,339.338l-93.283-39.065c-0.629,2.582-1.467,5.379-2.574,8.271l-0.34,3.611
		c0,0,59.111,29.013,61.576,83.729h65.189C378.912,353.138,353.775,340.281,351.802,339.338z"/>
	<path fill="#FFFFFF" d="M44.998,339.338l93.283-39.065c0.629,2.582,1.467,5.379,2.574,8.271l0.34,3.611
		c0,0-59.111,29.013-61.576,83.729H14.429C17.888,353.138,43.025,340.281,44.998,339.338z"/>
</g>
<g>
	<g>
		<defs>
			<path id="SVGID_3_" d="M615.809-90.889c52.613,0,52.119-49.037,52.119-49.037l105.406,44.142c0,0,36.928,16.228,36.928,75.697
				H421.534c0-59.47,36.928-75.697,36.928-75.697l105.406-44.142c0,0-0.494,49.037,52.119,49.037"/>
		</defs>
		<clipPath id="SVGID_2_">
			<use xlink:href="#SVGID_3_"  overflow="visible"/>
		</clipPath>
		<g clip-path="url(#SVGID_2_)">
			<rect x="387.495" y="-5.873" fill="#30526F" width="456.807" height="25.311"/>
		</g>
	</g>
</g>
<g>
	<g>
		<defs>
			<path id="SVGID_7_" d="M614.794,326.639c52.613,0,52.119-49.037,52.119-49.037l105.406,44.142c0,0,36.928,16.228,36.928,75.697
				H420.519c0-59.47,36.928-75.697,36.928-75.697l105.406-44.142c0,0-0.494,49.037,52.119,49.037"/>
		</defs>
		<clipPath id="SVGID_4_">
			<use xlink:href="#SVGID_7_"  overflow="visible"/>
		</clipPath>
		<g clip-path="url(#SVGID_4_)">
			<rect x="386.48" y="247.891" fill="#30526F" width="456.807" height="25.309"/>
		</g>
		<g clip-path="url(#SVGID_4_)">
			<rect x="386.48" y="280.643" fill="#30526F" width="456.807" height="25.309"/>
		</g>
		<g clip-path="url(#SVGID_4_)">
			<rect x="386.48" y="313.395" fill="#30526F" width="456.807" height="25.311"/>
		</g>
		<g clip-path="url(#SVGID_4_)">
			<rect x="386.48" y="346.148" fill="#30526F" width="456.807" height="25.311"/>
		</g>
		<g clip-path="url(#SVGID_4_)">
			<rect x="386.48" y="378.902" fill="#30526F" width="456.807" height="25.311"/>
		</g>
	</g>
</g>
</svg>
