<?xml version="1.0" encoding="utf-8"?>
<!-- Generator: Adobe Illustrator 16.0.0, SVG Export Plug-In . SVG Version: 6.00 Build 0)  -->
<!DOCTYPE svg PUBLIC "-//W3C//DTD SVG 1.1//EN" "http://www.w3.org/Graphics/SVG/1.1/DTD/svg11.dtd">
<svg version="1.1" id="Layer_1" xmlns="http://www.w3.org/2000/svg" xmlns:xlink="http://www.w3.org/1999/xlink" x="0px" y="0px"
	 width="396.85px" height="396.851px" viewBox="0 0 396.85 396.851" enable-background="new 0 0 396.85 396.851"
	 xml:space="preserve">
	<defs>
	    <clipPath id="circle-clip">
	        <circle stroke="#000000" stroke-miterlimit="10" cx="200" cy="200" r="175" />
	    </clipPath>
	</defs>
	<rect width="400" height="400" class="player-bg"/>
<rect x="146.188" y="214.736" fill="#DFC1A5" width="103.994" height="131.87"/>
<path fill="#8BDC65" d="M198.094,326.014c52.613,0,52.119-49.037,52.119-49.037l105.406,44.141c0,0,36.928,16.229,36.928,75.698
	H3.818c0-59.47,36.928-75.698,36.928-75.698l105.406-44.141c0,0-0.494,49.037,52.119,49.037"/>
<path fill="#CCB097" d="M151.758,255.574c0,0,20.406,43.033,46.527,43.033c27.461,0,47.34-43.385,47.34-43.385L151.758,255.574z"/>
<path fill="#42408C" d="M250.35,276.977c0,0,0.494,49.037-52.119,49.037c-52.615,0-52.121-49.037-52.121-49.037l-10.455,4.176
	c3.281,31.869,30.211,56.729,62.949,56.729c32.568,0,59.379-24.607,62.885-56.24L250.35,276.977z"/>
<path fill="#DFC1A5" d="M183.496,55.054c-81.5,19.679-54,106.805-54,106.805l4,13.368c0,0,5,115.316,63.5,115.316h2.73
	c58.5,0,63.5-115.316,63.5-115.316l4-13.368c0,0,27.5-87.126-54-106.805c0,0-4.27-1.679-14.865-1.679S183.496,55.054,183.496,55.054
	z"/>
<path fill="#DFC1A5" d="M133.496,165.863c0,0-14-19.413-17-12.45s-5.5,64.175,22,46.07L133.496,165.863z"/>
<path fill="#DFC1A5" d="M263.227,165.863c0,0,14-19.413,17-12.45s5.5,64.175-22,46.07L263.227,165.863z"/>
<path fill="#564533" d="M150.496,100.875c19-14.5,34.73-4,47.865-4h0.135c13.135,0,28.865-10.5,47.865,4
	c12.281,9.372,16.619,68.802,16.975,73.984l3.891-13.001c0,0,27.5-87.126-54-106.805c0,0-4.27-1.679-14.865-1.679
	s-14.865,1.679-14.865,1.679c-81.5,19.679-54,106.805-54,106.805l4,13.368C133.496,175.227,137.652,110.676,150.496,100.875z"/>
<path fill="#504139" d="M212.83,151.209c0,0,20.852-15.76,36,1.695c4.184,4.822,1.266,1.445-2.668,0
	c-12.779-4.695-27.143,2.155-33.5,2.554C207.33,155.792,212.83,151.209,212.83,151.209z"/>
<path fill="#512C1D" d="M213.996,170.125c0,0,0.08-0.112,0.248-0.308c0.164-0.199,0.406-0.492,0.746-0.835
	c0.324-0.36,0.766-0.744,1.252-1.215c0.521-0.422,1.074-0.959,1.773-1.413c0.342-0.237,0.689-0.496,1.066-0.742
	c0.387-0.23,0.785-0.468,1.197-0.713c0.402-0.261,0.85-0.467,1.305-0.685c0.457-0.212,0.914-0.453,1.406-0.633
	c0.996-0.328,2-0.762,3.096-0.939c0.543-0.104,1.082-0.259,1.637-0.322l1.678-0.149c0.279-0.019,0.559-0.052,0.84-0.057l0.84,0.044
	c0.559,0.03,1.113,0.061,1.666,0.09c1.096,0.125,2.152,0.408,3.182,0.598c1,0.306,1.943,0.684,2.842,1.006
	c0.896,0.334,1.662,0.832,2.408,1.194c0.742,0.377,1.414,0.731,1.941,1.159c0.547,0.394,1.021,0.736,1.414,1.02
	c0.771,0.573,1.213,0.9,1.213,0.9s-0.48-0.269-1.322-0.738c-0.414-0.239-0.918-0.529-1.494-0.861
	c-0.561-0.363-1.26-0.643-2.004-0.977c-0.754-0.308-1.527-0.748-2.418-1.017c-0.889-0.265-1.826-0.544-2.795-0.832
	c-0.998-0.155-2.018-0.372-3.064-0.491c-0.527-0.022-1.059-0.045-1.592-0.068l-0.801-0.035c-0.268,0.008-0.533,0.045-0.801,0.063
	l-1.6,0.124c-0.529,0.054-1.045,0.199-1.564,0.293c-1.045,0.162-2.023,0.529-2.99,0.817c-0.48,0.154-0.924,0.385-1.379,0.556
	c-0.451,0.182-0.898,0.354-1.303,0.582c-0.414,0.213-0.816,0.42-1.207,0.619c-0.379,0.218-0.734,0.449-1.084,0.659
	c-0.705,0.411-1.293,0.874-1.854,1.235c-0.52,0.412-0.998,0.747-1.352,1.068C214.383,169.733,213.996,170.125,213.996,170.125z"/>
<circle fill="#512C1D" cx="230.604" cy="167.375" r="4.56"/>
<path fill="#CCB097" d="M211.996,166.365c0,0,0.369-0.53,1.133-1.366c0.771-0.824,1.898-1.999,3.453-3.178
	c1.543-1.187,3.479-2.428,5.738-3.396c1.141-0.451,2.336-0.9,3.602-1.177c1.26-0.294,2.568-0.491,3.883-0.548l0.988-0.03
	l0.984,0.038c0.656,0.008,1.303,0.107,1.945,0.18c1.285,0.168,2.52,0.494,3.695,0.851c0.582,0.194,1.146,0.411,1.697,0.622
	c0.545,0.221,1.059,0.488,1.568,0.72c0.514,0.223,0.975,0.519,1.438,0.768c0.459,0.257,0.906,0.499,1.307,0.777
	c0.82,0.523,1.559,1.023,2.168,1.527c0.625,0.482,1.168,0.899,1.582,1.286c0.84,0.756,1.318,1.188,1.318,1.188
	s-0.523-0.376-1.438-1.034c-0.443-0.347-1.02-0.713-1.678-1.135c-0.645-0.44-1.414-0.867-2.24-1.349
	c-0.408-0.252-0.857-0.466-1.32-0.692c-0.465-0.22-0.93-0.483-1.441-0.673c-0.51-0.199-1.02-0.433-1.561-0.618
	c-0.545-0.168-1.09-0.377-1.658-0.545c-0.576-0.141-1.152-0.312-1.748-0.434c-0.602-0.091-1.201-0.243-1.816-0.302
	c-0.617-0.062-1.234-0.154-1.863-0.154l-0.939-0.029l-0.941,0.037c-1.256,0.043-2.506,0.22-3.713,0.49
	c-1.213,0.259-2.377,0.639-3.488,1.05c-1.094,0.455-2.152,0.906-3.107,1.435c-0.963,0.517-1.846,1.058-2.631,1.603
	c-1.578,1.082-2.822,2.097-3.646,2.86C212.434,165.89,211.996,166.365,211.996,166.365z"/>
<path fill="#CCB097" d="M218.996,171.935c0,0,15.25,7.19,24.5-1.81C243.496,170.125,232.746,187.495,218.996,171.935z"/>
<path fill="#504139" d="M185.381,151.209c0,0-20.854-15.76-36,1.695c-4.186,4.822-1.266,1.445,2.666,0
	c12.779-4.695,27.145,2.155,33.5,2.554C190.881,155.792,185.381,151.209,185.381,151.209z"/>
<path fill="#512C1D" d="M184.215,170.125c0,0-0.387-0.393-1.127-1.002c-0.355-0.321-0.832-0.656-1.354-1.068
	c-0.559-0.361-1.148-0.824-1.854-1.235c-0.348-0.21-0.703-0.441-1.084-0.659c-0.389-0.199-0.791-0.406-1.205-0.619
	c-0.406-0.228-0.852-0.4-1.303-0.582c-0.457-0.171-0.898-0.401-1.379-0.556c-0.967-0.288-1.945-0.655-2.992-0.817
	c-0.518-0.094-1.033-0.239-1.564-0.293l-1.6-0.124c-0.266-0.019-0.533-0.056-0.799-0.063l-0.801,0.035
	c-0.535,0.023-1.064,0.046-1.592,0.068c-1.047,0.119-2.068,0.336-3.064,0.491c-0.971,0.288-1.906,0.567-2.797,0.832
	c-0.891,0.269-1.664,0.709-2.418,1.017c-0.744,0.334-1.443,0.613-2.002,0.977c-0.578,0.332-1.082,0.622-1.496,0.861
	c-0.84,0.47-1.32,0.738-1.32,0.738s0.441-0.327,1.213-0.9c0.391-0.283,0.867-0.626,1.412-1.02c0.527-0.428,1.201-0.782,1.941-1.159
	c0.746-0.362,1.514-0.86,2.408-1.194c0.898-0.322,1.842-0.7,2.844-1.006c1.029-0.189,2.086-0.473,3.18-0.598
	c0.553-0.029,1.109-0.06,1.668-0.09l0.84-0.044c0.279,0.005,0.559,0.038,0.84,0.057l1.678,0.149
	c0.555,0.063,1.094,0.219,1.635,0.322c1.096,0.178,2.102,0.611,3.096,0.939c0.492,0.18,0.951,0.421,1.408,0.633
	c0.453,0.218,0.9,0.424,1.305,0.685c0.41,0.245,0.811,0.482,1.197,0.713c0.375,0.246,0.725,0.505,1.066,0.742
	c0.699,0.454,1.25,0.991,1.773,1.413c0.484,0.471,0.928,0.854,1.252,1.215c0.338,0.343,0.582,0.636,0.746,0.835
	C184.135,170.013,184.215,170.125,184.215,170.125z"/>
<circle fill="#512C1D" cx="167.605" cy="167.375" r="4.559"/>
<path fill="#CCB097" d="M186.215,166.365c0,0-0.439-0.475-1.27-1.229c-0.824-0.764-2.068-1.778-3.646-2.86
	c-0.785-0.545-1.67-1.086-2.631-1.603c-0.957-0.528-2.016-0.979-3.107-1.435c-1.111-0.411-2.275-0.791-3.488-1.05
	c-1.209-0.271-2.459-0.447-3.715-0.49l-0.941-0.037l-0.939,0.029c-0.627,0-1.246,0.092-1.861,0.154
	c-0.617,0.059-1.215,0.211-1.816,0.302c-0.596,0.122-1.174,0.293-1.748,0.434c-0.568,0.168-1.113,0.377-1.66,0.545
	c-0.541,0.186-1.051,0.419-1.559,0.618c-0.514,0.189-0.977,0.453-1.441,0.673c-0.463,0.227-0.914,0.44-1.32,0.692
	c-0.828,0.481-1.598,0.908-2.242,1.349c-0.656,0.422-1.234,0.788-1.676,1.135c-0.916,0.658-1.438,1.034-1.438,1.034
	s0.479-0.432,1.316-1.188c0.414-0.387,0.959-0.804,1.582-1.286c0.609-0.504,1.348-1.004,2.17-1.527
	c0.4-0.278,0.846-0.521,1.305-0.777c0.463-0.249,0.924-0.545,1.439-0.768c0.51-0.231,1.021-0.499,1.568-0.72
	c0.551-0.211,1.115-0.428,1.697-0.622c1.174-0.356,2.408-0.683,3.693-0.851c0.643-0.072,1.289-0.172,1.947-0.18l0.984-0.038
	l0.986,0.03c1.316,0.057,2.623,0.254,3.883,0.548c1.268,0.276,2.463,0.726,3.604,1.177c2.26,0.969,4.195,2.21,5.738,3.396
	c1.555,1.179,2.682,2.354,3.453,3.178C185.844,165.834,186.215,166.365,186.215,166.365z"/>
<path fill="#CCB097" d="M179.215,171.935c0,0-15.25,7.19-24.5-1.81C154.715,170.125,165.465,187.495,179.215,171.935z"/>
<path fill="#CCB097" d="M188.615,151.905c1.221,2.917,2.094,5.974,2.76,9.067c0.314,1.551,0.607,3.11,0.791,4.685
	c0.113,0.785,0.205,1.572,0.254,2.364c0.053,0.791,0.148,1.58,0.166,2.374c0.041,1.586,0.074,3.175-0.037,4.761
	c-0.023,1.591-0.279,3.164-0.443,4.746c-0.107,0.787-0.285,1.563-0.426,2.347c-0.156,0.779-0.27,1.57-0.508,2.331
	c-0.426,1.533-0.799,3.085-1.404,4.562l-0.83,2.24l-0.912,2.187l-1.82,4.373c-0.596,1.46-1.186,2.923-1.727,4.396
	c-0.523,1.471-1.072,2.973-1.26,4.447c-0.078,0.734-0.01,1.432,0.459,1.752c0.479,0.354,1.27,0.471,2.023,0.555l0.58,0.059
	c0.148,0.018,0.381,0.018,0.568,0.027c0.389,0.004,0.801,0.051,1.172,0.021l1.154-0.053l0.604-0.033l0.645,0.025
	c0.215-0.01,0.434,0.055,0.652,0.111c0.211,0.066,0.453,0.082,0.637,0.201c0.375,0.215,0.811,0.385,1.105,0.672
	c0.68,0.508,1.232,1.096,1.789,1.682c0.529,0.543,1.1,1.158,1.654,1.576c0.293,0.201,0.596,0.432,0.91,0.557
	c0.156,0.086,0.311,0.123,0.463,0.17c0.131,0.037,0.338,0.035,0.334,0.041l0.143-0.021h1.623l0.143,0.02
	c-0.006-0.006,0.203-0.002,0.332-0.041c0.152-0.047,0.307-0.082,0.463-0.17c0.316-0.125,0.615-0.352,0.912-0.557
	c0.6-0.461,1.082-0.992,1.662-1.586l0.824-0.852c0.264-0.285,0.635-0.545,0.951-0.816c0.303-0.293,0.734-0.459,1.109-0.676
	c0.186-0.117,0.426-0.133,0.637-0.201c0.219-0.055,0.439-0.119,0.652-0.111l0.646-0.023l0.602,0.031l1.172,0.055
	c0.771,0.002,1.521-0.018,2.305-0.107c0.752-0.084,1.545-0.203,2.021-0.555c0.469-0.32,0.539-1.018,0.459-1.752
	c-0.188-1.475-0.736-2.977-1.26-4.447c-0.541-1.473-1.129-2.936-1.727-4.396l-1.82-4.372l-0.912-2.187l-0.83-2.238
	c-0.598-1.457-0.977-3.023-1.404-4.562c-0.24-0.766-0.354-1.554-0.51-2.334c-0.139-0.783-0.318-1.56-0.426-2.347
	c-0.162-1.582-0.418-3.155-0.441-4.746c-0.111-1.586-0.078-3.175-0.037-4.761c0.016-0.794,0.113-1.583,0.166-2.374
	c0.049-0.792,0.141-1.579,0.254-2.364c0.184-1.574,0.477-3.134,0.791-4.686c0.666-3.094,1.539-6.15,2.76-9.066
	c-1.145,2.946-1.938,6.018-2.523,9.114c-0.273,1.553-0.523,3.11-0.666,4.68c-0.094,0.782-0.166,1.565-0.193,2.354
	c-0.031,0.786-0.107,1.571-0.104,2.357l-0.002,2.359c-0.01,0.786,0.078,1.57,0.113,2.354c0.045,1.574,0.32,3.125,0.504,4.684
	c0.117,0.775,0.305,1.539,0.453,2.31c0.166,0.767,0.289,1.545,0.533,2.287c0.441,1.499,0.822,3.007,1.447,4.472l0.848,2.195
	l0.945,2.174l1.852,4.369c0.605,1.462,1.205,2.929,1.76,4.419c0.537,1.498,1.105,2.986,1.33,4.652
	c0.047,0.42,0.061,0.861-0.031,1.326c-0.086,0.461-0.363,0.957-0.77,1.254c-0.824,0.58-1.684,0.639-2.479,0.75
	c-0.785,0.094-1.621,0.125-2.426,0.123l-1.197-0.047l-0.58-0.029l-0.539,0.023c-0.186-0.01-0.346,0.047-0.51,0.09
	c-0.16,0.057-0.338,0.051-0.486,0.154c-0.299,0.189-0.633,0.295-0.902,0.561c-0.277,0.248-0.57,0.434-0.842,0.729l-0.82,0.855
	c-0.523,0.539-1.104,1.184-1.762,1.688c-0.348,0.244-0.684,0.502-1.102,0.678c-0.193,0.105-0.422,0.17-0.648,0.234
	c-0.254,0.047-0.445,0.104-0.84,0.029l0.143,0.02h-1.623l0.141-0.021c-0.395,0.076-0.586,0.018-0.84-0.027
	c-0.227-0.064-0.455-0.131-0.646-0.234c-0.418-0.178-0.752-0.432-1.104-0.68c-0.703-0.547-1.195-1.107-1.77-1.695
	c-0.529-0.564-1.059-1.129-1.648-1.57c-0.277-0.273-0.607-0.375-0.906-0.566c-0.15-0.102-0.326-0.096-0.486-0.152
	c-0.164-0.043-0.324-0.102-0.51-0.092c-0.693-0.066-1.508,0.053-2.334,0.055c-0.418,0.025-0.795-0.021-1.195-0.029
	c-0.207-0.012-0.371-0.008-0.615-0.033l-0.6-0.061c-0.793-0.113-1.652-0.172-2.477-0.75c-0.406-0.297-0.684-0.793-0.77-1.254
	c-0.092-0.465-0.078-0.906-0.031-1.326c0.225-1.666,0.793-3.152,1.33-4.652c0.555-1.49,1.154-2.957,1.76-4.419l1.854-4.368
	l0.943-2.175l0.848-2.192c0.617-1.444,1.004-2.966,1.447-4.471c0.246-0.747,0.367-1.524,0.533-2.291
	c0.148-0.77,0.336-1.534,0.453-2.31c0.184-1.559,0.459-3.109,0.504-4.684c0.035-0.784,0.123-1.568,0.113-2.354l-0.002-2.359
	c0.006-0.786-0.072-1.571-0.104-2.357c-0.027-0.788-0.1-1.571-0.193-2.354c-0.143-1.569-0.393-3.127-0.666-4.68
	C190.555,157.922,189.762,154.851,188.615,151.905z"/>
<path fill="#D1A88B" d="M225.746,235.375c0,0-13.635-5.5-18.318-5.5c-4.682,0-5.932,2.75-8.432,2.75h-0.25
	c-2.5,0-3.75-2.75-8.434-2.75c-4.682,0-18.316,5.5-18.316,5.5H225.746z"/>
<path fill="#D7B297" d="M171.121,235.375c0,0,13.875,12.125,27.75,12.125s26.875-12.125,26.875-12.125H171.121z"/>
<path fill="#CCB097" d="M182.734,203.006c0,0-0.264,0.275-0.699,0.771c-0.219,0.248-0.5,0.529-0.789,0.889
	c-0.293,0.354-0.623,0.752-0.994,1.174c-0.369,0.426-0.729,0.922-1.141,1.416c-0.4,0.504-0.844,1.018-1.252,1.59
	c-0.42,0.562-0.854,1.143-1.295,1.732c-0.465,0.572-0.854,1.215-1.277,1.83c-0.428,0.615-0.854,1.23-1.273,1.836
	c-0.4,0.615-0.77,1.24-1.141,1.836c-0.373,0.596-0.734,1.17-1.078,1.717c-0.363,0.535-0.627,1.084-0.906,1.574
	c-0.539,0.988-1.029,1.797-1.354,2.371c-0.336,0.572-0.539,0.895-0.539,0.895s0.123-0.357,0.361-0.975
	c0.248-0.611,0.576-1.502,1.02-2.551c0.227-0.523,0.434-1.109,0.764-1.674c0.309-0.574,0.637-1.18,0.975-1.805
	c0.355-0.617,0.678-1.283,1.086-1.91c0.416-0.621,0.84-1.252,1.264-1.885c0.441-0.619,0.846-1.264,1.328-1.838
	c0.471-0.58,0.936-1.152,1.385-1.707c0.434-0.564,0.93-1.047,1.373-1.527c0.449-0.473,0.865-0.928,1.283-1.314
	c0.832-0.781,1.547-1.404,2.07-1.816C182.416,203.213,182.734,203.006,182.734,203.006z"/>
<path fill="#CCB097" d="M214.996,203.006c0,0,0.318,0.207,0.83,0.629c0.521,0.412,1.238,1.035,2.068,1.816
	c0.42,0.387,0.834,0.842,1.285,1.314c0.441,0.48,0.939,0.963,1.373,1.527c0.449,0.555,0.912,1.127,1.385,1.707
	c0.48,0.574,0.887,1.219,1.326,1.838c0.424,0.633,0.848,1.264,1.266,1.885c0.406,0.627,0.73,1.293,1.084,1.91
	c0.34,0.625,0.666,1.23,0.977,1.805c0.328,0.564,0.537,1.15,0.764,1.674c0.443,1.049,0.771,1.939,1.02,2.551
	c0.238,0.617,0.361,0.975,0.361,0.975s-0.205-0.322-0.539-0.895c-0.326-0.574-0.816-1.383-1.355-2.371
	c-0.279-0.49-0.543-1.039-0.906-1.574c-0.342-0.547-0.703-1.121-1.078-1.717c-0.371-0.596-0.738-1.221-1.141-1.836
	c-0.42-0.605-0.846-1.221-1.271-1.836c-0.424-0.615-0.812-1.258-1.279-1.83c-0.439-0.59-0.875-1.17-1.295-1.732
	c-0.408-0.572-0.85-1.086-1.25-1.59c-0.412-0.494-0.773-0.99-1.143-1.416c-0.371-0.422-0.701-0.82-0.994-1.174
	c-0.287-0.359-0.568-0.641-0.787-0.889C215.258,203.281,214.996,203.006,214.996,203.006z"/>
<path fill="#CCB097" d="M166.965,119.209c0,0,3.701,0.602,9.254,1.506c2.771,0.477,6.016,0.948,9.482,1.508
	c1.736,0.251,3.529,0.511,5.352,0.775c0.914,0.105,1.834,0.212,2.758,0.319c0.924,0.114,1.852,0.222,2.773,0.249
	c0.912,0.036,1.865,0.177,2.744,0.132c0.932-0.054,1.859-0.108,2.781-0.162c1.812-0.243,3.586-0.424,5.314-0.74
	c1.725-0.31,3.402-0.552,4.982-0.862c1.582-0.293,3.078-0.564,4.453-0.854c5.512-1.123,9.186-1.871,9.186-1.871
	s-0.9,0.259-2.479,0.712c-1.586,0.422-3.844,1.065-6.586,1.708c-1.365,0.341-2.855,0.668-4.432,1.02
	c-1.57,0.369-3.246,0.688-4.979,1.003c-1.727,0.338-3.568,0.551-5.41,0.817c-0.92,0.064-1.85,0.13-2.779,0.195
	c-0.986,0.058-1.904-0.07-2.863-0.101c-0.953-0.041-1.887-0.161-2.816-0.287c-0.93-0.12-1.855-0.238-2.775-0.356
	c-1.826-0.287-3.623-0.569-5.363-0.843c-3.469-0.599-6.688-1.253-9.445-1.812c-2.76-0.559-5.043-1.098-6.645-1.457
	C167.877,119.427,166.965,119.209,166.965,119.209z"/>
<path fill="#42408C" d="M384.152,397.403h-4v-10.508c-3.42-41.918-28.369-54.313-29.43-54.821l-93.193-39.025l1.545-3.689
	l93.283,39.066c2.965,1.414,28.27,14.728,31.789,58.228l0.006,0.162V397.403z M16.213,396.815h-4l0.006-10.162
	c3.594-44.424,30.52-57.632,31.664-58.173l93.408-39.121l1.545,3.689L45.51,332.133c-0.977,0.465-25.865,12.683-29.297,54.763
	V396.815z"/>
</svg>
