<?xml version="1.0" encoding="utf-8"?>
<!-- Generator: Adobe Illustrator 16.0.0, SVG Export Plug-In . SVG Version: 6.00 Build 0)  -->
<!DOCTYPE svg PUBLIC "-//W3C//DTD SVG 1.1//EN" "http://www.w3.org/Graphics/SVG/1.1/DTD/svg11.dtd">
<svg version="1.1" id="Layer_1" xmlns="http://www.w3.org/2000/svg" xmlns:xlink="http://www.w3.org/1999/xlink" x="0px" y="0px"
	 width="396.85px" height="396.851px" viewBox="0 0 396.85 396.851" enable-background="new 0 0 396.85 396.851"
	 xml:space="preserve">
	<defs>
	    <clipPath id="circle-clip">
	        <circle stroke="#000000" stroke-miterlimit="10" cx="200" cy="200" r="175" />
	    </clipPath>
	</defs>
<g>
	<rect width="400" height="400" class="player-bg" fill="rgba(0,0,0,0)"/>
	<g>
		<rect x="145.636" y="223.262" fill="#78584E" width="104.19" height="113.471"/>
	</g>
	<g>
		<path fill="#6F4E43" d="M241.309,255.805c0,0-20.995,40.887-35.144,40.887h-11.034c-14.149,0-35.134-40.276-35.134-40.276
			L241.309,255.805z"/>
	</g>
	<g>
		<path fill="#78584E" d="M180.1,69.512c-62.417,14.75-45.198,94.75-45.198,94.75s1.913,62.334,12.436,80
			c10.521,17.666,31.25,40,49.424,40h1.97c18.175,0,38.901-22.334,49.423-40c10.522-17.666,12.436-80,12.436-80
			s17.219-80-45.198-94.75c0,0-9.939-3.25-17.831-3.25C189.667,66.262,180.1,69.512,180.1,69.512z"/>
	</g>
	<g>
		<ellipse fill="#7E6055" cx="197.884" cy="262.928" rx="14.167" ry="6.666"/>
	</g>
	<g>
		<path fill="#78584E" d="M260.527,168.762c0,0,7.771-11.002,13.021,0c5.847,12.251-3.617,55.845-16.76,41.535l-3.74-5.535
			l4.5-34.75L260.527,168.762z"/>
	</g>
	<g>
		<path fill="#78584E" d="M134.684,168.762c0,0-7.773-11.002-13.023,0c-5.847,12.251,3.617,55.845,16.76,41.535l3.74-5.535
			l-4.5-34.75L134.684,168.762z"/>
	</g>
	<g>
		<path fill="#231F20" d="M213.717,167.762c0,0,0.34-0.372,1.004-0.953c0.674-0.564,1.639-1.388,2.926-2.194
			c1.283-0.806,2.834-1.693,4.624-2.372c0.89-0.349,1.835-0.649,2.813-0.89c0.982-0.22,1.992-0.415,3.018-0.496
			c1.022-0.093,2.054-0.082,3.062-0.017c1.01,0.084,1.995,0.247,2.927,0.487c0.936,0.223,1.812,0.543,2.617,0.892
			c0.812,0.338,1.535,0.741,2.203,1.108c0.645,0.406,1.241,0.769,1.72,1.16c0.479,0.389,0.922,0.69,1.239,1
			c0.646,0.599,1.015,0.94,1.015,0.94s-0.412-0.286-1.133-0.786c-0.346-0.269-0.818-0.519-1.328-0.845
			c-0.511-0.326-1.135-0.613-1.78-0.975c-0.674-0.312-1.399-0.653-2.202-0.924c-0.795-0.282-1.653-0.521-2.55-0.714
			c-0.895-0.204-1.838-0.302-2.794-0.382c-0.959-0.051-1.938-0.049-2.91,0.05c-0.976,0.064-1.941,0.24-2.885,0.439
			c-0.938,0.227-1.862,0.462-2.731,0.774c-1.748,0.597-3.333,1.313-4.64,2.03c-1.308,0.714-2.373,1.367-3.093,1.865
			C214.115,167.455,213.717,167.762,213.717,167.762z"/>
	</g>
	<g>
		<circle fill="#231F20" cx="228.642" cy="165.858" r="4.263"/>
	</g>
	<g>
		<circle fill="#231F20" cx="167.017" cy="165.858" r="4.264"/>
	</g>
	<g opacity="0.6">
		<path fill="#231F20" d="M209.885,158.762c0,0-0.944-7.328,7.166-8.334c14.587-1.81,27.364-3.772,33,8.834
			c3.614,8.084,0.334-2.102-15.5-3.385C218.717,154.596,214.551,157.096,209.885,158.762z"/>
	</g>
	<g opacity="0.6">
		<path fill="#231F20" d="M185.35,158.762c0,0,0.944-7.328-7.166-8.334c-14.587-1.81-27.364-3.772-33,8.834
			c-3.614,8.084-0.334-2.102,15.5-3.385C176.518,154.596,180.684,157.096,185.35,158.762z"/>
	</g>
	<g>
		<ellipse fill="#231F20" cx="185.467" cy="202.033" rx="4.25" ry="1.604"/>
	</g>
	<g>
		<ellipse fill="#231F20" cx="210.846" cy="202.033" rx="4.25" ry="1.604"/>
	</g>
	<g>
		<path fill="#7E6055" d="M190.66,192.762c0.82-4.9,4.07-8.875,7.258-8.875c3.189,0,6.498,3.975,7.391,8.875
			c0.893,4.902-2.357,8.875-7.258,8.875C193.148,201.637,189.84,197.664,190.66,192.762z"/>
	</g>
	<g>
		<path fill="#231F20" d="M197.732,223.15"/>
	</g>
	<g>
		<path fill="#7E6055" d="M212.197,141.049c27.98,0,37.52,10.527,37.52,10.527s-18.5-6.332-50.5-3h-2.5c-32-3.332-50.5,3-50.5,3
			s9.539-10.527,37.52-10.527H212.197z"/>
	</g>
	<g opacity="0.6">
		<path fill="#3A2827" d="M215.668,69.512c0,0-9.974-3.25-17.892-3.25c-7.92,0-17.518,3.25-17.518,3.25
			c-62.627,14.75-45.351,94.75-45.351,94.75s0.058,1.883,0.21,5.084l2.297,0.666c0,0-15.277-81,58.441-81h4.016
			c70.025,0,58.439,81,58.439,81l2.298-0.666l0.212-0.283c0.141-3.025,0.195-4.801,0.195-4.801S278.292,84.262,215.668,69.512z"/>
	</g>
	<g>
		<path fill="#231F20" d="M182.518,167.762c0,0-0.34-0.372-1.004-0.953c-0.674-0.564-1.639-1.388-2.926-2.194
			c-1.283-0.806-2.834-1.693-4.624-2.372c-0.89-0.349-1.835-0.649-2.813-0.89c-0.982-0.22-1.992-0.415-3.018-0.496
			c-1.022-0.093-2.054-0.082-3.062-0.017c-1.01,0.084-1.995,0.247-2.927,0.487c-0.936,0.223-1.812,0.543-2.617,0.892
			c-0.812,0.338-1.535,0.741-2.203,1.108c-0.645,0.406-1.241,0.769-1.72,1.16c-0.479,0.389-0.922,0.69-1.239,1
			c-0.646,0.599-1.015,0.94-1.015,0.94s0.412-0.286,1.133-0.786c0.346-0.269,0.818-0.519,1.328-0.845
			c0.511-0.326,1.135-0.613,1.78-0.975c0.674-0.312,1.399-0.653,2.202-0.924c0.795-0.282,1.653-0.521,2.55-0.714
			c0.895-0.204,1.838-0.302,2.794-0.382c0.959-0.051,1.938-0.049,2.91,0.05c0.976,0.064,1.941,0.24,2.885,0.439
			c0.938,0.227,1.862,0.462,2.731,0.774c1.748,0.597,3.333,1.313,4.64,2.03c1.308,0.714,2.373,1.367,3.093,1.865
			C182.119,167.455,182.518,167.762,182.518,167.762z"/>
	</g>
	<g>
		<path fill="#231F20" d="M231.643,70.418l-1.434-2.641c-1.049-1.934-3.096-4.867-4.547-6.521l-0.277-0.316
			c-1.451-1.654-3.801-1.631-5.221,0.049l-1.031,1.219c-1.42,1.68-3.504,1.51-4.631-0.381l-2.609-4.379
			c-0.312-0.523-0.668-0.881-1.039-1.102c0.684-0.332,1.158-1.027,1.158-1.838c0-1.129-0.916-2.047-2.045-2.047
			s-2.045,0.918-2.045,2.047c0,0.838,0.506,1.559,1.229,1.875c-0.379,0.252-0.729,0.654-1.008,1.248l-1.889,4.012
			c-0.938,1.99-2.898,2.273-4.361,0.629l-4.686-5.27c-0.354-0.398-0.752-0.688-1.168-0.875c0.488-0.375,0.807-0.957,0.807-1.619
			c0-1.129-0.916-2.047-2.045-2.047c-1.131,0-2.047,0.918-2.047,2.047c0,0.697,0.352,1.312,0.885,1.682
			c-0.482,0.248-0.928,0.625-1.283,1.166l-3.982,6.066c-1.209,1.838-2.969,1.717-3.914-0.27l-1.305-2.744
			c-0.336-0.707-0.801-1.186-1.322-1.445c0.674-0.334,1.141-1.023,1.141-1.826c0-1.129-0.916-2.047-2.047-2.047
			c-1.129,0-2.045,0.918-2.045,2.047c0,0.787,0.449,1.463,1.102,1.807c-0.396,0.18-0.785,0.477-1.141,0.895l-1.33,1.559
			c-1.428,1.674-4.381,3.268-6.564,3.543l-4.891,0.617c-2.182,0.273-4.1,2.295-4.262,4.488l-0.08,1.098
			c-0.162,2.193-0.293,5.789-0.293,7.988v16.145c0,2.199,1.521,3.039,3.383,1.865c0,0,33.246-20.982,68.746,2.135V77.934
			C233.551,75.732,232.691,72.352,231.643,70.418z"/>
	</g>
	<g>
		<circle fill="#E3E6E6" cx="263.719" cy="203.552" r="3.519"/>
	</g>
	<g>
		<circle fill="#E3E6E6" cx="132.104" cy="203.552" r="3.519"/>
	</g>
	<g>
		<circle fill="#E3E6E6" cx="125.567" cy="197.04" r="3.519"/>
	</g>
	<g opacity="0.6">
		<g>
			<path fill="#3A2827" d="M208.114,179.747c0,0,0.851,1.286,2.51,3.409c0.824,1.067,1.825,2.363,2.974,3.85
				c1.132,1.5,2.399,3.211,3.58,5.22c1.148,2.003,2.377,4.315,2.586,7.091c0.111,1.375-0.213,2.864-1.01,4.118
				c-0.764,1.268-2.084,2.183-3.271,2.925c-1.281,0.755-2.689,1.416-4.235,1.668c-1.542,0.263-3.203,0.054-4.661-0.59
				c-0.733-0.313-1.411-0.73-2.059-1.139c-0.323-0.205-0.64-0.405-0.925-0.538c-0.07-0.033-0.112-0.029-0.167-0.054l-0.039-0.015
				c0.141,0.004,0.019,0.002,0.041,0.003l-0.036,0.003l-0.144,0.008c-0.194,0.008-0.398,0.015-0.498,0.084
				c-1.122,0.373-2.487,1.733-4.312,1.757c-0.818-0.01-1.742-0.354-2.421-0.742c-0.698-0.389-1.328-0.839-1.938-1.024
				c-0.155-0.073-0.294-0.063-0.433-0.072l-0.104-0.01l-0.026-0.003c0.021-0.006-0.084,0.01,0.04-0.015l-0.068,0.02
				c-0.086,0.028-0.2,0.048-0.262,0.082c-0.195,0.105-0.553,0.312-0.867,0.518c-0.646,0.408-1.325,0.825-2.058,1.139
				c-1.458,0.644-3.12,0.853-4.662,0.59c-1.551-0.254-2.949-0.912-4.224-1.66l-0.924-0.606l-0.229-0.15l-0.058-0.038l-0.072-0.054
				l-0.104-0.084l-0.416-0.334c-0.278-0.205-0.545-0.521-0.812-0.776c-0.237-0.29-0.472-0.577-0.67-0.89
				c-0.797-1.254-1.122-2.744-1.011-4.119c0.21-2.776,1.438-5.089,2.588-7.091c1.181-2.01,2.447-3.721,3.58-5.22
				c1.148-1.486,2.15-2.782,2.975-3.85c1.659-2.123,2.51-3.409,2.51-3.409s-0.776,1.335-2.354,3.525
				c-0.784,1.096-1.737,2.426-2.83,3.952c-1.071,1.537-2.266,3.284-3.393,5.28c-1.091,1.989-2.219,4.294-2.348,6.847
				c-0.072,1.266,0.251,2.553,0.969,3.636c0.705,1.092,1.833,1.896,3.045,2.638c1.212,0.699,2.521,1.298,3.918,1.515
				c1.391,0.222,2.831,0.031,4.146-0.556c0.661-0.289,1.282-0.676,1.923-1.086c0.33-0.204,0.614-0.416,1.112-0.638
				c0.11-0.048,0.188-0.059,0.285-0.09l0.069-0.021c0.147-0.025,0.066-0.007,0.111-0.012l0.045,0.001l0.183,0.006
				c0.245,0.008,0.492,0.021,0.694,0.106c0.862,0.268,1.495,0.747,2.145,1.091c0.666,0.354,1.211,0.568,1.945,0.606
				c0.657-0.022,1.3-0.252,1.946-0.605c0.67-0.349,1.236-0.812,2.19-1.102c0.258-0.091,0.439-0.086,0.629-0.096l0.144-0.007
				l0.036-0.002c0.046,0.001-0.053-0.005,0.112,0.002l0.099,0.024c0.127,0.035,0.277,0.07,0.379,0.119
				c0.408,0.193,0.734,0.412,1.054,0.616c0.641,0.41,1.263,0.797,1.924,1.086c1.314,0.587,2.755,0.778,4.146,0.556
				c1.4-0.219,2.701-0.814,3.905-1.508c0.614-0.405,1.217-0.752,1.721-1.188c0.521-0.43,0.97-0.92,1.337-1.456
				c0.719-1.084,1.042-2.371,0.97-3.637c-0.128-2.553-1.257-4.858-2.348-6.847c-1.127-1.996-2.321-3.744-3.394-5.281
				c-1.093-1.525-2.045-2.856-2.829-3.952C208.891,181.082,208.114,179.747,208.114,179.747z"/>
		</g>
	</g>
	<g>
		<path fill="#7E6055" d="M162.753,203.552c0,0-0.872,0.319-2.343,0.999c-1.468,0.674-3.537,1.736-5.77,3.344
			c-1.111,0.805-2.235,1.791-3.216,2.99c-0.964,1.203-1.733,2.676-1.918,4.302c-0.172,1.626,0.308,3.332,1.229,4.823
			c0.472,0.781,0.946,1.569,1.423,2.359c0.472,0.795,0.947,1.592,1.492,2.33c1.05,1.511,2.026,3.062,3.117,4.521
			c1.085,1.462,2.133,2.915,3.184,4.295c1.074,1.362,2.084,2.702,3.047,3.97c0.985,1.25,1.917,2.432,2.777,3.522
			c3.477,4.341,5.794,7.234,5.794,7.234s-0.635-0.676-1.747-1.859c-0.545-0.601-1.208-1.33-1.968-2.168
			c-0.753-0.844-1.622-1.779-2.513-2.848c-1.813-2.111-3.918-4.588-6.076-7.321c-1.072-1.372-2.144-2.819-3.252-4.274
			c-1.112-1.451-2.137-3.026-3.216-4.55c-0.546-0.764-1.011-1.565-1.472-2.364c-0.468-0.796-0.933-1.59-1.395-2.376
			c-0.974-1.618-1.506-3.547-1.285-5.393c0.216-1.854,1.158-3.437,2.22-4.669c1.085-1.23,2.284-2.201,3.452-2.984
			c2.34-1.57,4.511-2.46,6.017-3.063C161.854,203.787,162.753,203.552,162.753,203.552z"/>
	</g>
	<g>
		<path fill="#7E6055" d="M233.843,203.552c0,0,0.899,0.235,2.418,0.82c1.506,0.604,3.677,1.493,6.017,3.063
			c1.168,0.783,2.367,1.754,3.452,2.984c1.062,1.232,2.004,2.814,2.22,4.669c0.221,1.846-0.312,3.774-1.285,5.393
			c-0.462,0.786-0.927,1.58-1.395,2.376c-0.461,0.799-0.926,1.601-1.472,2.364c-1.079,1.523-2.104,3.099-3.216,4.55
			c-1.108,1.455-2.18,2.902-3.252,4.274c-2.158,2.733-4.263,5.21-6.076,7.321c-0.891,1.068-1.76,2.004-2.513,2.848
			c-0.76,0.838-1.423,1.567-1.968,2.168c-1.112,1.184-1.747,1.859-1.747,1.859s2.317-2.894,5.794-7.234
			c0.86-1.091,1.792-2.272,2.777-3.522c0.963-1.268,1.973-2.607,3.047-3.97c1.051-1.38,2.099-2.833,3.184-4.295
			c1.091-1.459,2.067-3.011,3.117-4.521c0.545-0.738,1.021-1.535,1.492-2.33c0.477-0.79,0.951-1.578,1.423-2.359
			c0.921-1.491,1.4-3.197,1.229-4.823c-0.185-1.626-0.954-3.099-1.918-4.302c-0.98-1.199-2.104-2.186-3.216-2.99
			c-2.232-1.607-4.302-2.67-5.77-3.344C234.715,203.871,233.843,203.552,233.843,203.552z"/>
	</g>
	<g opacity="0.3">
		<path fill="#9D6167" d="M161.422,219.801c0,0,29.96,1.417,36.064,6.096c0,0,9.459-4.887,33.131-2.635
			C230.617,223.262,195.761,239.39,161.422,219.801z"/>
	</g>
	<g opacity="0.2">
		<path fill="#9D6167" d="M162.753,220.539c0,0,14.722,23.223,33.933,25.002c23.608,2.187,33.932-22.279,33.932-22.279
			s-12.98,14.647-32.17,14.647S162.753,220.539,162.753,220.539z"/>
	</g>
	<g>
		<path fill="#FFFFFF" d="M168.306,223.262c0,0,15.909,10.963,28.38,10.963s27.693-8.328,27.693-8.328
			S196.686,235.225,168.306,223.262z"/>
	</g>
	<g>
		<path fill="#7E6055" d="M224.379,172.241c0,0,14.503,6.762,23.19-2.119C247.569,170.122,232.167,172.574,224.379,172.241z"/>
	</g>
	<g>
		<path fill="#7E6055" d="M170.57,172.241c0,0-14.503,6.762-23.19-2.119C147.38,170.122,162.782,172.574,170.57,172.241z"/>
	</g>
	<g>
		<path fill="#CD2422" d="M198.454,334.969c-52.613,0-52.119-49.037-52.119-49.037L40.929,330.073c0,0-32.731,14.384-36.563,65.693
			h387.998c-3.832-51.31-36.562-65.693-36.562-65.693l-105.406-44.142c0,0,0.494,49.037-52.119,49.037"/>
	</g>
	<g>
		<defs>
			<path id="SVGID_1_" d="M409.923,405.884v-75.703l-141.914-44.142c0,0,0.666,49.037-70.17,49.037
				c-70.84,0-70.174-49.037-70.174-49.037L-9.884,326.848v79.03"/>
		</defs>
		<clipPath id="SVGID_2_">
			<use xlink:href="#SVGID_1_"  overflow="visible"/>
		</clipPath>
		<g clip-path="url(#SVGID_2_)">
			<path fill="#FFFFFF" d="M123.688,294.816c0,0,0.402,1.424,1.279,3.916c0.872,2.484,2.211,6.015,4.066,10.145
				c1.847,4.135,4.229,8.859,7.128,13.726c1.473,2.417,3.041,4.889,4.77,7.309c1.734,2.412,3.557,4.826,5.543,7.102
				c0.961,1.167,2.015,2.249,3.026,3.363c1.065,1.06,2.089,2.159,3.195,3.151c0.548,0.504,1.093,1.005,1.636,1.503
				c0.562,0.476,1.123,0.947,1.681,1.417c1.098,0.962,2.276,1.791,3.399,2.656c1.15,0.824,2.309,1.601,3.451,2.345
				c1.181,0.681,2.291,1.433,3.455,2.012c2.282,1.256,4.539,2.211,6.641,3.114c4.166,1.861,7.429,3.953,9.231,5.936
				c0.911,0.978,1.401,1.938,1.593,2.622c0.088,0.345,0.137,0.615,0.138,0.8c0.011,0.184,0.017,0.278,0.017,0.278
				s-0.008-0.095-0.022-0.278c-0.005-0.184-0.059-0.452-0.153-0.794c-0.205-0.677-0.71-1.618-1.634-2.569
				c-1.827-1.93-5.116-3.943-9.293-5.707c-2.101-0.852-4.414-1.776-6.733-2.991c-1.186-0.561-2.318-1.293-3.525-1.957
				c-1.167-0.726-2.353-1.485-3.531-2.294c-1.15-0.85-2.359-1.663-3.487-2.611c-0.572-0.463-1.148-0.928-1.728-1.396
				c-0.559-0.492-1.12-0.987-1.684-1.484c-1.139-0.98-2.195-2.068-3.295-3.119c-1.045-1.104-2.134-2.178-3.129-3.336
				c-2.056-2.26-3.948-4.66-5.752-7.064c-1.797-2.41-3.434-4.877-4.975-7.29c-3.031-4.859-5.54-9.589-7.494-13.733
				c-1.964-4.143-3.395-7.689-4.334-10.199c-0.939-2.502-1.396-3.994-1.396-3.994L123.688,294.816z"/>
		</g>
		<g clip-path="url(#SVGID_2_)">
			<path fill="#FFFFFF" d="M272.731,295.391c0,0-0.456,1.492-1.396,3.994c-0.939,2.51-2.37,6.057-4.334,10.199
				c-1.954,4.145-4.463,8.874-7.494,13.733c-1.541,2.413-3.178,4.88-4.975,7.29c-1.804,2.404-3.696,4.805-5.752,7.064
				c-0.995,1.158-2.084,2.232-3.129,3.336c-1.1,1.051-2.156,2.139-3.295,3.119c-0.563,0.497-1.125,0.992-1.684,1.484
				c-0.579,0.469-1.155,0.934-1.728,1.396c-1.128,0.948-2.337,1.762-3.487,2.611c-1.179,0.809-2.364,1.568-3.531,2.294
				c-1.207,0.664-2.34,1.396-3.525,1.957c-2.319,1.215-4.633,2.14-6.733,2.991c-4.177,1.764-7.466,3.777-9.293,5.707
				c-0.924,0.951-1.429,1.893-1.634,2.569c-0.095,0.342-0.148,0.61-0.153,0.794c-0.015,0.184-0.022,0.278-0.022,0.278
				s0.006-0.095,0.017-0.278c0.001-0.185,0.05-0.455,0.138-0.8c0.191-0.685,0.682-1.645,1.593-2.622
				c1.803-1.982,5.065-4.074,9.231-5.936c2.102-0.903,4.358-1.858,6.641-3.114c1.164-0.579,2.274-1.331,3.455-2.012
				c1.143-0.744,2.301-1.521,3.451-2.345c1.123-0.865,2.302-1.694,3.399-2.656c0.558-0.47,1.118-0.941,1.681-1.417
				c0.543-0.498,1.088-0.999,1.636-1.503c1.106-0.992,2.13-2.092,3.195-3.151c1.012-1.114,2.065-2.196,3.026-3.363
				c1.986-2.275,3.809-4.689,5.543-7.102c1.729-2.42,3.297-4.892,4.77-7.309c2.898-4.866,5.281-9.591,7.128-13.726
				c1.855-4.13,3.194-7.66,4.066-10.145c0.877-2.492,1.279-3.916,1.279-3.916L272.731,295.391z"/>
		</g>
		<g clip-path="url(#SVGID_2_)">
			<path fill="#FFFFFF" d="M365.59,395.767h-2c0-28.024-7.234-38.195-7.308-38.295l-0.135-0.25
				c-5.514-15.038-39.621-25.731-57.944-31.476c-5.627-1.765-9.692-3.039-11.564-3.975c-1.689-0.845-2.77-2.187-3.209-3.986
				c-1.552-6.355,5.764-16.522,6.076-16.952l1.618,1.176c-0.071,0.098-7.085,9.846-5.751,15.303c0.298,1.22,1.005,2.093,2.16,2.671
				c1.729,0.864,5.938,2.185,11.269,3.855c18.602,5.832,53.185,16.674,59.176,32.566C358.877,357.702,365.59,368.305,365.59,395.767
				z"/>
		</g>
		<g clip-path="url(#SVGID_2_)">
			<path fill="#FFFFFF" d="M31.211,395.767h-2c0-27.462,6.713-38.064,7.612-39.362c5.991-15.893,40.574-26.734,59.176-32.566
				c5.33-1.671,9.54-2.991,11.269-3.855c1.156-0.578,1.862-1.452,2.16-2.672c1.107-4.535-3.775-12.583-5.75-15.302l1.617-1.176
				c0.312,0.43,7.628,10.597,6.076,16.952c-0.439,1.8-1.52,3.142-3.209,3.986c-1.872,0.936-5.938,2.21-11.564,3.975
				c-18.323,5.744-52.431,16.438-57.944,31.476l-0.137,0.252C38.445,357.571,31.211,367.742,31.211,395.767z"/>
		</g>
	</g>
</g>
</svg>
