<?xml version="1.0" encoding="utf-8"?>
<!-- Generator: Adobe Illustrator 16.0.0, SVG Export Plug-In . SVG Version: 6.00 Build 0)  -->
<!DOCTYPE svg PUBLIC "-//W3C//DTD SVG 1.1//EN" "http://www.w3.org/Graphics/SVG/1.1/DTD/svg11.dtd">
<svg version="1.1" id="Layer_1" xmlns="http://www.w3.org/2000/svg" xmlns:xlink="http://www.w3.org/1999/xlink" x="0px" y="0px"
	 width="396.85px" height="396.851px" viewBox="0 0 396.85 396.851" enable-background="new 0 0 396.85 396.851"
	 xml:space="preserve">
	<defs>
	    <clipPath id="circle-clip">
	        <circle stroke="#000000" stroke-miterlimit="10" cx="200" cy="200" r="175" />
	    </clipPath>
	</defs>
<g>
	<rect width="400" height="400" class="player-bg" fill="rgba(0,0,0,0)"/>
	<g>
		<rect x="147.059" y="230.188" fill="#E0C1A6" width="104.24" height="104.621"/>
	</g>
	<g>
		<path fill="#00405E" d="M199.742,325.667c52.613,0,52.119-49.037,52.119-49.037l105.406,44.142c0,0,36.928,16.228,36.928,75.697
			H5.467c0-59.47,36.928-75.697,36.928-75.697l105.406-44.142c0,0-0.494,49.037,52.119,49.037"/>
	</g>
	<g>
		<defs>
			<path id="SVGID_3_" d="M198.959,325.962c52.613,0,52.119-49.037,52.119-49.037l105.406,44.142c0,0,36.928,16.228,36.928,75.697
				H4.684c0-59.47,36.928-75.697,36.928-75.697l105.406-44.142c0,0-0.494,49.037,52.119,49.037"/>
		</defs>
		<clipPath id="SVGID_2_">
			<use xlink:href="#SVGID_3_"  overflow="visible"/>
		</clipPath>
		<g clip-path="url(#SVGID_2_)">
			<rect x="-29.355" y="247.214" fill="#30526F" width="456.807" height="25.309"/>
		</g>
		<g clip-path="url(#SVGID_2_)">
			<rect x="-29.355" y="279.966" fill="#30526F" width="456.807" height="25.309"/>
		</g>
		<g clip-path="url(#SVGID_2_)">
			<rect x="-29.355" y="312.718" fill="#30526F" width="456.807" height="25.311"/>
		</g>
		<g clip-path="url(#SVGID_2_)">
			<rect x="-29.355" y="345.472" fill="#30526F" width="456.807" height="25.311"/>
		</g>
		<g clip-path="url(#SVGID_2_)">
			<rect x="-29.355" y="378.226" fill="#30526F" width="456.807" height="25.311"/>
		</g>
	</g>
	<g>
		<path fill="#F4F6F6" d="M386.201,397.058h-4V386.55c-3.42-41.918-28.369-54.314-29.43-54.822l-93.193-39.024l1.545-3.689
			l93.283,39.065c2.965,1.415,28.27,14.729,31.789,58.229l0.006,0.161V397.058z M18.262,396.469h-4l0.006-10.161
			c3.594-44.424,30.52-57.633,31.664-58.174l93.408-39.12l1.545,3.689l-93.326,39.084c-0.977,0.464-25.864,12.682-29.297,54.763
			V396.469z"/>
	</g>
	<g>
		<path fill="#D4B69D" d="M240.766,245.319c0,0-20.895,46.152-34.639,46.152h-10.723c-13.744,0-34.639-46.152-34.639-46.152H240.766
			z"/>
	</g>
	<g>
		<path fill="#E0C1A6" d="M265.859,122.632c0,0-5.213,74.439-6.701,84.861s-5.211,34.242-24.936,49.131
			c-19.729,14.889-19.133,17.121-27.805,17.121h-12.023c-8.672,0-8.076-2.232-27.803-17.121s-23.449-38.709-24.938-49.131
			s-6.699-84.861-6.699-84.861s5.217-37.033,28.848-39.824c23.633-2.791,52.252-7.258,52.252-7.258s28.939,3.352,32.541,10.607
			C252.197,93.415,265.859,122.632,265.859,122.632z"/>
	</g>
	<g opacity="0.2">
		<defs>
			<path id="SVGID_5_" opacity="0.2" d="M266.219,122.632c0,0-5.213,74.439-6.699,84.861c-1.488,10.422-5.211,34.242-24.938,49.131
				s-19.133,17.121-27.805,17.121h-12.021c-8.672,0-8.078-2.232-27.805-17.121s-23.447-38.709-24.936-49.131
				c-1.49-10.422-6.699-84.861-6.699-84.861s5.215-37.033,28.846-39.824c23.633-2.791,52.252-7.258,52.252-7.258
				s28.939,3.352,32.541,10.607C252.557,93.415,266.219,122.632,266.219,122.632z"/>
		</defs>
		<clipPath id="SVGID_4_">
			<use xlink:href="#SVGID_5_"  overflow="visible"/>
		</clipPath>
		<g clip-path="url(#SVGID_4_)">
			<path fill="#5A5455" d="M260.941,178.788c0,0-3.783,28.705-22.609,44.691c0,0-13.076-13.848-35.197-13.848h-0.764
				c-22.121,0-39.197,13.848-39.197,13.848c-17.213-11.865-22.568-41.691-22.568-41.691l-5.289,45.199l21.213,28.057l27.637,33.588
				h43.408l22.498-32.473l19.26-62.695L260.941,178.788z"/>
		</g>
	</g>
	<g opacity="0.7">
		<path fill="#312D2E" d="M211.795,163.31c0,0-0.951-5.363,1.199-6.479c2.15-1.117,20.295-7.537,27.832-3.629
			s6.699,6.977,6.699,6.977S236.08,155.714,211.795,163.31z"/>
	</g>
	<g>
		<path fill="#221E20" d="M211.953,163.31c0,0,4.746-8.434,14.516-8.713c9.771-0.279,12.004,4.355,12.004,4.355
			S219.49,158.065,211.953,163.31z"/>
	</g>
	<g>
		<path fill="#BCA18F" d="M197.723,205.472c0,0,0.734,11.975,3.297,11.975s3.254-11.975,3.254-11.975H197.723z"/>
	</g>
	<g>
		<path fill="#645251" d="M187.545,203.565c0,0,2.342,1.318,6.297,1.906c3.957,0.586,0-3.516,0-3.516L187.545,203.565z"/>
	</g>
	<g>
		<path fill="#645251" d="M214.055,203.565c0,0-2.344,1.318-6.297,1.906c-3.957,0.586,0-3.516,0-3.516L214.055,203.565z"/>
	</g>
	<g>
		<g>
			<path fill="#E0C1A6" d="M207.242,166.88c0,0,1.537,21.309,4.176,25.262c2.635,3.957,6.15,8.131,4.393,10.547
				s-5.99-1.311-9.885,3.297c-2.396,2.832-4.395,2.832-4.395,2.832h-1.064c0,0-1.998,0-4.395-2.832
				c-3.895-4.607-8.127-0.881-9.885-3.297s1.758-6.59,4.395-10.547c2.635-3.953,4.174-25.262,4.174-25.262"/>
		</g>
		<g>
			<path fill="#CCB097" d="M207.242,166.88c0,0,0.182,1.693,0.497,4.658c0.335,2.96,0.836,7.193,1.7,12.217
				c0.22,1.255,0.467,2.559,0.787,3.889c0.32,1.317,0.672,2.725,1.312,3.939c0.705,1.213,1.668,2.416,2.522,3.693
				c0.869,1.277,1.76,2.609,2.332,4.198c0.269,0.788,0.461,1.706,0.181,2.635c-0.053,0.236-0.171,0.445-0.294,0.653l-0.092,0.156
				c-0.023,0.03,0.021-0.015-0.059,0.079l-0.025,0.028l-0.053,0.056l-0.207,0.225c-0.139,0.147-0.426,0.323-0.643,0.443
				c-0.227,0.072-0.463,0.192-0.689,0.21c-0.924,0.16-1.763,0.046-2.577,0.025c-0.813-0.033-1.607-0.009-2.364,0.169
				c-0.764,0.157-1.453,0.538-2.082,1c-0.311,0.241-0.612,0.495-0.875,0.802l-0.868,0.927c-0.558,0.624-1.321,1.233-2.075,1.698
				c-0.398,0.223-0.813,0.424-1.264,0.568c-0.232,0.062-0.461,0.127-0.719,0.155c-0.311,0.021-0.453,0.007-0.688,0.013
				c-0.226-0.003-0.399,0.008-0.666-0.01c-0.285-0.029-0.51-0.096-0.741-0.157c-0.451-0.144-0.866-0.345-1.265-0.568
				c-0.77-0.48-1.481-1.04-2.072-1.694l-0.87-0.929c-0.146-0.148-0.29-0.317-0.438-0.45l-0.444-0.357
				c-0.616-0.453-1.314-0.84-2.076-0.996c-0.756-0.178-1.55-0.202-2.363-0.17c-0.814,0.021-1.654,0.136-2.578-0.024
				c-0.227-0.019-0.462-0.138-0.689-0.21c-0.211-0.125-0.445-0.245-0.617-0.419l-0.252-0.272c-0.05-0.063-0.065-0.051-0.141-0.178
				l-0.076-0.133c-0.1-0.173-0.205-0.342-0.277-0.613c-0.299-0.979-0.094-1.862,0.172-2.661c0.572-1.589,1.461-2.923,2.33-4.2
				c0.854-1.271,1.824-2.487,2.521-3.686c0.179-0.324,0.345-0.646,0.44-0.969c0.111-0.326,0.244-0.631,0.34-0.97
				c0.185-0.678,0.395-1.336,0.533-2.007c0.32-1.33,0.568-2.635,0.789-3.889c0.862-5.023,1.365-9.257,1.699-12.217
				c0.316-2.965,0.498-4.658,0.498-4.658s-0.077,1.702-0.305,4.677c-0.254,2.971-0.559,7.225-1.338,12.29
				c-0.196,1.267-0.418,2.584-0.716,3.939c-0.128,0.681-0.329,1.363-0.505,2.061c-0.227,0.685-0.437,1.467-0.793,2.086
				c-0.75,1.344-1.652,2.502-2.482,3.8c-0.824,1.276-1.696,2.591-2.191,4.021c-0.244,0.695-0.353,1.482-0.166,2.067
				c0.012,0.13,0.115,0.312,0.224,0.489l0.075,0.133c-0.029-0.036,0.041,0.039,0.057,0.054l0.164,0.176
				c0.111,0.116,0.26,0.177,0.393,0.266c0.165,0.039,0.299,0.13,0.486,0.14c1.428,0.205,3.225-0.268,4.983,0.17
				c0.891,0.182,1.71,0.615,2.446,1.154l0.541,0.438c0.166,0.149,0.299,0.305,0.449,0.456l0.875,0.921
				c0.549,0.604,1.195,1.096,1.867,1.513c0.346,0.189,0.698,0.357,1.062,0.471c0.181,0.047,0.367,0.096,0.507,0.111
				c0.157,0.014,0.41,0.002,0.611,0.006c0.469,0.014,0.732,0.007,1.117-0.115c0.363-0.114,0.716-0.283,1.062-0.472
				c0.688-0.435,1.281-0.875,1.863-1.51l0.877-0.923c0.294-0.336,0.638-0.627,0.998-0.9c0.725-0.53,1.552-0.971,2.439-1.15
				c1.76-0.438,3.555,0.036,4.984-0.169c0.188-0.011,0.32-0.101,0.486-0.14c0.126-0.094,0.222-0.1,0.367-0.241l0.209-0.224
				l0.052-0.056l0.026-0.027c-0.061,0.075-0.008,0.005-0.018,0.015l0.061-0.109c0.084-0.143,0.174-0.283,0.206-0.449
				c0.204-0.637,0.081-1.387-0.159-2.094c-0.495-1.43-1.365-2.745-2.189-4.021c-0.827-1.294-1.737-2.465-2.479-3.794
				c-0.695-1.396-0.996-2.797-1.303-4.151c-0.297-1.355-0.52-2.673-0.716-3.939c-0.778-5.065-1.085-9.319-1.339-12.29
				C207.32,168.582,207.242,166.88,207.242,166.88z"/>
		</g>
	</g>
	<g>
		<path fill="#E0C1A6" d="M260.941,178.788c0,0,1.795-17.213,8.121-17.213s-0.637,52.688-11.484,52.584"/>
	</g>
	<g>
		<path fill="#E0C1A6" d="M139.117,178.788c0,0-1.797-17.213-8.123-17.213s0.639,52.688,11.484,52.584"/>
	</g>
	<g>
		<path fill="#FFFFFF" d="M179.016,223.966c0,0,14.369,5.861,23.025,5.861s20.801-8.494,20.801-8.494L179.016,223.966"/>
	</g>
	<g>
		<path fill="#CA8872" d="M221.863,221.333c0,0-6.42-1.834-10.041-2.535c-3.621-0.699-10.615,2.584-10.615,2.584
			s-4.188-2.441-8.934-2.582c-4.746-0.139-13.258,5.166-13.258,5.166S201.486,223.446,221.863,221.333z"/>
	</g>
	<g>
		<path fill="#CCB097" d="M211.303,171.712c0,0,6.885,12.721,22.516,16.967"/>
	</g>
	<g>
		<path fill="#B39B85" d="M184.879,251.552c0,0,0.361-0.405,1.068-1.042c0.707-0.634,1.76-1.502,3.137-2.392
			c1.371-0.898,3.068-1.825,5.021-2.547c0.979-0.354,2.014-0.679,3.1-0.892c0.543-0.108,1.102-0.168,1.657-0.253
			c0.582-0.05,1.085-0.072,1.743-0.104c0.539,0.032,1.064,0.052,1.611,0.1c0.569,0.084,1.152,0.146,1.699,0.256
			c1.087,0.209,2.122,0.538,3.1,0.891c1.955,0.721,3.652,1.648,5.021,2.547c1.378,0.89,2.43,1.759,3.138,2.393
			c0.706,0.637,1.067,1.043,1.067,1.043s-1.87-1.111-4.758-2.43c-1.448-0.646-3.155-1.337-5.021-1.881
			c-0.931-0.282-1.909-0.473-2.896-0.663c-0.49-0.087-0.969-0.123-1.457-0.192c-0.516-0.035-1.064-0.041-1.596-0.066l-1.465,0.062
			c-0.502,0.068-1.004,0.107-1.498,0.195c-0.987,0.187-1.967,0.38-2.896,0.662c-1.866,0.542-3.572,1.233-5.021,1.881
			C186.748,250.438,184.879,251.552,184.879,251.552z"/>
	</g>
	<g>
		<path fill="#00405E" d="M251.346,275.939c0,0,0.494,49.037-52.119,49.037c-52.615,0-52.121-49.037-52.121-49.037l-10.455,4.176
			c3.281,31.87,30.21,56.729,62.948,56.729c32.567,0,59.38-24.606,62.886-56.24L251.346,275.939z"/>
	</g>
	<g>
		<path fill="#33201F" d="M212.953,169.644c0,0,0.324-0.388,0.97-0.992c0.655-0.588,1.598-1.444,2.876-2.275
			c0.631-0.427,1.346-0.841,2.115-1.261c0.779-0.398,1.611-0.813,2.52-1.13c0.901-0.327,1.854-0.627,2.852-0.812
			c0.991-0.217,2.023-0.302,3.053-0.357c1.033,0.005,2.069,0.048,3.07,0.228c0.506,0.068,0.996,0.177,1.477,0.313
			c0.486,0.109,0.947,0.276,1.404,0.433c0.912,0.314,1.76,0.709,2.523,1.142c0.783,0.4,1.459,0.887,2.092,1.309
			c0.611,0.459,1.174,0.871,1.619,1.303c0.455,0.416,0.863,0.764,1.16,1.093c0.604,0.642,0.949,1.009,0.949,1.009
			s-0.393-0.314-1.078-0.863c-0.328-0.291-0.771-0.589-1.264-0.946c-0.482-0.371-1.08-0.71-1.697-1.125
			c-0.645-0.368-1.33-0.795-2.111-1.127c-0.762-0.366-1.6-0.678-2.473-0.958c-0.873-0.278-1.799-0.496-2.748-0.627
			c-0.947-0.16-1.926-0.186-2.899-0.183c-0.974,0.043-1.95,0.11-2.896,0.306c-0.946,0.172-1.87,0.404-2.745,0.695
			c-1.753,0.574-3.339,1.293-4.63,2.039c-1.297,0.735-2.343,1.423-3.045,1.946C213.34,169.318,212.953,169.644,212.953,169.644z"/>
	</g>
	<g>
		<circle fill="#332120" cx="227.49" cy="167.515" r="4.197"/>
	</g>
	<g opacity="0.7">
		<path fill="#312D2E" d="M190.062,163.31c0,0,0.951-5.363-1.201-6.479c-2.15-1.117-20.295-7.537-27.83-3.629
			c-7.537,3.908-6.701,6.977-6.701,6.977S165.777,155.714,190.062,163.31z"/>
	</g>
	<g>
		<path fill="#221E20" d="M189.902,163.31c0,0-4.746-8.434-14.516-8.713c-9.771-0.279-12.002,4.355-12.002,4.355
			S182.365,158.065,189.902,163.31z"/>
	</g>
	<g>
		<path fill="#CCB097" d="M190.553,171.712c0,0-6.883,12.721-22.516,16.967"/>
	</g>
	<g>
		<path fill="#33201F" d="M188.902,169.644c0,0-0.385-0.325-1.092-0.843c-0.703-0.523-1.75-1.211-3.046-1.946
			c-1.292-0.746-2.878-1.465-4.63-2.039c-0.875-0.291-1.799-0.523-2.746-0.695c-0.943-0.195-1.922-0.263-2.895-0.306
			c-0.973-0.003-1.951,0.022-2.898,0.183c-0.951,0.131-1.875,0.349-2.75,0.627c-0.871,0.28-1.709,0.592-2.473,0.958
			c-0.781,0.332-1.467,0.759-2.111,1.127c-0.617,0.415-1.215,0.754-1.697,1.125c-0.491,0.357-0.934,0.655-1.262,0.946
			c-0.688,0.549-1.08,0.863-1.08,0.863s0.346-0.367,0.949-1.009c0.299-0.329,0.706-0.677,1.162-1.093
			c0.443-0.432,1.007-0.844,1.617-1.303c0.633-0.422,1.309-0.908,2.092-1.309c0.766-0.433,1.613-0.827,2.523-1.142
			c0.457-0.156,0.919-0.323,1.405-0.433c0.479-0.137,0.972-0.245,1.476-0.313c1.002-0.18,2.038-0.223,3.07-0.228
			c1.031,0.056,2.062,0.141,3.054,0.357c0.997,0.186,1.95,0.485,2.853,0.812c0.908,0.316,1.739,0.731,2.519,1.13
			c0.769,0.42,1.485,0.834,2.116,1.261c1.277,0.831,2.22,1.688,2.875,2.275C188.579,169.256,188.902,169.644,188.902,169.644z"/>
	</g>
	<g>
		<circle fill="#332120" cx="174.366" cy="167.515" r="4.196"/>
	</g>
	<g>
		<path fill="#CCB097" d="M163.506,144.394c0,0,0.725-0.292,2.031-0.686c0.65-0.211,1.453-0.414,2.369-0.676
			c0.926-0.217,1.962-0.516,3.116-0.721c1.147-0.238,2.397-0.47,3.728-0.665c1.324-0.236,2.737-0.37,4.197-0.521
			c1.463-0.109,2.979-0.204,4.52-0.252c1.541,0.015,3.111-0.078,4.676,0.043c0.783,0.05,1.566,0.101,2.346,0.15
			c0.779,0.047,1.548,0.184,2.314,0.27c0.766,0.099,1.525,0.196,2.275,0.292c0.742,0.148,1.476,0.295,2.197,0.438
			c0.719,0.149,1.432,0.274,2.12,0.437c0.679,0.202,1.343,0.399,1.989,0.592c0.645,0.191,1.271,0.379,1.879,0.56
			c0.609,0.172,1.166,0.438,1.717,0.64c1.094,0.428,2.094,0.824,2.967,1.201c0.846,0.44,1.582,0.824,2.189,1.141
			c1.203,0.641,1.891,1.008,1.891,1.008s-0.719-0.303-1.976-0.833c-0.623-0.27-1.38-0.597-2.249-0.973
			c-0.895-0.301-1.906-0.642-3.008-1.013c-0.554-0.175-1.111-0.413-1.723-0.557c-0.607-0.152-1.234-0.309-1.88-0.471
			c-0.644-0.16-1.306-0.326-1.982-0.496c-0.687-0.125-1.388-0.253-2.101-0.384c-0.712-0.132-1.436-0.265-2.169-0.4
			c-0.741-0.084-1.491-0.169-2.247-0.255c-0.757-0.074-1.515-0.197-2.284-0.232c-0.769-0.039-1.54-0.078-2.312-0.117
			c-1.541-0.142-3.091-0.072-4.612-0.109c-1.521,0.026-3.021,0.098-4.469,0.185c-1.443,0.147-2.85,0.199-4.17,0.378
			c-1.326,0.136-2.574,0.311-3.723,0.498c-1.153,0.164-2.197,0.382-3.135,0.529c-0.926,0.193-1.74,0.338-2.4,0.501
			C164.258,144.186,163.506,144.394,163.506,144.394z"/>
	</g>
	<g>
		<path fill="#CCB097" d="M206.273,141.314c0,0,0.576-0.163,1.594-0.399c1.021-0.225,2.477-0.568,4.245-0.863
			c1.768-0.295,3.835-0.635,6.066-0.872c2.231-0.245,4.624-0.402,7.021-0.458c1.199-0.021,2.399-0.004,3.581,0.033
			c1.182,0.036,2.344,0.137,3.465,0.25c2.244,0.238,4.316,0.682,6.047,1.201c0.869,0.251,1.641,0.564,2.311,0.859
			c0.668,0.312,1.236,0.602,1.682,0.885c0.463,0.248,0.775,0.528,1.004,0.688c0.225,0.167,0.344,0.256,0.344,0.256
			s-0.131-0.073-0.373-0.211c-0.248-0.133-0.592-0.354-1.068-0.562c-0.461-0.235-1.047-0.467-1.725-0.71
			c-0.686-0.223-1.461-0.455-2.322-0.662c-1.719-0.425-3.771-0.692-5.979-0.867c-1.105-0.086-2.25-0.127-3.414-0.162
			c-1.164-0.025-2.349-0.029-3.533,0.002c-2.369,0.033-4.739,0.174-6.96,0.333c-2.22,0.173-4.295,0.345-6.067,0.552
			c-1.773,0.205-3.257,0.354-4.29,0.499C206.865,141.238,206.273,141.314,206.273,141.314z"/>
	</g>
	<g>
		<path fill="#F4E6E1" d="M179.016,223.966c0,0,9.1,14.928,21.983,14.928s21.843-17.561,21.843-17.561s-12.178,8.5-18.568,8.78
			S183.646,227.288,179.016,223.966z"/>
	</g>
	<g>
		<path fill="#392F2C" d="M261.609,180.195c0,0-2.973-73.052-20.844-73.052c-9.869,0-13.275,7.25-24.711,7.25
			c-16.828,0-16.922-13-48.172-13s-27.277,80.395-27.277,80.395S103.035,87.4,184.216,58.94c0,0,7.136-2,16.417-2
			c9.282,0,16.895,2,16.895,2c81.182,28.46,43.609,122.848,43.609,122.848"/>
	</g>
</g>
</svg>
