<?xml version="1.0" encoding="utf-8"?>
<!-- Generator: Adobe Illustrator 16.0.0, SVG Export Plug-In . SVG Version: 6.00 Build 0)  -->
<!DOCTYPE svg PUBLIC "-//W3C//DTD SVG 1.1//EN" "http://www.w3.org/Graphics/SVG/1.1/DTD/svg11.dtd">
<svg version="1.1" id="Layer_1" xmlns="http://www.w3.org/2000/svg" xmlns:xlink="http://www.w3.org/1999/xlink" x="0px" y="0px"
	 width="396.849px" height="396.851px" viewBox="0 0 396.849 396.851" enable-background="new 0 0 396.849 396.851"
	 xml:space="preserve">
	<defs>
	    <clipPath id="circle-clip">
	        <circle stroke="#000000" stroke-miterlimit="10" cx="200" cy="200" r="175" />
	    </clipPath>
	</defs>
<g>
	<rect width="400" height="400" class="player-bg" fill="rgba(0,0,0,0)"/>
	<g>
		<defs>
			<path id="SVGID_7_" d="M-218.905-90.212c52.613,0,52.119-49.037,52.119-49.037L-61.38-95.107c0,0,36.928,16.228,36.928,75.697
				h-388.729c0-59.47,36.928-75.697,36.928-75.697l105.406-44.142c0,0-0.494,49.037,52.119,49.037"/>
		</defs>
		<clipPath id="SVGID_2_">
			<use xlink:href="#SVGID_7_"  overflow="visible"/>
		</clipPath>
		<g clip-path="url(#SVGID_2_)">
			<rect x="-447.22" y="-5.196" fill="#30526F" width="456.807" height="25.311"/>
		</g>
	</g>
</g>
<g>
	<g>
		<rect x="143.558" y="219.017" fill="#E0C1A6" width="104.824" height="128.559"/>
	</g>
	<g>
		<g>
			<path fill="#F4F6F6" d="M195.636,326.049c52.613,0,52.119-49.037,52.119-49.037l105.406,44.142c0,0,36.928,16.228,36.928,75.697
				H1.361c0-59.47,36.928-75.697,36.928-75.697l105.406-44.142c0,0-0.494,49.037,52.119,49.037"/>
		</g>
		<g>
			<path fill="#231F20" d="M381.695,396.851h-4v-10.508c-3.42-41.918-28.369-54.314-29.43-54.822l-93.193-39.024l1.545-3.689
				l93.283,39.065c2.965,1.415,28.27,14.729,31.789,58.229l0.006,0.161V396.851z M13.755,396.262h-4l0.006-10.161
				c3.594-44.424,30.52-57.633,31.664-58.174l93.408-39.12l1.545,3.689L43.052,331.58c-0.977,0.464-25.865,12.682-29.297,54.763
				V396.262z"/>
		</g>
	</g>
	<g>
		<path fill="#D4B69D" d="M152.632,244.088c0,0,17.658,39.208,43.338,39.208s49.025-45.648,49.025-45.648"/>
	</g>
	<g>
		<path fill="#E0C1A6" d="M136.541,170.606c0,0-6.752-15.748-13.314-12.588c-6.561,3.158-4.859,13.122-3.889,15.066
			c0.973,1.943,4.133,12.15,5.59,22.844c1.459,10.693,11.908,20.414,17.984,8.992l-3.889-33.051L136.541,170.606z"/>
	</g>
	<g>
		<path fill="#E0C1A6" d="M256.966,170.606c0,0,6.754-15.748,13.316-12.588c6.561,3.158,4.859,13.122,3.889,15.066
			c-0.973,1.943-4.133,12.15-5.59,22.844c-1.459,10.693-11.908,20.414-17.984,8.992l3.889-33.051L256.966,170.606z"/>
	</g>
	<g>
		<path fill="#E0C1A6" d="M259.722,144.408c0,0-6.623,82.728-16.525,96.561c-11.826,16.525-27.217,36.939-40.178,36.939h-12.312
			c-12.961,0-28.354-20.414-40.18-36.939c-9.902-13.833-16.525-96.561-16.525-96.561l4.049-34.022l37.359-11.18l34.25,3.889
			l43.996,7.291L259.722,144.408z"/>
	</g>
	<g>
		<path fill="#E9CFC4" d="M221.164,230.276c0,0-10.367,0.486-16.039-2.592c-5.67-3.079-7.291,0.162-9.234,0
			c-1.943,0.162-3.564-3.079-9.234,0c-5.672,3.078-15.068,4.049-15.068,4.049S196.376,232.382,221.164,230.276z"/>
	</g>
	<g>
		<path fill="#F4E6E1" d="M171.587,232.544c0,0,13.771,11.018,23.33,11.018c14.42,0,25.275-11.828,25.275-11.828
			S195.89,242.265,171.587,232.544z"/>
	</g>
	<g>
		<path fill="#FFFFFF" d="M219.341,231.167c0,0-15.379,4.537-23.48,4.537s-23.48-3.443-23.48-3.443S195.769,232.747,219.341,231.167
			z"/>
	</g>
	<g>
		<path fill="#7C97AA" d="M209.66,172.274c0,0,0.422-0.867,1.221-2.073c0.406-0.598,0.887-1.295,1.473-1.988
			c0.57-0.707,1.242-1.41,1.949-2.08c0.373-0.312,0.723-0.656,1.111-0.939c0.391-0.282,0.756-0.591,1.158-0.818
			c0.395-0.24,0.764-0.494,1.154-0.666c0.387-0.177,0.732-0.393,1.092-0.502c0.352-0.127,0.674-0.244,0.961-0.348
			c0.291-0.083,0.555-0.133,0.768-0.186c0.428-0.099,0.674-0.154,0.674-0.154l0.133,0.99c0,0-0.227,0.038-0.623,0.104
			c-0.197,0.035-0.441,0.064-0.715,0.123c-0.271,0.078-0.576,0.167-0.91,0.264c-0.34,0.077-0.674,0.262-1.049,0.402
			c-0.379,0.137-0.744,0.355-1.133,0.559c-0.398,0.191-0.766,0.465-1.16,0.711c-0.393,0.248-0.752,0.559-1.135,0.839
			c-0.729,0.606-1.432,1.251-2.037,1.91c-0.621,0.646-1.141,1.304-1.584,1.87C210.136,171.436,209.66,172.274,209.66,172.274z"/>
	</g>
	<g>
		<path fill="#CCB097" d="M206.908,171.304c0,0,0.188-0.554,0.682-1.45c0.492-0.896,1.299-2.141,2.539-3.429
			c1.234-1.284,2.949-2.596,5.094-3.448c1.076-0.395,2.232-0.729,3.441-0.854c1.205-0.099,2.447-0.123,3.656,0.066
			c1.215,0.164,2.383,0.508,3.508,0.888c1.119,0.397,2.158,0.919,3.137,1.453c0.967,0.551,1.881,1.121,2.682,1.739
			c0.83,0.578,1.553,1.203,2.209,1.784c0.68,0.554,1.219,1.155,1.727,1.649c0.512,0.489,0.91,0.966,1.244,1.35
			c0.664,0.771,1.025,1.222,1.025,1.222s-0.48-0.331-1.295-0.929c-0.404-0.301-0.893-0.668-1.473-1.061
			c-0.582-0.388-1.201-0.869-1.928-1.32c-0.715-0.467-1.488-0.966-2.328-1.447c-0.824-0.512-1.744-0.947-2.672-1.423
			c-0.477-0.208-0.953-0.442-1.449-0.639c-0.504-0.172-1-0.381-1.51-0.554c-1.027-0.324-2.084-0.609-3.154-0.732
			c-1.066-0.193-2.143-0.188-3.193-0.126c-1.047,0.101-2.068,0.287-3.035,0.587c-0.953,0.328-1.861,0.715-2.689,1.166
			c-0.814,0.473-1.564,0.971-2.232,1.478c-1.314,1.037-2.316,2.055-2.979,2.807C207.246,170.828,206.908,171.304,206.908,171.304z"
			/>
	</g>
	<g>
		<circle fill="#7C98AB" cx="221.164" cy="168.617" r="4.631"/>
	</g>
	<g opacity="0.7">
		<path fill="#634E3B" d="M204.316,163.987c0,0,0.566-6.404,19.926-9.32c19.361-2.916,19.281,2.932,19.768,5.943
			c0.311,1.933-1.033,2.026-7.453,0.324C221.287,156.883,204.638,166.229,204.316,163.987z"/>
	</g>
	<g>
		<path fill="#CCB097" d="M239.31,173.248c0,0,0.438-0.15,1.027-0.382c0.594-0.229,1.34-0.558,2.021-0.973
			c0.352-0.19,0.67-0.432,0.98-0.651c0.297-0.234,0.584-0.455,0.816-0.67c0.246-0.204,0.438-0.395,0.584-0.525
			c0.146-0.13,0.24-0.203,0.24-0.203s-0.02,0.111-0.07,0.306c-0.053,0.192-0.129,0.475-0.299,0.772
			c-0.08,0.153-0.16,0.327-0.287,0.48c-0.121,0.156-0.23,0.343-0.391,0.49c-0.16,0.146-0.301,0.334-0.494,0.461
			c-0.184,0.136-0.367,0.285-0.57,0.399c-0.809,0.482-1.742,0.688-2.43,0.677C239.748,173.436,239.31,173.248,239.31,173.248z"/>
	</g>
	<g>
		<path fill="#CCB097" d="M203.824,169.844c-0.113,2.436-0.129,4.871-0.088,7.296c0.061,2.425,0.166,4.845,0.461,7.229
			c0.287,2.376,0.689,4.756,1.502,6.909c0.41,1.065,0.928,2.074,1.6,2.838c0.748,0.809,1.67,1.724,2.494,2.666
			c0.814,0.957,1.631,1.915,2.344,3.005c0.711,1.084,1.367,2.259,1.727,3.688l0.121,0.541c0.023,0.189,0.035,0.387,0.051,0.581
			c0.053,0.382-0.002,0.796-0.049,1.203c-0.137,0.812-0.484,1.636-1.002,2.255l-0.387,0.467l-0.432,0.382
			c-0.285,0.271-0.59,0.461-0.896,0.659l-0.229,0.149l-0.059,0.036l-0.029,0.02c-0.078,0.037,0.158-0.072-0.182,0.087l-0.012,0.006
			l-0.105,0.044c-0.166,0.062-0.225,0.11-0.479,0.182c-0.314,0.074-0.676,0.127-0.979,0.122c-0.254-0.027-0.516-0.063-0.762-0.117
			c-0.928-0.271-1.479-0.689-1.99-0.979c-0.494-0.298-0.92-0.542-1.238-0.604c-0.322-0.058-0.572-0.053-0.91,0.08
			c-0.166,0.062-0.348,0.195-0.529,0.279l-0.561,0.442l-1.227,1.236c-0.227,0.218-0.406,0.424-0.67,0.652l-0.873,0.692
			c-0.604,0.421-1.201,0.788-1.904,1.069c-0.326,0.162-0.721,0.246-1.084,0.36c-0.426,0.075-0.717,0.161-1.357,0.143l0.117,0.005
			l-0.967,0.002l0.117-0.005c-0.639,0.019-0.932-0.067-1.357-0.143c-0.363-0.114-0.756-0.199-1.084-0.361
			c-0.697-0.277-1.312-0.657-1.893-1.062l-0.826-0.647c-0.264-0.225-0.49-0.476-0.736-0.713l-1.275-1.281
			c-0.174-0.124-0.34-0.253-0.504-0.39c-0.18-0.083-0.363-0.218-0.529-0.279c-0.336-0.133-0.588-0.137-0.908-0.079
			c-0.318,0.062-0.744,0.306-1.238,0.604c-0.51,0.295-1.061,0.709-1.99,0.982c-0.246,0.053-0.508,0.09-0.764,0.117
			c-0.266,0-0.547-0.037-0.816-0.078c-0.26-0.057-0.49-0.167-0.729-0.266l-0.176-0.08l-0.021-0.01l-0.088-0.054l-0.025-0.016
			l-0.047-0.031l-0.191-0.125c-0.252-0.167-0.492-0.306-0.838-0.616l-0.469-0.414l-0.389-0.467c-0.518-0.62-0.867-1.443-1.004-2.257
			c-0.045-0.407-0.1-0.821-0.047-1.204c0.016-0.193,0.027-0.391,0.051-0.581l0.123-0.542c0.357-1.429,1.016-2.602,1.725-3.688
			c0.713-1.09,1.529-2.048,2.344-3.005c0.42-0.461,0.836-0.929,1.264-1.377l0.648-0.667l0.324-0.334l0.262-0.294
			c0.682-0.777,1.176-1.753,1.594-2.831c0.812-2.152,1.217-4.532,1.502-6.907c0.297-2.385,0.404-4.805,0.463-7.229
			c0.043-2.425,0.027-4.86-0.086-7.296c0.426,2.403,0.723,4.831,0.91,7.272c0.189,2.441,0.258,4.897,0.172,7.367
			c-0.121,2.468-0.371,4.954-1.111,7.426c-0.371,1.218-0.92,2.489-1.797,3.591l-0.145,0.178l-0.07,0.089l-0.115,0.134l-0.297,0.337
			l-0.592,0.672c-0.393,0.45-0.764,0.912-1.143,1.368c-0.719,0.933-1.441,1.869-2.014,2.85c-0.578,0.97-1.086,1.976-1.283,2.923
			c-0.191,0.958-0.088,1.712,0.453,2.309l0.199,0.233l0.225,0.18c0.094,0.114,0.379,0.285,0.643,0.444
			c0.441,0.237,0.344,0.196,0.598,0.152c0.25-0.067,0.707-0.368,1.236-0.7c0.545-0.325,1.168-0.743,2.043-0.964
			c0.861-0.221,1.871-0.154,2.67,0.172c0.4,0.151,0.729,0.363,1.088,0.558c0.316,0.236,0.631,0.481,0.938,0.731l1.314,1.292
			c0.193,0.183,0.375,0.387,0.576,0.555l0.615,0.472c0.418,0.284,0.852,0.546,1.289,0.712c0.217,0.113,0.432,0.136,0.645,0.214
			c0.172,0.035,0.48,0.067,0.451,0.066l-0.43-0.005h0.547l0.967,0.002l0.389,0.001l-0.271,0.004c-0.027,0,0.279-0.031,0.453-0.067
			c0.213-0.078,0.428-0.1,0.645-0.213c0.434-0.162,0.883-0.437,1.277-0.703l0.568-0.428c0.201-0.164,0.43-0.413,0.645-0.615
			l1.361-1.338l0.881-0.678c0.357-0.194,0.688-0.406,1.088-0.559c0.799-0.326,1.807-0.393,2.67-0.172
			c0.873,0.221,1.498,0.639,2.041,0.964c0.525,0.336,0.986,0.634,1.238,0.703c0.051,0.003,0.092,0.008,0.139,0.03
			c-0.002-0.01-0.059-0.008-0.07,0.041c0.041,0.012,0.256-0.09,0.375-0.13l0.107-0.041l0.014-0.005
			c-0.332,0.156-0.086,0.039-0.158,0.073l0.02-0.013l0.039-0.024l0.154-0.097c0.209-0.127,0.43-0.248,0.584-0.4l0.264-0.211
			l0.199-0.234c0.541-0.599,0.646-1.354,0.453-2.312c-0.195-0.948-0.707-1.952-1.281-2.925c-0.572-0.98-1.295-1.917-2.014-2.85
			c-0.738-0.927-1.51-1.762-2.367-2.782c-0.887-1.115-1.412-2.354-1.791-3.584c-0.742-2.471-0.994-4.957-1.111-7.425
			c-0.088-2.47-0.021-4.926,0.168-7.367C203.103,174.676,203.402,172.247,203.824,169.844z"/>
	</g>
	<g>
		<path fill="#CCB097" d="M211.443,174.3c0,0,11.787,9.686,22.602-1.051C234.044,173.249,226.511,177.216,211.443,174.3z"/>
	</g>
	<g>
		<path fill="#7C97AA" d="M182.281,172.274c0,0-0.477-0.839-1.348-1.983c-0.441-0.566-0.961-1.225-1.582-1.87
			c-0.605-0.659-1.309-1.304-2.037-1.91c-0.383-0.28-0.742-0.591-1.137-0.839c-0.393-0.246-0.76-0.52-1.158-0.711
			c-0.389-0.203-0.754-0.422-1.133-0.559c-0.375-0.141-0.709-0.325-1.051-0.402c-0.332-0.097-0.637-0.186-0.908-0.264
			c-0.273-0.059-0.518-0.088-0.715-0.123c-0.396-0.065-0.623-0.104-0.623-0.104l0.133-0.99c0,0,0.246,0.056,0.674,0.154
			c0.213,0.053,0.477,0.103,0.768,0.186c0.287,0.104,0.609,0.221,0.961,0.348c0.359,0.109,0.705,0.325,1.092,0.502
			c0.391,0.172,0.76,0.426,1.154,0.666c0.402,0.228,0.766,0.536,1.156,0.818c0.391,0.283,0.74,0.627,1.113,0.939
			c0.707,0.67,1.379,1.373,1.949,2.08c0.584,0.693,1.064,1.391,1.473,1.988C181.861,171.407,182.281,172.274,182.281,172.274z"/>
	</g>
	<g>
		<path fill="#CCB097" d="M185.037,171.304c0,0-0.338-0.476-1.008-1.223c-0.662-0.751-1.664-1.77-2.979-2.807
			c-0.668-0.507-1.418-1.005-2.232-1.478c-0.828-0.451-1.736-0.837-2.689-1.166c-0.967-0.3-1.988-0.486-3.035-0.587
			c-1.051-0.062-2.127-0.067-3.193,0.126c-1.07,0.123-2.127,0.408-3.154,0.732c-0.51,0.173-1.008,0.382-1.512,0.554
			c-0.494,0.196-0.971,0.431-1.447,0.639c-0.928,0.476-1.85,0.911-2.672,1.423c-0.84,0.481-1.613,0.98-2.328,1.447
			c-0.727,0.451-1.348,0.933-1.93,1.32c-0.578,0.393-1.066,0.76-1.471,1.061c-0.814,0.598-1.297,0.929-1.297,0.929
			s0.363-0.45,1.027-1.222c0.334-0.384,0.73-0.86,1.244-1.35c0.506-0.494,1.047-1.096,1.727-1.649
			c0.656-0.581,1.377-1.206,2.209-1.785c0.801-0.618,1.715-1.188,2.682-1.738c0.979-0.534,2.018-1.056,3.137-1.453
			c1.125-0.38,2.293-0.724,3.508-0.888c1.209-0.189,2.451-0.165,3.656-0.066c1.209,0.125,2.365,0.459,3.441,0.854
			c2.145,0.854,3.859,2.164,5.094,3.448c1.242,1.288,2.047,2.532,2.539,3.429C184.847,170.75,185.037,171.304,185.037,171.304z"/>
	</g>
	<g>
		<circle fill="#7C98AB" cx="170.779" cy="168.617" r="4.631"/>
	</g>
	<g opacity="0.7">
		<path fill="#634E3B" d="M187.626,163.987c0,0-0.566-6.404-19.928-9.32c-19.359-2.916-19.279,2.932-19.766,5.943
			c-0.311,1.933,1.033,2.026,7.453,0.324C170.656,156.883,187.304,166.229,187.626,163.987z"/>
	</g>
	<g>
		<path fill="#CCB097" d="M152.632,173.248c0,0-0.438,0.188-1.129,0.182c-0.688,0.012-1.621-0.194-2.43-0.677
			c-0.203-0.114-0.387-0.264-0.572-0.399c-0.191-0.127-0.332-0.314-0.492-0.461c-0.16-0.147-0.27-0.334-0.391-0.49
			c-0.127-0.153-0.207-0.327-0.287-0.48c-0.17-0.298-0.246-0.58-0.299-0.772c-0.051-0.194-0.07-0.306-0.07-0.306
			s0.094,0.073,0.24,0.203c0.146,0.131,0.338,0.321,0.584,0.525c0.232,0.215,0.52,0.436,0.816,0.67
			c0.311,0.22,0.629,0.461,0.98,0.651c0.682,0.415,1.428,0.744,2.021,0.973C152.195,173.098,152.632,173.248,152.632,173.248z"/>
	</g>
	<g>
		<path fill="#CCB097" d="M180.5,174.3c0,0-11.787,9.686-22.602-1.051C157.898,173.249,165.431,177.216,180.5,174.3z"/>
	</g>
	<g>
		<path fill="#CCB097" d="M170.13,229.09c0,0-0.146,0.453-0.318,1.082c-0.084,0.317-0.168,0.68-0.242,1.062
			c-0.057,0.385-0.129,0.788-0.119,1.19c-0.033,0.402,0.021,0.8,0.072,1.177c0.018,0.191,0.076,0.367,0.109,0.544
			c0.031,0.178,0.088,0.339,0.137,0.492c0.055,0.149,0.078,0.306,0.135,0.428c0.049,0.128,0.09,0.239,0.125,0.331
			c0.068,0.189,0.102,0.308,0.102,0.308s-0.098-0.063-0.262-0.19c-0.162-0.127-0.4-0.312-0.607-0.605
			c-0.113-0.141-0.238-0.295-0.322-0.485c-0.092-0.187-0.219-0.377-0.27-0.603c-0.062-0.22-0.156-0.445-0.17-0.689
			c-0.037-0.241-0.057-0.487-0.049-0.733c0.016-0.493,0.117-0.976,0.273-1.399c0.16-0.424,0.363-0.791,0.574-1.076
			C169.712,229.342,170.13,229.09,170.13,229.09z"/>
	</g>
	<g>
		<path fill="#CCB097" d="M226.025,219.017c0,0,0.266,0.113,0.689,0.394c0.408,0.295,0.994,0.737,1.586,1.39
			c0.273,0.339,0.605,0.69,0.867,1.123c0.293,0.414,0.555,0.878,0.797,1.375c0.248,0.492,0.447,1.03,0.646,1.574
			c0.139,0.561,0.342,1.119,0.43,1.7c0.08,0.58,0.207,1.157,0.217,1.734c0.027,0.573,0.078,1.141,0.031,1.685
			c-0.029,0.545-0.057,1.071-0.113,1.565c-0.076,0.492-0.16,0.956-0.238,1.381c-0.062,0.429-0.17,0.812-0.277,1.146
			c-0.1,0.337-0.188,0.63-0.26,0.871c-0.146,0.48-0.244,0.749-0.244,0.749s0.012-0.29,0.055-0.788
			c0.031-0.5,0.143-1.202,0.156-2.051c0.016-0.424,0.031-0.881,0.062-1.361c-0.006-0.48-0.014-0.987-0.021-1.512
			c0.021-0.523-0.086-1.057-0.113-1.602c-0.018-0.548-0.152-1.086-0.236-1.631c-0.068-0.55-0.252-1.072-0.369-1.602
			c-0.184-0.508-0.314-1.029-0.525-1.5c-0.205-0.474-0.396-0.937-0.633-1.35c-0.209-0.429-0.469-0.795-0.682-1.156
			c-0.475-0.686-0.912-1.239-1.26-1.594C226.244,219.205,226.025,219.017,226.025,219.017z"/>
	</g>
	<g>
		<path fill="#634E3B" d="M137.21,102.122c-17.852,29.163,0.1,75.282,0.1,75.282s-1.086-57.723,3.9-61.673
			c12.879-10.207,36.879,5.104,51.004,5.104h9.021c14.127,0,38.125-15.311,51.004-5.104c4.986,3.95,3.9,61.673,3.9,61.673
			s21.162-52.438-3.141-80.386l-8.02-4.859l-74.324-6.353l-23.693,7.081l-7.305,5.557L137.21,102.122z"/>
	</g>
	<g>
		<path fill="#594531" d="M253,97.019c0,0,0.16-0.503,0.441-1.382c0.285-0.877,0.627-2.149,1.029-3.671
			c0.4-1.522,0.785-3.318,1.107-5.25c0.314-1.933,0.576-4.005,0.621-6.081c0.062-2.074-0.09-4.148-0.469-6.044
			c-0.088-0.476-0.236-0.927-0.332-1.384c-0.141-0.442-0.277-0.876-0.412-1.298c-0.17-0.407-0.324-0.812-0.494-1.192
			c-0.191-0.371-0.377-0.729-0.555-1.072c-0.41-0.658-0.791-1.26-1.191-1.754c-0.369-0.52-0.787-0.89-1.084-1.24
			c-0.678-0.625-1.064-0.981-1.064-0.981s0.441,0.286,1.193,0.837c0.336,0.318,0.805,0.652,1.236,1.14
			c0.219,0.241,0.469,0.487,0.701,0.771c0.219,0.295,0.447,0.606,0.686,0.932c0.209,0.346,0.426,0.705,0.652,1.078
			c0.203,0.385,0.391,0.794,0.598,1.211c0.168,0.432,0.34,0.875,0.518,1.328c0.141,0.465,0.295,0.94,0.408,1.433
			c0.223,0.983,0.428,2.012,0.502,3.066c0.107,1.054,0.117,2.127,0.107,3.197c-0.043,1.069-0.121,2.137-0.252,3.179
			c-0.117,1.044-0.311,2.06-0.506,3.037c-0.393,1.957-0.943,3.736-1.434,5.248c-0.494,1.512-1.023,2.729-1.385,3.579
			C253.25,96.552,253,97.019,253,97.019z"/>
	</g>
	<g>
		<path fill="#594531" d="M252.427,96.671c0,0,0.793-0.468,1.982-1.17c1.164-0.721,2.682-1.708,4.057-2.85
			c0.34-0.289,0.678-0.58,0.998-0.879c0.293-0.323,0.637-0.596,0.9-0.917c0.256-0.326,0.564-0.601,0.775-0.918
			c0.213-0.315,0.461-0.59,0.631-0.878c0.168-0.29,0.332-0.553,0.48-0.788c0.137-0.24,0.225-0.465,0.316-0.644
			c0.184-0.364,0.287-0.572,0.287-0.572s-0.035,0.229-0.098,0.633c-0.041,0.199-0.064,0.456-0.152,0.728
			c-0.092,0.271-0.197,0.579-0.326,0.912c-0.125,0.336-0.328,0.664-0.52,1.026c-0.186,0.369-0.461,0.7-0.719,1.065
			c-0.264,0.361-0.582,0.694-0.898,1.04c-0.332,0.327-0.682,0.646-1.037,0.96c-0.379,0.281-0.738,0.59-1.127,0.842
			c-0.381,0.265-0.77,0.503-1.154,0.717c-0.76,0.443-1.512,0.773-2.16,1.034C253.355,96.523,252.427,96.671,252.427,96.671z"/>
	</g>
	<g>
		<path fill="#594531" d="M154.201,112.263c0,0-11.18-19.861-28.191-15.001c0,0,11.822-37.911,69.826-37.911
			c58.002,0,57.273,36.453,57.273,36.453l-10.855,16.453l-1.32-0.033c-12.846,0-28.994,8.611-39.588,8.611h-9.021
			c-9.824,0-24.424-7.404-36.736-8.48L154.201,112.263z"/>
	</g>
	<g>
		<ellipse fill="#D0C8C1" cx="196.376" cy="251.499" rx="3.402" ry="4.375"/>
	</g>
	<g>
		<path fill="#231F20" d="M183.111,207.581c0,0,3.807,3.55,9.104,0c5.297-3.551-4.551-3.492-4.551-3.492L183.111,207.581z"/>
	</g>
	<g>
		<path fill="#231F20" d="M208,207.581c0,0-3.807,3.55-9.104,0c-5.295-3.551,4.553-3.492,4.553-3.492L208,207.581z"/>
	</g>
	<g>
		<path fill="#E0C1A6" d="M203.824,169.844c0,0-2.379,19.706,2.916,25.275c6.32,6.644,7.9,11.011,3.525,13.441
			c-2.723,1.513-4.332-4.55-8.871,0.493c-2.795,3.104-5.186,2.916-5.186,2.916h-0.967c0,0-2.389,0.188-5.184-2.916
			c-4.539-5.043-6.148,1.02-8.871-0.493c-4.375-2.431-2.795-6.798,3.523-13.441c5.297-5.569,2.916-25.275,2.916-25.275"/>
	</g>
	<g opacity="0.4">
		<ellipse fill="#E0C1A6" cx="228.444" cy="182.853" rx="0.81" ry="0.972"/>
	</g>
	<g opacity="0.4">
		<ellipse fill="#E0C1A6" cx="237.851" cy="177.404" rx="0.811" ry="0.972"/>
	</g>
	<g opacity="0.4">
		<ellipse fill="#E0C1A6" cx="240.121" cy="179.349" rx="0.811" ry="0.973"/>
	</g>
	<g opacity="0.4">
		<ellipse fill="#E0C1A6" cx="244.049" cy="176.433" rx="0.81" ry="0.973"/>
	</g>
	<g opacity="0.4">
		<ellipse fill="#E0C1A6" cx="164.338" cy="182.853" rx="0.81" ry="0.972"/>
	</g>
	<g opacity="0.4">
		<ellipse fill="#E0C1A6" cx="154.931" cy="177.404" rx="0.811" ry="0.972"/>
	</g>
	<g opacity="0.4">
		<ellipse fill="#E0C1A6" cx="152.662" cy="179.349" rx="0.811" ry="0.973"/>
	</g>
	<g opacity="0.4">
		<ellipse fill="#E0C1A6" cx="148.733" cy="176.433" rx="0.81" ry="0.973"/>
	</g>
	<g>
		<defs>
			<path id="SVGID_17_" d="M352.871,395.059v-75.703l-105.406-44.142c0,0,0.494,49.037-52.119,49.037
				c-52.615,0-52.121-49.037-52.121-49.037L41.06,316.022v79.03"/>
		</defs>
		<clipPath id="SVGID_4_">
			<use xlink:href="#SVGID_17_"  overflow="visible"/>
		</clipPath>
		<g clip-path="url(#SVGID_4_)">
			<g>
				<path fill="#231F20" d="M195.345,338.751c-20.17,0-36.412-6.076-48.275-18.059c-18.395-18.581-18.355-44.528-18.344-45.624
					l5,0.049c-0.01,1.011-0.047,24.94,16.898,42.058c10.889,10.999,25.934,16.576,44.721,16.576
					c18.785,0,33.832-5.577,44.721-16.575c16.945-17.117,16.908-41.048,16.898-42.059l5-0.049
					c0.012,1.096,0.051,27.043-18.346,45.625C231.757,332.676,215.515,338.751,195.345,338.751z"/>
			</g>
		</g>
		<g clip-path="url(#SVGID_4_)">
			<g>
				<path fill="#F38F1B" d="M195.345,327.751c-17.125,0-30.736-4.979-40.457-14.797c-15.213-15.366-15.172-36.868-15.164-37.775
					l7,0.07c0,0.188,0.025,19.58,13.188,32.828c8.354,8.41,20.275,12.674,35.434,12.674c15.188,0,27.125-4.28,35.482-12.722
					c13.18-13.313,13.139-32.587,13.137-32.78l7-0.07c0.01,0.907,0.049,22.409-15.162,37.775
					C226.082,322.772,212.47,327.751,195.345,327.751z"/>
			</g>
		</g>
	</g>
</g>
</svg>
