<?xml version="1.0" encoding="utf-8"?>
<!-- Generator: Adobe Illustrator 16.0.0, SVG Export Plug-In . SVG Version: 6.00 Build 0)  -->
<!DOCTYPE svg PUBLIC "-//W3C//DTD SVG 1.1//EN" "http://www.w3.org/Graphics/SVG/1.1/DTD/svg11.dtd">
<svg version="1.1" id="Layer_1" xmlns="http://www.w3.org/2000/svg" xmlns:xlink="http://www.w3.org/1999/xlink" x="0px" y="0px"
	 width="396.85px" height="396.851px" viewBox="0 0 396.85 396.851" enable-background="new 0 0 396.85 396.851"
	 xml:space="preserve">
	<defs>
	    <clipPath id="circle-clip">
	        <circle stroke="#000000" stroke-miterlimit="10" cx="200" cy="200" r="175" />
	    </clipPath>
	</defs>
<g>
	<rect width="400" height="400" class="player-bg" fill="rgba(0,0,0,0)"/>
	<g>
		<rect x="146.656" y="205.813" fill="#E0C1A6" width="104.16" height="148.469"/>
	</g>
	<g>
		<path fill="#D4B69D" d="M151.941,246.563c0,0,17.654,30.598,47.055,30.598s50.414-37.115,50.414-37.115l-53.344,5.63
			L151.941,246.563z"/>
	</g>
	<g>
		<path fill="#E0C1A6" d="M261.85,144.753c0,0,0,79.09-14.055,97.83c-11.461,15.279-25.301,28.111-45.541,28.111h-7.873
			c-20.24,0-34.08-12.832-45.541-28.111c-14.057-18.74-14.057-97.83-14.057-97.83l17.158-48.939l62.494-8.972l28.861,19.546
			L261.85,144.753z"/>
	</g>
	<g>
		<path fill="#E0C1A6" d="M264.662,160.777c0,0,9.84-8.716,10.963,5.621c1.125,14.338-8.168,52.917-18.279,36.579l-5.896-8.186
			l4.217-32.609L264.662,160.777z"/>
	</g>
	<g>
		<path fill="#E0C1A6" d="M132.064,160.777c0,0-9.838-8.716-10.963,5.621c-1.125,14.338,8.168,52.917,18.279,36.579l5.896-8.186
			l-4.217-32.609L132.064,160.777z"/>
	</g>
	<g>
		<path fill="#373132" d="M209,162.745c0,0,0.562-4.123,3.936-4.592s21.553-3.05,24.879-2.155c4.873,1.312,12.229,7.31,8.855,6.747
			S229.24,159.372,209,162.745z"/>
	</g>
	<g>
		<path fill="#422221" d="M210.875,174.741c0,0,0.062-0.108,0.201-0.3c0.133-0.194,0.336-0.477,0.623-0.812
			c0.281-0.34,0.65-0.73,1.084-1.17c0.449-0.424,0.953-0.912,1.58-1.35c0.59-0.49,1.322-0.882,2.066-1.355
			c0.799-0.359,1.607-0.847,2.547-1.088c0.463-0.133,0.92-0.33,1.41-0.414c0.49-0.086,0.986-0.174,1.486-0.262
			c0.498-0.117,1.016-0.076,1.527-0.105c0.512-0.001,1.031-0.06,1.543-0.012l1.531,0.192l0.76,0.097
			c0.252,0.041,0.492,0.126,0.736,0.186c0.486,0.136,0.969,0.27,1.445,0.402l0.707,0.202c0.223,0.097,0.443,0.192,0.664,0.287
			c0.873,0.386,1.732,0.736,2.498,1.148c0.744,0.453,1.447,0.882,2.096,1.277c0.318,0.205,0.645,0.37,0.916,0.583
			c0.27,0.217,0.525,0.422,0.764,0.615c0.479,0.385,0.896,0.721,1.238,0.997c0.676,0.561,1.062,0.881,1.062,0.881
			s-0.428-0.264-1.178-0.725c-0.369-0.234-0.818-0.52-1.332-0.846c-0.508-0.333-1.086-0.699-1.76-1.022
			c-0.66-0.344-1.375-0.715-2.131-1.107c-0.773-0.35-1.631-0.62-2.48-0.976c-0.215-0.085-0.43-0.17-0.648-0.255l-0.684-0.169
			c-0.459-0.116-0.922-0.233-1.389-0.352c-0.234-0.055-0.465-0.135-0.703-0.17l-0.723-0.081l-1.449-0.168
			c-0.484-0.053-0.971,0.001-1.455-0.005c-0.482,0.022-0.971-0.026-1.439,0.081c-0.473,0.071-0.943,0.143-1.406,0.212
			c-0.467,0.062-0.9,0.236-1.344,0.345c-0.895,0.207-1.691,0.606-2.482,0.898c-0.738,0.403-1.475,0.732-2.074,1.166
			c-0.629,0.392-1.17,0.805-1.654,1.168c-0.471,0.379-0.877,0.723-1.189,1.025C211.199,174.355,210.875,174.741,210.875,174.741z"/>
	</g>
	<g>
		<circle fill="#422221" cx="224.431" cy="172.302" r="4.872"/>
	</g>
	<g>
		<path fill="#CCB097" d="M214.436,179.425c0,0,11.807,6.934,23.801,0C238.236,179.425,227.555,181.86,214.436,179.425z"/>
	</g>
	<g>
		<path fill="#373132" d="M187.93,162.745c0,0-0.562-4.123-3.936-4.592s-21.553-3.05-24.881-2.155
			c-4.871,1.312-12.229,7.31-8.854,6.747C153.633,162.183,167.688,159.372,187.93,162.745z"/>
	</g>
	<g>
		<path fill="#422221" d="M186.055,174.741c0,0-0.324-0.386-0.965-0.979c-0.314-0.303-0.719-0.646-1.189-1.025
			c-0.486-0.363-1.025-0.776-1.654-1.168c-0.602-0.434-1.336-0.763-2.074-1.167c-0.793-0.291-1.588-0.69-2.482-0.897
			c-0.443-0.108-0.877-0.284-1.344-0.345c-0.465-0.069-0.934-0.141-1.406-0.212c-0.469-0.107-0.957-0.059-1.439-0.081
			c-0.484,0.006-0.971-0.048-1.455,0.005l-1.449,0.168l-0.723,0.081c-0.238,0.035-0.469,0.115-0.703,0.17
			c-0.467,0.118-0.93,0.235-1.389,0.352l-0.684,0.169c-0.219,0.085-0.436,0.17-0.648,0.255c-0.852,0.355-1.707,0.626-2.48,0.976
			c-0.758,0.393-1.473,0.764-2.131,1.107c-0.674,0.323-1.252,0.689-1.762,1.022c-0.514,0.327-0.963,0.611-1.332,0.846
			c-0.748,0.461-1.176,0.725-1.176,0.725s0.385-0.32,1.061-0.881c0.344-0.276,0.76-0.612,1.238-0.997
			c0.24-0.193,0.496-0.398,0.764-0.615c0.273-0.213,0.598-0.378,0.918-0.583c0.648-0.396,1.352-0.824,2.094-1.277
			c0.768-0.412,1.625-0.763,2.5-1.148c0.219-0.095,0.441-0.19,0.664-0.287l0.707-0.202c0.477-0.133,0.959-0.267,1.445-0.402
			c0.244-0.06,0.484-0.145,0.736-0.186l0.76-0.097l1.531-0.192c0.512-0.048,1.029,0.011,1.543,0.012
			c0.512,0.029,1.027-0.012,1.527,0.105c0.5,0.088,0.996,0.176,1.486,0.262c0.49,0.083,0.945,0.281,1.408,0.414
			c0.939,0.241,1.75,0.729,2.549,1.088c0.744,0.473,1.477,0.865,2.066,1.355c0.627,0.438,1.131,0.926,1.58,1.35
			c0.434,0.439,0.803,0.829,1.084,1.17c0.287,0.336,0.49,0.618,0.623,0.812C185.992,174.633,186.055,174.741,186.055,174.741z"/>
	</g>
	<g>
		<circle fill="#422221" cx="172.498" cy="172.302" r="4.873"/>
	</g>
	<g>
		<path fill="#CCB097" d="M182.494,179.425c0,0-11.807,6.934-23.803,0C158.691,179.425,169.375,181.86,182.494,179.425z"/>
	</g>
	<g>
		<path fill="#CCB097" d="M206.369,164.618c-0.256,2.653-0.455,5.308-0.617,7.958c-0.156,2.651-0.273,5.302-0.256,7.94
			c-0.002,2.63,0.094,5.282,0.564,7.777c0.234,1.224,0.602,2.476,1.188,3.218c0.824,1.019,1.691,1.986,2.578,2.986
			c0.883,0.996,1.783,1.994,2.645,3.055c0.855,1.065,1.697,2.168,2.41,3.472c0.35,0.659,0.678,1.374,0.842,2.265
			c0.184,0.844,0.039,2.129-0.713,2.978c-0.348,0.439-0.762,0.714-1.162,0.952l-0.074,0.046l-0.131,0.063l-0.113,0.054l-0.225,0.106
			c-0.166,0.072-0.268,0.14-0.486,0.217c-0.859,0.333-1.746,0.501-2.721,0.371c-0.969-0.131-1.783-0.609-2.311-0.895
			c-0.246-0.126-0.467-0.234-0.568-0.243c-0.121-0.041-0.168-0.008-0.283,0.001c-0.062,0.021-0.141,0.063-0.215,0.083
			c-0.08,0.038-0.18,0.112-0.271,0.162l-0.07,0.04l-0.02,0.01c0.025-0.018-0.066,0.048,0.053-0.039l-0.012,0.01l-0.049,0.038
			l-0.199,0.152l-0.395,0.306c-0.291,0.209-0.477,0.397-0.664,0.58c-0.188,0.166-0.398,0.387-0.615,0.623l-0.705,0.757
			c-0.123,0.132-0.314,0.29-0.471,0.431c-0.158,0.145-0.328,0.287-0.557,0.411c-0.213,0.125-0.43,0.256-0.65,0.358l-0.686,0.212
			c-0.238,0.076-0.459,0.12-0.66,0.127l-0.629,0.052l-0.318,0.021l-0.25,0.001h-0.498l-0.998,0.001l-1.996-0.012l0.059-2.985
			l0.379,0.016l-0.055,2.981l-1.182-0.098c-0.42-0.1-0.871-0.208-1.283-0.402c-0.875-0.426-1.455-1.062-1.881-1.521
			c-0.434-0.476-0.811-0.868-1.219-1.234c-0.195-0.194-0.43-0.341-0.643-0.516l-0.324-0.254l-0.311-0.185
			c-0.172-0.115-0.182-0.077-0.223-0.098c-0.033-0.025-0.08-0.029-0.127-0.034c-0.094-0.03-0.146-0.005-0.275,0.016
			c-0.27,0.068-0.818,0.438-1.557,0.764c-0.74,0.34-1.73,0.501-2.578,0.369c-0.873-0.104-1.564-0.432-2.229-0.748l-0.062-0.03
			l-0.033-0.015l-0.109-0.061l-0.1-0.062l-0.199-0.124c-0.135-0.081-0.418-0.31-0.604-0.475c-0.348-0.362-0.68-0.798-0.844-1.31
			c-0.369-1.031-0.172-1.965,0.045-2.703c0.492-1.483,1.262-2.577,2.025-3.65c1.551-2.111,3.297-3.93,4.924-5.804
			c0.787-0.931,1.736-1.896,1.961-2.728c0.393-1.023,0.625-2.213,0.789-3.407c0.316-2.405,0.365-4.895,0.348-7.377
			c-0.006-2.487-0.139-4.981-0.281-7.479c-0.16-2.495-0.346-4.995-0.588-7.492c1.086,4.903,1.859,9.874,2.299,14.906
			c0.203,2.52,0.299,5.055,0.131,7.638c-0.098,1.293-0.252,2.599-0.701,3.938c-0.09,0.318-0.273,0.708-0.453,1.074
			c-0.088,0.178-0.166,0.278-0.25,0.422l-0.061,0.1l-0.031,0.05l-0.082,0.117l-0.145,0.193c-0.385,0.518-0.779,1.02-1.174,1.514
			c-1.578,1.976-3.197,3.881-4.574,5.84c-0.666,0.971-1.293,2.004-1.555,2.919c-0.125,0.446-0.137,0.83-0.047,0.984
			c0.021,0.094,0.104,0.153,0.178,0.247c0.062,0.025,0.004,0.021,0.137,0.102l0.203,0.119l0.1,0.059
			c-0.154-0.087-0.035-0.021-0.068-0.039l0.012,0.004l0.021,0.01l0.045,0.019c0.465,0.206,0.938,0.402,1.32,0.421
			c0.395,0.031,0.682-0.008,1.084-0.184c0.414-0.162,0.893-0.551,1.816-0.879c0.471-0.145,1.055-0.231,1.578-0.135
			c0.266,0.035,0.523,0.093,0.777,0.203c0.248,0.095,0.541,0.225,0.629,0.289l0.494,0.298l0.422,0.317
			c0.275,0.219,0.572,0.412,0.826,0.654c0.531,0.466,1.021,0.975,1.436,1.423c0.418,0.456,0.734,0.729,0.996,0.853
			c0.152,0.067,0.326,0.093,0.504,0.15c0.232,0.01,0.461,0.025,0.691,0.049l-0.053,2.981l-0.379-0.012l0.061-2.985l1.994,0.003
			l0.998,0.008l0.5,0.004l0.248,0.003l0.18-0.018c0.223-0.036,0.539,0.005,0.682-0.08c0.088-0.027,0.178-0.05,0.271-0.067
			c0.078-0.04,0.143-0.093,0.219-0.129c0.074-0.022,0.158-0.094,0.244-0.177c0.088-0.084,0.164-0.129,0.27-0.24l0.66-0.695
			c0.424-0.464,1.146-1.148,1.641-1.508l0.398-0.302l0.199-0.15l0.049-0.038l0.092-0.064l0.035-0.021l0.145-0.087
			c0.197-0.113,0.375-0.23,0.594-0.331c0.238-0.094,0.465-0.191,0.721-0.262c0.533-0.126,1.166-0.152,1.689-0.002
			c0.551,0.131,0.924,0.347,1.266,0.521c0.629,0.357,1.004,0.544,1.363,0.598c0.344,0.066,0.805-0.003,1.191-0.127
			c0.1-0.021,0.289-0.121,0.43-0.178l0.229-0.1l0.115-0.051l0.027-0.013l0.016-0.006c0.02-0.01-0.127,0.062-0.062,0.029l0.031-0.02
			c0.17-0.098,0.326-0.192,0.389-0.282c0.146-0.158,0.213-0.33,0.158-0.777c-0.061-0.424-0.258-0.95-0.521-1.469
			c-0.533-1.049-1.275-2.102-2.061-3.127c-0.781-1.033-1.609-2.059-2.449-3.09c-0.834-1.029-1.697-2.086-2.5-3.172
			c-0.979-1.438-1.23-2.863-1.43-4.245c-0.342-2.77-0.26-5.468-0.092-8.15C204.41,175.109,205.219,169.827,206.369,164.618z"/>
	</g>
	<g>
		<path fill="#E9CFC4" d="M228.725,222.154c0,0-17.148-6.183-30.033-3.747h-0.326c-12.885-2.436-30.033,3.747-30.033,3.747
			s23.285-0.841,30.195-0.841C205.439,221.313,228.725,222.154,228.725,222.154z"/>
	</g>
	<g>
		<path fill="#F4E6E1" d="M169.08,223.28c0,0,7.873,18.086,29.285,18.086h1.076c21.412,0,29.285-18.086,29.285-18.086
			S198.902,243.239,169.08,223.28z"/>
	</g>
	<g>
		<path fill="#FFFFFF" d="M170.557,222.719h56.879c0,0-13.344,8.479-28.932,8.479C182.918,231.198,170.557,222.719,170.557,222.719z
			"/>
	</g>
	<g>
		<path fill="#CCB097" d="M174.984,202.103c0,0-0.32,0.312-0.883,0.86c-0.568,0.539-1.342,1.348-2.279,2.302
			c-0.938,0.953-1.979,2.114-3.074,3.369c-0.551,0.624-1.088,1.294-1.641,1.97c-0.541,0.682-1.082,1.382-1.586,2.107
			c-0.521,0.712-1.002,1.451-1.451,2.19c-0.445,0.743-0.861,1.484-1.217,2.225c-0.338,0.747-0.662,1.472-0.891,2.186
			c-0.238,0.711-0.414,1.402-0.498,2.05c-0.053,0.324-0.088,0.635-0.098,0.934c-0.02,0.298-0.051,0.583-0.025,0.849
			c0,0.537,0.07,1,0.139,1.382c0.055,0.386,0.166,0.673,0.209,0.879c0.053,0.204,0.082,0.312,0.082,0.312s-0.047-0.102-0.133-0.293
			c-0.072-0.196-0.25-0.465-0.346-0.85c-0.119-0.379-0.252-0.846-0.322-1.4c-0.084-0.549-0.131-1.188-0.064-1.872
			c0.035-0.688,0.164-1.428,0.355-2.192c0.184-0.769,0.455-1.556,0.789-2.346c0.348-0.783,0.729-1.584,1.188-2.354
			c0.455-0.771,0.941-1.542,1.469-2.279c1.061-1.473,2.221-2.864,3.391-4.087c1.16-1.232,2.332-2.289,3.34-3.186
			s1.916-1.563,2.539-2.043C174.607,202.346,174.984,202.103,174.984,202.103z"/>
	</g>
	<g>
		<path fill="#CCB097" d="M222.961,202.103c0,0,0.377,0.243,1.008,0.713c0.623,0.479,1.531,1.146,2.539,2.043s2.18,1.953,3.34,3.186
			c1.17,1.223,2.33,2.614,3.391,4.087c0.527,0.737,1.014,1.508,1.469,2.279c0.459,0.77,0.84,1.57,1.188,2.354
			c0.334,0.79,0.605,1.577,0.789,2.346c0.191,0.765,0.32,1.504,0.355,2.192c0.066,0.685,0.02,1.323-0.064,1.872
			c-0.07,0.555-0.203,1.021-0.322,1.4c-0.096,0.385-0.273,0.653-0.346,0.85c-0.088,0.191-0.133,0.293-0.133,0.293
			s0.027-0.108,0.082-0.312c0.043-0.206,0.154-0.493,0.209-0.879c0.068-0.382,0.139-0.845,0.139-1.382
			c0.025-0.266-0.006-0.551-0.025-0.849c-0.01-0.299-0.045-0.609-0.098-0.934c-0.084-0.647-0.262-1.339-0.498-2.05
			c-0.229-0.714-0.553-1.438-0.891-2.186c-0.357-0.74-0.771-1.481-1.217-2.225c-0.449-0.739-0.93-1.479-1.451-2.19
			c-0.504-0.726-1.045-1.426-1.586-2.107c-0.553-0.676-1.092-1.346-1.641-1.97c-1.096-1.255-2.137-2.416-3.074-3.369
			c-0.938-0.954-1.711-1.763-2.279-2.302C223.281,202.415,222.961,202.103,222.961,202.103z"/>
	</g>
	<g>
		<path fill="#231F20" d="M185.199,204.538c0,0,2.623,5.55,9.182,1.275c6.561-4.273-3.373-2.399-3.373-2.399L185.199,204.538z"/>
	</g>
	<g>
		<path fill="#231F20" d="M211.24,204.538c0,0-2.623,5.55-9.182,1.275c-6.561-4.273,3.373-2.399,3.373-2.399L211.24,204.538z"/>
	</g>
	<g>
		<path fill="#E0C1A6" d="M206.369,164.618c0,0-3.748,22.678,0,27.55s11.057,11.618,6.746,13.868c-4.311,2.248-4.59-2.06-7.59,0.002
			c-2.998,2.061-2.717,3.746-5.717,3.746l-3.742-0.014l0.377,0.014c-2.998,0-2.717-1.686-5.717-3.746
			c-2.998-2.062-3.279,2.246-7.59-0.002c-4.311-2.25,3-8.996,6.748-13.868c3.746-4.872,0-27.55,0-27.55"/>
	</g>
	<g>
		<path fill="#373132" d="M197.193,61.822c-64.096,16.587-60.16,54.444-60.16,54.444c-9.746,10.869-4.873,47.604-4.873,47.604
			c2.248,3.75,4.768,27.338,4.768,27.338s2.354-23.59,6.852-32.211s-1.123-22.863,2.625-26.237s24.738-21.366,49.852-21.366h4.217
			c25.115,0,46.105,17.992,49.854,21.366s-1.875,17.616,2.623,26.237s6.854,32.211,6.854,32.211s2.518-23.588,4.766-27.338
			c0,0,4.873-36.734-4.871-47.604c0,0,3.934-37.857-60.162-54.444H197.193z"/>
	</g>
	<g>
		<path fill="#231F20" d="M250.326,132.76c-3.748-3.374-24.738-21.366-49.854-21.366h-4.217c-25.113,0-46.104,17.992-49.852,21.366
			c0,0-4.221-1.974-6.75-7.279c-2.531-5.306-2.621-9.214-2.621-9.214s-3.936-37.857,60.16-54.444h2.342
			c64.096,16.587,60.162,54.444,60.162,54.444s0.047,5.809-3.471,10.248C252.664,131.013,252.639,130.737,250.326,132.76z"/>
	</g>
	<g>
		<path fill="#121010" d="M250.326,132.76c0,0-15.182-38.046-52.01-36.922c-36.826,1.124-54.256,30.677-54.256,30.677
			s7.648-2.666,9.166,0.76c0,0,20.166-15.881,45.139-15.881S240.486,124.982,250.326,132.76z"/>
	</g>
	<g>
		<g>
			<path fill="#F4F6F6" d="M198.275,325.072c52.613,0,52.119-49.037,52.119-49.037l105.406,44.142c0,0,36.928,16.228,36.928,75.697
				H4c0-59.47,36.928-75.697,36.928-75.697l105.406-44.142c0,0-0.494,49.037,52.119,49.037"/>
		</g>
		<g>
			<path fill="#231F20" d="M384.334,395.874h-4v-10.508c-3.42-41.918-28.369-54.314-29.43-54.822l-93.193-39.024l1.545-3.689
				l93.283,39.065c2.965,1.415,28.27,14.729,31.789,58.229l0.006,0.161V395.874z M16.395,395.285h-4l0.006-10.161
				c3.594-44.424,30.52-57.633,31.664-58.174l93.408-39.12l1.545,3.689l-93.326,39.084c-0.977,0.464-25.865,12.682-29.297,54.763
				V395.285z"/>
		</g>
	</g>
	<g>
		<defs>
			<path id="SVGID_25_" d="M355.51,394.082v-75.703l-105.406-44.142c0,0,0.494,49.037-52.119,49.037
				c-52.615,0-52.121-49.037-52.121-49.037L43.699,315.046v79.03"/>
		</defs>
		<clipPath id="SVGID_2_">
			<use xlink:href="#SVGID_25_"  overflow="visible"/>
		</clipPath>
		<g clip-path="url(#SVGID_2_)">
			<g>
				<path fill="#231F20" d="M197.984,337.774c-20.17,0-36.412-6.076-48.275-18.059c-18.395-18.581-18.355-44.528-18.344-45.624
					l5,0.049c-0.01,1.011-0.047,24.94,16.898,42.058c10.889,10.999,25.934,16.576,44.721,16.576
					c18.785,0,33.832-5.577,44.721-16.575c16.945-17.117,16.908-41.048,16.898-42.059l5-0.049
					c0.012,1.096,0.051,27.043-18.346,45.625C234.396,331.699,218.154,337.774,197.984,337.774z"/>
			</g>
		</g>
		<g clip-path="url(#SVGID_2_)">
			<g>
				<path fill="#F38F1B" d="M197.984,326.774c-17.125,0-30.736-4.979-40.457-14.797c-15.213-15.366-15.172-36.868-15.164-37.775
					l7,0.07c0,0.188,0.025,19.58,13.188,32.828c8.354,8.41,20.275,12.674,35.434,12.674c15.188,0,27.125-4.28,35.482-12.722
					c13.18-13.313,13.139-32.587,13.137-32.78l7-0.07c0.01,0.907,0.049,22.409-15.162,37.775
					C228.721,321.796,215.109,326.774,197.984,326.774z"/>
			</g>
		</g>
	</g>
</g>
</svg>
