<?xml version="1.0" encoding="utf-8"?>
<!-- Generator: Adobe Illustrator 16.0.0, SVG Export Plug-In . SVG Version: 6.00 Build 0)  -->
<!DOCTYPE svg PUBLIC "-//W3C//DTD SVG 1.1//EN" "http://www.w3.org/Graphics/SVG/1.1/DTD/svg11.dtd">
<svg version="1.1" id="Layer_1" xmlns="http://www.w3.org/2000/svg" xmlns:xlink="http://www.w3.org/1999/xlink" x="0px" y="0px"
	 width="396.85px" height="396.851px" viewBox="0 0 396.85 396.851" enable-background="new 0 0 396.85 396.851"
	 xml:space="preserve">
	<defs>
	    <clipPath id="circle-clip">
	        <circle stroke="#000000" stroke-miterlimit="10" cx="200" cy="200" r="175" />
	    </clipPath>
	</defs>
<g>
	<rect width="400" height="400" class="player-bg"/>
	<polygon fill="#E0C1A6" points="321.527,307.341 198.001,356.905 79.312,307.263 146.239,276.907 146.239,209.378 249.788,209.378 
		249.788,276.907 	"/>
	<path fill="#9B1A17" d="M261.296,282.212l93.824,39.292c0,0,36.928,16.228,36.928,75.697H3.319
		c0-59.47,36.928-75.697,36.928-75.697l91.683-38.394l65.321,56.416L261.296,282.212z"/>
	<polyline fill="none" points="355.325,397.765 355.325,322.062 258.821,281.648 197.8,334.615 136.103,281.489 43.515,320.136 
		43.515,397.759 	"/>
	<g>
		<defs>
			<path id="SVGID_19_" d="M261.296,282.212l93.824,39.292c0,0,36.928,16.228,36.928,75.697H3.319
				c0-59.47,36.928-75.697,36.928-75.697l91.683-38.394l65.321,56.416L261.296,282.212z"/>
		</defs>
		<clipPath id="SVGID_2_">
			<use xlink:href="#SVGID_19_"  overflow="visible"/>
		</clipPath>
		<g clip-path="url(#SVGID_2_)">
			<rect x="181.92" y="274.198" fill="#00405E" width="35" height="138.17"/>
		</g>
		<g clip-path="url(#SVGID_2_)">
			<rect x="103.967" y="274.198" fill="#00405E" width="35" height="138.17"/>
		</g>
		<g clip-path="url(#SVGID_2_)">
			<rect x="-3.315" y="274.198" fill="#00405E" width="64.329" height="138.17"/>
		</g>
		<g clip-path="url(#SVGID_2_)">
			<rect x="337.825" y="274.198" fill="#00405E" width="58.271" height="138.17"/>
		</g>
		<g clip-path="url(#SVGID_2_)">
			<rect x="259.873" y="274.198" fill="#00405E" width="35" height="138.17"/>
		</g>
	</g>
	<path fill="#E0C1A6" d="M259.278,159.154c0,0,6.639-9.592,9.727-7.287s-0.516,6.423,0,9.683c0.514,3.26,2.914,16.298-1.545,21.616
		c-4.461,5.318-5.83,6.696-8.182,8.063c-1.125,0.652-2.576,9.48-6.633,11.346l-2.857-1.372l6.521-41.197L259.278,159.154z"/>
	<path fill="#E0C1A6" d="M138.288,159.154c0,0-6.639-9.592-9.727-7.287s0.516,6.423,0,9.683c-0.514,3.26-2.916,16.298,1.545,21.616
		c4.459,5.318,5.83,6.696,8.182,8.063c1.125,0.652,2.574,9.48,6.631,11.346l2.857-1.372l-6.521-41.197L138.288,159.154z"/>
	<path fill="#D4B69D" d="M148.524,220.197c0,0,18.003,62.816,50.713,62.816c32.711,0,48.082-62.816,48.082-62.816H148.524z"/>
	<path fill="#E0C1A6" d="M259.569,156.573c0,0-5.38,49.602-11.664,62.446c-7.894,16.126-24.02,39.801-43.233,39.801h-12.011
		c-19.216,0-35.342-23.675-43.232-39.801c-6.287-12.845-11.667-62.446-11.667-62.446l-1.029-39.114l25.046-36.027l34.484-1.888
		l35.008,2.402l16.459,12.867l10.123,39.801L259.569,156.573z"/>
	<path opacity="0.3" fill="#312D2E" d="M236.32,209.792c0,0-19.687-19.936-37.678-19.936h-0.647
		c-17.992,0-37.678,19.936-37.678,19.936c-15.354-15.064-20.348-35.545-20.348-35.545s-0.155,71.881,47.368,87.664h10.657h0.647
		h10.659c47.521-15.783,47.367-87.664,47.367-87.664S251.675,194.728,236.32,209.792z M211.702,238.456
		c-0.818-5.054-4.412-9.169-9.18-10.721c3.746-1.044,5.146-3.224,5.146-3.224h-9.264h-0.173h-9.265c0,0,1.402,2.18,5.146,3.224
		c-4.764,1.552-8.359,5.667-9.178,10.719c-9.963-3.44-16.814-10.599-16.814-18.878c0-11.63,13.52-21.056,30.197-21.056
		s30.199,9.426,30.199,21.056C228.519,227.855,221.664,235.014,211.702,238.456z"/>
	<path fill="#655D5E" d="M162.81,230.343c0,0,0.182,0.293,0.541,0.827c0.362,0.532,0.919,1.296,1.649,2.249
		c0.739,0.947,1.673,2.065,2.804,3.296c0.564,0.614,1.205,1.231,1.857,1.9c0.672,0.65,1.408,1.304,2.159,2.001
		c0.778,0.667,1.62,1.325,2.474,2.025c0.902,0.635,1.834,1.292,2.793,1.967c1.012,0.591,2.033,1.23,3.107,1.822
		c1.116,0.515,2.213,1.132,3.389,1.621c1.199,0.432,2.381,0.979,3.642,1.335c0.632,0.173,1.269,0.347,1.907,0.521
		c0.641,0.17,1.275,0.377,1.942,0.454c0.659,0.106,1.322,0.214,1.986,0.321c0.665,0.101,1.327,0.249,2.006,0.25
		c1.341,0.046,2.729,0.189,4.04,0.156c1.369-0.087,2.754-0.118,4.105-0.244c1.322-0.232,2.646-0.423,3.95-0.681
		c1.283-0.372,2.572-0.694,3.819-1.095c1.215-0.493,2.441-0.92,3.602-1.446c1.131-0.587,2.275-1.107,3.342-1.718
		c1.041-0.65,2.109-1.215,3.064-1.896c1.938-1.321,3.683-2.699,5.211-4.066c3.057-2.739,5.326-5.328,6.799-7.224
		c1.48-1.892,2.207-3.063,2.207-3.063s-0.649,1.217-2.052,3.18c-1.411,1.949-3.544,4.686-6.573,7.523
		c-1.511,1.42-3.242,2.859-5.176,4.25c-0.953,0.715-2.023,1.317-3.07,2.006c-1.064,0.658-2.239,1.182-3.387,1.795
		c-1.182,0.547-2.432,0.996-3.671,1.509c-1.272,0.422-2.59,0.764-3.903,1.153c-1.346,0.279-2.725,0.49-4.098,0.737
		c-1.37,0.138-2.74,0.183-4.113,0.276c-1.436,0.025-2.793-0.134-4.187-0.192c-0.696-0.008-1.374-0.165-2.055-0.272
		c-0.68-0.116-1.358-0.232-2.033-0.348c-0.682-0.085-1.331-0.301-1.985-0.48c-0.654-0.185-1.304-0.368-1.949-0.551
		c-1.288-0.375-2.494-0.943-3.715-1.396c-1.195-0.515-2.318-1.138-3.438-1.7c-1.082-0.63-2.104-1.308-3.117-1.933
		c-0.956-0.71-1.886-1.4-2.785-2.067c-0.848-0.731-1.684-1.419-2.453-2.112c-0.74-0.728-1.475-1.397-2.125-2.082
		c-0.632-0.703-1.251-1.35-1.795-1.991c-1.086-1.284-1.979-2.446-2.682-3.427c-0.699-0.982-1.203-1.785-1.54-2.335
		C162.974,230.645,162.81,230.343,162.81,230.343z"/>
	<path fill="#E9CFC4" d="M220.971,207.696c0,0-5.147-0.515-10.036-3.603c-4.89-3.088-8.75-3.86-12.268-1.544
		c-3.519-2.316-7.379-1.544-12.268,1.544c-4.891,3.088-10.037,3.603-10.037,3.603S198.671,204.779,220.971,207.696z"/>
	<path fill="#F4E6E1" d="M177.048,208.812c0,0,6.695,13.555,21.619,13.555s21.527-13.555,21.527-13.555s-10.549,4.805-21.572,4.805
		S177.048,208.812,177.048,208.812z"/>
	<path fill="#FFFFFF" d="M177.733,208.127c0,0,12.22,3.724,21.798,3.724c9.575,0,20.321-3.724,20.321-3.724
		S198.622,205.383,177.733,208.127z"/>
	<path fill="#231F20" d="M208.702,138.39c0,0-1.58-3.52,9.872-6.094c6.667-1.498,19.853-4.178,24.099-1.604
		c4.246,2.573,8.002,14.486,5.75,10.611c-2.315-3.989-7.332-5.256-13.121-5.127C228.007,136.339,209.989,139.935,208.702,138.39z"/>
	<path fill="#231F20" d="M240.361,150.738c0,0-2.431-2.544-5.317-4.474c-0.712-0.492-1.459-0.927-2.172-1.291
		c-0.35-0.199-0.715-0.325-1.045-0.479c-0.332-0.153-0.665-0.229-0.96-0.336c-0.296-0.113-0.58-0.13-0.823-0.191
		c-0.244-0.062-0.457-0.076-0.633-0.077c-0.348-0.019-0.547-0.028-0.547-0.028v-1c0,0,0.235,0.027,0.647,0.076
		c0.208,0.02,0.454,0.055,0.724,0.142c0.268,0.086,0.588,0.136,0.898,0.278c0.312,0.138,0.668,0.25,1.007,0.436
		c0.338,0.187,0.714,0.35,1.062,0.581c0.715,0.433,1.447,0.934,2.136,1.485C238.128,148.032,240.361,150.738,240.361,150.738z"/>
	<path fill="#231F20" d="M243.278,148.853c0,0-0.439-0.298-1.23-0.775c-0.787-0.484-1.95-1.107-3.366-1.795
		c-1.42-0.678-3.126-1.363-5.003-1.901c-0.934-0.285-1.92-0.487-2.922-0.678c-1.006-0.163-2.035-0.294-3.066-0.309
		c-1.031-0.057-2.062,0.017-3.07,0.124c-0.5,0.078-0.998,0.155-1.485,0.247c-0.481,0.124-0.968,0.206-1.427,0.359
		c-0.925,0.282-1.806,0.606-2.616,0.978c-0.397,0.199-0.798,0.374-1.163,0.58c-0.363,0.214-0.715,0.421-1.051,0.619
		c-0.643,0.443-1.258,0.825-1.758,1.223c-0.496,0.404-0.961,0.724-1.29,1.047c-0.692,0.615-1.089,0.967-1.089,0.967
		s0.347-0.402,0.953-1.106c0.297-0.361,0.727-0.729,1.186-1.192c0.463-0.459,1.043-0.914,1.682-1.402
		c0.333-0.228,0.68-0.464,1.039-0.708c0.365-0.237,0.766-0.444,1.166-0.679c0.815-0.44,1.711-0.85,2.678-1.166
		c0.965-0.319,1.99-0.57,3.049-0.723c1.061-0.125,2.146-0.215,3.23-0.166c2.169,0.068,4.305,0.511,6.216,1.146
		c1.922,0.618,3.6,1.476,5.001,2.243c1.399,0.78,2.472,1.578,3.217,2.132C242.894,148.485,243.278,148.853,243.278,148.853z"/>
	<circle fill="#231F20" cx="226.638" cy="147.235" r="4.632"/>
	<path fill="#CCB097" d="M189.4,139.933c0,0,0.326,1.949,0.708,5.39c0.177,1.722,0.396,3.813,0.525,6.226
		c0.143,2.41,0.268,5.139,0.168,8.132c-0.048,1.497-0.119,3.061-0.321,4.688c-0.171,1.626-0.519,3.314-1.125,5.061
		c-0.205,0.437-0.411,0.875-0.619,1.316c-0.214,0.421-0.442,0.755-0.661,1.137c-0.437,0.744-0.879,1.498-1.324,2.26
		c-0.868,1.53-1.762,3.089-2.51,4.697c-0.371,0.8-0.716,1.619-0.938,2.403c-0.108,0.387-0.188,0.773-0.198,1.07
		c-0.018,0.309,0.081,0.436,0.013,0.312c-0.048-0.038-0.054-0.058-0.021-0.037c0.033,0.002,0.074,0.008,0.118,0.018
		c0.05-0.002,0.155,0.001,0.157,0.006l0.719-0.029l0.621-0.058c0.887-0.089,1.836-0.272,2.979-0.321
		c1.141-0.067,2.474,0.22,3.52,0.769c1.062,0.54,1.916,1.242,2.709,1.956l0.564,0.552c0.193,0.19,0.375,0.37,0.467,0.444
		c0.283,0.229,0.609,0.48,0.952,0.65c0.68,0.371,1.397,0.562,2.099,0.581c0.902-0.051,1.342-0.206,2.096-0.582
		c0.344-0.171,0.664-0.417,0.956-0.653l0.173-0.156l0.301-0.296l0.527-0.515c0.826-0.748,1.674-1.441,2.736-1.982
		c1.045-0.549,2.379-0.836,3.52-0.77c1.143,0.048,2.092,0.236,2.979,0.319c0.441,0.047,0.875,0.073,1.303,0.086l0.271-0.013
		c0.041-0.014,0.021-0.014,0.04-0.01c0.032-0.021,0.026-0.001-0.022,0.037c-0.068,0.126,0.029-0.001,0.012-0.309
		c-0.01-0.297-0.088-0.683-0.197-1.069c-0.222-0.783-0.566-1.603-0.938-2.403c-0.746-1.608-1.643-3.164-2.51-4.695
		c-0.445-0.763-0.888-1.517-1.324-2.262l-0.332-0.556l-0.166-0.276l-0.137-0.233l-0.068-0.146c-0.181-0.391-0.361-0.777-0.54-1.161
		c-0.167-0.41-0.292-0.899-0.432-1.341c-0.142-0.455-0.269-0.902-0.331-1.315c-0.156-0.844-0.338-1.673-0.4-2.485
		c-0.201-1.628-0.273-3.19-0.32-4.688c-0.1-2.994,0.024-5.723,0.168-8.133c0.131-2.412,0.35-4.504,0.527-6.226
		c0.382-3.44,0.709-5.39,0.709-5.39s-0.076,1.976-0.113,5.426c-0.013,3.443-0.068,8.386,0.429,14.221
		c0.136,1.453,0.3,2.968,0.587,4.492c0.112,0.774,0.307,1.525,0.486,2.294c0.077,0.401,0.199,0.744,0.32,1.083
		c0.129,0.349,0.203,0.684,0.369,1.051c0.195,0.376,0.393,0.754,0.591,1.135l0.075,0.143c-0.102-0.179-0.016-0.029-0.032-0.061
		l0.022,0.033l0.045,0.067l0.179,0.271l0.359,0.546c0.476,0.735,0.958,1.479,1.445,2.232c0.969,1.518,1.905,3.107,2.772,4.826
		c0.429,0.866,0.842,1.758,1.162,2.772c0.156,0.514,0.299,1.05,0.345,1.698c0.017,0.329,0.023,0.676-0.073,1.092
		c-0.074,0.396-0.287,0.881-0.641,1.267c-0.359,0.409-0.822,0.623-1.233,0.761c-0.212,0.06-0.468,0.104-0.661,0.129l-0.445,0.026
		c-0.529,0.001-1.055-0.018-1.572-0.06c-1.027-0.093-1.987-0.261-2.786-0.281c-0.801-0.026-1.431,0.132-2.119,0.48
		c-0.681,0.351-1.367,0.908-1.991,1.479l-0.522,0.52l-0.224,0.223c-0.154,0.161-0.243,0.23-0.367,0.348
		c-0.463,0.391-0.932,0.745-1.465,1.027c-0.256,0.152-0.525,0.287-0.813,0.396c-0.276,0.117-0.554,0.236-0.913,0.315l-0.508,0.122
		l-0.256,0.056l-0.185,0.018l-0.368,0.034l-0.184,0.018l-0.316,0.021c-1.277-0.027-2.498-0.397-3.541-0.981
		c-0.533-0.283-0.996-0.634-1.468-1.03c-0.278-0.251-0.439-0.424-0.598-0.578l-0.485-0.483c-0.657-0.604-1.337-1.153-2.018-1.504
		c-0.689-0.35-1.319-0.508-2.121-0.48c-0.799,0.019-1.758,0.19-2.786,0.278l-0.816,0.05l-0.719,0.01
		c-0.237-0.005-0.37-0.02-0.559-0.033c-0.19-0.029-0.386-0.068-0.583-0.122c-0.412-0.138-0.873-0.353-1.231-0.761
		c-0.354-0.385-0.565-0.87-0.64-1.265c-0.097-0.416-0.089-0.763-0.072-1.091c0.047-0.647,0.189-1.184,0.345-1.697
		c0.321-1.015,0.733-1.906,1.161-2.771c0.866-1.719,1.807-3.307,2.775-4.824c0.486-0.753,0.969-1.498,1.445-2.233
		c0.229-0.362,0.504-0.735,0.689-1.074c0.172-0.329,0.344-0.655,0.513-0.979c0.569-1.43,0.958-2.976,1.213-4.509
		c0.286-1.524,0.45-3.039,0.585-4.493c0.497-5.835,0.44-10.777,0.426-14.221C189.477,141.908,189.4,139.933,189.4,139.933z"/>
	<path fill="#231F20" d="M197.12,45.232c-97.444,4.46-57.145,129.015-57.145,129.015s0-55.932,7.801-65.71
		c0,0,10.058-17.67,26.184-17.67s16.47,9.093,25.049,9.093c8.576,0,8.707-9.093,24.832-9.093c16.127,0,26.186,17.67,26.186,17.67
		c7.802,9.778,7.802,65.71,7.802,65.71s40.3-124.555-57.147-129.015"/>
	<path fill="#CCB097" d="M213.419,151.426c0,0,9.436,11.152,24.876,3.773C238.295,155.199,227.315,157.772,213.419,151.426z"/>
	<path fill="#231F20" d="M187.261,138.39c0,0,1.582-3.52-9.869-6.094c-6.668-1.498-19.855-4.178-24.102-1.604
		c-4.246,2.573-7.999,14.486-5.75,10.611c2.316-3.989,7.335-5.256,13.125-5.127C167.957,136.339,185.975,139.935,187.261,138.39z"/>
	<path fill="#231F20" d="M155.603,150.738c0,0,2.234-2.706,5.023-4.879c0.688-0.551,1.42-1.052,2.137-1.484
		c0.348-0.231,0.723-0.396,1.061-0.581c0.339-0.187,0.695-0.299,1.008-0.436c0.31-0.143,0.631-0.192,0.898-0.278
		c0.269-0.087,0.516-0.122,0.723-0.142c0.412-0.049,0.648-0.076,0.648-0.076v1c0,0-0.199,0.01-0.548,0.028
		c-0.175,0.001-0.388,0.015-0.633,0.077c-0.243,0.062-0.527,0.078-0.823,0.191c-0.295,0.107-0.628,0.183-0.959,0.336
		c-0.33,0.153-0.695,0.279-1.045,0.479c-0.715,0.364-1.461,0.799-2.172,1.29C158.034,148.194,155.603,150.738,155.603,150.738z"/>
	<path fill="#231F20" d="M152.688,148.853c0,0,0.385-0.367,1.122-0.936c0.744-0.554,1.816-1.352,3.217-2.132
		c1.4-0.768,3.078-1.625,5-2.243c1.912-0.636,4.047-1.078,6.217-1.146c1.084-0.049,2.17,0.041,3.23,0.166
		c1.058,0.152,2.084,0.403,3.048,0.723c0.967,0.316,1.862,0.726,2.679,1.166c0.4,0.234,0.801,0.441,1.165,0.679
		c0.359,0.244,0.706,0.48,1.04,0.707c0.637,0.489,1.219,0.944,1.681,1.403c0.459,0.463,0.889,0.831,1.186,1.192
		c0.606,0.704,0.952,1.106,0.952,1.106s-0.395-0.352-1.088-0.967c-0.328-0.323-0.795-0.643-1.289-1.047
		c-0.501-0.397-1.116-0.779-1.758-1.223c-0.338-0.198-0.688-0.405-1.051-0.619c-0.367-0.206-0.766-0.381-1.164-0.58
		c-0.811-0.371-1.691-0.695-2.616-0.978c-0.458-0.153-0.946-0.235-1.427-0.359c-0.488-0.092-0.985-0.169-1.485-0.247
		c-1.008-0.107-2.038-0.181-3.069-0.124c-1.032,0.015-2.062,0.146-3.066,0.309c-1.002,0.19-1.989,0.393-2.923,0.678
		c-1.876,0.538-3.583,1.224-5.003,1.901c-1.416,0.688-2.579,1.311-3.366,1.795C153.127,148.555,152.688,148.853,152.688,148.853z"/>
	<circle fill="#231F20" cx="169.328" cy="147.235" r="4.632"/>
	<path fill="#CCB097" d="M182.545,151.426c0,0-9.435,11.152-24.876,3.773C157.669,155.199,168.648,157.772,182.545,151.426z"/>
	<path fill="#231F20" d="M183.224,182.306c0,0,2.916,5.832,10.465,2.059l-2.915-2.916L183.224,182.306z"/>
	<path fill="#231F20" d="M205.699,181.448l7.55,0.857c0,0-2.918,5.832-10.467,2.059"/>
	<path fill="#E0C1A6" d="M189.4,139.933c0,0,2.402,23.846-1.715,30.365c-4.118,6.518-8.407,13.724-4.29,13.724
		s5.832-1.886,10.293,2.746c0,0,1.762,1.886,4.312,1.886s4.311-1.886,4.311-1.886c4.461-4.632,6.176-2.746,10.293-2.746
		c4.118,0-0.17-7.206-4.287-13.724c-4.118-6.52-1.717-30.365-1.717-30.365"/>
	<g>
		<defs>
			<path id="SVGID_21_" d="M251.582,111.486c0,0-23.573-72.604-103.806-23.882c0,0,11.26,3.529,13.576,12.696L251.582,111.486z"/>
		</defs>
		<clipPath id="SVGID_4_">
			<use xlink:href="#SVGID_21_"  overflow="visible"/>
		</clipPath>
		<path clip-path="url(#SVGID_4_)" fill="#140F11" d="M197.048,45.233c-97.447,4.461-57.146,129.014-57.146,129.014
			s0-55.931,7.803-65.709c0,0,10.058-17.67,26.184-17.67s16.47,9.093,25.047,9.093c8.578,0,8.709-9.093,24.834-9.093
			c16.127,0,26.185,17.67,26.185,17.67c7.801,9.778,7.801,65.709,7.801,65.709s40.3-124.553-57.146-129.014"/>
	</g>
	<g>
		<defs>
			<polyline id="SVGID_23_" points="354.112,396.658 354.112,320.955 257.607,280.542 196.586,333.509 136.09,281.367 
				42.301,320.644 42.301,396.652 			"/>
		</defs>
		<clipPath id="SVGID_6_">
			<use xlink:href="#SVGID_23_"  overflow="visible"/>
		</clipPath>
		<g clip-path="url(#SVGID_6_)">
			<polygon fill="#F2E50D" points="196.645,343.425 118.479,276.054 128.271,264.692 196.61,323.593 264.448,264.709 
				274.28,276.037 			"/>
		</g>
	</g>
</g>
</svg>
