<?xml version="1.0" encoding="utf-8"?>
<!-- Generator: Adobe Illustrator 16.0.0, SVG Export Plug-In . SVG Version: 6.00 Build 0)  -->
<!DOCTYPE svg PUBLIC "-//W3C//DTD SVG 1.1//EN" "http://www.w3.org/Graphics/SVG/1.1/DTD/svg11.dtd">
<svg version="1.1" id="Layer_1" xmlns="http://www.w3.org/2000/svg" xmlns:xlink="http://www.w3.org/1999/xlink" x="0px" y="0px"
	 width="396.85px" height="396.851px" viewBox="0 0 396.85 396.851" enable-background="new 0 0 396.85 396.851"
	 xml:space="preserve">
	<defs>
	    <clipPath id="circle-clip">
	        <circle stroke="#000000" stroke-miterlimit="10" cx="200" cy="200" r="175" />
	    </clipPath>
	</defs>
	<rect width="400" height="400" class="player-bg"/>
	<rect x="147.266" y="227.759" fill="#78584E" width="104.221" height="114.459"/>
	<path fill="#6F4E43" d="M244.988,238.122c0,0-22.035,42.912-36.885,42.912h-11.58c-14.852,0-36.875-42.271-36.875-42.271
		L244.988,238.122z"/>
	<path fill="#78584E" d="M210.688,267.289c17.457-5.555,29.777-21.324,36.969-30.786c9.105-11.981,14.131-54.275,14.816-58.672
		c0.686-4.396,3.709-12.562,3.709-12.562s26.691-88.55-66.465-91.377h-0.645c-93.156,2.827-66.465,91.377-66.465,91.377
		s3.023,8.166,3.709,12.562c0.686,4.396,5.711,46.69,14.816,58.672c7.191,9.462,19.668,24.766,36.969,30.786
		C188.102,267.289,198.961,271.02,210.688,267.289z"/>
	<path fill="#42302E" d="M172.721,220.223c0,0,6.01-12.952,26.674-11.068c0,0,17.133-4.428,31.027,5.44
		C230.422,214.595,205.457,214.806,172.721,220.223z"/>
	<path fill="#473433" d="M173.9,222.343c0,0,4.945,19.547,28.732,19.547c19.781,0,27.789-24.021,27.789-24.021
		s-14.131,13.179-28.262,13.179C175.783,231.047,173.9,222.343,173.9,222.343z"/>
	<path fill="#7E6055" d="M167.307,205.386c0,0-13.189,10.834-1.65,22.373"/>
	<path fill="#7E6055" d="M237.486,205.386c0,0,8.244,4.711,1.178,17.428"/>
	<path fill="#78584E" d="M264.105,171.421c0,0,11.535-4.058,13.654,0c2.119,4.055,1.188,38.204-13.654,38.204
		s-4.715-29.438-4.715-29.438l0.941-8.766H264.105z"/>
	<path fill="#78584E" d="M134.867,171.421c0,0-11.537-4.058-13.656,0c-2.119,4.055-1.186,38.204,13.656,38.204
		s4.715-29.438,4.715-29.438l-0.943-8.766H134.867z"/>
	<path fill="#231F20" d="M187.717,198.949c0,0,4.121,2.001,7.221,0.155c3.102-1.844,0-3.61,0-3.61l-6.555,0.589L187.717,198.949z"/>
	<path fill="#231F20" d="M213.744,198.949c0,0-4.121,2.001-7.221,0.155c-3.102-1.844,0-3.61,0-3.61l6.555,0.589L213.744,198.949z"/>
	<path fill="#231F20" d="M216.764,164.524c0,0,0.275-0.307,0.822-0.778c0.279-0.229,0.619-0.507,1.029-0.802
		c0.406-0.298,0.879-0.622,1.428-0.919c0.539-0.314,1.15-0.604,1.807-0.9c0.668-0.26,1.375-0.553,2.148-0.721
		c0.381-0.109,0.771-0.195,1.178-0.246c0.404-0.052,0.809-0.16,1.227-0.152c0.418-0.016,0.838-0.03,1.26-0.046l1.268,0.101
		c0.426,0.016,0.836,0.145,1.25,0.226c0.41,0.1,0.83,0.158,1.217,0.321c0.391,0.144,0.777,0.286,1.162,0.428
		c0.383,0.141,0.721,0.364,1.076,0.538c0.715,0.353,1.34,0.757,1.926,1.143c0.592,0.383,1.15,0.745,1.666,1.08
		c1.035,0.666,1.859,1.281,2.445,1.698c0.293,0.208,0.51,0.392,0.658,0.517c0.074,0.064,0.131,0.111,0.16,0.156
		c-0.023,0.051-0.066-0.007-0.059,0.007c-0.012-0.005,0.051,0.019,0.047,0c-0.031-0.032-0.098-0.071-0.18-0.119
		c-0.168-0.092-0.416-0.226-0.73-0.396c-0.635-0.333-1.541-0.808-2.629-1.379c-1.078-0.559-2.352-1.305-3.699-1.919
		c-0.342-0.148-0.668-0.348-1.033-0.463c-0.361-0.121-0.729-0.244-1.098-0.367c-0.361-0.15-0.754-0.195-1.137-0.282
		c-0.385-0.07-0.766-0.187-1.162-0.195l-1.174-0.111c-0.395,0.009-0.785,0.018-1.174,0.026c-0.391-0.011-0.77,0.08-1.15,0.108
		c-0.383,0.03-0.756,0.096-1.117,0.185c-0.734,0.138-1.428,0.348-2.088,0.544c-0.648,0.23-1.264,0.459-1.809,0.72
		c-0.549,0.254-1.051,0.5-1.486,0.733c-0.438,0.231-0.809,0.456-1.111,0.645C217.098,164.283,216.764,164.524,216.764,164.524z"/>
	<circle fill="#231F20" cx="227.596" cy="163.316" r="4.562"/>
	<path opacity="0.6" fill="#3A2827" d="M218.057,160.445c0,0,0.258-0.372,0.805-0.944c0.273-0.287,0.629-0.611,1.041-0.981
		c0.426-0.352,0.912-0.75,1.496-1.11c0.279-0.199,0.598-0.363,0.918-0.546c0.32-0.19,0.662-0.364,1.025-0.519
		c0.709-0.348,1.504-0.622,2.34-0.847c0.424-0.091,0.855-0.186,1.293-0.28c0.445-0.044,0.896-0.088,1.35-0.133
		c0.455-0.058,0.916,0.002,1.377-0.002l0.695,0.019l0.688,0.099c0.455,0.079,0.92,0.121,1.365,0.237
		c0.443,0.125,0.885,0.249,1.322,0.372c0.877,0.236,1.666,0.67,2.465,0.982c0.781,0.402,1.461,0.798,2.141,1.178
		c0.672,0.378,1.307,0.735,1.893,1.065c0.57,0.375,1.076,0.753,1.521,1.079s0.842,0.596,1.113,0.896
		c0.287,0.278,0.506,0.495,0.643,0.655c0.119,0.176,0.182,0.27,0.182,0.27s-0.078-0.081-0.223-0.232
		c-0.16-0.135-0.426-0.301-0.732-0.535c-0.293-0.251-0.721-0.467-1.197-0.726c-0.477-0.258-1.006-0.553-1.578-0.882
		c-0.611-0.281-1.273-0.587-1.975-0.91c-0.691-0.323-1.42-0.666-2.176-1.02c-0.775-0.271-1.549-0.631-2.375-0.852
		c-0.414-0.111-0.83-0.222-1.248-0.333c-0.418-0.104-0.854-0.134-1.279-0.206l-0.643-0.102l-0.645-0.024
		c-0.43-0.001-0.861-0.067-1.285-0.018c-0.424,0.029-0.846,0.059-1.262,0.087c-0.412,0.072-0.818,0.144-1.219,0.213
		c-0.787,0.192-1.559,0.374-2.258,0.653c-0.357,0.118-0.697,0.256-1.014,0.414c-0.322,0.15-0.641,0.283-0.924,0.453
		c-1.164,0.622-2.094,1.243-2.697,1.736C218.385,160.134,218.057,160.445,218.057,160.445z"/>
	<path opacity="0.6" fill="#3A2827" d="M228.627,153.574c0,0-0.82,0.235-2.234,0.705c-1.416,0.459-3.416,1.193-5.75,2.199
		c-1.162,0.512-2.402,1.106-3.652,1.829c-1.248,0.725-2.514,1.582-3.629,2.636c-1.113,1.038-2.016,2.421-2.023,3.924
		c0.035,1.5,0.924,2.935,2.088,4.073c0.59,0.567,1.191,1.133,1.867,1.62c0.633,0.528,1.348,0.935,2.053,1.413
		c1.41,0.901,2.768,1.865,4.137,2.658c1.395,0.736,2.723,1.491,3.996,2.188c1.332,0.577,2.592,1.124,3.754,1.627
		c1.211,0.354,2.303,0.784,3.303,1.021c1.008,0.188,1.883,0.449,2.625,0.464c0.369,0.033,0.699,0.063,0.986,0.089
		c0.289-0.006,0.533-0.013,0.732-0.018c0.4,0.005,0.605-0.062,0.607-0.051c0-0.013-0.203,0.074-0.602,0.108
		c-0.199,0.022-0.447,0.053-0.736,0.085c-0.291-0.003-0.627-0.006-1.002-0.011c-0.756,0.037-1.648-0.162-2.691-0.284
		c-1.035-0.167-2.164-0.522-3.416-0.845c-1.203-0.462-2.506-0.963-3.885-1.491c-1.326-0.653-2.723-1.356-4.152-2.109
		c-1.404-0.786-2.758-1.723-4.186-2.606c-1.412-0.867-2.896-1.889-4.141-3.124c-1.227-1.241-2.295-2.905-2.316-4.81
		c0.043-1.911,1.172-3.484,2.375-4.579c1.213-1.139,2.578-1.952,3.887-2.646c1.316-0.688,2.602-1.236,3.799-1.705
		c2.4-0.931,4.473-1.472,5.916-1.85C227.785,153.721,228.627,153.574,228.627,153.574z"/>
	<path fill="#231F20" d="M182.814,164.524c0,0-0.334-0.241-0.938-0.622c-0.305-0.188-0.674-0.413-1.111-0.645
		c-0.436-0.233-0.938-0.479-1.486-0.733c-0.547-0.261-1.16-0.488-1.809-0.72c-0.66-0.196-1.354-0.406-2.088-0.544
		c-0.363-0.089-0.734-0.153-1.117-0.185c-0.381-0.028-0.762-0.119-1.15-0.108c-0.389-0.009-0.779-0.018-1.174-0.026l-1.174,0.111
		c-0.396,0.009-0.777,0.125-1.164,0.195c-0.381,0.086-0.773,0.132-1.135,0.281c-0.369,0.124-0.736,0.247-1.098,0.368
		c-0.365,0.114-0.691,0.313-1.033,0.463c-0.672,0.306-1.33,0.646-1.951,0.984c-0.621,0.332-1.207,0.646-1.748,0.935
		c-1.088,0.571-1.994,1.047-2.629,1.38c-0.314,0.17-0.562,0.304-0.73,0.396c-0.082,0.048-0.148,0.087-0.18,0.119
		c-0.004,0.019,0.059-0.005,0.047,0c0.006-0.014-0.037,0.044-0.059-0.007c0.029-0.045,0.086-0.092,0.158-0.156
		c0.148-0.124,0.367-0.308,0.66-0.517c0.586-0.417,1.41-1.032,2.445-1.698c0.516-0.335,1.074-0.697,1.666-1.08
		c0.586-0.386,1.209-0.791,1.926-1.143c0.354-0.174,0.693-0.397,1.076-0.538c0.383-0.142,0.771-0.284,1.162-0.428
		c0.387-0.163,0.807-0.223,1.217-0.321c0.414-0.081,0.824-0.21,1.25-0.226l1.268-0.101c0.422,0.016,0.842,0.03,1.26,0.046
		c0.418-0.008,0.822,0.101,1.227,0.152c0.404,0.051,0.797,0.137,1.178,0.246c0.773,0.168,1.479,0.462,2.148,0.722
		c0.656,0.296,1.268,0.585,1.807,0.899c0.549,0.297,1.021,0.621,1.428,0.919c0.41,0.295,0.75,0.572,1.029,0.802
		C182.539,164.218,182.814,164.524,182.814,164.524z"/>
	<circle fill="#231F20" cx="171.981" cy="163.316" r="4.562"/>
	<path opacity="0.6" fill="#3A2827" d="M181.52,160.445c0,0-0.326-0.312-0.941-0.793c-0.604-0.493-1.533-1.114-2.697-1.736
		c-0.285-0.17-0.602-0.303-0.924-0.453c-0.318-0.158-0.656-0.296-1.014-0.414c-0.699-0.279-1.471-0.461-2.258-0.653
		c-0.4-0.069-0.809-0.141-1.221-0.213c-0.416-0.028-0.836-0.058-1.262-0.087c-0.422-0.05-0.854,0.017-1.283,0.018l-0.646,0.024
		l-0.641,0.102c-0.428,0.072-0.861,0.102-1.281,0.206c-0.418,0.111-0.834,0.222-1.246,0.333c-0.828,0.221-1.602,0.581-2.375,0.852
		c-0.756,0.354-1.486,0.696-2.178,1.02c-0.699,0.323-1.361,0.629-1.973,0.91c-0.572,0.33-1.102,0.625-1.578,0.882
		c-0.477,0.259-0.904,0.475-1.197,0.726c-0.307,0.235-0.574,0.401-0.732,0.535c-0.145,0.151-0.223,0.232-0.223,0.232
		s0.062-0.094,0.18-0.27c0.139-0.16,0.357-0.377,0.645-0.655c0.271-0.299,0.666-0.568,1.113-0.896
		c0.445-0.326,0.951-0.703,1.521-1.079c0.586-0.33,1.221-0.687,1.893-1.065c0.68-0.38,1.359-0.774,2.139-1.178
		c0.801-0.312,1.59-0.746,2.467-0.982c0.438-0.123,0.879-0.247,1.32-0.372c0.445-0.116,0.91-0.158,1.365-0.237l0.688-0.099
		l0.695-0.019c0.461,0.004,0.922-0.056,1.377,0.002c0.455,0.045,0.904,0.089,1.352,0.133c0.436,0.095,0.867,0.189,1.291,0.28
		c0.838,0.225,1.631,0.499,2.34,0.847c0.365,0.154,0.707,0.328,1.025,0.519c0.322,0.183,0.641,0.347,0.918,0.546
		c0.584,0.36,1.07,0.759,1.496,1.11c0.414,0.37,0.77,0.694,1.041,0.981C181.262,160.073,181.52,160.445,181.52,160.445z"/>
	<path opacity="0.6" fill="#3A2827" d="M170.951,153.574c0,0,0.842,0.146,2.291,0.511c1.443,0.378,3.516,0.919,5.916,1.85
		c1.197,0.469,2.482,1.018,3.799,1.705c1.309,0.693,2.674,1.508,3.887,2.646c1.203,1.095,2.332,2.668,2.375,4.579
		c-0.021,1.905-1.09,3.568-2.316,4.81c-1.244,1.236-2.729,2.258-4.141,3.124c-1.428,0.885-2.781,1.82-4.186,2.606
		c-1.432,0.753-2.828,1.456-4.152,2.109c-1.379,0.53-2.684,1.03-3.887,1.491c-1.252,0.322-2.381,0.679-3.414,0.846
		c-1.043,0.121-1.936,0.32-2.693,0.283c-0.375,0.005-0.711,0.008-1.002,0.011c-0.289-0.032-0.535-0.062-0.734-0.085
		c-0.4-0.034-0.602-0.121-0.604-0.108c0.002-0.012,0.209,0.056,0.609,0.051c0.199,0.005,0.443,0.012,0.73,0.018
		c0.287-0.025,0.619-0.056,0.988-0.089c0.742-0.015,1.617-0.275,2.625-0.464c1-0.236,2.09-0.667,3.303-1.021
		c1.162-0.503,2.422-1.049,3.754-1.627c1.271-0.696,2.6-1.451,3.994-2.187c1.371-0.792,2.727-1.758,4.139-2.659
		c0.705-0.479,1.418-0.885,2.053-1.413c0.676-0.487,1.277-1.052,1.869-1.619c1.162-1.14,2.049-2.574,2.086-4.074
		c-0.008-1.503-0.908-2.885-2.023-3.924c-1.115-1.054-2.381-1.911-3.629-2.636c-1.25-0.723-2.49-1.317-3.652-1.829
		c-2.334-1.006-4.334-1.74-5.75-2.198C171.771,153.81,170.951,153.574,170.951,153.574z"/>
	<path fill="#FFFFFF" d="M175.412,220.223c0,0,45.59-3.69,49.83-3.649c0,0-8.008,12.6-23.082,12.6
		C187.088,229.173,175.412,220.223,175.412,220.223z"/>
	<path fill="#7E6055" d="M248.031,150.838c-13.162-13.962-30.328-8.176-56.014-9.433c-25.689-1.257-38.643,8.192-38.643,8.192
		s8.918-6.442,28.145,1.24c0,0,9.18,2.736,17.553,2.736c0,0,11.77,0.576,25.092-4.92
		C239.375,142.381,248.031,150.838,248.031,150.838z"/>
	<g>
		<path fill="#78584E" d="M206.008,178.538c0,0,6.596,7.065,10.127,8.478c3.533,1.413,10.363,7.066,0,12.483
			c0,0-1.4,0.82-3.219-0.55c-2.551-1.924-5.73-1.57-7.221,0.155c-1.469,1.699-4.006,2.022-5.025,2.022h-0.707
			c-1.021,0-3.557-0.323-5.025-2.022c-1.49-1.726-4.67-2.079-7.221-0.155c-1.818,1.37-3.219,0.55-3.219,0.55
			c-10.363-5.417-3.533-11.07,0-12.483c3.531-1.412,10.127-8.478,10.127-8.478"/>
		<path opacity="0.6" fill="#3A2827" d="M206.008,178.538c0,0,1.053,1.071,2.982,2.847c0.48,0.446,1.018,0.935,1.619,1.444
			c0.59,0.525,1.252,1.063,1.973,1.619c0.699,0.583,1.518,1.1,2.359,1.65c0.447,0.227,0.906,0.46,1.375,0.699
			c0.492,0.199,1.006,0.456,1.51,0.751c0.99,0.587,1.959,1.328,2.77,2.302c0.799,0.957,1.471,2.233,1.402,3.672
			c-0.053,1.447-0.902,2.724-1.887,3.703c-0.979,1.036-2.207,1.775-3.447,2.49c-0.17,0.092-0.273,0.18-0.498,0.27
			c-0.225,0.087-0.41,0.144-0.621,0.17c-0.41,0.074-0.832,0.049-1.229-0.043c-0.207-0.029-0.396-0.101-0.582-0.18
			c-0.188-0.078-0.383-0.143-0.543-0.258l-0.936-0.584c-0.309-0.194-0.619-0.403-0.916-0.489c-0.301-0.118-0.592-0.257-0.934-0.304
			c-0.328-0.078-0.658-0.147-0.998-0.135c-0.166-0.004-0.336-0.018-0.502-0.015l-0.498,0.073c-0.668,0.081-1.279,0.375-1.818,0.734
			l-0.768,0.723c-0.137,0.129-0.258,0.261-0.408,0.389l-0.525,0.372c-1.396,0.888-3.002,1.219-4.572,1.212
			c-1.547,0.013-3.197-0.332-4.562-1.205l-0.504-0.35c-0.156-0.132-0.299-0.283-0.449-0.425l-0.221-0.218
			c0.008,0.014-0.115-0.104-0.166-0.15l-0.41-0.379c-0.285-0.159-0.508-0.326-0.82-0.442c-0.316-0.099-0.619-0.243-0.959-0.26
			c-1.324-0.216-2.721,0.132-3.842,0.864l-0.922,0.578c-0.133,0.099-0.35,0.179-0.545,0.261c-0.197,0.085-0.396,0.159-0.598,0.187
			c-0.398,0.092-0.82,0.118-1.23,0.043c-0.207-0.024-0.408-0.087-0.613-0.166c-0.24-0.098-0.363-0.196-0.52-0.281
			c-1.191-0.688-2.459-1.442-3.436-2.479c-0.984-0.981-1.834-2.259-1.887-3.705c-0.066-1.439,0.604-2.718,1.404-3.674
			c0.811-0.974,1.779-1.715,2.77-2.302c0.496-0.291,1.002-0.545,1.516-0.756c0.473-0.24,0.936-0.475,1.385-0.705
			c0.842-0.551,1.639-1.053,2.344-1.64c0.721-0.556,1.383-1.094,1.973-1.619c0.602-0.51,1.139-0.997,1.619-1.444
			c1.93-1.775,2.982-2.846,2.982-2.846s-0.254,0.276-0.727,0.797c-0.48,0.513-1.176,1.278-2.115,2.196
			c-0.463,0.467-0.982,0.977-1.568,1.513c-0.57,0.551-1.213,1.118-1.918,1.708c-0.678,0.611-1.51,1.187-2.359,1.785
			c-0.457,0.253-0.887,0.496-1.406,0.766c-0.477,0.209-0.951,0.461-1.418,0.749c-0.928,0.58-1.832,1.312-2.553,2.224
			c-0.717,0.9-1.25,2.028-1.164,3.202c0.066,1.178,0.807,2.265,1.732,3.142c0.914,0.91,2.041,1.607,3.287,2.305
			c0.531,0.37,1.094,0.409,1.703,0.282c0.154-0.02,0.289-0.074,0.422-0.133c0.135-0.059,0.266-0.085,0.424-0.202l0.906-0.577
			c1.285-0.852,2.91-1.285,4.508-1.039c0.793,0.094,1.58,0.435,2.301,0.936l0.838,0.774c0.121,0.112,0.234,0.234,0.363,0.342
			l0.42,0.285c0.576,0.354,1.223,0.63,1.912,0.784c0.689,0.167,1.361,0.24,2.104,0.228c1.414,0.027,2.871-0.293,4.008-1.005
			l0.396-0.264c0.135-0.111,0.27-0.253,0.404-0.378l0.4-0.374l0.467-0.423c0.689-0.465,1.459-0.808,2.262-0.904l0.6-0.079
			c0.199-0.004,0.398,0.013,0.598,0.019c0.402-0.007,0.791,0.073,1.174,0.168c0.389,0.06,0.764,0.228,1.137,0.387
			c0.398,0.143,0.688,0.348,0.994,0.541l0.895,0.569c0.131,0.102,0.281,0.145,0.424,0.205c0.145,0.065,0.289,0.123,0.439,0.142
			c0.293,0.072,0.598,0.094,0.885,0.042c0.297-0.039,0.504-0.129,0.832-0.332c1.195-0.671,2.361-1.385,3.275-2.297
			c0.926-0.877,1.666-1.963,1.732-3.143c0.086-1.175-0.447-2.302-1.164-3.202c-0.723-0.913-1.625-1.645-2.555-2.225
			c-0.459-0.284-0.924-0.532-1.428-0.753c-0.48-0.264-0.953-0.52-1.412-0.771c-0.848-0.6-1.66-1.16-2.342-1.775
			c-0.705-0.589-1.35-1.156-1.92-1.708c-0.586-0.535-1.104-1.045-1.568-1.512c-0.939-0.919-1.633-1.684-2.115-2.196
			C206.262,178.814,206.008,178.538,206.008,178.538z"/>
	</g>
	<path fill="#231F20" d="M220.412,151.265c0,0,2.592-4.521,15.428-4.285c12.834,0.235,16.014,8.581,16.014,8.581
		s-4.828-3.774-9.186-4.295c-4.357-0.519-6.535-0.51-10.008-0.001C230.625,151.563,221.002,152.679,220.412,151.265z"/>
	<path fill="#231F20" d="M179.164,151.265c0,0-2.59-4.521-15.426-4.285c-12.834,0.235-16.014,8.581-16.014,8.581
		s4.828-3.774,9.184-4.295c4.357-0.519,6.535-0.51,10.01-0.001C168.953,151.563,178.576,152.679,179.164,151.265z"/>
	<path fill="#3A2827" d="M139.207,100.617c-17.951,26.985-6.605,64.652-6.605,64.652s0.391,1.059,0.922,2.607v0.001l0.02-26.632
		l5.65-3.296c-1.256-21.04,12.014-37.333,12.014-37.333H139.207z"/>
	<path fill="#3A2827" d="M259.455,100.617c17.951,26.985,6.605,64.652,6.605,64.652s-0.393,1.059-0.922,2.607v0.001l-0.02-26.632
		l-5.652-3.296c1.256-21.04-12.012-37.333-12.012-37.333H259.455z"/>
	<path fill="#231F20" d="M139.201,104.979c0-12.248-0.322-17.716,11.273-34.65c32.801-47.905,84.721-5.069,109.869,31.674
		c0,0-18.16-3.304-62.428-3.304C153.645,98.699,139.201,104.979,139.201,104.979z"/>
	<ellipse fill="#7E6055" cx="200.436" cy="262.719" rx="17.621" ry="6.228"/>
	<path fill="#30526F" d="M199.287,326.049c52.613,0,52.119-49.037,52.119-49.037l105.406,44.142c0,0,36.928,16.228,36.928,75.697
		H5.012c0-59.47,36.928-75.697,36.928-75.697l105.406-44.142c0,0-0.494,49.037,52.119,49.037"/>
	<polygon fill="#00405E" points="192.094,325.918 199.395,396.666 206.695,325.918 	"/>
	<path fill="#00405E" d="M251.566,276.821c0,0,0.494,49.037-52.119,49.037c-52.615,0-52.121-49.037-52.121-49.037l-10.455,4.176
		c3.281,31.87,30.211,56.729,62.949,56.729c32.568,0,59.379-24.606,62.885-56.24L251.566,276.821z"/>
</g>
<g>
	<g>
		<defs>
			<path id="SVGID_7_" d="M614.794-90.212c52.613,0,52.119-49.037,52.119-49.037L772.32-95.107c0,0,36.928,16.228,36.928,75.697
				H420.519c0-59.47,36.928-75.697,36.928-75.697l105.406-44.142c0,0-0.494,49.037,52.119,49.037"/>
		</defs>
		<clipPath id="SVGID_2_">
			<use xlink:href="#SVGID_7_"  overflow="visible"/>
		</clipPath>
		<g clip-path="url(#SVGID_2_)">
			<rect x="386.48" y="-5.196" fill="#30526F" width="456.807" height="25.311"/>
		</g>
	</g>
</g>
</svg>
