<?xml version="1.0" encoding="utf-8"?>
<!-- Generator: Adobe Illustrator 16.0.0, SVG Export Plug-In . SVG Version: 6.00 Build 0)  -->
<!DOCTYPE svg PUBLIC "-//W3C//DTD SVG 1.1//EN" "http://www.w3.org/Graphics/SVG/1.1/DTD/svg11.dtd">
<svg version="1.1" id="Layer_1" xmlns="http://www.w3.org/2000/svg" xmlns:xlink="http://www.w3.org/1999/xlink" x="0px" y="0px"
	 width="305.356px" height="215.555px" viewBox="0 0 305.356 215.555" enable-background="new 0 0 305.356 215.555"
	 xml:space="preserve">
<path fill="#8BDC65" d="M281.158,33.756h-86.742c-1.1,0-2.6,0.672-3.33,1.494l-12.135,13.635c-0.732,0.822-0.732,2.167,0,2.988
	l12.135,13.637c0.73,0.821,2.23,1.494,3.33,1.494h86.742c1.1,0,2-0.9,2-2V35.756C283.158,34.655,282.258,33.756,281.158,33.756z
	 M192.158,55.213c-2.67,0-4.834-2.164-4.834-4.834c0-2.669,2.164-4.832,4.834-4.832c2.668,0,4.832,2.163,4.832,4.832
	C196.99,53.049,194.826,55.213,192.158,55.213z"/>
<rect x="204.787" y="44.013" fill="none" width="73.609" height="20.733"/>
<text transform="matrix(1 0 0 1 204.7861 56.9004)" fill="#272C7E" font-family="'Arial-BoldMT'" font-size="18">€135</text>
<g>
	<path fill="none" stroke="#FFBB6A" stroke-width="3" stroke-miterlimit="10" d="M195.158,50.379c-4.133,0-4.133-4-8.266-4
		c-4.131,0-4.131,4-8.264,4s-4.133-4-8.266-4s-4.133,4-8.268,4c-4.133,0-4.133-4-8.266-4c-4.131,0-4.131,4-8.264,4s-4.133-4-8.266-4
		c-4.131,0-4.131,4-8.264,4s-4.133-4-8.268-4s-4.135,4-8.27,4c-4.133,0-4.133-4-8.266-4c-4.137,0-4.137,4-8.273,4s-4.137-4-8.273-4"
		/>
</g>
<g>
	<path fill="#272C7E" d="M122.613,48.157c-18.746-11.095-35.215-0.934-35.26-0.902c-1.48,0.462-3.001,1.235-3.001,1.235
		 M85.055,48.157L48.035,65.672L20,106.442l23.699,14.406L56,105.694v94.86h96v-94.86l12.172,15.124l23.6-14.439l-28.048-40.832
		l-37.104-17.39"/>
	<g>
		<path fill="none" stroke="#000000" stroke-width="2" stroke-linecap="round" stroke-linejoin="round" stroke-miterlimit="10" d="
			M96.619,22.478c0-4.006,3.246-7.254,7.253-7.254s7.255,3.248,7.255,7.254v8.039c0,1.65-1.176,3.664-2.612,4.476l-2.03,1.148
			c-1.437,0.812-2.612,2.656-2.612,4.1c0,1.442,0,2.623,0,2.623"/>
	</g>
	<circle fill="#232323" cx="103.64" cy="49.806" r="1.66"/>
	<polygon fill="#142377" points="71.603,200.548 74.705,98.081 77.808,200.548 	"/>
	<polygon fill="#142377" points="129.13,200.548 132.233,98.081 135.336,200.548 	"/>
	<g>
		<rect x="55.882" y="101.153" fill="none" width="95.979" height="35.277"/>
		<text transform="matrix(1 0 0 1 83.9224 126.8369)" fill="#FFFFFF" font-family="'ArialMT'" font-size="35.8716">10</text>
	</g>
	<path fill="#42408C" d="M121.581,47.013c-18.745-11.096-33.675-0.427-33.719-0.395c-1.481,0.461-2.487,1.539-2.487,1.539
		s10.475-1.955,18.584-1.955s18.412,1.63,18.412,1.63 M87.871,46.614"/>
	<circle fill="none" cx="104.98" cy="134.946" r="53.669"/>
	<text transform="matrix(0.6842 -0.7293 0.7293 0.6842 64.5249 99.5879)"><tspan x="0" y="0" fill="#FFFFFF" font-family="'ArialMT'" font-size="14">I</tspan><tspan x="3.61" y="-0.177" fill="#FFFFFF" font-family="'ArialMT'" font-size="14" rotate="6.785">B</tspan><tspan x="12.505" y="0.812" fill="#FFFFFF" font-family="'ArialMT'" font-size="14" rotate="16.789">R</tspan><tspan x="21.813" y="3.623" fill="#FFFFFF" font-family="'ArialMT'" font-size="14" rotate="26.737">A</tspan><tspan x="29.85" y="7.597" fill="#FFFFFF" font-family="'ArialMT'" font-size="14" rotate="36.637">H</tspan><tspan x="37.618" y="13.591" fill="#FFFFFF" font-family="'ArialMT'" font-size="14" rotate="43.754">I</tspan><tspan x="40.406" y="15.858" fill="#FFFFFF" font-family="'ArialMT'" font-size="14" rotate="51.68">M</tspan><tspan x="47.361" y="24.644" fill="#FFFFFF" font-family="'ArialMT'" font-size="14" rotate="63.254">O</tspan><tspan x="52.045" y="34.014" fill="#FFFFFF" font-family="'ArialMT'" font-size="14" rotate="73.638">V</tspan><tspan x="54.453" y="42.79" fill="#FFFFFF" font-family="'ArialMT'" font-size="14" rotate="80">I</tspan><tspan x="55.274" y="46.288" fill="#FFFFFF" font-family="'ArialMT'" font-size="14" rotate="87.435">C</tspan></text>
</g>
</svg>
