<?xml version="1.0" encoding="utf-8"?>
<!-- Generator: Adobe Illustrator 16.0.0, SVG Export Plug-In . SVG Version: 6.00 Build 0)  -->
<!DOCTYPE svg PUBLIC "-//W3C//DTD SVG 1.1//EN" "http://www.w3.org/Graphics/SVG/1.1/DTD/svg11.dtd">
<svg version="1.1" id="Layer_1" xmlns="http://www.w3.org/2000/svg" xmlns:xlink="http://www.w3.org/1999/xlink" x="0px" y="0px"
	 width="305.357px" height="215.555px" viewBox="0 0 305.357 215.555" enable-background="new 0 0 305.357 215.555"
	 xml:space="preserve">
<path fill="#8BDC65" d="M283.746,31.1h-86.742c-1.1,0-2.6,0.672-3.33,1.494l-12.135,13.635c-0.732,0.822-0.732,2.167,0,2.988
	l12.135,13.637c0.73,0.821,2.23,1.494,3.33,1.494h86.742c1.1,0,2-0.9,2-2V33.1C285.746,31.999,284.846,31.1,283.746,31.1z
	 M194.746,52.557c-2.67,0-4.834-2.164-4.834-4.834c0-2.669,2.164-4.832,4.834-4.832c2.668,0,4.832,2.163,4.832,4.832
	C199.578,50.393,197.414,52.557,194.746,52.557z"/>
<rect x="207.375" y="41.356" fill="none" width="73.609" height="20.733"/>
<text transform="matrix(1 0 0 1 207.374 54.2441)" fill="#272C7E" font-family="'Arial-BoldMT'" font-size="18">$114.95 </text>
<g>
	<path fill="none" stroke="#FFBB6A" stroke-width="3" stroke-miterlimit="10" d="M197.746,47.723c-4.133,0-4.133-4-8.266-4
		c-4.131,0-4.131,4-8.264,4s-4.133-4-8.266-4s-4.133,4-8.268,4c-4.133,0-4.133-4-8.266-4c-4.131,0-4.131,4-8.264,4s-4.133-4-8.266-4
		c-4.131,0-4.131,4-8.264,4s-4.133-4-8.268-4s-4.135,4-8.27,4c-4.133,0-4.133-4-8.266-4c-4.137,0-4.137,4-8.273,4s-4.137-4-8.273-4"
		/>
</g>
<g>
	<path fill="#8BDC65" d="M125.045,45.043c-18.744-11.095-35.215-0.934-35.258-0.902c-1.481,0.462-3.002,1.235-3.002,1.235
		 M87.488,45.043L50.468,62.558l-28.035,40.771l23.482,14.406L58,102.58v95.975h96V102.58l12.388,15.124l23.71-14.439
		l-27.994-40.832l-37.078-17.39"/>
	<g>
		<path fill="none" stroke="#000000" stroke-width="2" stroke-linecap="round" stroke-linejoin="round" stroke-miterlimit="10" d="
			M99.052,19.363c0-4.006,3.246-7.254,7.253-7.254s7.255,3.248,7.255,7.254v8.039c0,1.65-1.175,3.664-2.612,4.476l-2.031,1.148
			c-1.436,0.812-2.611,2.656-2.611,4.099c0,1.443,0,2.624,0,2.624"/>
	</g>
	<circle fill="#42408C" cx="106.073" cy="46.691" r="1.661"/>
	<polygon fill="#81CC5E" points="74.035,197.434 77.138,94.967 80.241,197.434 	"/>
	<polygon fill="#81CC5E" points="131.564,197.434 134.666,94.967 137.77,197.434 	"/>
	<g>
		<rect x="58.316" y="98.039" fill="none" width="95.979" height="35.277"/>
		<text transform="matrix(1 0 0 1 96.3311 123.7227)" fill="#FFFFFF" font-family="'ArialMT'" font-size="35.8716">2</text>
	</g>
	<path fill="#42408C" d="M124.014,43.898c-18.745-11.096-33.675-0.427-33.719-0.395c-1.48,0.461-2.488,1.539-2.488,1.539
		s10.477-1.955,18.585-1.955c8.109,0,18.412,1.63,18.412,1.63 M90.304,43.5"/>
	<g>
		<polyline fill="none" stroke="#42408C" stroke-width="2" stroke-miterlimit="10" points="123.222,49.91 123.37,49.997 
			159.744,67.047 173.599,87.227 		"/>
		<path fill="none" stroke="#42408C" stroke-width="2" stroke-miterlimit="10" d="M38.99,87.225l13.822-20.057L89.1,50.013
			c0.494-0.221,1.152-0.487,1.736-0.669l0.55-0.169"/>
	</g>
	<circle fill="none" cx="106.678" cy="135.315" r="53.669"/>
	<text transform="matrix(0.8552 -0.5183 0.5183 0.8552 74.4785 92.043)"><tspan x="0" y="0" fill="#FFFFFF" font-family="'ArialMT'" font-size="14">D</tspan><tspan x="9.691" y="-0.003" fill="#FFFFFF" font-family="'ArialMT'" font-size="14" rotate="9.921">E</tspan><tspan x="18.533" y="1.397" fill="#FFFFFF" font-family="'ArialMT'" font-size="14" rotate="20.619">M</tspan><tspan x="29.026" y="5.418" fill="#FFFFFF" font-family="'ArialMT'" font-size="14" rotate="31.3">P</tspan><tspan x="36.701" y="10.047" fill="#FFFFFF" font-family="'ArialMT'" font-size="14" rotate="40.859">S</tspan><tspan x="43.499" y="15.884" fill="#FFFFFF" font-family="'ArialMT'" font-size="14" rotate="50.465">E</tspan><tspan x="49.216" y="22.761" fill="#FFFFFF" font-family="'ArialMT'" font-size="14" rotate="60.016">Y</tspan></text>
</g>
</svg>
