<?xml version="1.0" encoding="utf-8"?>
<!-- Generator: Adobe Illustrator 16.0.0, SVG Export Plug-In . SVG Version: 6.00 Build 0)  -->
<!DOCTYPE svg PUBLIC "-//W3C//DTD SVG 1.1//EN" "http://www.w3.org/Graphics/SVG/1.1/DTD/svg11.dtd">
<svg version="1.1" id="Layer_1" xmlns="http://www.w3.org/2000/svg" xmlns:xlink="http://www.w3.org/1999/xlink" x="0px" y="0px"
	 width="305.357px" height="215.555px" viewBox="0 0 305.357 215.555" enable-background="new 0 0 305.357 215.555"
	 xml:space="preserve">
<path fill="#8BDC65" d="M282.437,31.949h-86.742c-1.1,0-2.599,0.672-3.33,1.494L180.23,47.079c-0.731,0.822-0.731,2.167,0,2.988
	l12.135,13.636c0.731,0.822,2.23,1.494,3.33,1.494h86.742c1.1,0,2-0.9,2-2V33.949C284.437,32.849,283.537,31.949,282.437,31.949z
	 M193.437,53.406c-2.669,0-4.833-2.164-4.833-4.833s2.164-4.833,4.833-4.833s4.833,2.164,4.833,4.833S196.106,53.406,193.437,53.406
	z"/>
<rect x="206.066" y="42.206" fill="none" width="73.609" height="20.734"/>
<text transform="matrix(1 0 0 1 206.0659 55.0938)" fill="#272C7E" font-family="'Arial-BoldMT'" font-size="18">£66.95 </text>
<g>
	<path fill="none" stroke="#FFBB6A" stroke-width="3" stroke-miterlimit="10" d="M196.437,48.573c-4.133,0-4.133-4-8.265-4
		s-4.132,4-8.265,4s-4.133-4-8.266-4s-4.133,4-8.267,4c-4.133,0-4.133-4-8.266-4c-4.132,0-4.132,4-8.265,4s-4.133-4-8.265-4
		s-4.132,4-8.265,4s-4.133-4-8.267-4c-4.135,0-4.135,4-8.27,4c-4.134,0-4.134-4-8.267-4c-4.137,0-4.137,4-8.273,4s-4.137-4-8.272-4"
		/>
</g>
<g>
	<path fill="#272C7E" d="M123.996,46.168c-18.744-11.095-35.215-0.934-35.258-0.902c-1.481,0.461-3.001,1.235-3.001,1.235
		 M86.439,46.168L49.418,63.683l-28.035,40.771l23.481,14.406l12.084-15.153v95.528h96v-95.528l12.389,15.123l23.711-14.438
		l-27.994-40.833l-37.078-17.389"/>
	<g>
		<defs>
			<path id="SVGID_3_" d="M161.145,63.557l-37.099-17.389c-1.356-0.209-2.727-0.383-4.099-0.532c2.044,0.18,3.35,0.32,3.35,0.32
				c-5.184-2.038-10.331-2.931-15.062-3.163c9.01,0.417,14.271,2.866,14.271,2.866c-18.745-11.095-33.675-0.426-33.718-0.395
				c-1.481,0.461-2.314,0.8-2.314,0.8s10.302-1.215,18.411-1.215c2.201,0,4.561,0.082,6.834,0.201
				C98.23,44.552,86.49,46.168,86.49,46.168L49.469,63.683l-28.035,40.771l23.456,14.406l12.059-15.153v95.528h96v-95.528
				l12.414,15.123l23.723-14.438l-10.644-15.569L161.145,63.557z M88.797,45.263c0.104-0.042,5.882-2.337,15.649-2.518
				C97.495,42.896,91.802,44.328,88.797,45.263z M105.295,42.732c0.118,0,0.229-0.005,0.351-0.005c0.131,0,0.253,0.005,0.383,0.006
				C105.783,42.732,105.537,42.731,105.295,42.732z"/>
		</defs>
		<clipPath id="SVGID_2_">
			<use xlink:href="#SVGID_3_"  overflow="visible"/>
		</clipPath>
		<rect x="12.949" y="74.234" clip-path="url(#SVGID_2_)" fill="#42408C" width="183" height="11"/>
		<rect x="12.949" y="58.234" clip-path="url(#SVGID_2_)" fill="#42408C" width="183" height="10"/>
		<rect x="12.949" y="42.234" clip-path="url(#SVGID_2_)" fill="#42408C" width="183" height="10"/>
		<rect x="12.949" y="121.234" clip-path="url(#SVGID_2_)" fill="#42408C" width="183" height="11"/>
		<rect x="12.949" y="106.234" clip-path="url(#SVGID_2_)" fill="#42408C" width="183" height="11"/>
		<rect x="12.949" y="90.234" clip-path="url(#SVGID_2_)" fill="#42408C" width="183" height="11"/>
		<rect x="12.949" y="153.234" clip-path="url(#SVGID_2_)" fill="#42408C" width="183" height="11"/>
		<rect x="12.949" y="137.234" clip-path="url(#SVGID_2_)" fill="#42408C" width="183" height="11"/>
		<rect x="12.949" y="169.234" clip-path="url(#SVGID_2_)" fill="#42408C" width="183" height="11"/>
		<rect x="12.949" y="186.234" clip-path="url(#SVGID_2_)" fill="#42408C" width="183" height="10"/>
	</g>
	<g>
		<path fill="none" stroke="#000000" stroke-width="2" stroke-linecap="round" stroke-linejoin="round" stroke-miterlimit="10" d="
			M98.001,20.489c0-4.007,3.248-7.254,7.254-7.254s7.255,3.248,7.255,7.254v8.039c0,1.65-1.175,3.664-2.612,4.476l-2.03,1.148
			c-1.437,0.812-2.612,2.657-2.612,4.1s0,2.624,0,2.624"/>
	</g>
	<circle fill="#272C7E" cx="105.024" cy="47.815" r="1.661"/>
	<polygon fill="#272C7E" points="72.986,198.559 76.088,96.092 79.191,198.559 	"/>
	<polygon fill="#272C7E" points="130.515,198.559 133.617,96.092 136.72,198.559 	"/>
	<g>
		<rect x="57.267" y="99.165" fill="none" width="95.979" height="35.276"/>
		<text transform="matrix(1 0 0 1 95.2812 124.8481)" fill="#FFFFFF" font-family="'ArialMT'" font-size="35.8716">4</text>
	</g>
	<path fill="none" stroke="#272C7E" stroke-width="2" stroke-miterlimit="10" d="M153.213,103.552
		c-1.788-25.933,7.579-39.995,7.579-39.995"/>
	<path fill="none" stroke="#272C7E" stroke-width="2" stroke-miterlimit="10" d="M49.255,63.557c0,0,9.366,14.062,7.577,39.995"/>
	<polyline fill="none" stroke="#FFFFFF" stroke-width="2" stroke-miterlimit="10" points="122.173,49.247 122.322,49.333 
		158.696,66.383 172.549,86.562 	"/>
	<path fill="none" stroke="#FFFFFF" stroke-width="2" stroke-miterlimit="10" d="M37.941,86.562l13.822-20.058L88.05,49.35
		c0.495-0.221,1.152-0.487,1.736-0.668l0.55-0.169"/>
	<path fill="#272C7E" d="M122.603,45.023c-18.745-11.095-33.674-0.426-33.718-0.395c-1.481,0.461-2.487,1.54-2.487,1.54
		s10.475-1.955,18.584-1.955s18.412,1.629,18.412,1.629 M88.894,44.625"/>
	<path fill="none" d="M60.457,104.488c16.617-24.542,49.986-30.966,74.53-14.349c24.541,16.62,30.966,49.987,14.349,74.531
		c-16.619,24.544-49.985,30.969-74.529,14.347C50.262,162.4,43.837,129.032,60.457,104.488z"/>
	<text transform="matrix(0.8087 -0.5882 0.5882 0.8087 69.834 93.6797)"><tspan x="0" y="0" fill="#FFFFFF" font-family="'ArialMT'" font-size="14">F</tspan><tspan x="8.193" y="-0.06" fill="#FFFFFF" font-family="'ArialMT'" font-size="14" rotate="9.187">A</tspan><tspan x="17.053" y="1.343" fill="#FFFFFF" font-family="'ArialMT'" font-size="14" rotate="18.723">B</tspan><tspan x="25.542" y="4.149" fill="#FFFFFF" font-family="'ArialMT'" font-size="14" rotate="28.592">R</tspan><tspan x="34.082" y="8.803" fill="#FFFFFF" font-family="'ArialMT'" font-size="14" rotate="38.504">E</tspan><tspan x="41.147" y="14.285" fill="#FFFFFF" font-family="'ArialMT'" font-size="14" rotate="48.875">G</tspan><tspan x="48.014" y="22.202" fill="#FFFFFF" font-family="'ArialMT'" font-size="14" rotate="59.283">A</tspan><tspan x="52.607" y="29.876" fill="#FFFFFF" font-family="'ArialMT'" font-size="14" rotate="68.769">S</tspan></text>
</g>
</svg>
