<?xml version="1.0" encoding="utf-8"?>
<!-- Generator: Adobe Illustrator 16.0.0, SVG Export Plug-In . SVG Version: 6.00 Build 0)  -->
<!DOCTYPE svg PUBLIC "-//W3C//DTD SVG 1.1//EN" "http://www.w3.org/Graphics/SVG/1.1/DTD/svg11.dtd">
<svg version="1.1" id="Layer_1" xmlns="http://www.w3.org/2000/svg" xmlns:xlink="http://www.w3.org/1999/xlink" x="0px" y="0px"
	 width="305.356px" height="215.555px" viewBox="0 0 305.356 215.555" enable-background="new 0 0 305.356 215.555"
	 xml:space="preserve">
<path fill="#8BDC65" d="M281.939,33.949h-86.742c-1.1,0-2.599,0.672-3.33,1.494l-12.135,13.636c-0.731,0.822-0.731,2.167,0,2.988
	l12.135,13.636c0.731,0.822,2.23,1.494,3.33,1.494h86.742c1.1,0,2-0.9,2-2V35.949C283.939,34.849,283.039,33.949,281.939,33.949z
	 M192.939,55.406c-2.669,0-4.833-2.164-4.833-4.833s2.164-4.833,4.833-4.833s4.833,2.164,4.833,4.833S195.608,55.406,192.939,55.406
	z"/>
<rect x="205.568" y="44.206" fill="none" width="73.609" height="20.734"/>
<text transform="matrix(1 0 0 1 205.5684 57.0938)" fill="#272C7E" font-family="'Arial-BoldMT'" font-size="18">£66.95 </text>
<g>
	<path fill="none" stroke="#FFBB6A" stroke-width="3" stroke-miterlimit="10" d="M195.939,50.573c-4.133,0-4.133-4-8.265-4
		s-4.132,4-8.265,4s-4.133-4-8.266-4s-4.133,4-8.267,4c-4.133,0-4.133-4-8.266-4c-4.132,0-4.132,4-8.265,4s-4.133-4-8.265-4
		s-4.132,4-8.265,4s-4.133-4-8.267-4c-4.135,0-4.135,4-8.27,4c-4.134,0-4.134-4-8.267-4c-4.137,0-4.137,4-8.273,4s-4.137-4-8.272-4"
		/>
</g>
<path fill="#E53543" d="M122.612,47.668c-18.745-11.095-35.215-0.934-35.259-0.902C85.872,47.227,84.353,48,84.353,48
	 M85.056,47.668L48.034,65.183L20,105.953l23.195,14.406l11.795-15.153v96.028h96v-96.028l12.678,15.123l23.853-14.438
	l-27.922-40.833l-37.042-17.389"/>
<g>
	<path fill="none" stroke="#000000" stroke-width="2" stroke-linecap="round" stroke-linejoin="round" stroke-miterlimit="10" d="
		M96.618,21.989c0-4.007,3.248-7.254,7.254-7.254s7.255,3.248,7.255,7.254v8.039c0,1.65-1.175,3.664-2.612,4.476l-2.031,1.148
		c-1.436,0.812-2.611,2.657-2.611,4.1s0,2.624,0,2.624"/>
</g>
<circle fill="#232323" cx="103.64" cy="49.315" r="1.661"/>
<polygon fill="#DD0031" points="71.603,200.059 74.704,97.592 77.808,200.059 "/>
<polygon fill="#DD0031" points="129.131,200.059 132.233,97.592 135.337,200.059 "/>
<g>
	<rect x="55.883" y="100.665" fill="none" width="95.979" height="35.276"/>
	<text transform="matrix(1 0 0 1 93.8975 126.3477)" fill="#FFFFFF" font-family="'ArialMT'" font-size="35.8716">7</text>
</g>
<path fill="none" stroke="#DD0031" stroke-width="2" stroke-miterlimit="10" d="M151.83,105.052
	c-1.788-25.933,7.578-39.995,7.578-39.995"/>
<path fill="none" stroke="#DD0031" stroke-width="2" stroke-miterlimit="10" d="M47.872,65.057c0,0,9.365,14.062,7.577,39.995"/>
<path fill="#232323" d="M121.262,46.523c-18.745-11.095-33.675-0.426-33.719-0.395c-1.481,0.461-2.487,1.54-2.487,1.54
	s10.475-1.955,18.584-1.955s18.412,1.629,18.412,1.629 M87.552,46.125"/>
<path fill="none" d="M59.114,104.488c16.617-24.542,49.986-30.966,74.53-14.349c24.541,16.62,30.966,49.987,14.349,74.531
	c-16.619,24.544-49.985,30.969-74.529,14.347C48.92,162.4,42.495,129.032,59.114,104.488z"/>
<text transform="matrix(0.8826 -0.47 0.47 0.8826 73.7949 89.5947)"><tspan x="0" y="0" fill="#FFFFFF" font-family="'ArialMT'" font-size="14">D</tspan><tspan x="9.826" y="0.177" fill="#FFFFFF" font-family="'ArialMT'" font-size="14" rotate="7.173">I</tspan><tspan x="13.508" y="0.635" fill="#FFFFFF" font-family="'ArialMT'" font-size="14" rotate="11.115"> </tspan><tspan x="17.087" y="1.044" fill="#FFFFFF" font-family="'ArialMT'" font-size="14" rotate="19.018">M</tspan><tspan x="27.676" y="4.762" fill="#FFFFFF" font-family="'ArialMT'" font-size="14" rotate="29.69">A</tspan><tspan x="35.499" y="9.148" fill="#FFFFFF" font-family="'ArialMT'" font-size="14" rotate="39.673">R</tspan><tspan x="42.924" y="15.533" fill="#FFFFFF" font-family="'ArialMT'" font-size="14" rotate="46.862">I</tspan><tspan x="45.543" y="18.07" fill="#FFFFFF" font-family="'ArialMT'" font-size="14" rotate="53.676">A</tspan></text>
<g>
	<path fill="none" stroke="#000000" stroke-width="2" stroke-linecap="round" stroke-linejoin="round" stroke-miterlimit="10" d="
		M97.656,21.989c0-4.007,3.248-7.254,7.254-7.254s7.255,3.248,7.255,7.254v8.039c0,1.65-1.175,3.664-2.612,4.476l-2.031,1.148
		c-1.436,0.812-2.611,2.657-2.611,4.1s0,2.624,0,2.624"/>
</g>
<circle fill="#232323" cx="104.678" cy="49.315" r="1.661"/>
<polygon fill="#DD0031" points="72.641,200.059 75.742,97.592 78.846,200.059 "/>
<polygon fill="#DD0031" points="130.169,200.059 133.271,97.592 136.375,200.059 "/>
<path fill="none" stroke="#DD0031" stroke-width="2" stroke-miterlimit="10" d="M152.868,105.052
	c-1.788-25.933,7.578-39.995,7.578-39.995"/>
<path fill="none" stroke="#DD0031" stroke-width="2" stroke-miterlimit="10" d="M48.91,65.057c0,0,9.365,14.062,7.577,39.995"/>
<path fill="#232323" d="M122.3,46.523c-18.745-11.095-33.675-0.426-33.719-0.395c-1.481,0.461-2.487,1.54-2.487,1.54
	s10.475-1.955,18.584-1.955s18.412,1.629,18.412,1.629 M88.59,46.125"/>
</svg>
