<?xml version="1.0" encoding="utf-8"?>
<!-- Generator: Adobe Illustrator 16.0.0, SVG Export Plug-In . SVG Version: 6.00 Build 0)  -->
<!DOCTYPE svg PUBLIC "-//W3C//DTD SVG 1.1//EN" "http://www.w3.org/Graphics/SVG/1.1/DTD/svg11.dtd">
<svg version="1.1" id="Layer_1" xmlns="http://www.w3.org/2000/svg" xmlns:xlink="http://www.w3.org/1999/xlink" x="0px" y="0px"
	 width="305.356px" height="215.555px" viewBox="0 0 305.356 215.555" enable-background="new 0 0 305.356 215.555"
	 xml:space="preserve">
<path fill="#8BDC65" d="M281.608,33.756h-86.742c-1.1,0-2.6,0.672-3.33,1.494l-12.135,13.635c-0.732,0.822-0.732,2.167,0,2.988
	l12.135,13.637c0.73,0.821,2.23,1.494,3.33,1.494h86.742c1.1,0,2-0.9,2-2V35.756C283.608,34.655,282.708,33.756,281.608,33.756z
	 M192.608,55.213c-2.67,0-4.834-2.164-4.834-4.834c0-2.669,2.164-4.832,4.834-4.832c2.668,0,4.832,2.163,4.832,4.832
	C197.44,53.049,195.276,55.213,192.608,55.213z"/>
<rect x="205.237" y="44.013" fill="none" width="73.609" height="20.733"/>
<text transform="matrix(1 0 0 1 205.2363 56.9004)" fill="#272C7E" font-family="'Arial-BoldMT'" font-size="18">€92.75</text>
<g>
	<path fill="none" stroke="#FFBB6A" stroke-width="3" stroke-miterlimit="10" d="M195.608,50.379c-4.133,0-4.133-4-8.266-4
		c-4.131,0-4.131,4-8.264,4s-4.133-4-8.266-4s-4.133,4-8.268,4c-4.133,0-4.133-4-8.266-4c-4.131,0-4.131,4-8.264,4s-4.133-4-8.266-4
		c-4.131,0-4.131,4-8.264,4s-4.133-4-8.268-4s-4.135,4-8.27,4c-4.133,0-4.133-4-8.266-4c-4.137,0-4.137,4-8.273,4s-4.137-4-8.273-4"
		/>
</g>
<g>
	<path fill="#F4F6F5" d="M123.045,47.488c-18.745-11.095-35.216-0.934-35.259-0.902c-1.481,0.462-3.001,1.235-3.001,1.235
		 M85.487,47.488l-37.02,17.515l-28.036,40.771l23.483,14.406L56,105.025v95.529h96v-95.529l12.388,15.124l23.71-14.439
		l-27.994-40.832l-37.078-17.39"/>
	
		<polyline fill="none" stroke="#000000" stroke-width="2" stroke-linecap="round" stroke-linejoin="round" stroke-miterlimit="10" points="
		121.222,50.566 121.37,50.654 157.744,67.704 171.598,87.884 183.093,104.626 	"/>
	<path fill="none" stroke="#000000" stroke-width="2" stroke-linecap="round" stroke-linejoin="round" stroke-miterlimit="10" d="
		M25.397,104.702l11.593-16.82l13.822-20.058L87.1,50.67c0.494-0.221,1.152-0.487,1.736-0.669l0.55-0.17"/>
	<g>
		<path fill="none" stroke="#000000" stroke-width="2" stroke-linecap="round" stroke-linejoin="round" stroke-miterlimit="10" d="
			M97.051,21.809c0-4.006,3.246-7.254,7.253-7.254s7.255,3.248,7.255,7.254v8.039c0,1.65-1.176,3.664-2.611,4.476l-2.031,1.148
			c-1.438,0.812-2.612,2.656-2.612,4.099c0,1.443,0,2.624,0,2.624"/>
	</g>
	<path fill="#FFB359" d="M122.013,46.344c-18.745-11.096-33.675-0.427-33.719-0.395c-1.48,0.461-2.487,1.539-2.487,1.539
		s10.476-1.955,18.584-1.955c8.109,0,18.412,1.63,18.412,1.63 M88.303,45.945"/>
	<circle fill="none" cx="104.148" cy="134.946" r="53.669"/>
	<text transform="matrix(0.8516 -0.5242 0.5242 0.8516 71.6543 91.8936)"><tspan x="0" y="0" font-family="'ArialMT'" font-size="14">R</tspan><tspan x="9.678" y="-0.076" font-family="'ArialMT'" font-size="14" rotate="10.723">O</tspan><tspan x="19.963" y="1.869" font-family="'ArialMT'" font-size="14" rotate="21.397">N</tspan><tspan x="29.011" y="5.412" font-family="'ArialMT'" font-size="14" rotate="31.284">A</tspan><tspan x="36.679" y="10.112" font-family="'ArialMT'" font-size="14" rotate="40.052">L</tspan><tspan x="42.446" y="14.797" font-family="'ArialMT'" font-size="14" rotate="49.257">D</tspan><tspan x="48.831" y="22.097" font-family="'ArialMT'" font-size="14" rotate="60.024">O</tspan></text>
	<g>
		<rect x="55.511" y="101.153" fill="none" width="95.979" height="35.277"/>
		<text transform="matrix(1 0 0 1 93.5254 126.8369)" font-family="'ArialMT'" font-size="35.8716">7</text>
	</g>
</g>
</svg>
