<?xml version="1.0" encoding="utf-8"?>
<!-- Generator: Adobe Illustrator 16.0.0, SVG Export Plug-In . SVG Version: 6.00 Build 0)  -->
<!DOCTYPE svg PUBLIC "-//W3C//DTD SVG 1.1//EN" "http://www.w3.org/Graphics/SVG/1.1/DTD/svg11.dtd">
<svg version="1.1" id="Layer_1" xmlns="http://www.w3.org/2000/svg" xmlns:xlink="http://www.w3.org/1999/xlink" x="0px" y="0px"
	 width="305.356px" height="215.555px" viewBox="0 0 305.356 215.555" enable-background="new 0 0 305.356 215.555"
	 xml:space="preserve">
<path fill="#8BDC65" d="M281.965,33.201h-86.742c-1.1,0-2.6,0.672-3.33,1.494L179.758,48.33c-0.732,0.822-0.732,2.167,0,2.988
	l12.135,13.637c0.73,0.821,2.23,1.494,3.33,1.494h86.742c1.1,0,2-0.9,2-2V35.201C283.965,34.101,283.064,33.201,281.965,33.201z
	 M192.965,54.658c-2.67,0-4.834-2.164-4.834-4.834c0-2.669,2.164-4.832,4.834-4.832c2.668,0,4.832,2.163,4.832,4.832
	C197.797,52.494,195.633,54.658,192.965,54.658z"/>
<rect x="205.594" y="43.458" fill="none" width="73.609" height="20.733"/>
<text transform="matrix(1 0 0 1 205.5928 56.3457)" fill="#272C7E" font-family="'Arial-BoldMT'" font-size="18">€92.75</text>
<g>
	<path fill="none" stroke="#FFBB6A" stroke-width="3" stroke-miterlimit="10" d="M195.965,49.824c-4.133,0-4.133-4-8.266-4
		c-4.131,0-4.131,4-8.264,4s-4.133-4-8.266-4s-4.133,4-8.268,4c-4.133,0-4.133-4-8.266-4c-4.131,0-4.131,4-8.264,4s-4.133-4-8.266-4
		c-4.131,0-4.131,4-8.264,4s-4.133-4-8.268-4s-4.135,4-8.27,4c-4.133,0-4.133-4-8.266-4c-4.137,0-4.137,4-8.273,4s-4.137-4-8.273-4"
		/>
</g>
<g>
	<path fill="#F4F6F5" d="M123.401,46.934C104.656,35.839,88.186,46,88.143,46.031c-1.481,0.462-3.001,1.235-3.001,1.235
		 M85.844,46.934l-37.02,17.515l-28.036,40.771l23.483,14.406l12.085-15.154V200h96v-95.529l12.388,15.124l23.71-14.439
		L160.46,64.323l-37.078-17.39"/>
	
		<polyline fill="none" stroke="#000000" stroke-width="2" stroke-linecap="round" stroke-linejoin="round" stroke-miterlimit="10" points="
		121.578,50.012 121.727,50.1 158.101,67.149 171.954,87.329 183.449,104.071 	"/>
	<path fill="none" stroke="#000000" stroke-width="2" stroke-linecap="round" stroke-linejoin="round" stroke-miterlimit="10" d="
		M25.754,104.147l11.593-16.82L51.169,67.27l36.287-17.154c0.494-0.221,1.152-0.487,1.736-0.669l0.55-0.17"/>
	<g>
		<path fill="none" stroke="#000000" stroke-width="2" stroke-linecap="round" stroke-linejoin="round" stroke-miterlimit="10" d="
			M97.407,21.254c0-4.006,3.246-7.254,7.253-7.254s7.255,3.248,7.255,7.254v8.039c0,1.65-1.176,3.664-2.611,4.476l-2.031,1.148
			c-1.438,0.812-2.612,2.656-2.612,4.099c0,1.443,0,2.624,0,2.624"/>
	</g>
	<path fill="#FFB359" d="M122.369,45.789c-18.745-11.096-33.675-0.427-33.719-0.395c-1.48,0.461-2.487,1.539-2.487,1.539
		s10.476-1.955,18.584-1.955c8.109,0,18.412,1.63,18.412,1.63 M88.659,45.391"/>
	<circle fill="none" cx="104.505" cy="134.392" r="53.669"/>
	<text transform="matrix(0.9292 -0.3695 0.3695 0.9292 81.3506 85.8242)"><tspan x="0" y="0" font-family="'ArialMT'" font-size="14">J</tspan><tspan x="6.671" y="-0.107" font-family="'ArialMT'" font-size="14" rotate="8.308">A</tspan><tspan x="15.543" y="1.041" font-family="'ArialMT'" font-size="14" rotate="18.994">M</tspan><tspan x="26.134" y="4.756" font-family="'ArialMT'" font-size="14" rotate="29.709">E</tspan><tspan x="33.945" y="9.177" font-family="'ArialMT'" font-size="14" rotate="39.33">S</tspan></text>
	<g>
		<rect x="55.867" y="100.599" fill="none" width="95.979" height="35.277"/>
		<text transform="matrix(1 0 0 1 83.9072 126.2822)" font-family="'ArialMT'" font-size="35.8716">10</text>
	</g>
</g>
</svg>
