<?xml version="1.0" encoding="utf-8"?>
<!-- Generator: Adobe Illustrator 16.0.0, SVG Export Plug-In . SVG Version: 6.00 Build 0)  -->
<!DOCTYPE svg PUBLIC "-//W3C//DTD SVG 1.1//EN" "http://www.w3.org/Graphics/SVG/1.1/DTD/svg11.dtd">
<svg version="1.1" id="Layer_1" xmlns="http://www.w3.org/2000/svg" xmlns:xlink="http://www.w3.org/1999/xlink" x="0px" y="0px"
	 width="305.356px" height="215.555px" viewBox="0 0 305.356 215.555" enable-background="new 0 0 305.356 215.555"
	 xml:space="preserve">
<path fill="#8BDC65" d="M280.901,33.714h-86.742c-1.1,0-2.599,0.672-3.33,1.494l-12.135,13.636c-0.731,0.822-0.731,2.167,0,2.988
	l12.135,13.636c0.731,0.822,2.23,1.494,3.33,1.494h86.742c1.1,0,2-0.9,2-2V35.714C282.901,34.614,282.001,33.714,280.901,33.714z
	 M191.901,55.171c-2.669,0-4.833-2.164-4.833-4.833s2.164-4.833,4.833-4.833s4.833,2.164,4.833,4.833S194.57,55.171,191.901,55.171z
	"/>
<rect x="204.53" y="43.972" fill="none" width="73.609" height="20.734"/>
<text transform="matrix(1 0 0 1 204.5303 56.8594)" fill="#272C7E" font-family="'Arial-BoldMT'" font-size="18">£66.95 </text>
<g>
	<path fill="none" stroke="#FFBB6A" stroke-width="3" stroke-miterlimit="10" d="M194.901,50.338c-4.133,0-4.133-4-8.265-4
		s-4.132,4-8.265,4s-4.133-4-8.266-4s-4.133,4-8.267,4c-4.133,0-4.133-4-8.266-4c-4.132,0-4.132,4-8.265,4s-4.133-4-8.265-4
		s-4.132,4-8.265,4s-4.133-4-8.267-4c-4.135,0-4.135,4-8.27,4c-4.134,0-4.134-4-8.267-4c-4.137,0-4.137,4-8.273,4s-4.137-4-8.272-4"
		/>
</g>
<g>
	<path fill="#E53543" d="M122.612,47.434c-18.745-11.095-35.215-0.934-35.259-0.902c-1.481,0.461-3.001,1.235-3.001,1.235
		 M85.056,47.434L48.034,64.948L20,105.719l23.378,14.406l11.979-15.153V201h96v-96.028l12.494,15.123l23.763-14.438l-27.969-40.833
		l-37.065-17.389"/>
	<g>
		<path fill="none" stroke="#000000" stroke-width="2" stroke-linecap="round" stroke-linejoin="round" stroke-miterlimit="10" d="
			M96.618,21.754c0-4.007,3.248-7.254,7.254-7.254s7.255,3.248,7.255,7.254v8.039c0,1.65-1.175,3.664-2.612,4.476l-2.031,1.148
			c-1.436,0.812-2.611,2.657-2.611,4.1s0,2.624,0,2.624"/>
	</g>
	<circle fill="#232323" cx="103.64" cy="49.081" r="1.661"/>
	<polygon fill="#DD0031" points="71.603,199.824 74.704,97.358 77.808,199.824 	"/>
	<polygon fill="#DD0031" points="129.131,199.824 132.233,97.358 135.337,199.824 	"/>
	<g>
		<rect x="55.883" y="100.43" fill="none" width="95.979" height="35.276"/>
		<text transform="matrix(1 0 0 1 83.9229 126.1133)" fill="#FFFFFF" font-family="'ArialMT'" font-size="35.8716">10</text>
	</g>
	<path fill="none" stroke="#DD0031" stroke-width="2" stroke-miterlimit="10" d="M151.83,104.817
		c-1.788-25.933,7.578-39.995,7.578-39.995"/>
	<path fill="none" stroke="#DD0031" stroke-width="2" stroke-miterlimit="10" d="M47.872,64.823c0,0,9.365,14.062,7.577,39.995"/>
	<path fill="#232323" d="M121.262,46.289c-18.745-11.095-33.675-0.426-33.719-0.395c-1.481,0.461-2.487,1.54-2.487,1.54
		s10.475-1.955,18.584-1.955s18.412,1.629,18.412,1.629 M87.552,45.891"/>
	<path fill="none" d="M59.114,104.253c16.617-24.542,49.986-30.966,74.53-14.349c24.541,16.62,30.966,49.987,14.349,74.531
		c-16.619,24.544-49.985,30.969-74.529,14.347C48.92,162.166,42.495,128.798,59.114,104.253z"/>
	<text transform="matrix(0.889 -0.458 0.458 0.889 74.4111 88.9609)"><tspan x="0" y="0" fill="#FFFFFF" font-family="'ArialMT'" font-size="14">R</tspan><tspan x="9.703" y="-0.074" fill="#FFFFFF" font-family="'ArialMT'" font-size="14" rotate="10.719">O</tspan><tspan x="19.99" y="1.831" fill="#FFFFFF" font-family="'ArialMT'" font-size="14" rotate="21.783">O</tspan><tspan x="29.72" y="5.716" fill="#FFFFFF" font-family="'ArialMT'" font-size="14" rotate="32.497">N</tspan><tspan x="37.914" y="10.932" fill="#FFFFFF" font-family="'ArialMT'" font-size="14" rotate="42.483">E</tspan><tspan x="44.54" y="16.958" fill="#FFFFFF" font-family="'ArialMT'" font-size="14" rotate="52.081">Y</tspan></text>
</g>
</svg>
