<?xml version="1.0" encoding="utf-8"?>
<!-- Generator: Adobe Illustrator 16.0.0, SVG Export Plug-In . SVG Version: 6.00 Build 0)  -->
<!DOCTYPE svg PUBLIC "-//W3C//DTD SVG 1.1//EN" "http://www.w3.org/Graphics/SVG/1.1/DTD/svg11.dtd">
<svg version="1.1" id="Layer_1" xmlns="http://www.w3.org/2000/svg" xmlns:xlink="http://www.w3.org/1999/xlink" x="0px" y="0px"
	 width="305.356px" height="215.555px" viewBox="0 0 305.356 215.555" enable-background="new 0 0 305.356 215.555"
	 xml:space="preserve">
<path fill="#8BDC65" d="M281.771,34.297h-86.742c-1.1,0-2.599,0.672-3.33,1.494l-12.135,13.635c-0.731,0.822-0.731,2.167,0,2.988
	l12.135,13.637c0.731,0.821,2.23,1.494,3.33,1.494h86.742c1.1,0,2-0.9,2-2V36.297C283.771,35.196,282.87,34.297,281.771,34.297z
	 M192.771,55.754c-2.669,0-4.833-2.164-4.833-4.834c0-2.669,2.164-4.832,4.833-4.832s4.833,2.163,4.833,4.832
	C197.604,53.59,195.439,55.754,192.771,55.754z"/>
<rect x="205.399" y="44.554" fill="none" width="73.609" height="20.733"/>
<text transform="matrix(1 0 0 1 205.3994 57.4414)" fill="#272C7E" font-family="'Arial-BoldMT'" font-size="18">£66.95 </text>
<g>
	<path fill="none" stroke="#FFBB6A" stroke-width="3" stroke-miterlimit="10" d="M195.771,50.92c-4.133,0-4.133-4-8.265-4
		s-4.132,4-8.265,4s-4.133-4-8.266-4s-4.133,4-8.267,4c-4.133,0-4.133-4-8.266-4c-4.132,0-4.132,4-8.265,4s-4.133-4-8.265-4
		s-4.132,4-8.265,4s-4.133-4-8.267-4c-4.135,0-4.135,4-8.27,4c-4.134,0-4.134-4-8.267-4c-4.137,0-4.137,4-8.273,4s-4.137-4-8.272-4"
		/>
</g>
<g>
	<path fill="#A8E6F8" d="M123.329,47.896c-18.745-11.096-35.216-0.934-35.259-0.902c-1.481,0.461-3.001,1.234-3.001,1.234
		 M85.771,47.896L48.752,65.41l-28.036,40.771l23.342,14.406L56,105.434v95.121h96v-95.121l12.53,15.123l23.78-14.438
		l-27.958-40.834l-37.062-17.389"/>
	<g>
		<path fill="none" stroke="#000000" stroke-width="2" stroke-linecap="round" stroke-linejoin="round" stroke-miterlimit="10" d="
			M97.335,22.217c0-4.007,3.247-7.254,7.254-7.254s7.255,3.248,7.255,7.254v8.039c0,1.649-1.175,3.664-2.611,4.476l-2.032,1.147
			c-1.436,0.812-2.611,2.657-2.611,4.1c0,1.443,0,2.624,0,2.624"/>
	</g>
	<circle fill="#272C7E" cx="104.356" cy="49.543" r="1.661"/>
	<polygon fill="#8FDFF6" points="72.319,200.287 75.422,97.82 78.524,200.287 	"/>
	<polygon fill="#8FDFF6" points="129.848,200.287 132.949,97.82 136.053,200.287 	"/>
	<g>
		<rect x="56.599" y="100.893" fill="none" width="95.98" height="35.276"/>
		<text transform="matrix(1 0 0 1 84.6396 126.5762)" fill="#262C7E" font-family="'ArialMT'" font-size="35.8716">42</text>
	</g>
	<path fill="none" stroke="#8FDFF6" stroke-width="2" stroke-miterlimit="10" d="M152.547,105.279
		c-1.788-25.932,7.579-39.994,7.579-39.994"/>
	<path fill="none" stroke="#8FDFF6" stroke-width="2" stroke-miterlimit="10" d="M48.589,65.285c0,0,9.365,14.062,7.577,39.994"/>
	<path fill="#272C7E" d="M121.979,46.751c-18.746-11.095-33.675-0.426-33.719-0.396c-1.481,0.462-2.488,1.541-2.488,1.541
		s10.476-1.955,18.585-1.955s18.412,1.629,18.412,1.629 M88.269,46.354"/>
	<circle fill="none" cx="105.271" cy="134.489" r="53.669"/>
	<text transform="matrix(0.7286 -0.685 0.685 0.7286 65.3984 98.2725)"><tspan x="0" y="0" fill="#262C7E" font-family="'ArialMT'" font-size="14">T</tspan><tspan x="8.164" y="-0.138" fill="#262C7E" font-family="'ArialMT'" font-size="14" rotate="9.999">O</tspan><tspan x="18.474" y="1.679" fill="#262C7E" font-family="'ArialMT'" font-size="14" rotate="20.756">U</tspan><tspan x="27.574" y="5.092" fill="#262C7E" font-family="'ArialMT'" font-size="14" rotate="31.057">R</tspan><tspan x="35.895" y="10.1" fill="#262C7E" font-family="'ArialMT'" font-size="14" rotate="40.933">E</tspan><tspan x="42.649" y="16.15" fill="#262C7E" font-family="'ArialMT'" font-size="14" rotate="47.698"> </tspan><tspan x="45.204" y="18.694" fill="#262C7E" font-family="'ArialMT'" font-size="14" rotate="54.454">Y</tspan><tspan x="50.44" y="25.967" fill="#262C7E" font-family="'ArialMT'" font-size="14" rotate="64.068">A</tspan><tspan x="54.388" y="34.015" fill="#262C7E" font-family="'ArialMT'" font-size="14" rotate="73.617">Y</tspan><tspan x="56.947" y="42.611" fill="#262C7E" font-family="'ArialMT'" font-size="14" rotate="83.05">A</tspan></text>
</g>
</svg>
