<?xml version="1.0" encoding="utf-8"?>
<!-- Generator: Adobe Illustrator 16.0.0, SVG Export Plug-In . SVG Version: 6.00 Build 0)  -->
<!DOCTYPE svg PUBLIC "-//W3C//DTD SVG 1.1//EN" "http://www.w3.org/Graphics/SVG/1.1/DTD/svg11.dtd">
<svg version="1.1" id="Layer_1" xmlns="http://www.w3.org/2000/svg" xmlns:xlink="http://www.w3.org/1999/xlink" x="0px" y="0px"
	 width="305.356px" height="215.555px" viewBox="0 0 305.356 215.555" enable-background="new 0 0 305.356 215.555"
	 xml:space="preserve">
<path fill="#8BDC65" d="M283.608,32.985h-86.742c-1.1,0-2.6,0.672-3.33,1.494l-12.135,13.635c-0.732,0.822-0.732,2.167,0,2.988
	l12.135,13.637c0.73,0.821,2.23,1.494,3.33,1.494h86.742c1.1,0,2-0.9,2-2V34.985C285.608,33.885,284.708,32.985,283.608,32.985z
	 M194.608,54.442c-2.67,0-4.834-2.164-4.834-4.834c0-2.669,2.164-4.832,4.834-4.832c2.668,0,4.832,2.163,4.832,4.832
	C199.44,52.278,197.276,54.442,194.608,54.442z"/>
<rect x="207.237" y="43.242" fill="none" width="73.609" height="20.733"/>
<text transform="matrix(1 0 0 1 207.2363 56.1299)" fill="#272C7E" font-family="'Arial-BoldMT'" font-size="18">€92.75</text>
<g>
	<path fill="none" stroke="#FFBB6A" stroke-width="3" stroke-miterlimit="10" d="M197.608,49.608c-4.133,0-4.133-4-8.266-4
		c-4.131,0-4.131,4-8.264,4s-4.133-4-8.266-4s-4.133,4-8.268,4c-4.133,0-4.133-4-8.266-4c-4.131,0-4.131,4-8.264,4s-4.133-4-8.266-4
		c-4.131,0-4.131,4-8.264,4s-4.133-4-8.268-4s-4.135,4-8.27,4c-4.133,0-4.133-4-8.266-4c-4.137,0-4.137,4-8.273,4s-4.137-4-8.273-4"
		/>
</g>
<g>
	<path fill="#F4F6F5" d="M124.045,47.488c-18.745-11.095-35.216-0.934-35.259-0.902c-1.481,0.462-3.001,1.235-3.001,1.235
		 M86.487,47.488l-37.02,17.515l-28.036,40.771l23.662,14.406l12.263-15.154v95.529h96v-95.529l12.209,15.124l23.621-14.439
		l-28.039-40.832l-37.1-17.39"/>
	
		<polyline fill="none" stroke="#000000" stroke-width="2" stroke-linecap="round" stroke-linejoin="round" stroke-miterlimit="10" points="
		122.222,50.566 122.37,50.654 158.744,67.704 172.598,87.884 184.093,104.626 	"/>
	<path fill="none" stroke="#000000" stroke-width="2" stroke-linecap="round" stroke-linejoin="round" stroke-miterlimit="10" d="
		M26.397,104.702l11.593-16.82l13.822-20.058L88.1,50.67c0.494-0.221,1.152-0.487,1.736-0.669l0.55-0.17"/>
	<g>
		<path fill="none" stroke="#000000" stroke-width="2" stroke-linecap="round" stroke-linejoin="round" stroke-miterlimit="10" d="
			M98.051,21.809c0-4.006,3.246-7.254,7.253-7.254s7.255,3.248,7.255,7.254v8.039c0,1.65-1.176,3.664-2.611,4.476l-2.031,1.148
			c-1.438,0.812-2.612,2.656-2.612,4.099c0,1.443,0,2.624,0,2.624"/>
	</g>
	<path fill="#FFB359" d="M123.013,46.344c-18.745-11.096-33.675-0.427-33.719-0.395c-1.48,0.461-2.487,1.539-2.487,1.539
		s10.476-1.955,18.584-1.955c8.109,0,18.412,1.63,18.412,1.63 M89.303,45.945"/>
	<circle fill="none" cx="105.148" cy="134.946" r="53.669"/>
	<text transform="matrix(0.9661 -0.2581 0.2581 0.9661 86.7417 84.3047)"><tspan x="0" y="0" font-family="'ArialMT'" font-size="14">B</tspan><tspan x="8.957" y="-0.034" font-family="'ArialMT'" font-size="14" rotate="9.483">A</tspan><tspan x="17.813" y="1.477" font-family="'ArialMT'" font-size="14" rotate="18.205">L</tspan><tspan x="24.928" y="3.728" font-family="'ArialMT'" font-size="14" rotate="27.007">E</tspan></text>
	<g>
		<rect x="56.511" y="101.153" fill="none" width="95.979" height="35.277"/>
		<text transform="matrix(1 0 0 1 84.5508 126.8369)" font-family="'ArialMT'" font-size="35.8716">11</text>
	</g>
</g>
</svg>
