<?xml version="1.0" encoding="utf-8"?>
<!-- Generator: Adobe Illustrator 16.0.0, SVG Export Plug-In . SVG Version: 6.00 Build 0)  -->
<!DOCTYPE svg PUBLIC "-//W3C//DTD SVG 1.1//EN" "http://www.w3.org/Graphics/SVG/1.1/DTD/svg11.dtd">
<svg version="1.1" id="Layer_1" xmlns="http://www.w3.org/2000/svg" xmlns:xlink="http://www.w3.org/1999/xlink" x="0px" y="0px"
	 width="305.356px" height="215.555px" viewBox="0 0 305.356 215.555" enable-background="new 0 0 305.356 215.555"
	 xml:space="preserve">
<path fill="#8BDC65" d="M283.103,34.297H196.36c-1.1,0-2.599,0.672-3.33,1.494l-12.135,13.635c-0.731,0.822-0.731,2.167,0,2.988
	l12.135,13.637c0.731,0.821,2.23,1.494,3.33,1.494h86.742c1.1,0,2-0.9,2-2V36.297C285.103,35.196,284.202,34.297,283.103,34.297z
	 M194.103,55.754c-2.669,0-4.833-2.164-4.833-4.834c0-2.669,2.164-4.832,4.833-4.832s4.833,2.163,4.833,4.832
	C198.936,53.59,196.771,55.754,194.103,55.754z"/>
<rect x="206.731" y="44.554" fill="none" width="73.609" height="20.733"/>
<text transform="matrix(1 0 0 1 206.7314 57.4414)" fill="#272C7E" font-family="'Arial-BoldMT'" font-size="18">£64.99</text>
<g>
	<path fill="none" stroke="#FFBB6A" stroke-width="3" stroke-miterlimit="10" d="M197.103,50.92c-4.133,0-4.133-4-8.265-4
		s-4.132,4-8.265,4s-4.133-4-8.266-4s-4.133,4-8.267,4c-4.133,0-4.133-4-8.266-4c-4.132,0-4.132,4-8.265,4s-4.133-4-8.265-4
		s-4.132,4-8.265,4s-4.133-4-8.267-4c-4.135,0-4.135,4-8.27,4c-4.134,0-4.134-4-8.267-4c-4.137,0-4.137,4-8.273,4s-4.137-4-8.272-4"
		/>
</g>
<g>
	<path fill="#E53543" d="M124.401,47.488c-18.744-11.095-35.215-0.934-35.258-0.902c-1.481,0.462-3.002,1.235-3.002,1.235
		 M86.845,47.488L49.824,65.003L21.79,105.773l23.481,14.406l12.085-15.154v95.529h96v-95.529l12.388,15.124l23.71-14.439
		L161.46,64.878l-37.078-17.39"/>
	<g>
		<path fill="none" stroke="#000000" stroke-width="2" stroke-linecap="round" stroke-linejoin="round" stroke-miterlimit="10" d="
			M98.407,21.809c0-4.006,3.248-7.254,7.254-7.254c4.007,0,7.256,3.248,7.256,7.254v8.039c0,1.65-1.176,3.664-2.612,4.476
			l-2.032,1.148c-1.436,0.812-2.611,2.656-2.611,4.099c0,1.443,0,2.624,0,2.624"/>
	</g>
	<circle fill="#232323" cx="105.429" cy="49.137" r="1.661"/>
	<polygon fill="#DD0031" points="73.392,199.879 76.493,97.412 79.598,199.879 	"/>
	<polygon fill="#DD0031" points="130.921,199.879 134.022,97.412 137.126,199.879 	"/>
	<g>
		<rect x="57.673" y="100.484" fill="none" width="95.979" height="35.277"/>
		<text transform="matrix(1 0 0 1 85.7119 126.168)" fill="#FFFFFF" font-family="'ArialMT'" font-size="35.8716">45</text>
	</g>
	<path fill="#E53543" d="M123.37,46.344c-18.746-11.096-33.675-0.427-33.719-0.395c-1.48,0.461-2.488,1.539-2.488,1.539
		s10.477-1.955,18.586-1.955s18.412,1.63,18.412,1.63 M89.66,45.945"/>
	<path fill="none" stroke="#FFFFFF" stroke-miterlimit="10" d="M88.249,46.586c0,0,3.248,4.21,11.759,4.21"/>
	<path fill="none" stroke="#FFFFFF" stroke-miterlimit="10" d="M124.151,46.586c0,0-3.247,4.21-11.758,4.21"/>
	<path fill="none" stroke="#FFFFFF" stroke-miterlimit="10" d="M80.587,50.796c0,0,3.812,8.917,0,11.153
		c-3.813,2.235-22.592,6.706-26.17,11.178c-3.576,4.471-26.307,36.545-26.307,36.545"/>
	<path fill="none" stroke="#FFFFFF" stroke-miterlimit="10" d="M130.853,50.796c0,0-3.812,8.917,0,11.153
		c3.813,2.235,22.592,6.706,26.17,11.178c3.576,4.471,26.307,36.545,26.307,36.545"/>
	<circle fill="none" cx="105.77" cy="134.489" r="53.669"/>
	<text transform="matrix(0.8208 -0.5713 0.5713 0.8208 71.2354 93.0996)"><tspan x="0" y="0" fill="#FFFFFF" font-family="'ArialMT'" font-size="14">B</tspan><tspan x="8.957" y="-0.03" fill="#FFFFFF" font-family="'ArialMT'" font-size="14" rotate="9.575">A</tspan><tspan x="17.809" y="1.494" fill="#FFFFFF" font-family="'ArialMT'" font-size="14" rotate="18.303">L</tspan><tspan x="24.901" y="3.674" fill="#FFFFFF" font-family="'ArialMT'" font-size="14" rotate="27.786">O</tspan><tspan x="34.163" y="8.63" fill="#FFFFFF" font-family="'ArialMT'" font-size="14" rotate="37.7">T</tspan><tspan x="40.681" y="13.59" fill="#FFFFFF" font-family="'ArialMT'" font-size="14" rotate="46.87">E</tspan><tspan x="46.792" y="20.161" fill="#FFFFFF" font-family="'ArialMT'" font-size="14" rotate="55.673">L</tspan><tspan x="51.027" y="26.327" fill="#FFFFFF" font-family="'ArialMT'" font-size="14" rotate="63.659">L</tspan><tspan x="54.304" y="33.121" fill="#FFFFFF" font-family="'ArialMT'" font-size="14" rotate="69.875">I</tspan></text>
</g>
</svg>
