<?xml version="1.0" encoding="utf-8"?>
<!-- Generator: Adobe Illustrator 16.0.0, SVG Export Plug-In . SVG Version: 6.00 Build 0)  -->
<!DOCTYPE svg PUBLIC "-//W3C//DTD SVG 1.1//EN" "http://www.w3.org/Graphics/SVG/1.1/DTD/svg11.dtd">
<svg version="1.1" id="Layer_1" xmlns="http://www.w3.org/2000/svg" xmlns:xlink="http://www.w3.org/1999/xlink" x="0px" y="0px"
	 width="305.356px" height="215.555px" viewBox="0 0 305.356 215.555" enable-background="new 0 0 305.356 215.555"
	 xml:space="preserve">
<path fill="#8BDC65" d="M282.82,33.297h-86.742c-1.1,0-2.599,0.672-3.33,1.494l-12.135,13.635c-0.731,0.822-0.731,2.167,0,2.988
	l12.135,13.637c0.731,0.821,2.23,1.494,3.33,1.494h86.742c1.1,0,2-0.9,2-2V35.297C284.82,34.196,283.919,33.297,282.82,33.297z
	 M193.82,54.754c-2.669,0-4.833-2.164-4.833-4.834c0-2.669,2.164-4.832,4.833-4.832s4.833,2.163,4.833,4.832
	C198.653,52.59,196.489,54.754,193.82,54.754z"/>
<rect x="206.449" y="43.554" fill="none" width="73.609" height="20.733"/>
<text transform="matrix(1 0 0 1 206.4487 56.4414)" fill="#272C7E" font-family="'Arial-BoldMT'" font-size="18">£66</text>
<g>
	<path fill="none" stroke="#FFBB6A" stroke-width="3" stroke-miterlimit="10" d="M196.82,49.92c-4.133,0-4.133-4-8.265-4
		s-4.132,4-8.265,4s-4.133-4-8.266-4s-4.133,4-8.267,4c-4.133,0-4.133-4-8.266-4c-4.132,0-4.132,4-8.265,4s-4.133-4-8.265-4
		s-4.132,4-8.265,4s-4.133-4-8.267-4c-4.135,0-4.135,4-8.27,4c-4.134,0-4.134-4-8.267-4c-4.137,0-4.137,4-8.273,4s-4.137-4-8.272-4"
		/>
</g>
<g>
	<path fill="#E53543" d="M124.119,47.168c-18.744-11.095-35.215-0.934-35.258-0.902c-1.481,0.461-3.002,1.234-3.002,1.234
		 M86.562,47.168L49.542,64.683l-28.034,40.771l23.444,14.406L57,104.706v95.849h96v-95.849l12.426,15.122l23.728-14.438
		l-27.985-40.834l-37.074-17.389"/>
	<g>
		<path fill="none" stroke="#000000" stroke-width="2" stroke-linecap="round" stroke-linejoin="round" stroke-miterlimit="10" d="
			M98.126,21.489c0-4.007,3.246-7.254,7.253-7.254s7.255,3.248,7.255,7.254v8.039c0,1.65-1.175,3.664-2.611,4.477l-2.032,1.147
			c-1.436,0.812-2.611,2.657-2.611,4.1s0,2.624,0,2.624"/>
	</g>
	<circle fill="#232323" cx="105.147" cy="48.815" r="1.661"/>
	<polygon fill="#DD0031" points="73.109,199.559 76.212,97.092 79.315,199.559 	"/>
	<polygon fill="#DD0031" points="130.639,199.559 133.74,97.092 136.844,199.559 	"/>
	<g>
		<rect x="57.391" y="100.164" fill="none" width="95.979" height="35.277"/>
		<text transform="matrix(1 0 0 1 85.4307 125.8477)" fill="#FFFFFF" font-family="'ArialMT'" font-size="35.8716">17</text>
	</g>
	<path fill="#F4F6F5" d="M189.252,105.391l-23.629,14.438l-12.632-15.276c0,0,9.635-37.942-36.26-50.972
		c-10.589-3.007-8.346-9.107-8.346-9.107l6.558,0.013c0,0,14.592,15.177,30.403,16.845c0,0,3.728,0.318,6.782-1.033l9.089,4.26
		L189.252,105.391z"/>
	<path fill="#F4F6F5" d="M21.508,105.453l23.354,14.406l11.957-15.153c0,0-9.641-38.097,36.254-51.126
		c10.59-3.007,8.347-9.107,8.347-9.107l-6.558,0.013c0,0-14.593,15.177-30.404,16.845c0,0-3.727,0.318-6.781-1.033l-9.089,4.26
		L21.508,105.453z"/>
	<path fill="#E53543" d="M123.088,46.023c-18.745-11.096-33.675-0.426-33.719-0.396c-1.48,0.462-2.488,1.54-2.488,1.54
		s10.477-1.955,18.586-1.955c8.108,0,18.411,1.63,18.411,1.63 M89.378,45.625"/>
	<circle fill="none" cx="105.381" cy="133.579" r="53.669"/>
	<text transform="matrix(0.9292 -0.3695 0.3695 0.9292 81.1411 85.4434)"><tspan x="0" y="0" fill="#FFFFFF" font-family="'ArialMT'" font-size="14">A</tspan><tspan x="8.99" y="0.034" fill="#FFFFFF" font-family="'ArialMT'" font-size="14" rotate="8.716">L</tspan><tspan x="16.354" y="1.076" fill="#FFFFFF" font-family="'ArialMT'" font-size="14" rotate="17.409">E</tspan><tspan x="24.906" y="3.724" fill="#FFFFFF" font-family="'ArialMT'" font-size="14" rotate="26.925">X</tspan><tspan x="32.93" y="7.962" fill="#FFFFFF" font-family="'ArialMT'" font-size="14" rotate="33.737">I</tspan><tspan x="36.048" y="9.831" fill="#FFFFFF" font-family="'ArialMT'" font-size="14" rotate="40.553">S</tspan></text>
</g>
</svg>
