<?xml version="1.0" encoding="utf-8"?>
<!-- Generator: Adobe Illustrator 16.0.0, SVG Export Plug-In . SVG Version: 6.00 Build 0)  -->
<!DOCTYPE svg PUBLIC "-//W3C//DTD SVG 1.1//EN" "http://www.w3.org/Graphics/SVG/1.1/DTD/svg11.dtd">
<svg version="1.1" id="Layer_1" xmlns="http://www.w3.org/2000/svg" xmlns:xlink="http://www.w3.org/1999/xlink" x="0px" y="0px"
	 width="305.356px" height="215.555px" viewBox="0 0 305.356 215.555" enable-background="new 0 0 305.356 215.555"
	 xml:space="preserve">
<path fill="#8BDC65" d="M282.412,33.949H195.67c-1.1,0-2.599,0.672-3.33,1.494l-12.135,13.636c-0.731,0.822-0.731,2.167,0,2.988
	l12.135,13.636c0.731,0.822,2.23,1.494,3.33,1.494h86.742c1.1,0,2-0.9,2-2V35.949C284.412,34.849,283.512,33.949,282.412,33.949z
	 M193.412,55.406c-2.669,0-4.833-2.164-4.833-4.833s2.164-4.833,4.833-4.833s4.833,2.164,4.833,4.833S196.081,55.406,193.412,55.406
	z"/>
<rect x="206.041" y="44.206" fill="none" width="73.609" height="20.734"/>
<text transform="matrix(1 0 0 1 206.041 57.0938)" fill="#272C7E" font-family="'Arial-BoldMT'" font-size="18">£66</text>
<g>
	<path fill="none" stroke="#FFBB6A" stroke-width="3" stroke-miterlimit="10" d="M196.412,50.573c-4.133,0-4.133-4-8.265-4
		s-4.132,4-8.265,4s-4.133-4-8.266-4s-4.133,4-8.267,4c-4.133,0-4.133-4-8.266-4c-4.132,0-4.132,4-8.265,4s-4.133-4-8.265-4
		s-4.132,4-8.265,4s-4.133-4-8.267-4c-4.135,0-4.135,4-8.27,4c-4.134,0-4.134-4-8.267-4c-4.137,0-4.137,4-8.273,4s-4.137-4-8.272-4"
		/>
</g>
<path fill="#E53543" d="M124.119,48.168c-18.744-11.095-35.215-0.934-35.258-0.902c-1.481,0.461-3.002,1.235-3.002,1.235
	 M86.562,48.168L49.542,65.683l-28.034,40.771l23.481,14.406l12.085-15.153v95.528h96v-95.528l12.389,15.123l23.709-14.438
	l-27.994-40.833L124.1,48.168"/>
<g>
	<path fill="none" stroke="#000000" stroke-width="2" stroke-linecap="round" stroke-linejoin="round" stroke-miterlimit="10" d="
		M98.126,22.489c0-4.007,3.246-7.254,7.253-7.254s7.255,3.248,7.255,7.254v8.039c0,1.65-1.175,3.664-2.611,4.476l-2.032,1.148
		c-1.436,0.812-2.611,2.657-2.611,4.1s0,2.624,0,2.624"/>
</g>
<circle fill="#232323" cx="105.147" cy="49.815" r="1.661"/>
<polygon fill="#DD0031" points="73.109,200.559 76.212,98.092 79.315,200.559 "/>
<polygon fill="#DD0031" points="130.639,200.559 133.74,98.092 136.844,200.559 "/>
<g>
	<rect x="57.391" y="101.165" fill="none" width="95.979" height="35.276"/>
	<text transform="matrix(1 0 0 1 85.4307 126.8481)" fill="#FFFFFF" font-family="'ArialMT'" font-size="35.8716">11</text>
</g>
<path fill="#F4F6F5" d="M189.252,106.391l-23.629,14.438l-12.632-15.277c0,0,9.635-37.943-36.26-50.972
	c-10.589-3.006-8.346-9.106-8.346-9.106l6.558,0.012c0,0,14.592,15.176,30.403,16.845c0,0,3.728,0.318,6.782-1.033l9.089,4.26
	L189.252,106.391z"/>
<path fill="#F4F6F5" d="M21.508,106.453l23.354,14.406l11.957-15.153c0,0-9.641-38.097,36.254-51.126
	c10.59-3.006,8.347-9.106,8.347-9.106l-6.558,0.012c0,0-14.593,15.176-30.404,16.845c0,0-3.727,0.318-6.781-1.033l-9.089,4.26
	L21.508,106.453z"/>
<path fill="#E53543" d="M123.088,47.023c-18.745-11.095-33.675-0.426-33.719-0.395c-1.48,0.461-2.488,1.54-2.488,1.54
	s10.477-1.955,18.586-1.955c8.108,0,18.411,1.629,18.411,1.629 M89.378,46.625"/>
<path fill="none" d="M60.941,104.488c16.617-24.542,49.986-30.966,74.53-14.349c24.541,16.62,30.966,49.987,14.349,74.531
	c-16.619,24.544-49.985,30.969-74.529,14.347C50.747,162.4,44.322,129.032,60.941,104.488z"/>
<text transform="matrix(0.9789 -0.2044 0.2044 0.9789 89.0518 83.1553)"><tspan x="0" y="0" fill="#FFFFFF" font-family="'ArialMT'" font-size="14">O</tspan><tspan x="10.488" y="0.066" fill="#FFFFFF" font-family="'ArialMT'" font-size="14" rotate="9.877">Z</tspan><tspan x="18.656" y="1.606" fill="#FFFFFF" font-family="'ArialMT'" font-size="14" rotate="16.256">I</tspan><tspan x="22.176" y="2.512" fill="#FFFFFF" font-family="'ArialMT'" font-size="14" rotate="22.222">L</tspan></text>
</svg>
