<?xml version="1.0" encoding="utf-8"?>
<!-- Generator: Adobe Illustrator 16.0.0, SVG Export Plug-In . SVG Version: 6.00 Build 0)  -->
<!DOCTYPE svg PUBLIC "-//W3C//DTD SVG 1.1//EN" "http://www.w3.org/Graphics/SVG/1.1/DTD/svg11.dtd">
<svg version="1.1" id="Layer_1" xmlns="http://www.w3.org/2000/svg" xmlns:xlink="http://www.w3.org/1999/xlink" x="0px" y="0px"
	 width="305.356px" height="215.555px" viewBox="0 0 305.356 215.555" enable-background="new 0 0 305.356 215.555"
	 xml:space="preserve">
<path fill="#8BDC65" d="M281.965,31.431h-86.742c-1.1,0-2.6,0.672-3.33,1.494L179.758,46.56c-0.732,0.822-0.732,2.167,0,2.988
	l12.135,13.637c0.73,0.821,2.23,1.494,3.33,1.494h86.742c1.1,0,2-0.9,2-2V33.431C283.965,32.33,283.064,31.431,281.965,31.431z
	 M192.965,52.888c-2.67,0-4.834-2.164-4.834-4.834c0-2.669,2.164-4.832,4.834-4.832c2.668,0,4.832,2.163,4.832,4.832
	C197.797,50.724,195.633,52.888,192.965,52.888z"/>
<rect x="205.594" y="41.688" fill="none" width="73.609" height="20.733"/>
<text transform="matrix(1 0 0 1 205.5928 54.5752)" fill="#272C7E" font-family="'Arial-BoldMT'" font-size="18">€135</text>
<g>
	<path fill="none" stroke="#FFBB6A" stroke-width="3" stroke-miterlimit="10" d="M195.965,48.054c-4.133,0-4.133-4-8.266-4
		c-4.131,0-4.131,4-8.264,4s-4.133-4-8.266-4s-4.133,4-8.268,4c-4.133,0-4.133-4-8.266-4c-4.131,0-4.131,4-8.264,4s-4.133-4-8.266-4
		c-4.131,0-4.131,4-8.264,4s-4.133-4-8.268-4s-4.135,4-8.27,4c-4.133,0-4.133-4-8.266-4c-4.137,0-4.137,4-8.273,4s-4.137-4-8.273-4"
		/>
</g>
<g>
	<path fill="#272C7E" d="M124.197,44.934C105.452,33.839,88.982,44,88.938,44.031c-1.48,0.462-3.001,1.235-3.001,1.235
		 M86.641,44.934L49.62,62.448l-28.035,40.771l23.584,14.406l12.188-15.154V198h96v-95.529l12.285,15.124l23.659-14.439
		L161.28,62.323l-37.09-17.39"/>
	<g>
		<defs>
			<path id="SVGID_9_" d="M124.197,44.934C105.452,33.839,88.982,44,88.938,44.031c-1.48,0.462-3.001,1.235-3.001,1.235
				 M86.641,44.934L49.62,62.448l-28.035,40.771l23.584,14.406l12.188-15.154V198h96v-95.529l12.285,15.124l23.659-14.439
				L161.28,62.323l-37.09-17.39"/>
		</defs>
		<clipPath id="SVGID_2_">
			<use xlink:href="#SVGID_9_"  overflow="visible"/>
		</clipPath>
		<rect x="135.356" y="40" clip-path="url(#SVGID_2_)" fill="#E53543" width="18" height="165"/>
		<rect x="57.356" y="40" clip-path="url(#SVGID_2_)" fill="#E53543" width="19" height="165"/>
		<rect x="83.356" y="40" clip-path="url(#SVGID_2_)" fill="#E53543" width="18" height="165"/>
		<rect x="109.356" y="40" clip-path="url(#SVGID_2_)" fill="#E53543" width="18" height="165"/>
	</g>
	<g>
		<path fill="none" stroke="#000000" stroke-width="2" stroke-linecap="round" stroke-linejoin="round" stroke-miterlimit="10" d="
			M98.203,19.254c0-4.006,3.247-7.254,7.254-7.254s7.255,3.248,7.255,7.254v8.039c0,1.65-1.176,3.664-2.611,4.476l-2.031,1.148
			c-1.438,0.812-2.612,2.656-2.612,4.099c0,1.443,0,2.624,0,2.624"/>
	</g>
	<circle fill="#E53543" cx="105.225" cy="46.582" r="1.661"/>
	<g>
		<rect x="57.468" y="97.93" fill="none" width="95.979" height="35.277"/>
		<text transform="matrix(1 0 0 1 95.4824 123.6133)" fill="#FFFFFF" font-family="'ArialMT'" font-size="35.8716">9</text>
	</g>
	<path fill="#FFB359" d="M123.166,43.789c-18.746-11.096-33.675-0.427-33.719-0.395c-1.481,0.461-2.488,1.539-2.488,1.539
		s10.476-1.955,18.585-1.955s18.412,1.63,18.412,1.63 M89.456,43.391"/>
	<circle fill="none" cx="105.458" cy="132.392" r="53.669"/>
	<text transform="matrix(0.9014 -0.4329 0.4329 0.9014 77.9424 86.0449)"><tspan x="0" y="0" fill="#FFFFFF" font-family="'ArialMT'" font-size="14">S</tspan><tspan x="8.964" y="-0.065" fill="#FFFFFF" font-family="'ArialMT'" font-size="14" rotate="9.927">U</tspan><tspan x="18.528" y="1.608" fill="#FFFFFF" font-family="'ArialMT'" font-size="14" rotate="19.795">A</tspan><tspan x="26.989" y="4.582" fill="#FFFFFF" font-family="'ArialMT'" font-size="14" rotate="29.725">R</tspan><tspan x="35.412" y="9.388" fill="#FFFFFF" font-family="'ArialMT'" font-size="14" rotate="39.687">E</tspan><tspan x="42.325" y="15.129" fill="#FFFFFF" font-family="'ArialMT'" font-size="14" rotate="48.905">Z</tspan></text>
</g>
</svg>
