<?xml version="1.0" encoding="utf-8"?>
<!-- Generator: Adobe Illustrator 16.0.0, SVG Export Plug-In . SVG Version: 6.00 Build 0)  -->
<!DOCTYPE svg PUBLIC "-//W3C//DTD SVG 1.1//EN" "http://www.w3.org/Graphics/SVG/1.1/DTD/svg11.dtd">
<svg version="1.1" id="Layer_1" xmlns="http://www.w3.org/2000/svg" xmlns:xlink="http://www.w3.org/1999/xlink" x="0px" y="0px"
	 width="305.356px" height="215.555px" viewBox="0 0 305.356 215.555" enable-background="new 0 0 305.356 215.555"
	 xml:space="preserve">
<path fill="#8BDC65" d="M280.879,32.985h-86.742c-1.1,0-2.6,0.672-3.33,1.494l-12.135,13.635c-0.732,0.822-0.732,2.167,0,2.988
	l12.135,13.637c0.73,0.821,2.23,1.494,3.33,1.494h86.742c1.1,0,2-0.9,2-2V34.985C282.879,33.885,281.979,32.985,280.879,32.985z
	 M191.879,54.442c-2.67,0-4.834-2.164-4.834-4.834c0-2.669,2.164-4.832,4.834-4.832c2.668,0,4.832,2.163,4.832,4.832
	C196.711,52.278,194.547,54.442,191.879,54.442z"/>
<rect x="204.508" y="43.242" fill="none" width="73.609" height="20.733"/>
<text transform="matrix(1 0 0 1 204.5068 56.1299)" fill="#272C7E" font-family="'Arial-BoldMT'" font-size="18">€135</text>
<g>
	<path fill="none" stroke="#FFBB6A" stroke-width="3" stroke-miterlimit="10" d="M194.879,49.608c-4.133,0-4.133-4-8.266-4
		c-4.131,0-4.131,4-8.264,4s-4.133-4-8.266-4s-4.133,4-8.268,4c-4.133,0-4.133-4-8.266-4c-4.131,0-4.131,4-8.264,4s-4.133-4-8.266-4
		c-4.131,0-4.131,4-8.264,4s-4.133-4-8.268-4s-4.135,4-8.27,4c-4.133,0-4.133-4-8.266-4c-4.137,0-4.137,4-8.273,4s-4.137-4-8.273-4"
		/>
</g>
<g>
	<path fill="#272C7E" d="M122.613,46.488c-18.746-11.095-35.215-0.934-35.26-0.902c-1.48,0.462-3.001,1.235-3.001,1.235
		 M85.056,46.488L48.035,64.003L20,104.773l23.377,14.406l11.979-15.154v94.529h96v-94.529l12.493,15.124l23.763-14.439
		l-27.969-40.832l-37.064-17.39"/>
	<g>
		<path fill="none" stroke="#000000" stroke-width="2" stroke-linecap="round" stroke-linejoin="round" stroke-miterlimit="10" d="
			M96.619,20.809c0-4.006,3.246-7.254,7.253-7.254s7.255,3.248,7.255,7.254v8.039c0,1.65-1.176,3.664-2.612,4.476l-2.03,1.148
			c-1.437,0.812-2.612,2.656-2.612,4.1c0,1.442,0,2.623,0,2.623"/>
	</g>
	<circle fill="#232323" cx="103.641" cy="48.137" r="1.66"/>
	<polygon fill="#142377" points="71.604,198.555 74.705,96.088 77.809,198.555 	"/>
	<polygon fill="#142377" points="129.131,198.555 132.233,96.088 135.337,198.555 	"/>
	<g>
		<rect x="55.883" y="99.484" fill="none" width="95.979" height="35.277"/>
		<text transform="matrix(1 0 0 1 93.8975 125.168)" fill="#FFFFFF" font-family="'ArialMT'" font-size="35.8716">9</text>
	</g>
	<path fill="#42408C" d="M121.581,45.344c-18.745-11.096-33.675-0.427-33.719-0.395c-1.481,0.461-2.487,1.539-2.487,1.539
		s10.475-1.955,18.584-1.955s18.412,1.63,18.412,1.63 M87.871,44.945"/>
	<circle fill="none" cx="104.98" cy="133.277" r="53.669"/>
	<text transform="matrix(0.9214 -0.3886 0.3886 0.9214 79.3936 85.8027)"><tspan x="0" y="0" fill="#FFFFFF" font-family="'ArialMT'" font-size="14">C</tspan><tspan x="9.72" y="0.002" fill="#FFFFFF" font-family="'ArialMT'" font-size="14" rotate="9.898">A</tspan><tspan x="18.553" y="1.51" fill="#FFFFFF" font-family="'ArialMT'" font-size="14" rotate="19.384">V</tspan><tspan x="27.031" y="4.461" fill="#FFFFFF" font-family="'ArialMT'" font-size="14" rotate="28.933">A</tspan><tspan x="34.887" y="8.724" fill="#FFFFFF" font-family="'ArialMT'" font-size="14" rotate="38.914">N</tspan><tspan x="42.411" y="15.024" fill="#FFFFFF" font-family="'ArialMT'" font-size="14" rotate="46.119">I</tspan></text>
</g>
</svg>
