<?xml version="1.0" encoding="utf-8"?>
<!-- Generator: Adobe Illustrator 16.0.0, SVG Export Plug-In . SVG Version: 6.00 Build 0)  -->
<!DOCTYPE svg PUBLIC "-//W3C//DTD SVG 1.1//EN" "http://www.w3.org/Graphics/SVG/1.1/DTD/svg11.dtd">
<svg version="1.1" id="Layer_1" xmlns="http://www.w3.org/2000/svg" xmlns:xlink="http://www.w3.org/1999/xlink" x="0px" y="0px"
	 width="305.356px" height="215.555px" viewBox="0 0 305.356 215.555" enable-background="new 0 0 305.356 215.555"
	 xml:space="preserve">
<path fill="#8BDC65" d="M282.238,34.297h-86.742c-1.1,0-2.599,0.672-3.33,1.494l-12.135,13.635c-0.731,0.822-0.731,2.167,0,2.988
	l12.135,13.637c0.731,0.821,2.23,1.494,3.33,1.494h86.742c1.1,0,2-0.9,2-2V36.297C284.238,35.196,283.338,34.297,282.238,34.297z
	 M193.238,55.754c-2.669,0-4.833-2.164-4.833-4.834c0-2.669,2.164-4.832,4.833-4.832s4.833,2.163,4.833,4.832
	C198.071,53.59,195.907,55.754,193.238,55.754z"/>
<rect x="205.867" y="44.554" fill="none" width="73.609" height="20.733"/>
<text transform="matrix(1 0 0 1 205.8672 57.4414)" fill="#272C7E" font-family="'Arial-BoldMT'" font-size="18">£66.95 </text>
<g>
	<path fill="none" stroke="#FFBB6A" stroke-width="3" stroke-miterlimit="10" d="M196.238,50.92c-4.133,0-4.133-4-8.265-4
		s-4.132,4-8.265,4s-4.133-4-8.266-4s-4.133,4-8.267,4c-4.133,0-4.133-4-8.266-4c-4.132,0-4.132,4-8.265,4s-4.133-4-8.265-4
		s-4.132,4-8.265,4s-4.133-4-8.267-4c-4.135,0-4.135,4-8.27,4c-4.134,0-4.134-4-8.267-4c-4.137,0-4.137,4-8.273,4s-4.137-4-8.272-4"
		/>
</g>
<g>
	<path fill="#A8E6F8" d="M124.129,47.896c-18.745-11.096-35.216-0.934-35.259-0.902c-1.481,0.461-3.001,1.234-3.001,1.234
		 M86.571,47.896L49.552,65.41l-28.036,40.771l22.942,14.406L56,105.434v95.121h96v-95.121l12.931,15.123l23.979-14.438
		l-27.857-40.834l-37.012-17.389"/>
	<g>
		<path fill="none" stroke="#000000" stroke-width="2" stroke-linecap="round" stroke-linejoin="round" stroke-miterlimit="10" d="
			M98.135,22.217c0-4.007,3.247-7.254,7.254-7.254s7.255,3.248,7.255,7.254v8.039c0,1.649-1.175,3.664-2.611,4.476L108,35.879
			c-1.436,0.812-2.611,2.657-2.611,4.1c0,1.443,0,2.624,0,2.624"/>
	</g>
	<circle fill="#272C7E" cx="105.156" cy="49.543" r="1.661"/>
	<polygon fill="#8FDFF6" points="73.119,200.287 76.222,97.82 79.324,200.287 	"/>
	<polygon fill="#8FDFF6" points="130.647,200.287 133.749,97.82 136.853,200.287 	"/>
	<g>
		<rect x="57.398" y="100.893" fill="none" width="95.98" height="35.276"/>
		<text transform="matrix(1 0 0 1 85.4395 126.5762)" fill="#262C7E" font-family="'ArialMT'" font-size="35.8716">16</text>
	</g>
	<path fill="none" stroke="#8FDFF6" stroke-width="2" stroke-miterlimit="10" d="M153.347,105.279
		c-1.788-25.932,7.579-39.994,7.579-39.994"/>
	<path fill="none" stroke="#8FDFF6" stroke-width="2" stroke-miterlimit="10" d="M49.389,65.285c0,0,9.365,14.062,7.577,39.994"/>
	<path fill="#272C7E" d="M122.778,46.751c-18.746-11.095-33.675-0.426-33.719-0.396c-1.481,0.462-2.488,1.541-2.488,1.541
		s10.476-1.955,18.585-1.955s18.412,1.629,18.412,1.629 M89.068,46.354"/>
	<circle fill="none" cx="106.071" cy="134.489" r="53.669"/>
	<text transform="matrix(0.7092 -0.705 0.705 0.7092 64.9355 99.666)"><tspan x="0" y="0" fill="#262C7E" font-family="'ArialMT'" font-size="14">K</tspan><tspan x="8.951" y="-0.068" fill="#262C7E" font-family="'ArialMT'" font-size="14" rotate="10.009">U</tspan><tspan x="18.521" y="1.586" fill="#262C7E" font-family="'ArialMT'" font-size="14" rotate="20.385">N</tspan><tspan x="27.655" y="5.166" fill="#262C7E" font-family="'ArialMT'" font-size="14" rotate="27.519"> </tspan><tspan x="30.94" y="6.679" fill="#262C7E" font-family="'ArialMT'" font-size="14" rotate="34.227">A</tspan><tspan x="38.397" y="11.625" fill="#262C7E" font-family="'ArialMT'" font-size="14" rotate="44.52">G</tspan><tspan x="45.857" y="18.954" fill="#262C7E" font-family="'ArialMT'" font-size="14" rotate="55.255">U</tspan><tspan x="51.393" y="26.934" fill="#262C7E" font-family="'ArialMT'" font-size="14" rotate="65.257">E</tspan><tspan x="55.201" y="35.041" fill="#262C7E" font-family="'ArialMT'" font-size="14" rotate="75.209">R</tspan><tspan x="57.75" y="44.397" fill="#262C7E" font-family="'ArialMT'" font-size="14" rotate="85.817">O</tspan></text>
</g>
</svg>
