<?xml version="1.0" encoding="utf-8"?>
<!-- Generator: Adobe Illustrator 16.0.0, SVG Export Plug-In . SVG Version: 6.00 Build 0)  -->
<!DOCTYPE svg PUBLIC "-//W3C//DTD SVG 1.1//EN" "http://www.w3.org/Graphics/SVG/1.1/DTD/svg11.dtd">
<svg version="1.1" id="Layer_1" xmlns="http://www.w3.org/2000/svg" xmlns:xlink="http://www.w3.org/1999/xlink" x="0px" y="0px"
	 width="305.357px" height="215.555px" viewBox="0 0 305.357 215.555" enable-background="new 0 0 305.357 215.555"
	 xml:space="preserve">
<g>
	<path fill="#8BDC65" d="M292.416,31.759h-86.742c-1.1,0-2.599,0.673-3.33,1.494l-12.135,13.636c-0.731,0.822-0.731,2.166,0,2.988
		l12.135,13.636c0.731,0.821,2.23,1.494,3.33,1.494h86.742c1.1,0,2-0.899,2-2V33.759C294.416,32.658,293.516,31.759,292.416,31.759z
		 M203.416,53.216c-2.669,0-4.833-2.163-4.833-4.833s2.164-4.833,4.833-4.833s4.833,2.163,4.833,4.833
		S206.085,53.216,203.416,53.216z"/>
	<rect x="216.045" y="42.016" fill="none" width="73.609" height="20.734"/>
	<text transform="matrix(1 0 0 1 216.0449 54.9043)" fill="#272C7E" font-family="'Arial-BoldMT'" font-size="18">£80</text>
	<g>
		<path fill="none" stroke="#FFBB6A" stroke-width="3" stroke-miterlimit="10" d="M206.416,48.383c-4.133,0-4.133-4-8.265-4
			s-4.132,4-8.265,4s-4.133-4-8.266-4s-4.133,4-8.267,4c-4.133,0-4.133-4-8.266-4c-4.132,0-4.132,4-8.265,4s-4.133-4-8.265-4
			s-4.132,4-8.265,4s-4.133-4-8.267-4c-4.135,0-4.135,4-8.27,4c-4.134,0-4.134-4-8.267-4c-4.137,0-4.137,4-8.273,4s-4.137-4-8.272-4
			"/>
	</g>
</g>
<path fill="#001970" d="M70.067,63.492c0-9.759,10.016-18.133,24.289-21.711c4.758-1.191,9.988,8.965,15.479,8.965
	c4.566,0,8.951-10.359,13.035-9.521c15.562,3.197,26.734,11.96,26.734,22.267c0,13.013-17.805,23.562-39.77,23.562
	C87.872,87.055,70.067,76.505,70.067,63.492z"/>
<polyline fill="#001970" points="55.778,69.275 91.585,52.336 91.585,34.149 109.292,57.236 126.968,34.149 126.968,52.328 
	127.938,52.328 163.833,69.154 199.71,124.293 154.716,178.369 139.575,160.199 168.214,122.635 156.503,108.002 156.503,200.434 
	63.056,200.434 63.056,108.002 "/>
<polyline fill="#001970" points="55.876,68.801 20.001,123.938 64.993,178.016 80.136,159.846 51.495,122.28 63.208,107.648 
	63.208,200.08 156.653,200.08 156.653,107.648 "/>
<path fill="#B0C7C7" d="M110.419,56.882"/>
<g>
	<path fill="none" stroke="#000000" stroke-width="2" stroke-linecap="round" stroke-linejoin="round" stroke-miterlimit="10" d="
		M102.761,21.032c0-3.877,3.141-7.02,7.018-7.02s7.02,3.143,7.02,7.02v7.681c0,1.65-1.175,3.664-2.612,4.476l-1.795,1.016
		c-1.438,0.812-2.612,2.618-2.612,4.015c0,1.396,0,2.538,0,2.538"/>
</g>
<polygon fill="#42408C" points="76.403,199.578 79.405,109.951 82.407,199.578 "/>
<polygon fill="#42408C" points="132.931,199.578 135.935,109.951 138.937,199.578 "/>
<path fill="none" stroke="#42408C" stroke-miterlimit="10" d="M163.739,69.468c0,0-9.062,13.606-7.33,38.698"/>
<path fill="none" stroke="#42408C" stroke-miterlimit="10" d="M55.819,69.468c0,0,9.062,13.606,7.332,38.698"/>
<path fill="#42408C" d="M127.833,33.795v18.18h0.105l6.746,3.162l0,0l-9.521,24.674H94.21l-9.488-24.582l6.863-3.247V33.795
	c0,0,9.656,7.434,18.008,7.434S127.833,33.795,127.833,33.795z"/>
<line fill="none" stroke="#42408C" stroke-width="2" stroke-miterlimit="10" x1="109.778" y1="200.434" x2="109.778" y2="42.959"/>
<rect x="75.962" y="90.816" fill="none" width="21.736" height="20.229"/>
<text transform="matrix(1 0 0 1 80.1973 97.0117)" fill="#FFFFFF" font-family="'ArialMT'" font-size="8.6524">JM</text>
<line fill="none" stroke="#A8E6F8" stroke-miterlimit="10" x1="107.128" y1="47.718" x2="112.103" y2="47.718"/>
<line fill="none" stroke="#A8E6F8" stroke-miterlimit="10" x1="107.128" y1="52.477" x2="112.103" y2="52.477"/>
<line fill="none" stroke="#A8E6F8" stroke-miterlimit="10" x1="107.128" y1="57.236" x2="112.103" y2="57.236"/>
<line fill="none" stroke="#A8E6F8" stroke-miterlimit="10" x1="107.128" y1="61.994" x2="112.103" y2="61.994"/>
<line fill="none" stroke="#A8E6F8" stroke-miterlimit="10" x1="107.128" y1="66.754" x2="112.103" y2="66.754"/>
<line fill="none" stroke="#A8E6F8" stroke-miterlimit="10" x1="107.128" y1="71.512" x2="112.103" y2="71.512"/>
<line fill="none" stroke="#A8E6F8" stroke-miterlimit="10" x1="107.128" y1="76.271" x2="112.103" y2="76.271"/>
<line fill="none" stroke="#A8E6F8" stroke-miterlimit="10" x1="107.128" y1="80.875" x2="112.103" y2="80.875"/>
<line fill="none" stroke="#A8E6F8" stroke-miterlimit="10" x1="107.128" y1="85.789" x2="112.103" y2="85.789"/>
<line fill="none" stroke="#A8E6F8" stroke-miterlimit="10" x1="107.128" y1="90.547" x2="112.103" y2="90.547"/>
<line fill="none" stroke="#A8E6F8" stroke-miterlimit="10" x1="107.128" y1="95.307" x2="112.103" y2="95.307"/>
<line fill="none" stroke="#A8E6F8" stroke-miterlimit="10" x1="107.128" y1="100.064" x2="112.103" y2="100.064"/>
<line fill="none" stroke="#A8E6F8" stroke-miterlimit="10" x1="107.128" y1="104.824" x2="112.103" y2="104.824"/>
<line fill="none" stroke="#A8E6F8" stroke-miterlimit="10" x1="107.128" y1="109.582" x2="112.103" y2="109.582"/>
<line fill="none" stroke="#A8E6F8" stroke-miterlimit="10" x1="107.128" y1="114.342" x2="112.103" y2="114.342"/>
<line fill="none" stroke="#A8E6F8" stroke-miterlimit="10" x1="107.128" y1="119.101" x2="112.103" y2="119.101"/>
<line fill="none" stroke="#A8E6F8" stroke-miterlimit="10" x1="107.128" y1="123.859" x2="112.103" y2="123.859"/>
<line fill="none" stroke="#A8E6F8" stroke-miterlimit="10" x1="107.128" y1="128.619" x2="112.103" y2="128.619"/>
<line fill="none" stroke="#A8E6F8" stroke-miterlimit="10" x1="107.128" y1="133.377" x2="112.103" y2="133.377"/>
<line fill="none" stroke="#A8E6F8" stroke-miterlimit="10" x1="107.128" y1="138.137" x2="112.103" y2="138.137"/>
<line fill="none" stroke="#A8E6F8" stroke-miterlimit="10" x1="107.128" y1="142.895" x2="112.103" y2="142.895"/>
<line fill="none" stroke="#A8E6F8" stroke-miterlimit="10" x1="107.128" y1="147.654" x2="112.103" y2="147.654"/>
<line fill="none" stroke="#A8E6F8" stroke-miterlimit="10" x1="107.128" y1="152.412" x2="112.103" y2="152.412"/>
<line fill="none" stroke="#A8E6F8" stroke-miterlimit="10" x1="107.128" y1="157.172" x2="112.103" y2="157.172"/>
<line fill="none" stroke="#A8E6F8" stroke-miterlimit="10" x1="107.128" y1="161.93" x2="112.103" y2="161.93"/>
<line fill="none" stroke="#A8E6F8" stroke-miterlimit="10" x1="107.128" y1="166.689" x2="112.103" y2="166.689"/>
<line fill="none" stroke="#A8E6F8" stroke-miterlimit="10" x1="107.128" y1="171.447" x2="112.103" y2="171.447"/>
<line fill="none" stroke="#A8E6F8" stroke-miterlimit="10" x1="107.128" y1="176.207" x2="112.103" y2="176.207"/>
<line fill="none" stroke="#A8E6F8" stroke-miterlimit="10" x1="107.128" y1="180.965" x2="112.103" y2="180.965"/>
<line fill="none" stroke="#A8E6F8" stroke-miterlimit="10" x1="107.128" y1="185.725" x2="112.103" y2="185.725"/>
<circle fill="#42408C" cx="135.933" cy="94.008" r="4.424"/>
<polygon fill="#001970" points="70.104,62.498 94.21,79.811 83.478,50.746 "/>
<polygon fill="#001970" points="149.604,62.484 125.163,79.811 135.935,50.746 "/>
<line fill="none" stroke="#A8E6F8" stroke-miterlimit="10" x1="107.128" y1="190.667" x2="112.103" y2="190.667"/>
<line fill="none" stroke="#A8E6F8" stroke-miterlimit="10" x1="107.128" y1="195.427" x2="112.103" y2="195.427"/>
</svg>
