<?xml version="1.0" encoding="utf-8"?>
<!-- Generator: Adobe Illustrator 16.0.0, SVG Export Plug-In . SVG Version: 6.00 Build 0)  -->
<!DOCTYPE svg PUBLIC "-//W3C//DTD SVG 1.1//EN" "http://www.w3.org/Graphics/SVG/1.1/DTD/svg11.dtd">
<svg version="1.1" id="Layer_1" xmlns="http://www.w3.org/2000/svg" xmlns:xlink="http://www.w3.org/1999/xlink" x="0px" y="0px"
	 width="305.356px" height="215.555px" viewBox="0 0 305.356 215.555" enable-background="new 0 0 305.356 215.555"
	 xml:space="preserve">
<path fill="#8BDC65" d="M282.608,32.431h-86.742c-1.1,0-2.6,0.672-3.33,1.494L180.401,47.56c-0.732,0.822-0.732,2.167,0,2.988
	l12.135,13.637c0.73,0.821,2.23,1.494,3.33,1.494h86.742c1.1,0,2-0.9,2-2V34.431C284.608,33.33,283.708,32.431,282.608,32.431z
	 M193.608,53.888c-2.67,0-4.834-2.164-4.834-4.834c0-2.669,2.164-4.832,4.834-4.832c2.668,0,4.832,2.163,4.832,4.832
	C198.44,51.724,196.276,53.888,193.608,53.888z"/>
<rect x="206.237" y="42.688" fill="none" width="73.609" height="20.733"/>
<text transform="matrix(1 0 0 1 206.2363 55.5752)" fill="#272C7E" font-family="'Arial-BoldMT'" font-size="18">€105</text>
<g>
	<path fill="none" stroke="#FFBB6A" stroke-width="3" stroke-miterlimit="10" d="M196.608,49.054c-4.133,0-4.133-4-8.266-4
		c-4.131,0-4.131,4-8.264,4s-4.133-4-8.266-4s-4.133,4-8.268,4c-4.133,0-4.133-4-8.266-4c-4.131,0-4.131,4-8.264,4s-4.133-4-8.266-4
		c-4.131,0-4.131,4-8.264,4s-4.133-4-8.268-4s-4.135,4-8.27,4c-4.133,0-4.133-4-8.266-4c-4.137,0-4.137,4-8.273,4s-4.137-4-8.273-4"
		/>
</g>
<g>
	<path fill="#8BDC65" d="M124.045,45.934C105.301,34.839,88.83,45,88.787,45.031c-1.481,0.462-3.002,1.235-3.002,1.235
		 M86.488,45.934L49.468,63.448l-28.034,40.771l23.481,14.406L57,103.471V199h96v-95.529l12.388,15.124l23.71-14.439l-27.994-40.832
		l-37.078-17.39"/>
	<g>
		<path fill="none" stroke="#000000" stroke-width="2" stroke-linecap="round" stroke-linejoin="round" stroke-miterlimit="10" d="
			M98.052,20.254c0-4.006,3.246-7.254,7.253-7.254s7.255,3.248,7.255,7.254v8.039c0,1.65-1.175,3.664-2.612,4.476l-2.031,1.148
			c-1.436,0.812-2.611,2.656-2.611,4.099c0,1.443,0,2.624,0,2.624"/>
	</g>
	<circle fill="#232323" cx="105.073" cy="47.582" r="1.661"/>
	<polygon fill="#81CC5E" points="73.035,198.324 76.138,95.857 79.241,198.324 	"/>
	<polygon fill="#81CC5E" points="130.564,198.324 133.666,95.857 136.77,198.324 	"/>
	<g>
		<rect x="57.316" y="98.93" fill="none" width="95.979" height="35.277"/>
		<text transform="matrix(1 0 0 1 95.3311 124.6133)" fill="#FFFFFF" font-family="'ArialMT'" font-size="35.8716">1</text>
	</g>
	<path fill="#8FAC6C" d="M123.014,44.789c-18.745-11.096-33.675-0.427-33.719-0.395c-1.48,0.461-2.488,1.539-2.488,1.539
		s10.477-1.955,18.586-1.955c8.108,0,18.411,1.63,18.411,1.63 M89.304,44.391"/>
	<g>
		<path fill="#F4F6F5" d="M87.094,45.665c-0.746,0.317-1.287,0.591-1.303,0.599L58.217,59.309c2.918,1.062,6.166,0.787,6.166,0.787
			c12.53-1.322,24.286-11.12,28.63-15.133c-3.608,0.486-6.206,0.971-6.206,0.971S86.914,45.823,87.094,45.665z"/>
		<path fill="#F4F6F5" d="M116.304,44.647c4.047,3.791,16.104,14.091,28.969,15.448c0,0,3.728,0.317,6.782-1.033l-28.01-13.129
			c-0.237-0.141-0.473-0.263-0.71-0.397C122.297,45.381,119.616,44.997,116.304,44.647z"/>
	</g>
	<path fill="#8FAC6C" d="M189.178,104.155l-23.63,14.439l-12.631-15.277c0,0,9.635-37.942-36.26-50.972
		c-10.589-3.007-8.346-9.107-8.346-9.107l6.558,0.013c0,0,14.592,15.177,30.403,16.845c0,0,3.728,0.317,6.782-1.033l9.089,4.261
		L189.178,104.155z"/>
	<path fill="#8FAC6C" d="M21.434,104.219l23.354,14.406l11.957-15.154c0,0-9.641-38.096,36.255-51.125
		c10.589-3.007,8.346-9.107,8.346-9.107l-6.558,0.013c0,0-14.593,15.177-30.404,16.845c0,0-3.727,0.317-6.781-1.033l-9.089,4.261
		L21.434,104.219z"/>
	<circle fill="none" cx="105.501" cy="132.392" r="53.669"/>
	<text transform="matrix(0.8985 -0.439 0.439 0.8985 77.6709 86.2324)"><tspan x="0" y="0" fill="#FFFFFF" font-family="'ArialMT'" font-size="14">B</tspan><tspan x="8.969" y="-0.065" fill="#FFFFFF" font-family="'ArialMT'" font-size="14" rotate="9.934">U</tspan><tspan x="18.548" y="1.646" fill="#FFFFFF" font-family="'ArialMT'" font-size="14" rotate="19.416">F</tspan><tspan x="26.297" y="4.349" fill="#FFFFFF" font-family="'ArialMT'" font-size="14" rotate="28.128">F</tspan><tspan x="33.553" y="8.072" fill="#FFFFFF" font-family="'ArialMT'" font-size="14" rotate="38.073">O</tspan><tspan x="41.805" y="14.534" fill="#FFFFFF" font-family="'ArialMT'" font-size="14" rotate="48.892">N</tspan></text>
</g>
</svg>
