<?xml version="1.0" encoding="utf-8"?>
<!-- Generator: Adobe Illustrator 16.0.0, SVG Export Plug-In . SVG Version: 6.00 Build 0)  -->
<!DOCTYPE svg PUBLIC "-//W3C//DTD SVG 1.1//EN" "http://www.w3.org/Graphics/SVG/1.1/DTD/svg11.dtd">
<svg version="1.1" id="Layer_1" xmlns="http://www.w3.org/2000/svg" xmlns:xlink="http://www.w3.org/1999/xlink" x="0px" y="0px"
	 width="305.356px" height="215.555px" viewBox="0 0 305.356 215.555" enable-background="new 0 0 305.356 215.555"
	 xml:space="preserve">
<path fill="#8BDC65" d="M280.952,33.756H194.21c-1.1,0-2.599,0.672-3.33,1.494l-12.135,13.635c-0.731,0.822-0.731,2.167,0,2.988
	L190.88,65.51c0.731,0.821,2.23,1.494,3.33,1.494h86.742c1.1,0,2-0.9,2-2V35.756C282.952,34.655,282.052,33.756,280.952,33.756z
	 M191.952,55.213c-2.669,0-4.833-2.164-4.833-4.834c0-2.669,2.164-4.832,4.833-4.832s4.833,2.163,4.833,4.832
	C196.785,53.049,194.621,55.213,191.952,55.213z"/>
<rect x="204.581" y="44.013" fill="none" width="73.609" height="20.733"/>
<text transform="matrix(1 0 0 1 204.5811 56.9004)" fill="#272C7E" font-family="'Arial-BoldMT'" font-size="18">£66.95 </text>
<g>
	<path fill="none" stroke="#FFBB6A" stroke-width="3" stroke-miterlimit="10" d="M194.952,50.379c-4.133,0-4.133-4-8.265-4
		s-4.132,4-8.265,4s-4.133-4-8.266-4s-4.133,4-8.267,4c-4.133,0-4.133-4-8.266-4c-4.132,0-4.132,4-8.265,4s-4.133-4-8.265-4
		s-4.132,4-8.265,4s-4.133-4-8.267-4c-4.135,0-4.135,4-8.27,4c-4.134,0-4.134-4-8.267-4c-4.137,0-4.137,4-8.273,4s-4.137-4-8.272-4"
		/>
</g>
<g>
	<path fill="#42408C" d="M122.612,46.673c-18.745-11.095-35.214-0.934-35.258-0.902c-1.481,0.462-3.001,1.235-3.001,1.235
		 M85.055,46.673L48.035,64.188L20,104.958l23.198,14.406L55,104.21v95.345h96V104.21l12.671,15.124l23.852-14.439L159.6,64.062
		l-37.043-17.39"/>
	<g>
		<path fill="none" stroke="#000000" stroke-width="2" stroke-linecap="round" stroke-linejoin="round" stroke-miterlimit="10" d="
			M96.618,20.993c0-4.006,3.247-7.254,7.253-7.254c4.007,0,7.255,3.248,7.255,7.254v8.039c0,1.65-1.175,3.664-2.612,4.476
			l-2.032,1.148c-1.437,0.812-2.612,2.656-2.612,4.099c0,1.443,0,2.624,0,2.624"/>
	</g>
	<circle fill="#272C7E" cx="103.64" cy="48.321" r="1.661"/>
	<polygon fill="#353685" points="71.603,199.063 74.704,96.597 77.808,199.063 	"/>
	<polygon fill="#353685" points="129.131,199.063 132.233,96.597 135.336,199.063 	"/>
	<g>
		<rect x="55.883" y="99.669" fill="none" width="95.979" height="35.277"/>
		<text transform="matrix(1 0 0 1 93.8975 125.3525)" fill="#FFFFFF" font-family="'ArialMT'" font-size="35.8716">5</text>
	</g>
	<path fill="#272C7E" d="M121.581,45.528c-18.746-11.096-33.675-0.427-33.719-0.395c-1.481,0.461-2.488,1.539-2.488,1.539
		s10.476-1.955,18.585-1.955s18.412,1.63,18.412,1.63 M87.871,45.13"/>
	<circle fill="none" cx="102.513" cy="134.946" r="53.669"/>
	<text transform="matrix(0.9495 -0.3139 0.3139 0.9495 81.1748 85.4629)"><tspan x="0" y="0" fill="#FFFFFF" font-family="'ArialMT'" font-size="14">E</tspan><tspan x="8.985" y="0.003" fill="#FFFFFF" font-family="'ArialMT'" font-size="14" rotate="9.102">T</tspan><tspan x="17.078" y="1.163" fill="#FFFFFF" font-family="'ArialMT'" font-size="14" rotate="18.997">O</tspan><tspan x="27.013" y="4.826" fill="#FFFFFF" font-family="'ArialMT'" font-size="14" rotate="25.925">&apos;</tspan><tspan x="29.298" y="5.642" fill="#FFFFFF" font-family="'ArialMT'" font-size="14" rotate="32.901">O</tspan></text>
</g>
</svg>
