<?xml version="1.0" encoding="utf-8"?>
<!-- Generator: Adobe Illustrator 16.0.0, SVG Export Plug-In . SVG Version: 6.00 Build 0)  -->
<!DOCTYPE svg PUBLIC "-//W3C//DTD SVG 1.1//EN" "http://www.w3.org/Graphics/SVG/1.1/DTD/svg11.dtd">
<svg version="1.1" id="Layer_1" xmlns="http://www.w3.org/2000/svg" xmlns:xlink="http://www.w3.org/1999/xlink" x="0px" y="0px"
	 width="305.356px" height="215.555px" viewBox="0 0 305.356 215.555" enable-background="new 0 0 305.356 215.555"
	 xml:space="preserve">
<path fill="#8BDC65" d="M283.251,31.545h-86.742c-1.1,0-2.6,0.672-3.33,1.494l-12.135,13.635c-0.732,0.822-0.732,2.167,0,2.988
	l12.135,13.637c0.73,0.821,2.23,1.494,3.33,1.494h86.742c1.1,0,2-0.9,2-2V33.545C285.251,32.444,284.351,31.545,283.251,31.545z
	 M194.251,53.002c-2.67,0-4.834-2.164-4.834-4.834c0-2.669,2.164-4.832,4.834-4.832c2.668,0,4.832,2.163,4.832,4.832
	C199.083,50.838,196.919,53.002,194.251,53.002z"/>
<rect x="206.88" y="41.802" fill="none" width="73.609" height="20.733"/>
<text transform="matrix(1 0 0 1 206.8799 54.6895)" fill="#272C7E" font-family="'Arial-BoldMT'" font-size="18">€69.95</text>
<g>
	<path fill="none" stroke="#FFBB6A" stroke-width="3" stroke-miterlimit="10" d="M197.251,48.168c-4.133,0-4.133-4-8.266-4
		c-4.131,0-4.131,4-8.264,4s-4.133-4-8.266-4s-4.133,4-8.268,4c-4.133,0-4.133-4-8.266-4c-4.131,0-4.131,4-8.264,4s-4.133-4-8.266-4
		c-4.131,0-4.131,4-8.264,4s-4.133-4-8.268-4s-4.135,4-8.27,4c-4.133,0-4.133-4-8.266-4c-4.137,0-4.137,4-8.273,4s-4.137-4-8.273-4"
		/>
</g>
<g>
	<path fill="#272C7E" d="M124.615,44.934C105.871,33.839,89.4,44,89.357,44.031c-1.481,0.462-3.002,1.235-3.002,1.235
		 M87.059,44.934L50.038,62.448l-28.034,40.771L45.7,117.625L58,102.471V198h96v-95.529l12.174,15.124l23.601-14.439l-28.048-40.832
		l-37.104-17.39"/>
	<path fill="#E53543" d="M50.038,62.448l-28.034,40.771l23.401,14.406l12.006-15.154L50.038,62.448z"/>
	<path fill="#E53543" d="M154.438,102.471l12.006,15.154l23.401-14.406l-28.034-40.771L154.438,102.471z"/>
	<g>
		<defs>
			<path id="SVGID_11_" d="M124.615,44.934C105.871,33.839,89.4,44,89.357,44.031c-1.481,0.462-3.002,1.235-3.002,1.235
				 M87.059,44.934L50.038,62.448l-28.034,40.771L45.7,117.625L58,102.471V198h96v-95.529l12.174,15.124l23.602-14.439
				l-28.048-40.832l-37.105-17.39"/>
		</defs>
		<clipPath id="SVGID_2_">
			<use xlink:href="#SVGID_11_"  overflow="visible"/>
		</clipPath>
		<rect x="130" y="42" clip-path="url(#SVGID_2_)" fill="#E53543" width="11" height="156"/>
		<rect x="117" y="42" clip-path="url(#SVGID_2_)" fill="#E53543" width="11" height="156"/>
		<rect x="86" y="42" clip-path="url(#SVGID_2_)" fill="#E53543" width="11" height="156"/>
		<rect x="73" y="42" clip-path="url(#SVGID_2_)" fill="#E53543" width="12" height="156"/>
	</g>
	<g>
		<path fill="none" stroke="#000000" stroke-width="2" stroke-linecap="round" stroke-linejoin="round" stroke-miterlimit="10" d="
			M98.621,19.254c0-4.006,3.247-7.254,7.254-7.254c4.006,0,7.255,3.248,7.255,7.254v8.039c0,1.65-1.175,3.664-2.612,4.476
			l-2.031,1.148c-1.436,0.812-2.611,2.656-2.611,4.099c0,1.443,0,2.624,0,2.624"/>
	</g>
	<circle fill="#001354" cx="105.643" cy="46.582" r="1.661"/>
	<g>
		<rect x="57.886" y="97.93" fill="none" width="95.979" height="35.277"/>
		<text transform="matrix(1 0 0 1 85.9253 123.6133)" fill="#FFFFFF" font-family="'ArialMT'" font-size="35.8716">10</text>
	</g>
	<path fill="#F4F6F5" d="M123.584,43.789c-18.746-11.096-33.675-0.427-33.719-0.395c-1.48,0.461-2.488,1.539-2.488,1.539
		s10.477-1.955,18.586-1.955c8.108,0,18.412,1.63,18.412,1.63 M89.874,43.391"/>
	<g>
		<polyline fill="none" stroke="#FFFFFF" stroke-width="2" stroke-miterlimit="10" points="123.182,48.906 123.33,48.993 
			159.704,66.043 173.559,86.223 		"/>
		<path fill="none" stroke="#FFFFFF" stroke-width="2" stroke-miterlimit="10" d="M38.95,86.221l13.821-20.057L89.059,49.01
			c0.495-0.222,1.153-0.488,1.736-0.67l0.551-0.169"/>
	</g>
	<circle fill="none" cx="106.983" cy="133.206" r="53.669"/>
	<text transform="matrix(0.8955 -0.4451 0.4451 0.8955 78.4946 87.4092)"><tspan x="0" y="0" fill="#FFFFFF" font-family="'ArialMT'" font-size="14">R</tspan><tspan x="9.698" y="-0.075" fill="#FFFFFF" font-family="'ArialMT'" font-size="14" rotate="10.707">O</tspan><tspan x="19.968" y="1.898" fill="#FFFFFF" font-family="'ArialMT'" font-size="14" rotate="20.96">B</tspan><tspan x="28.372" y="5.085" fill="#FFFFFF" font-family="'ArialMT'" font-size="14" rotate="30.504">B</tspan><tspan x="36.095" y="9.596" fill="#FFFFFF" font-family="'ArialMT'" font-size="14" rotate="40.07">E</tspan><tspan x="42.998" y="15.316" fill="#FFFFFF" font-family="'ArialMT'" font-size="14" rotate="50.088">N</tspan></text>
</g>
</svg>
