<?xml version="1.0" encoding="utf-8"?>
<!-- Generator: Adobe Illustrator 16.0.0, SVG Export Plug-In . SVG Version: 6.00 Build 0)  -->
<!DOCTYPE svg PUBLIC "-//W3C//DTD SVG 1.1//EN" "http://www.w3.org/Graphics/SVG/1.1/DTD/svg11.dtd">
<svg version="1.1" id="Layer_1" xmlns="http://www.w3.org/2000/svg" xmlns:xlink="http://www.w3.org/1999/xlink" x="0px" y="0px"
	 width="305.356px" height="215.555px" viewBox="0 0 305.356 215.555" enable-background="new 0 0 305.356 215.555"
	 xml:space="preserve">
<path fill="#8BDC65" d="M281.314,33.742h-86.742c-1.1,0-2.6,0.672-3.33,1.494l-12.135,13.635c-0.732,0.822-0.732,2.167,0,2.988
	l12.135,13.637c0.73,0.821,2.23,1.494,3.33,1.494h86.742c1.1,0,2-0.9,2-2V35.742C283.314,34.642,282.414,33.742,281.314,33.742z
	 M192.314,55.199c-2.67,0-4.834-2.164-4.834-4.834c0-2.669,2.164-4.832,4.834-4.832c2.668,0,4.832,2.163,4.832,4.832
	C197.146,53.035,194.982,55.199,192.314,55.199z"/>
<rect x="204.943" y="43.999" fill="none" width="73.609" height="20.733"/>
<text transform="matrix(1 0 0 1 204.9434 56.8867)" fill="#272C7E" font-family="'Arial-BoldMT'" font-size="18">£66.95 </text>
<g>
	<path fill="none" stroke="#FFBB6A" stroke-width="3" stroke-miterlimit="10" d="M195.314,50.365c-4.133,0-4.133-4-8.266-4
		c-4.131,0-4.131,4-8.264,4s-4.133-4-8.266-4s-4.133,4-8.268,4c-4.133,0-4.133-4-8.266-4c-4.131,0-4.131,4-8.264,4s-4.133-4-8.266-4
		c-4.131,0-4.131,4-8.264,4s-4.133-4-8.267-4c-4.135,0-4.135,4-8.27,4c-4.134,0-4.134-4-8.267-4c-4.137,0-4.137,4-8.273,4
		s-4.137-4-8.272-4"/>
</g>
<g>
	<path fill="#E53543" d="M122.613,47.023c-18.746-11.095-35.215-0.934-35.26-0.902c-1.48,0.461-3,1.234-3,1.234 M85.056,47.023
		L48.034,64.538L20,105.309l23.699,14.406L56,104.562V200h96v-95.438l12.172,15.122l23.603-14.438l-28.05-40.834l-37.104-17.389"/>
	<g>
		<path fill="none" stroke="#000000" stroke-width="2" stroke-linecap="round" stroke-linejoin="round" stroke-miterlimit="10" d="
			M96.619,21.344c0-4.007,3.248-7.254,7.254-7.254s7.254,3.248,7.254,7.254v8.039c0,1.65-1.174,3.664-2.611,4.477l-2.031,1.147
			c-1.436,0.812-2.611,2.657-2.611,4.1s0,2.624,0,2.624"/>
	</g>
	<circle fill="#232323" cx="103.64" cy="48.671" r="1.66"/>
	<polygon fill="#DD0031" points="71.603,199.414 74.704,96.947 77.808,199.414 	"/>
	<polygon fill="#DD0031" points="129.13,199.414 132.234,96.947 135.337,199.414 	"/>
	<g>
		<rect x="55.883" y="100.02" fill="none" width="95.98" height="35.277"/>
		<text transform="matrix(1 0 0 1 93.8975 125.7031)" fill="#FFFFFF" font-family="'ArialMT'" font-size="35.8716">9</text>
	</g>
	<path fill="none" stroke="#DD0031" stroke-width="2" stroke-miterlimit="10" d="M151.83,104.407
		c-1.787-25.933,7.578-39.995,7.578-39.995"/>
	<path fill="none" stroke="#DD0031" stroke-width="2" stroke-miterlimit="10" d="M47.872,64.412c0,0,9.365,14.062,7.577,39.995"/>
	<path fill="#232323" d="M121.261,45.879c-18.744-11.096-33.674-0.426-33.719-0.396c-1.48,0.462-2.486,1.54-2.486,1.54
		s10.475-1.955,18.584-1.955s18.412,1.63,18.412,1.63 M87.552,45.48"/>
	<circle fill="none" cx="103.554" cy="133.935" r="53.669"/>
	<text transform="matrix(0.9014 -0.4329 0.4329 0.9014 76.3931 87.418)"><tspan x="0" y="0" fill="#FFFFFF" font-family="'ArialMT'" font-size="14">F</tspan><tspan x="8.187" y="-0.06" fill="#FFFFFF" font-family="'ArialMT'" font-size="14" rotate="9.116">A</tspan><tspan x="17.069" y="1.399" fill="#FFFFFF" font-family="'ArialMT'" font-size="14" rotate="17.829">L</tspan><tspan x="24.162" y="3.551" fill="#FFFFFF" font-family="'ArialMT'" font-size="14" rotate="26.916">C</tspan><tspan x="32.839" y="7.956" fill="#FFFFFF" font-family="'ArialMT'" font-size="14" rotate="36.892">A</tspan><tspan x="40.046" y="13.231" fill="#FFFFFF" font-family="'ArialMT'" font-size="14" rotate="47.291">O</tspan></text>
</g>
</svg>
