<?xml version="1.0" encoding="utf-8"?>
<!-- Generator: Adobe Illustrator 16.0.0, SVG Export Plug-In . SVG Version: 6.00 Build 0)  -->
<!DOCTYPE svg PUBLIC "-//W3C//DTD SVG 1.1//EN" "http://www.w3.org/Graphics/SVG/1.1/DTD/svg11.dtd">
<svg version="1.1" id="Layer_1" xmlns="http://www.w3.org/2000/svg" xmlns:xlink="http://www.w3.org/1999/xlink" x="0px" y="0px"
	 width="305.356px" height="215.555px" viewBox="0 0 305.356 215.555" enable-background="new 0 0 305.356 215.555"
	 xml:space="preserve">
<path fill="#8BDC65" d="M281.54,30.431h-86.742c-1.1,0-2.6,0.672-3.33,1.494L179.333,45.56c-0.732,0.822-0.732,2.167,0,2.988
	l12.135,13.637c0.73,0.821,2.23,1.494,3.33,1.494h86.742c1.1,0,2-0.9,2-2V32.431C283.54,31.33,282.64,30.431,281.54,30.431z
	 M192.54,51.888c-2.67,0-4.834-2.164-4.834-4.834c0-2.669,2.164-4.832,4.834-4.832c2.668,0,4.832,2.163,4.832,4.832
	C197.372,49.724,195.208,51.888,192.54,51.888z"/>
<rect x="205.169" y="40.688" fill="none" width="73.609" height="20.733"/>
<text transform="matrix(1 0 0 1 205.168 53.5752)" fill="#272C7E" font-family="'Arial-BoldMT'" font-size="18">€135</text>
<g>
	<path fill="none" stroke="#FFBB6A" stroke-width="3" stroke-miterlimit="10" d="M195.54,47.054c-4.133,0-4.133-4-8.266-4
		c-4.131,0-4.131,4-8.264,4s-4.133-4-8.266-4s-4.133,4-8.268,4c-4.133,0-4.133-4-8.266-4c-4.131,0-4.131,4-8.264,4s-4.133-4-8.266-4
		c-4.131,0-4.131,4-8.264,4s-4.133-4-8.268-4s-4.135,4-8.27,4c-4.133,0-4.133-4-8.266-4c-4.137,0-4.137,4-8.273,4s-4.137-4-8.273-4"
		/>
</g>
<g>
	<path fill="#272C7E" d="M122.841,43.934C104.096,32.839,87.626,43,87.582,43.031c-1.48,0.462-3.001,1.235-3.001,1.235
		 M85.284,43.934L48.264,61.448l-28.035,40.771l23.584,14.406L56,101.471V197h96v-95.529l12.285,15.124l23.659-14.439
		l-28.021-40.832l-37.09-17.39"/>
	<g>
		<defs>
			<path id="SVGID_7_" d="M122.841,43.934C104.096,32.839,87.626,43,87.582,43.031c-1.48,0.462-3.001,1.235-3.001,1.235
				 M85.284,43.934L48.264,61.448l-28.035,40.771l23.584,14.406L56,101.471V197h96v-95.529l12.285,15.124l23.659-14.439
				l-28.021-40.832l-37.09-17.39"/>
		</defs>
		<clipPath id="SVGID_2_">
			<use xlink:href="#SVGID_7_"  overflow="visible"/>
		</clipPath>
		<rect x="134" y="39" clip-path="url(#SVGID_2_)" fill="#E53543" width="18" height="165"/>
		<rect x="56" y="39" clip-path="url(#SVGID_2_)" fill="#E53543" width="19" height="165"/>
		<rect x="82" y="39" clip-path="url(#SVGID_2_)" fill="#E53543" width="18" height="165"/>
		<rect x="108" y="39" clip-path="url(#SVGID_2_)" fill="#E53543" width="18" height="165"/>
	</g>
	<g>
		<path fill="none" stroke="#000000" stroke-width="2" stroke-linecap="round" stroke-linejoin="round" stroke-miterlimit="10" d="
			M96.847,18.254c0-4.006,3.247-7.254,7.254-7.254s7.255,3.248,7.255,7.254v8.039c0,1.65-1.176,3.664-2.611,4.476l-2.031,1.148
			c-1.438,0.812-2.612,2.656-2.612,4.099c0,1.443,0,2.624,0,2.624"/>
	</g>
	<circle fill="#E53543" cx="103.869" cy="45.582" r="1.661"/>
	<g>
		<rect x="56.111" y="96.93" fill="none" width="95.979" height="35.277"/>
		<text transform="matrix(1 0 0 1 84.1514 122.6133)" fill="#FFFFFF" font-family="'ArialMT'" font-size="35.8716">11</text>
	</g>
	<path fill="#FFB359" d="M121.81,42.789c-18.746-11.096-33.675-0.427-33.719-0.395c-1.481,0.461-2.488,1.539-2.488,1.539
		s10.476-1.955,18.585-1.955s18.412,1.63,18.412,1.63 M88.1,42.391"/>
	<circle fill="none" cx="104.102" cy="131.392" r="53.669"/>
	<text transform="matrix(0.792 -0.6105 0.6105 0.792 67.3091 91.9502)"><tspan x="0" y="0" fill="#FFFFFF" font-family="'ArialMT'" font-size="14">N</tspan><tspan x="9.702" y="-0.001" fill="#FFFFFF" font-family="'ArialMT'" font-size="14" rotate="9.977">E</tspan><tspan x="18.547" y="1.525" fill="#FFFFFF" font-family="'ArialMT'" font-size="14" rotate="19.525">Y</tspan><tspan x="27.007" y="4.369" fill="#FFFFFF" font-family="'ArialMT'" font-size="14" rotate="30.185">M</tspan><tspan x="36.68" y="10.074" fill="#FFFFFF" font-family="'ArialMT'" font-size="14" rotate="40.874">A</tspan><tspan x="43.502" y="15.889" fill="#FFFFFF" font-family="'ArialMT'" font-size="14" rotate="50.864">R</tspan><tspan x="49.546" y="23.594" fill="#FFFFFF" font-family="'ArialMT'" font-size="14" rotate="58.053"> </tspan><tspan x="51.57" y="26.677" fill="#FFFFFF" font-family="'ArialMT'" font-size="14" rotate="63.666">J</tspan><tspan x="54.676" y="32.565" fill="#FFFFFF" font-family="'ArialMT'" font-size="14" rotate="72.659">R</tspan></text>
</g>
</svg>
