<?xml version="1.0" encoding="utf-8"?>
<!-- Generator: Adobe Illustrator 16.0.0, SVG Export Plug-In . SVG Version: 6.00 Build 0)  -->
<!DOCTYPE svg PUBLIC "-//W3C//DTD SVG 1.1//EN" "http://www.w3.org/Graphics/SVG/1.1/DTD/svg11.dtd">
<svg version="1.1" id="Layer_1" xmlns="http://www.w3.org/2000/svg" xmlns:xlink="http://www.w3.org/1999/xlink" x="0px" y="0px"
	 width="305.357px" height="215.555px" viewBox="0 0 305.357 215.555" enable-background="new 0 0 305.357 215.555"
	 xml:space="preserve">
<g>
	<path fill="#8BDC65" d="M292.029,32.313h-86.742c-1.1,0-2.599,0.673-3.33,1.494l-12.135,13.636c-0.731,0.822-0.731,2.166,0,2.988
		l12.135,13.636c0.731,0.821,2.23,1.494,3.33,1.494h86.742c1.1,0,2-0.899,2-2V34.313C294.029,33.213,293.129,32.313,292.029,32.313z
		 M203.029,53.771c-2.669,0-4.833-2.163-4.833-4.833s2.164-4.833,4.833-4.833s4.833,2.163,4.833,4.833
		S205.698,53.771,203.029,53.771z"/>
	<rect x="215.658" y="42.57" fill="none" width="73.609" height="20.734"/>
	<text transform="matrix(1 0 0 1 215.6582 55.459)" fill="#272C7E" font-family="'Arial-BoldMT'" font-size="18">£89.95 </text>
	<g>
		<path fill="none" stroke="#FFBB6A" stroke-width="3" stroke-miterlimit="10" d="M206.029,48.938c-4.133,0-4.133-4-8.265-4
			s-4.132,4-8.265,4s-4.133-4-8.266-4s-4.133,4-8.267,4c-4.133,0-4.133-4-8.266-4c-4.132,0-4.132,4-8.265,4s-4.133-4-8.265-4
			s-4.132,4-8.265,4s-4.133-4-8.267-4c-4.135,0-4.135,4-8.27,4c-4.134,0-4.134-4-8.267-4c-4.137,0-4.137,4-8.273,4s-4.137-4-8.272-4
			"/>
	</g>
</g>
<path fill="#DD0031" d="M70.225,64.047c0-9.759,10.016-18.133,24.289-21.711c4.758-1.191,9.988,8.965,15.479,8.965
	c4.566,0,8.951-10.359,13.035-9.521c15.562,3.197,26.734,11.96,26.734,22.267c0,13.013-17.805,23.562-39.77,23.562
	C88.029,87.609,70.225,77.06,70.225,64.047z"/>
<polyline fill="#DD0031" points="55.936,69.83 91.742,52.891 91.742,34.704 109.449,57.791 127.125,34.704 127.125,52.883 
	128.096,52.883 163.99,69.709 199.867,124.848 154.873,178.924 139.732,160.754 168.371,123.189 156.66,108.557 156.66,200.988 
	63.213,200.988 63.213,108.557 "/>
<polyline fill="#DD0031" points="56.033,69.355 20.158,124.493 65.15,178.57 80.293,160.4 51.652,122.835 63.365,108.203 
	63.365,200.635 156.811,200.635 156.811,108.203 "/>
<path fill="#B0C7C7" stroke="#FFFFFF" stroke-miterlimit="10" d="M110.576,57.437"/>
<g>
	<path fill="none" stroke="#000000" stroke-width="2" stroke-linecap="round" stroke-linejoin="round" stroke-miterlimit="10" d="
		M102.918,21.587c0-3.877,3.141-7.02,7.018-7.02s7.02,3.143,7.02,7.02v7.681c0,1.65-1.176,3.664-2.611,4.476l-1.797,1.016
		c-1.436,0.812-2.611,2.618-2.611,4.015c0,1.396,0,2.538,0,2.538"/>
</g>
<polygon fill="#E53543" points="76.561,200.133 79.562,110.506 82.564,200.133 "/>
<polygon fill="#E53543" points="133.088,200.133 136.092,110.506 139.094,200.133 "/>
<path fill="none" stroke="#E43443" stroke-miterlimit="10" d="M163.896,70.022c0,0-9.062,13.606-7.33,38.698"/>
<path fill="none" stroke="#E43443" stroke-miterlimit="10" d="M55.977,70.022c0,0,9.062,13.606,7.332,38.698"/>
<path fill="#E53543" d="M127.99,34.35v18.18h0.105l6.746,3.162l0,0l-9.521,24.674H94.367l-9.488-24.582l6.863-3.247V34.35
	c0,0,9.656,7.434,18.008,7.434S127.99,34.35,127.99,34.35z"/>
<line fill="none" stroke="#E53543" stroke-width="2" stroke-miterlimit="10" x1="109.936" y1="200.988" x2="109.936" y2="43.514"/>
<rect x="76.119" y="91.371" fill="none" width="21.736" height="20.229"/>
<text transform="matrix(1 0 0 1 79.8711 97.5664)" fill="#FFFFFF" font-family="'ArialMT'" font-size="8.6524">PG</text>
<line fill="none" stroke="#FFFFFF" stroke-miterlimit="10" x1="107.285" y1="48.272" x2="112.26" y2="48.272"/>
<line fill="none" stroke="#FFFFFF" stroke-miterlimit="10" x1="107.285" y1="53.031" x2="112.26" y2="53.031"/>
<line fill="none" stroke="#FFFFFF" stroke-miterlimit="10" x1="107.285" y1="57.791" x2="112.26" y2="57.791"/>
<line fill="none" stroke="#FFFFFF" stroke-miterlimit="10" x1="107.285" y1="62.549" x2="112.26" y2="62.549"/>
<line fill="none" stroke="#FFFFFF" stroke-miterlimit="10" x1="107.285" y1="67.309" x2="112.26" y2="67.309"/>
<line fill="none" stroke="#FFFFFF" stroke-miterlimit="10" x1="107.285" y1="72.066" x2="112.26" y2="72.066"/>
<line fill="none" stroke="#FFFFFF" stroke-miterlimit="10" x1="107.285" y1="76.826" x2="112.26" y2="76.826"/>
<line fill="none" stroke="#FFFFFF" stroke-miterlimit="10" x1="107.285" y1="81.43" x2="112.26" y2="81.43"/>
<line fill="none" stroke="#FFFFFF" stroke-miterlimit="10" x1="107.285" y1="86.344" x2="112.26" y2="86.344"/>
<line fill="none" stroke="#FFFFFF" stroke-miterlimit="10" x1="107.285" y1="91.102" x2="112.26" y2="91.102"/>
<line fill="none" stroke="#FFFFFF" stroke-miterlimit="10" x1="107.285" y1="95.861" x2="112.26" y2="95.861"/>
<line fill="none" stroke="#FFFFFF" stroke-miterlimit="10" x1="107.285" y1="100.619" x2="112.26" y2="100.619"/>
<line fill="none" stroke="#FFFFFF" stroke-miterlimit="10" x1="107.285" y1="105.379" x2="112.26" y2="105.379"/>
<line fill="none" stroke="#FFFFFF" stroke-miterlimit="10" x1="107.285" y1="110.137" x2="112.26" y2="110.137"/>
<line fill="none" stroke="#FFFFFF" stroke-miterlimit="10" x1="107.285" y1="114.896" x2="112.26" y2="114.896"/>
<line fill="none" stroke="#FFFFFF" stroke-miterlimit="10" x1="107.285" y1="119.655" x2="112.26" y2="119.655"/>
<line fill="none" stroke="#FFFFFF" stroke-miterlimit="10" x1="107.285" y1="124.414" x2="112.26" y2="124.414"/>
<line fill="none" stroke="#FFFFFF" stroke-miterlimit="10" x1="107.285" y1="129.174" x2="112.26" y2="129.174"/>
<line fill="none" stroke="#FFFFFF" stroke-miterlimit="10" x1="107.285" y1="133.932" x2="112.26" y2="133.932"/>
<line fill="none" stroke="#FFFFFF" stroke-miterlimit="10" x1="107.285" y1="138.691" x2="112.26" y2="138.691"/>
<line fill="none" stroke="#FFFFFF" stroke-miterlimit="10" x1="107.285" y1="143.449" x2="112.26" y2="143.449"/>
<line fill="none" stroke="#FFFFFF" stroke-miterlimit="10" x1="107.285" y1="148.209" x2="112.26" y2="148.209"/>
<line fill="none" stroke="#FFFFFF" stroke-miterlimit="10" x1="107.285" y1="152.967" x2="112.26" y2="152.967"/>
<line fill="none" stroke="#FFFFFF" stroke-miterlimit="10" x1="107.285" y1="157.727" x2="112.26" y2="157.727"/>
<line fill="none" stroke="#FFFFFF" stroke-miterlimit="10" x1="107.285" y1="162.484" x2="112.26" y2="162.484"/>
<line fill="none" stroke="#FFFFFF" stroke-miterlimit="10" x1="107.285" y1="167.244" x2="112.26" y2="167.244"/>
<line fill="none" stroke="#FFFFFF" stroke-miterlimit="10" x1="107.285" y1="172.002" x2="112.26" y2="172.002"/>
<line fill="none" stroke="#FFFFFF" stroke-miterlimit="10" x1="107.285" y1="176.762" x2="112.26" y2="176.762"/>
<line fill="none" stroke="#FFFFFF" stroke-miterlimit="10" x1="107.285" y1="181.52" x2="112.26" y2="181.52"/>
<line fill="none" stroke="#FFFFFF" stroke-miterlimit="10" x1="107.285" y1="186.279" x2="112.26" y2="186.279"/>
<line fill="none" stroke="#FFFFFF" stroke-miterlimit="10" x1="107.285" y1="191.222" x2="112.26" y2="191.222"/>
<line fill="none" stroke="#FFFFFF" stroke-miterlimit="10" x1="107.285" y1="195.981" x2="112.26" y2="195.981"/>
<circle fill="#E53543" cx="136.09" cy="94.562" r="4.424"/>
<polygon fill="#DD0031" points="70.262,63.053 94.367,80.365 83.635,51.301 "/>
<polygon fill="#DD0031" points="149.762,63.039 125.32,80.365 136.092,51.301 "/>
</svg>
